<svg width="37" height="38" viewBox="0 0 37 38" fill="none" xmlns="http://www.w3.org/2000/svg">
<rect x="8" y="36" width="2" height="2" fill="#BC3800"/>
<rect x="8" y="34" width="2" height="2" fill="#BC3800"/>
<rect x="8" y="32" width="2" height="2" fill="#BC3800"/>
<rect x="8" y="30" width="2" height="2" fill="#FFB4B1"/>
<rect x="10" y="36" width="2" height="2" fill="#BC3800"/>
<rect x="10" y="34" width="2" height="2" fill="#BC3800"/>
<rect x="10" y="32" width="2" height="2" fill="#BC3800"/>
<rect x="10" y="30" width="2" height="2" fill="#FF6B00"/>
<rect x="10" y="28" width="2" height="2" fill="#FF6B00"/>
<rect x="12" y="36" width="2" height="2" fill="#BC3800"/>
<rect x="12" y="34" width="2" height="2" fill="#FF6B00"/>
<rect x="12" y="32" width="2" height="2" fill="#FF6B00"/>
<rect x="12" y="30" width="2" height="2" fill="#BC3800"/>
<rect x="12" y="28" width="2" height="2" fill="#FF6B00"/>
<rect x="14" y="36" width="2" height="2" fill="#BC3800"/>
<rect x="14" y="34" width="2" height="2" fill="#FF6B00"/>
<rect x="14" y="32" width="2" height="2" fill="#FF6B00"/>
<rect x="14" y="30" width="2" height="2" fill="#BC3800"/>
<rect x="14" y="26" width="2" height="2" fill="#FF6B00"/>
<rect x="12" y="22" width="2" height="2" fill="#FF6B00"/>
<rect x="12" y="20" width="2" height="2" fill="#FF6B00"/>
<rect x="10" y="18" width="2" height="2" fill="#FF6B00"/>
<rect x="10" y="16" width="2" height="2" fill="#FF6B00"/>
<rect x="8" y="14" width="2" height="2" fill="#FF6B00"/>
<rect x="6" y="14" width="2" height="2" fill="#FF6B00"/>
<rect x="16" y="22" width="2" height="2" fill="#FF6B00"/>
<rect x="16" y="24" width="2" height="2" fill="#BC3800"/>
<rect x="16" y="26" width="2" height="2" fill="#BC3800"/>
<rect x="16" y="28" width="2" height="2" fill="#BC3800"/>
<rect x="18" y="22" width="2" height="2" fill="#BC3800"/>
<rect x="16" y="18" width="2" height="2" fill="#FF6B00"/>
<rect x="18" y="18" width="2" height="2" fill="#FF0700"/>
<rect x="14" y="14" width="2" height="2" fill="#FF6B00"/>
<rect x="14" y="10" width="2" height="2" fill="#FF6B00"/>
<rect x="12" y="6" width="2" height="2" fill="#FFB4B1"/>
<rect x="12" y="2" width="2" height="2" fill="#FFB4B1"/>
<rect x="14" y="28" width="2" height="2" fill="#FF6B00"/>
<rect x="14" y="24" width="2" height="2" fill="#FF6B00"/>
<rect x="16" y="20" width="2" height="2" fill="#FF6B00"/>
<rect x="18" y="20" width="2" height="2" fill="#FF0700"/>
<rect x="16" y="16" width="2" height="2" fill="#FF6B00"/>
<rect x="14" y="12" width="2" height="2" fill="#FF6B00"/>
<rect x="14" y="8" width="2" height="2" fill="#FF6B00"/>
<rect x="12" y="4" width="2" height="2" fill="#FFB4B1"/>
<rect x="12" width="2" height="2" fill="#FFB4B1"/>
<rect x="16" y="36" width="2" height="2" fill="#BC3800"/>
<rect x="16" y="34" width="2" height="2" fill="#BC3800"/>
<rect x="16" y="32" width="2" height="2" fill="#FF6B00"/>
<rect x="18" y="36" width="2" height="2" fill="#BC3800"/>
<rect x="18" y="34" width="2" height="2" fill="#BC3800"/>
<rect x="18" y="32" width="2" height="2" fill="#FF6B00"/>
<rect x="18" y="30" width="2" height="2" fill="#FF6B00"/>
<rect x="20" y="26" width="2" height="2" fill="#FF0700"/>
<rect x="20" y="24" width="2" height="2" fill="#FF6B00"/>
<rect x="20" y="36" width="2" height="2" fill="#BC3800"/>
<rect x="20" y="34" width="2" height="2" fill="#BC3800"/>
<rect x="20" y="32" width="2" height="2" fill="#BC3800"/>
<rect x="20" y="30" width="2" height="2" fill="#BC3800"/>
<rect x="20" y="28" width="2" height="2" fill="#BC3800"/>
<rect x="22" y="26" width="2" height="2" fill="#BC3800"/>
<rect x="22" y="24" width="2" height="2" fill="#FF0700"/>
<rect x="22" y="22" width="2" height="2" fill="#FF0700"/>
<rect x="22" y="20" width="2" height="2" fill="#FF0700"/>
<rect x="22" y="18" width="2" height="2" fill="#FF0700"/>
<rect x="22" y="16" width="2" height="2" fill="#FF6B00"/>
<rect x="20" y="14" width="2" height="2" fill="#FF6B00"/>
<rect x="18" y="12" width="2" height="2" fill="#FF6B00"/>
<rect x="18" y="10" width="2" height="2" fill="#FF6B00"/>
<rect x="18" y="8" width="2" height="2" fill="#FFB4B1"/>
<rect x="20" y="6" width="2" height="2" fill="#FF6B00"/>
<rect x="20" y="4" width="2" height="2" fill="#FFB4B1"/>
<rect x="22" y="36" width="2" height="2" fill="#BC3800"/>
<rect x="22" y="34" width="2" height="2" fill="#BC3800"/>
<rect x="24" y="36" width="2" height="2" fill="#BC3800"/>
<rect x="24" y="34" width="2" height="2" fill="#BC3800"/>
<rect x="24" y="32" width="2" height="2" fill="#BC3800"/>
<rect x="26" y="28" width="2" height="2" fill="#FF6B00"/>
<rect x="28" y="26" width="2" height="2" fill="#FF6B00"/>
<rect x="24" y="30" width="2" height="2" fill="#FF6B00"/>
<rect x="26" y="26" width="2" height="2" fill="#FF6B00"/>
<rect x="28" y="24" width="2" height="2" fill="#FF6B00"/>
<rect x="28" y="20" width="2" height="2" fill="#FF6B00"/>
<rect x="26" y="20" width="2" height="2" fill="#FF6B00"/>
<rect x="24" y="28" width="2" height="2" fill="#FF6B00"/>
<rect x="26" y="24" width="2" height="2" fill="#FF6B00"/>
<rect x="28" y="22" width="2" height="2" fill="#FF6B00"/>
<rect x="26" y="22" width="2" height="2" fill="#FF6B00"/>
<rect x="28" y="18" width="2" height="2" fill="#FF6B00"/>
<rect x="26" y="18" width="2" height="2" fill="#FF6B00"/>
<rect x="28" y="16" width="2" height="2" fill="#FF6B00"/>
<rect x="28" y="14" width="2" height="2" fill="#FFB4B1"/>
<rect x="30" y="12" width="2" height="2" fill="#FFB4B1"/>
<rect x="32" y="12" width="2" height="2" fill="#FFB4B1"/>
<rect x="34" y="14" width="2" height="2" fill="#FF6B00"/>
</svg>
