<svg width="70" height="34" viewBox="0 0 70 34" fill="none" xmlns="http://www.w3.org/2000/svg">
<rect width="2" height="2" transform="matrix(-1 0 0 1 70 32)" fill="#FFF2E2"/>
<rect width="2" height="2" transform="matrix(-1 0 0 1 68 32)" fill="#FFF2E2"/>
<rect width="2" height="2" transform="matrix(-1 0 0 1 66 32)" fill="#F3DFC6"/>
<rect width="2" height="2" transform="matrix(-1 0 0 1 64 32)" fill="#F3DFC6"/>
<rect width="2" height="2" transform="matrix(-1 0 0 1 68 30)" fill="#FFF2E2"/>
<rect width="2" height="2" transform="matrix(-1 0 0 1 66 30)" fill="#FFF2E2"/>
<rect width="2" height="2" transform="matrix(-1 0 0 1 64 30)" fill="#F3DFC6"/>
<rect width="2" height="2" transform="matrix(-1 0 0 1 62 30)" fill="#F3DFC6"/>
<rect width="2" height="2" transform="matrix(-1 0 0 1 66 28)" fill="#FFF2E2"/>
<rect width="2" height="2" transform="matrix(-1 0 0 1 64 28)" fill="#FFF2E2"/>
<rect width="2" height="2" transform="matrix(-1 0 0 1 62 28)" fill="#F3DFC6"/>
<rect width="2" height="2" transform="matrix(-1 0 0 1 60 28)" fill="#F3DFC6"/>
<rect width="2" height="2" transform="matrix(-1 0 0 1 64 26)" fill="#FFF2E2"/>
<rect width="2" height="2" transform="matrix(-1 0 0 1 62 26)" fill="#FFF2E2"/>
<rect width="2" height="2" transform="matrix(-1 0 0 1 60 26)" fill="#F3DFC6"/>
<rect width="2" height="2" transform="matrix(-1 0 0 1 58 26)" fill="#F3DFC6"/>
<rect width="2" height="2" transform="matrix(-1 0 0 1 62 24)" fill="#FFF2E2"/>
<rect width="2" height="2" transform="matrix(-1 0 0 1 60 24)" fill="#FFF2E2"/>
<rect width="2" height="2" transform="matrix(-1 0 0 1 58 24)" fill="#F3DFC6"/>
<rect width="2" height="2" transform="matrix(-1 0 0 1 56 24)" fill="#F3DFC6"/>
<rect width="2" height="2" transform="matrix(-1 0 0 1 60 22)" fill="#FFF2E2"/>
<rect width="2" height="2" transform="matrix(-1 0 0 1 58 22)" fill="#FFF2E2"/>
<rect width="2" height="2" transform="matrix(-1 0 0 1 56 22)" fill="#F3DFC6"/>
<rect width="2" height="2" transform="matrix(-1 0 0 1 54 22)" fill="#F3DFC6"/>
<rect width="2" height="2" transform="matrix(-1 0 0 1 58 20)" fill="#FFF2E2"/>
<rect width="2" height="2" transform="matrix(-1 0 0 1 56 20)" fill="#FFF2E2"/>
<rect width="2" height="2" transform="matrix(-1 0 0 1 54 20)" fill="#F3DFC6"/>
<rect width="2" height="2" transform="matrix(-1 0 0 1 52 20)" fill="#F3DFC6"/>
<rect width="2" height="2" transform="matrix(-1 0 0 1 56 18)" fill="#FFF2E2"/>
<rect width="2" height="2" transform="matrix(-1 0 0 1 54 18)" fill="#FFF2E2"/>
<rect width="2" height="2" transform="matrix(-1 0 0 1 52 18)" fill="#F3DFC6"/>
<rect width="2" height="2" transform="matrix(-1 0 0 1 50 18)" fill="#F3DFC6"/>
<rect width="2" height="2" transform="matrix(-1 0 0 1 54 16)" fill="#FFF2E2"/>
<rect width="2" height="2" transform="matrix(-1 0 0 1 52 16)" fill="#FFF2E2"/>
<rect width="2" height="2" transform="matrix(-1 0 0 1 50 16)" fill="#F3DFC6"/>
<rect width="2" height="2" transform="matrix(-1 0 0 1 48 16)" fill="#F3DFC6"/>
<rect width="2" height="2" transform="matrix(-1 0 0 1 52 14)" fill="#FFF2E2"/>
<rect width="2" height="2" transform="matrix(-1 0 0 1 50 14)" fill="#FFF2E2"/>
<rect width="2" height="2" transform="matrix(-1 0 0 1 48 14)" fill="#F3DFC6"/>
<rect width="2" height="2" transform="matrix(-1 0 0 1 46 18)" fill="#E7CFB2"/>
<rect width="2" height="2" transform="matrix(-1 0 0 1 48 18)" fill="#CEB391"/>
<rect width="2" height="2" transform="matrix(-1 0 0 1 44 20)" fill="#E7CFB2"/>
<rect width="2" height="2" transform="matrix(-1 0 0 1 46 20)" fill="#CEB391"/>
<rect width="2" height="2" transform="matrix(-1 0 0 1 42 22)" fill="#E7CFB2"/>
<rect width="2" height="2" transform="matrix(-1 0 0 1 44 22)" fill="#CEB391"/>
<rect width="2" height="2" transform="matrix(-1 0 0 1 40 24)" fill="#E7CFB2"/>
<rect width="2" height="2" transform="matrix(-1 0 0 1 42 24)" fill="#CEB391"/>
<rect width="2" height="2" transform="matrix(-1 0 0 1 38 26)" fill="#E7CFB2"/>
<rect width="2" height="2" transform="matrix(-1 0 0 1 40 26)" fill="#CEB391"/>
<rect width="2" height="2" transform="matrix(-1 0 0 1 36 28)" fill="#E7CFB2"/>
<rect width="2" height="2" transform="matrix(-1 0 0 1 38 28)" fill="#CEB391"/>
<rect width="2" height="2" transform="matrix(-1 0 0 1 34 30)" fill="#E7CFB2"/>
<rect width="2" height="2" transform="matrix(-1 0 0 1 36 30)" fill="#CEB391"/>
<rect width="2" height="2" transform="matrix(-1 0 0 1 32 32)" fill="#E7CFB2"/>
<rect width="2" height="2" transform="matrix(-1 0 0 1 34 32)" fill="#CEB391"/>
<rect width="2" height="2" transform="matrix(-1 0 0 1 46 14)" fill="#F3DFC6"/>
<rect width="2" height="2" transform="matrix(-1 0 0 1 50 12)" fill="#FFF2E2"/>
<rect width="2" height="2" transform="matrix(-1 0 0 1 48 12)" fill="#FFF2E2"/>
<rect width="2" height="2" transform="matrix(-1 0 0 1 46 12)" fill="#F3DFC6"/>
<rect width="2" height="2" transform="matrix(-1 0 0 1 44 12)" fill="#F3DFC6"/>
<rect width="2" height="2" transform="matrix(-1 0 0 1 48 10)" fill="#FFF2E2"/>
<rect width="2" height="2" transform="matrix(-1 0 0 1 46 10)" fill="#FFF2E2"/>
<rect width="2" height="2" transform="matrix(-1 0 0 1 44 10)" fill="#F3DFC6"/>
<rect width="2" height="2" transform="matrix(-1 0 0 1 42 10)" fill="#F3DFC6"/>
<rect width="2" height="2" transform="matrix(-1 0 0 1 46 8)" fill="#FFF2E2"/>
<rect width="2" height="2" transform="matrix(-1 0 0 1 44 8)" fill="#FFF2E2"/>
<rect width="2" height="2" transform="matrix(-1 0 0 1 42 8)" fill="#F3DFC6"/>
<rect width="2" height="2" transform="matrix(-1 0 0 1 40 8)" fill="#F3DFC6"/>
<rect width="2" height="2" transform="matrix(-1 0 0 1 44 6)" fill="#FFF2E2"/>
<rect width="2" height="2" transform="matrix(-1 0 0 1 42 6)" fill="#FFF2E2"/>
<rect width="2" height="2" transform="matrix(-1 0 0 1 40 6)" fill="#F3DFC6"/>
<rect width="2" height="2" transform="matrix(-1 0 0 1 38 6)" fill="#F3DFC6"/>
<rect width="2" height="2" transform="matrix(-1 0 0 1 42 4)" fill="#FFF2E2"/>
<rect width="2" height="2" transform="matrix(-1 0 0 1 40 4)" fill="#FFF2E2"/>
<rect width="2" height="2" transform="matrix(-1 0 0 1 38 4)" fill="#F3DFC6"/>
<rect width="2" height="2" transform="matrix(-1 0 0 1 36 4)" fill="#F3DFC6"/>
<rect width="2" height="2" transform="matrix(-1 0 0 1 40 2)" fill="#FFF2E2"/>
<rect width="2" height="2" transform="matrix(-1 0 0 1 38 2)" fill="#FFF2E2"/>
<rect width="2" height="2" transform="matrix(-1 0 0 1 36 2)" fill="#F3DFC6"/>
<rect width="2" height="2" transform="matrix(-1 0 0 1 34 2)" fill="#F3DFC6"/>
<rect width="2" height="2" transform="matrix(-1 0 0 1 38 0)" fill="#FFF2E2"/>
<rect width="2" height="2" transform="matrix(-1 0 0 1 36 0)" fill="#FFF2E2"/>
<rect width="2" height="2" transform="matrix(-1 0 0 1 34 0)" fill="#F3DFC6"/>
<rect width="2" height="2" transform="matrix(-1 0 0 1 32 0)" fill="#F3DFC6"/>
<rect width="2" height="2" transform="matrix(-1 0 0 1 40 32)" fill="#FFF2E2"/>
<rect width="2" height="2" transform="matrix(-1 0 0 1 38 32)" fill="#FFF2E2"/>
<rect width="2" height="2" transform="matrix(-1 0 0 1 36 32)" fill="#F3DFC6"/>
<rect width="2" height="2" transform="matrix(-1 0 0 1 34 32)" fill="#F3DFC6"/>
<rect width="2" height="2" transform="matrix(-1 0 0 1 38 30)" fill="#FFF2E2"/>
<rect width="2" height="2" transform="matrix(-1 0 0 1 36 30)" fill="#FFF2E2"/>
<rect width="2" height="2" transform="matrix(-1 0 0 1 34 30)" fill="#F3DFC6"/>
<rect width="2" height="2" transform="matrix(-1 0 0 1 32 30)" fill="#F3DFC6"/>
<rect width="2" height="2" transform="matrix(-1 0 0 1 36 28)" fill="#FFF2E2"/>
<rect width="2" height="2" transform="matrix(-1 0 0 1 34 28)" fill="#FFF2E2"/>
<rect width="2" height="2" transform="matrix(-1 0 0 1 32 28)" fill="#F3DFC6"/>
<rect width="2" height="2" transform="matrix(-1 0 0 1 30 28)" fill="#F3DFC6"/>
<rect width="2" height="2" transform="matrix(-1 0 0 1 34 26)" fill="#FFF2E2"/>
<rect width="2" height="2" transform="matrix(-1 0 0 1 32 26)" fill="#FFF2E2"/>
<rect width="2" height="2" transform="matrix(-1 0 0 1 30 26)" fill="#F3DFC6"/>
<rect width="2" height="2" transform="matrix(-1 0 0 1 28 26)" fill="#F3DFC6"/>
<rect width="2" height="2" transform="matrix(-1 0 0 1 32 24)" fill="#FFF2E2"/>
<rect width="2" height="2" transform="matrix(-1 0 0 1 30 24)" fill="#FFF2E2"/>
<rect width="2" height="2" transform="matrix(-1 0 0 1 28 24)" fill="#F3DFC6"/>
<rect width="2" height="2" transform="matrix(-1 0 0 1 26 24)" fill="#F3DFC6"/>
<rect width="2" height="2" transform="matrix(-1 0 0 1 30 22)" fill="#FFF2E2"/>
<rect width="2" height="2" transform="matrix(-1 0 0 1 28 22)" fill="#FFF2E2"/>
<rect width="2" height="2" transform="matrix(-1 0 0 1 26 22)" fill="#F3DFC6"/>
<rect width="2" height="2" transform="matrix(-1 0 0 1 24 22)" fill="#F3DFC6"/>
<rect width="2" height="2" transform="matrix(-1 0 0 1 28 20)" fill="#FFF2E2"/>
<rect width="2" height="2" transform="matrix(-1 0 0 1 26 20)" fill="#FFF2E2"/>
<rect width="2" height="2" transform="matrix(-1 0 0 1 24 20)" fill="#F3DFC6"/>
<rect width="2" height="2" transform="matrix(-1 0 0 1 22 20)" fill="#F3DFC6"/>
<rect width="2" height="2" transform="matrix(-1 0 0 1 26 18)" fill="#FFF2E2"/>
<rect width="2" height="2" transform="matrix(-1 0 0 1 24 18)" fill="#FFF2E2"/>
<rect width="2" height="2" transform="matrix(-1 0 0 1 22 18)" fill="#F3DFC6"/>
<rect width="2" height="2" transform="matrix(-1 0 0 1 20 18)" fill="#F3DFC6"/>
<rect width="2" height="2" transform="matrix(-1 0 0 1 24 16)" fill="#FFF2E2"/>
<rect width="2" height="2" transform="matrix(-1 0 0 1 22 16)" fill="#FFF2E2"/>
<rect width="2" height="2" transform="matrix(-1 0 0 1 20 16)" fill="#F3DFC6"/>
<rect width="2" height="2" transform="matrix(-1 0 0 1 18 16)" fill="#F3DFC6"/>
<rect width="2" height="2" transform="matrix(-1 0 0 1 22 14)" fill="#FFF2E2"/>
<rect width="2" height="2" transform="matrix(-1 0 0 1 20 14)" fill="#FFF2E2"/>
<rect width="2" height="2" transform="matrix(-1 0 0 1 18 14)" fill="#F3DFC6"/>
<rect width="2" height="2" transform="matrix(-1 0 0 1 16 18)" fill="#E7CFB2"/>
<rect width="2" height="2" transform="matrix(-1 0 0 1 18 18)" fill="#CEB391"/>
<rect width="2" height="2" transform="matrix(-1 0 0 1 14 20)" fill="#E7CFB2"/>
<rect width="2" height="2" transform="matrix(-1 0 0 1 16 20)" fill="#CEB391"/>
<rect width="2" height="2" transform="matrix(-1 0 0 1 12 22)" fill="#E7CFB2"/>
<rect width="2" height="2" transform="matrix(-1 0 0 1 14 22)" fill="#CEB391"/>
<rect width="2" height="2" transform="matrix(-1 0 0 1 10 24)" fill="#E7CFB2"/>
<rect width="2" height="2" transform="matrix(-1 0 0 1 12 24)" fill="#CEB391"/>
<rect width="2" height="2" transform="matrix(-1 0 0 1 8 26)" fill="#E7CFB2"/>
<rect width="2" height="2" transform="matrix(-1 0 0 1 10 26)" fill="#CEB391"/>
<rect width="2" height="2" transform="matrix(-1 0 0 1 6 28)" fill="#E7CFB2"/>
<rect width="2" height="2" transform="matrix(-1 0 0 1 8 28)" fill="#CEB391"/>
<rect width="2" height="2" transform="matrix(-1 0 0 1 4 30)" fill="#E7CFB2"/>
<rect width="2" height="2" transform="matrix(-1 0 0 1 6 30)" fill="#CEB391"/>
<rect width="2" height="2" transform="matrix(-1 0 0 1 2 32)" fill="#E7CFB2"/>
<rect width="2" height="2" transform="matrix(-1 0 0 1 4 32)" fill="#CEB391"/>
<rect width="2" height="2" transform="matrix(-1 0 0 1 16 14)" fill="#F3DFC6"/>
<rect width="2" height="2" transform="matrix(-1 0 0 1 20 12)" fill="#FFF2E2"/>
<rect width="2" height="2" transform="matrix(-1 0 0 1 18 12)" fill="#FFF2E2"/>
<rect width="2" height="2" transform="matrix(-1 0 0 1 16 12)" fill="#F3DFC6"/>
<rect width="2" height="2" transform="matrix(-1 0 0 1 14 12)" fill="#F3DFC6"/>
<rect width="2" height="2" transform="matrix(-1 0 0 1 18 10)" fill="#FFF2E2"/>
<rect width="2" height="2" transform="matrix(-1 0 0 1 16 10)" fill="#FFF2E2"/>
<rect width="2" height="2" transform="matrix(-1 0 0 1 14 10)" fill="#F3DFC6"/>
<rect width="2" height="2" transform="matrix(-1 0 0 1 12 10)" fill="#F3DFC6"/>
<rect width="2" height="2" transform="matrix(-1 0 0 1 16 8)" fill="#FFF2E2"/>
<rect width="2" height="2" transform="matrix(-1 0 0 1 14 8)" fill="#FFF2E2"/>
<rect width="2" height="2" transform="matrix(-1 0 0 1 12 8)" fill="#F3DFC6"/>
<rect width="2" height="2" transform="matrix(-1 0 0 1 10 8)" fill="#F3DFC6"/>
<rect width="2" height="2" transform="matrix(-1 0 0 1 14 6)" fill="#FFF2E2"/>
<rect width="2" height="2" transform="matrix(-1 0 0 1 12 6)" fill="#FFF2E2"/>
<rect width="2" height="2" transform="matrix(-1 0 0 1 10 6)" fill="#F3DFC6"/>
<rect width="2" height="2" transform="matrix(-1 0 0 1 8 6)" fill="#F3DFC6"/>
<rect width="2" height="2" transform="matrix(-1 0 0 1 12 4)" fill="#FFF2E2"/>
<rect width="2" height="2" transform="matrix(-1 0 0 1 10 4)" fill="#FFF2E2"/>
<rect width="2" height="2" transform="matrix(-1 0 0 1 8 4)" fill="#F3DFC6"/>
<rect width="2" height="2" transform="matrix(-1 0 0 1 6 4)" fill="#F3DFC6"/>
<rect width="2" height="2" transform="matrix(-1 0 0 1 10 2)" fill="#FFF2E2"/>
<rect width="2" height="2" transform="matrix(-1 0 0 1 8 2)" fill="#FFF2E2"/>
<rect width="2" height="2" transform="matrix(-1 0 0 1 6 2)" fill="#F3DFC6"/>
<rect width="2" height="2" transform="matrix(-1 0 0 1 4 2)" fill="#F3DFC6"/>
<rect width="2" height="2" transform="matrix(-1 0 0 1 8 0)" fill="#FFF2E2"/>
<rect width="2" height="2" transform="matrix(-1 0 0 1 6 0)" fill="#FFF2E2"/>
<rect width="2" height="2" transform="matrix(-1 0 0 1 4 0)" fill="#F3DFC6"/>
<rect width="2" height="2" transform="matrix(-1 0 0 1 2 0)" fill="#F3DFC6"/>
<rect width="2" height="2" transform="matrix(-1 0 0 1 42 12)" fill="#228DF4"/>
<rect width="2" height="2" transform="matrix(-1 0 0 1 44 14)" fill="#228DF4"/>
<rect width="2" height="2" transform="matrix(-1 0 0 1 46 16)" fill="#228DF4"/>
<rect width="2" height="2" transform="matrix(-1 0 0 1 48 18)" fill="#228DF4"/>
<rect width="2" height="2" transform="matrix(-1 0 0 1 50 20)" fill="#A9CFF3"/>
<rect width="2" height="2" transform="matrix(-1 0 0 1 54 20)" fill="#FFF6F5"/>
<rect width="2" height="2" transform="matrix(-1 0 0 1 58 20)" fill="#A9CFF3"/>
<rect width="2" height="2" transform="matrix(-1 0 0 1 52 22)" fill="#56A0E7"/>
<rect width="2" height="2" transform="matrix(-1 0 0 1 54 22)" fill="#FFF6F5"/>
<rect width="2" height="2" transform="matrix(-1 0 0 1 56 22)" fill="#FFF6F5"/>
<rect width="2" height="2" transform="matrix(-1 0 0 1 58 22)" fill="#56A0E7"/>
<rect width="2" height="2" transform="matrix(-1 0 0 1 60 20)" fill="#A9CFF3"/>
<rect width="2" height="2" transform="matrix(-1 0 0 1 60 22)" fill="#228DF4"/>
<rect width="2" height="2" transform="matrix(-1 0 0 1 58 24)" fill="#228DF4"/>
<rect width="2" height="2" transform="matrix(-1 0 0 1 56 24)" fill="#228DF4"/>
<rect width="2" height="2" transform="matrix(-1 0 0 1 54 24)" fill="#FFF6F5"/>
<rect width="2" height="2" transform="matrix(-1 0 0 1 52 24)" fill="#FFF6F5"/>
<rect width="2" height="2" transform="matrix(-1 0 0 1 50 24)" fill="#228DF4"/>
<rect width="2" height="2" transform="matrix(-1 0 0 1 48 24)" fill="#228DF4"/>
<rect width="2" height="2" transform="matrix(-1 0 0 1 46 24)" fill="#FFF6F5"/>
<rect width="2" height="2" transform="matrix(-1 0 0 1 44 24)" fill="#FFF6F5"/>
<rect width="2" height="2" transform="matrix(-1 0 0 1 42 24)" fill="#228DF4"/>
<rect width="2" height="2" transform="matrix(-1 0 0 1 40 24)" fill="#228DF4"/>
<rect width="2" height="2" transform="matrix(-1 0 0 1 38 24)" fill="#FFF6F5"/>
<rect width="2" height="2" transform="matrix(-1 0 0 1 36 24)" fill="#FFF6F5"/>
<rect width="2" height="2" transform="matrix(-1 0 0 1 34 24)" fill="#228DF4"/>
<rect width="2" height="2" transform="matrix(-1 0 0 1 32 22)" fill="#228DF4"/>
<rect width="2" height="2" transform="matrix(-1 0 0 1 30 20)" fill="#228DF4"/>
<rect width="2" height="2" transform="matrix(-1 0 0 1 28 18)" fill="#228DF4"/>
<rect width="2" height="2" transform="matrix(-1 0 0 1 26 16)" fill="#228DF4"/>
<rect width="2" height="2" transform="matrix(-1 0 0 1 24 14)" fill="#228DF4"/>
<rect width="2" height="2" transform="matrix(-1 0 0 1 22 12)" fill="#228DF4"/>
<rect width="2" height="2" transform="matrix(-1 0 0 1 20 10)" fill="#228DF4"/>
<rect width="2" height="2" transform="matrix(-1 0 0 1 18 8)" fill="#228DF4"/>
<rect width="2" height="2" transform="matrix(-1 0 0 1 16 6)" fill="#228DF4"/>
<rect width="2" height="2" transform="matrix(-1 0 0 1 14 4)" fill="#228DF4"/>
<rect width="2" height="2" transform="matrix(-1 0 0 1 12 2)" fill="#228DF4"/>
<rect width="2" height="2" transform="matrix(-1 0 0 1 14 2)" fill="#228DF4"/>
<rect width="2" height="2" transform="matrix(-1 0 0 1 16 4)" fill="#56A0E7"/>
<rect width="2" height="2" transform="matrix(-1 0 0 1 18 4)" fill="#FFF6F5"/>
<rect width="2" height="2" transform="matrix(-1 0 0 1 20 4)" fill="#56A0E7"/>
<rect width="2" height="2" transform="matrix(-1 0 0 1 22 4)" fill="#56A0E7"/>
<rect width="2" height="2" transform="matrix(-1 0 0 1 24 4)" fill="#FFF6F5"/>
<rect width="2" height="2" transform="matrix(-1 0 0 1 26 4)" fill="#56A0E7"/>
<rect width="2" height="2" transform="matrix(-1 0 0 1 28 4)" fill="#56A0E7"/>
<rect width="2" height="2" transform="matrix(-1 0 0 1 30 2)" fill="#56A0E7"/>
<rect width="2" height="2" transform="matrix(-1 0 0 1 28 2)" fill="#FFF6F5"/>
<rect width="2" height="2" transform="matrix(-1 0 0 1 32 4)" fill="#56A0E7"/>
<rect width="2" height="2" transform="matrix(-1 0 0 1 34 6)" fill="#56A0E7"/>
<rect width="2" height="2" transform="matrix(-1 0 0 1 36 8)" fill="#56A0E7"/>
<rect width="2" height="2" transform="matrix(-1 0 0 1 38 10)" fill="#56A0E7"/>
<rect width="2" height="2" transform="matrix(-1 0 0 1 40 12)" fill="#56A0E7"/>
<rect width="2" height="2" transform="matrix(-1 0 0 1 42 14)" fill="#56A0E7"/>
<rect width="2" height="2" transform="matrix(-1 0 0 1 44 16)" fill="#228DF4"/>
<rect width="2" height="2" transform="matrix(-1 0 0 1 46 18)" fill="#228DF4"/>
<rect width="2" height="2" transform="matrix(-1 0 0 1 48 20)" fill="#FFF6F5"/>
<rect width="2" height="2" transform="matrix(-1 0 0 1 52 20)" fill="#A9CFF3"/>
<rect width="2" height="2" transform="matrix(-1 0 0 1 56 20)" fill="#FFF6F5"/>
<rect width="2" height="2" transform="matrix(-1 0 0 1 50 22)" fill="#56A0E7"/>
<rect width="2" height="2" transform="matrix(-1 0 0 1 48 22)" fill="#FFF6F5"/>
<rect width="2" height="2" transform="matrix(-1 0 0 1 46 22)" fill="#FFF6F5"/>
<rect width="2" height="2" transform="matrix(-1 0 0 1 44 22)" fill="#56A0E7"/>
<rect width="2" height="2" transform="matrix(-1 0 0 1 42 22)" fill="#56A0E7"/>
<rect width="2" height="2" transform="matrix(-1 0 0 1 40 22)" fill="#FFF6F5"/>
<rect width="2" height="2" transform="matrix(-1 0 0 1 38 22)" fill="#FFF6F5"/>
<rect width="2" height="2" transform="matrix(-1 0 0 1 36 22)" fill="#56A0E7"/>
<rect width="2" height="2" transform="matrix(-1 0 0 1 34 22)" fill="#56A0E7"/>
<rect width="2" height="2" transform="matrix(-1 0 0 1 32 20)" fill="#A9CFF3"/>
<rect width="2" height="2" transform="matrix(-1 0 0 1 30 18)" fill="#A9CFF3"/>
<rect width="2" height="2" transform="matrix(-1 0 0 1 28 16)" fill="#A9CFF3"/>
<rect width="2" height="2" transform="matrix(-1 0 0 1 26 14)" fill="#228DF4"/>
<rect width="2" height="2" transform="matrix(-1 0 0 1 24 12)" fill="#56A0E7"/>
<rect width="2" height="2" transform="matrix(-1 0 0 1 22 10)" fill="#56A0E7"/>
<rect width="2" height="2" transform="matrix(-1 0 0 1 20 8)" fill="#56A0E7"/>
<rect width="2" height="2" transform="matrix(-1 0 0 1 18 6)" fill="#56A0E7"/>
<rect width="2" height="2" transform="matrix(-1 0 0 1 20 6)" fill="#FFF6F5"/>
<rect width="2" height="2" transform="matrix(-1 0 0 1 22 6)" fill="#56A0E7"/>
<rect width="2" height="2" transform="matrix(-1 0 0 1 24 6)" fill="#56A0E7"/>
<rect width="2" height="2" transform="matrix(-1 0 0 1 26 6)" fill="#FFF6F5"/>
<rect width="2" height="2" transform="matrix(-1 0 0 1 28 6)" fill="#56A0E7"/>
<rect width="2" height="2" transform="matrix(-1 0 0 1 30 6)" fill="#56A0E7"/>
<rect width="2" height="2" transform="matrix(-1 0 0 1 30 4)" fill="#FFF6F5"/>
<rect width="2" height="2" transform="matrix(-1 0 0 1 32 6)" fill="#FFF6F5"/>
<rect width="2" height="2" transform="matrix(-1 0 0 1 34 8)" fill="#FFF6F5"/>
<rect width="2" height="2" transform="matrix(-1 0 0 1 36 10)" fill="#FFF6F5"/>
<rect width="2" height="2" transform="matrix(-1 0 0 1 38 12)" fill="#FFF6F5"/>
<rect width="2" height="2" transform="matrix(-1 0 0 1 40 14)" fill="#FFF6F5"/>
<rect width="2" height="2" transform="matrix(-1 0 0 1 42 16)" fill="#A9CFF3"/>
<rect width="2" height="2" transform="matrix(-1 0 0 1 44 18)" fill="#A9CFF3"/>
<rect width="2" height="2" transform="matrix(-1 0 0 1 46 20)" fill="#FFF6F5"/>
<rect width="2" height="2" transform="matrix(-1 0 0 1 44 20)" fill="#A9CFF3"/>
<rect width="2" height="2" transform="matrix(-1 0 0 1 42 20)" fill="#A9CFF3"/>
<rect width="2" height="2" transform="matrix(-1 0 0 1 40 20)" fill="#FFF6F5"/>
<rect width="2" height="2" transform="matrix(-1 0 0 1 38 20)" fill="#FFF6F5"/>
<rect width="2" height="2" transform="matrix(-1 0 0 1 36 20)" fill="#A9CFF3"/>
<rect width="2" height="2" transform="matrix(-1 0 0 1 34 20)" fill="#A9CFF3"/>
<rect width="2" height="2" transform="matrix(-1 0 0 1 32 18)" fill="#228DF4"/>
<rect width="2" height="2" transform="matrix(-1 0 0 1 30 16)" fill="#A9CFF3"/>
<rect width="2" height="2" transform="matrix(-1 0 0 1 28 14)" fill="#FFF6F5"/>
<rect width="2" height="2" transform="matrix(-1 0 0 1 26 12)" fill="#FFF6F5"/>
<rect width="2" height="2" transform="matrix(-1 0 0 1 24 10)" fill="#FFF6F5"/>
<rect width="2" height="2" transform="matrix(-1 0 0 1 22 8)" fill="#FFF6F5"/>
<rect width="2" height="2" transform="matrix(-1 0 0 1 24 8)" fill="#56A0E7"/>
<rect width="2" height="2" transform="matrix(-1 0 0 1 26 8)" fill="#56A0E7"/>
<rect width="2" height="2" transform="matrix(-1 0 0 1 28 8)" fill="#FFF6F5"/>
<rect width="2" height="2" transform="matrix(-1 0 0 1 30 8)" fill="#56A0E7"/>
<rect width="2" height="2" transform="matrix(-1 0 0 1 32 8)" fill="#56A0E7"/>
<rect width="2" height="2" transform="matrix(-1 0 0 1 34 10)" fill="#56A0E7"/>
<rect width="2" height="2" transform="matrix(-1 0 0 1 36 12)" fill="#56A0E7"/>
<rect width="2" height="2" transform="matrix(-1 0 0 1 38 14)" fill="#228DF4"/>
<rect width="2" height="2" transform="matrix(-1 0 0 1 40 16)" fill="#A9CFF3"/>
<rect width="2" height="2" transform="matrix(-1 0 0 1 42 18)" fill="#A9CFF3"/>
<rect width="2" height="2" transform="matrix(-1 0 0 1 40 18)" fill="#228DF4"/>
<rect width="2" height="2" transform="matrix(-1 0 0 1 38 18)" fill="#228DF4"/>
<rect width="2" height="2" transform="matrix(-1 0 0 1 36 18)" fill="#A9CFF3"/>
<rect width="2" height="2" transform="matrix(-1 0 0 1 34 18)" fill="#228DF4"/>
<rect width="2" height="2" transform="matrix(-1 0 0 1 32 16)" fill="#228DF4"/>
<rect width="2" height="2" transform="matrix(-1 0 0 1 30 14)" fill="#56A0E7"/>
<rect width="2" height="2" transform="matrix(-1 0 0 1 28 12)" fill="#56A0E7"/>
<rect width="2" height="2" transform="matrix(-1 0 0 1 26 10)" fill="#56A0E7"/>
<rect width="2" height="2" transform="matrix(-1 0 0 1 28 10)" fill="#56A0E7"/>
<rect width="2" height="2" transform="matrix(-1 0 0 1 30 10)" fill="#FFF6F5"/>
<rect width="2" height="2" transform="matrix(-1 0 0 1 32 10)" fill="#56A0E7"/>
<rect width="2" height="2" transform="matrix(-1 0 0 1 30 12)" fill="#56A0E7"/>
<rect width="2" height="2" transform="matrix(-1 0 0 1 32 12)" fill="#FFF6F5"/>
<rect width="2" height="2" transform="matrix(-1 0 0 1 34 12)" fill="#56A0E7"/>
<rect width="2" height="2" transform="matrix(-1 0 0 1 32 14)" fill="#228DF4"/>
<rect width="2" height="2" transform="matrix(-1 0 0 1 34 14)" fill="#FFF6F5"/>
<rect width="2" height="2" transform="matrix(-1 0 0 1 36 14)" fill="#56A0E7"/>
<rect width="2" height="2" transform="matrix(-1 0 0 1 34 16)" fill="#A9CFF3"/>
<rect width="2" height="2" transform="matrix(-1 0 0 1 36 16)" fill="#A9CFF3"/>
<rect width="2" height="2" transform="matrix(-1 0 0 1 38 16)" fill="#228DF4"/>
<rect width="2" height="2" transform="matrix(-1 0 0 1 40 10)" fill="#228DF4"/>
<rect width="2" height="2" transform="matrix(-1 0 0 1 38 8)" fill="#228DF4"/>
<rect width="2" height="2" transform="matrix(-1 0 0 1 36 6)" fill="#228DF4"/>
<rect width="2" height="2" transform="matrix(-1 0 0 1 34 4)" fill="#228DF4"/>
<rect width="2" height="2" transform="matrix(-1 0 0 1 32 2)" fill="#228DF4"/>
</svg>
