<svg width="70" height="34" viewBox="0 0 70 34" fill="none" xmlns="http://www.w3.org/2000/svg">
<rect y="32" width="2" height="2" fill="#FFF2E2"/>
<rect x="2" y="32" width="2" height="2" fill="#FFF2E2"/>
<rect x="4" y="32" width="2" height="2" fill="#F3DFC6"/>
<rect x="6" y="32" width="2" height="2" fill="#F3DFC6"/>
<rect x="2" y="30" width="2" height="2" fill="#FFF2E2"/>
<rect x="4" y="30" width="2" height="2" fill="#FFF2E2"/>
<rect x="6" y="30" width="2" height="2" fill="#F3DFC6"/>
<rect x="8" y="30" width="2" height="2" fill="#F3DFC6"/>
<rect x="4" y="28" width="2" height="2" fill="#FFF2E2"/>
<rect x="6" y="28" width="2" height="2" fill="#FFF2E2"/>
<rect x="8" y="28" width="2" height="2" fill="#F3DFC6"/>
<rect x="10" y="28" width="2" height="2" fill="#F3DFC6"/>
<rect x="6" y="26" width="2" height="2" fill="#FFF2E2"/>
<rect x="8" y="26" width="2" height="2" fill="#FFF2E2"/>
<rect x="10" y="26" width="2" height="2" fill="#F3DFC6"/>
<rect x="12" y="26" width="2" height="2" fill="#F3DFC6"/>
<rect x="8" y="24" width="2" height="2" fill="#FFF2E2"/>
<rect x="10" y="24" width="2" height="2" fill="#FFF2E2"/>
<rect x="12" y="24" width="2" height="2" fill="#F3DFC6"/>
<rect x="14" y="24" width="2" height="2" fill="#F3DFC6"/>
<rect x="10" y="22" width="2" height="2" fill="#FFF2E2"/>
<rect x="12" y="22" width="2" height="2" fill="#FFF2E2"/>
<rect x="14" y="22" width="2" height="2" fill="#F3DFC6"/>
<rect x="16" y="22" width="2" height="2" fill="#F3DFC6"/>
<rect x="12" y="20" width="2" height="2" fill="#FFF2E2"/>
<rect x="14" y="20" width="2" height="2" fill="#FFF2E2"/>
<rect x="16" y="20" width="2" height="2" fill="#F3DFC6"/>
<rect x="18" y="20" width="2" height="2" fill="#F3DFC6"/>
<rect x="14" y="18" width="2" height="2" fill="#FFF2E2"/>
<rect x="16" y="18" width="2" height="2" fill="#FFF2E2"/>
<rect x="18" y="18" width="2" height="2" fill="#F3DFC6"/>
<rect x="20" y="18" width="2" height="2" fill="#F3DFC6"/>
<rect x="16" y="16" width="2" height="2" fill="#FFF2E2"/>
<rect x="18" y="16" width="2" height="2" fill="#FFF2E2"/>
<rect x="20" y="16" width="2" height="2" fill="#F3DFC6"/>
<rect x="22" y="16" width="2" height="2" fill="#F3DFC6"/>
<rect x="18" y="14" width="2" height="2" fill="#FFF2E2"/>
<rect x="20" y="14" width="2" height="2" fill="#FFF2E2"/>
<rect x="22" y="14" width="2" height="2" fill="#F3DFC6"/>
<rect x="24" y="18" width="2" height="2" fill="#E7CFB2"/>
<rect x="22" y="18" width="2" height="2" fill="#CEB391"/>
<rect x="26" y="20" width="2" height="2" fill="#E7CFB2"/>
<rect x="24" y="20" width="2" height="2" fill="#CEB391"/>
<rect x="28" y="22" width="2" height="2" fill="#E7CFB2"/>
<rect x="26" y="22" width="2" height="2" fill="#CEB391"/>
<rect x="30" y="24" width="2" height="2" fill="#E7CFB2"/>
<rect x="28" y="24" width="2" height="2" fill="#CEB391"/>
<rect x="32" y="26" width="2" height="2" fill="#E7CFB2"/>
<rect x="30" y="26" width="2" height="2" fill="#CEB391"/>
<rect x="34" y="28" width="2" height="2" fill="#E7CFB2"/>
<rect x="32" y="28" width="2" height="2" fill="#CEB391"/>
<rect x="36" y="30" width="2" height="2" fill="#E7CFB2"/>
<rect x="34" y="30" width="2" height="2" fill="#CEB391"/>
<rect x="38" y="32" width="2" height="2" fill="#E7CFB2"/>
<rect x="36" y="32" width="2" height="2" fill="#CEB391"/>
<rect x="24" y="14" width="2" height="2" fill="#F3DFC6"/>
<rect x="20" y="12" width="2" height="2" fill="#FFF2E2"/>
<rect x="22" y="12" width="2" height="2" fill="#FFF2E2"/>
<rect x="24" y="12" width="2" height="2" fill="#F3DFC6"/>
<rect x="26" y="12" width="2" height="2" fill="#F3DFC6"/>
<rect x="22" y="10" width="2" height="2" fill="#FFF2E2"/>
<rect x="24" y="10" width="2" height="2" fill="#FFF2E2"/>
<rect x="26" y="10" width="2" height="2" fill="#F3DFC6"/>
<rect x="28" y="10" width="2" height="2" fill="#F3DFC6"/>
<rect x="24" y="8" width="2" height="2" fill="#FFF2E2"/>
<rect x="26" y="8" width="2" height="2" fill="#FFF2E2"/>
<rect x="28" y="8" width="2" height="2" fill="#F3DFC6"/>
<rect x="30" y="8" width="2" height="2" fill="#F3DFC6"/>
<rect x="26" y="6" width="2" height="2" fill="#FFF2E2"/>
<rect x="28" y="6" width="2" height="2" fill="#FFF2E2"/>
<rect x="30" y="6" width="2" height="2" fill="#F3DFC6"/>
<rect x="32" y="6" width="2" height="2" fill="#F3DFC6"/>
<rect x="28" y="4" width="2" height="2" fill="#FFF2E2"/>
<rect x="30" y="4" width="2" height="2" fill="#FFF2E2"/>
<rect x="32" y="4" width="2" height="2" fill="#F3DFC6"/>
<rect x="34" y="4" width="2" height="2" fill="#F3DFC6"/>
<rect x="30" y="2" width="2" height="2" fill="#FFF2E2"/>
<rect x="32" y="2" width="2" height="2" fill="#FFF2E2"/>
<rect x="34" y="2" width="2" height="2" fill="#F3DFC6"/>
<rect x="36" y="2" width="2" height="2" fill="#F3DFC6"/>
<rect x="32" width="2" height="2" fill="#FFF2E2"/>
<rect x="34" width="2" height="2" fill="#FFF2E2"/>
<rect x="36" width="2" height="2" fill="#F3DFC6"/>
<rect x="38" width="2" height="2" fill="#F3DFC6"/>
<rect x="30" y="32" width="2" height="2" fill="#FFF2E2"/>
<rect x="32" y="32" width="2" height="2" fill="#FFF2E2"/>
<rect x="34" y="32" width="2" height="2" fill="#F3DFC6"/>
<rect x="36" y="32" width="2" height="2" fill="#F3DFC6"/>
<rect x="32" y="30" width="2" height="2" fill="#FFF2E2"/>
<rect x="34" y="30" width="2" height="2" fill="#FFF2E2"/>
<rect x="36" y="30" width="2" height="2" fill="#F3DFC6"/>
<rect x="38" y="30" width="2" height="2" fill="#F3DFC6"/>
<rect x="34" y="28" width="2" height="2" fill="#FFF2E2"/>
<rect x="36" y="28" width="2" height="2" fill="#FFF2E2"/>
<rect x="38" y="28" width="2" height="2" fill="#F3DFC6"/>
<rect x="40" y="28" width="2" height="2" fill="#F3DFC6"/>
<rect x="36" y="26" width="2" height="2" fill="#FFF2E2"/>
<rect x="38" y="26" width="2" height="2" fill="#FFF2E2"/>
<rect x="40" y="26" width="2" height="2" fill="#F3DFC6"/>
<rect x="42" y="26" width="2" height="2" fill="#F3DFC6"/>
<rect x="38" y="24" width="2" height="2" fill="#FFF2E2"/>
<rect x="40" y="24" width="2" height="2" fill="#FFF2E2"/>
<rect x="42" y="24" width="2" height="2" fill="#F3DFC6"/>
<rect x="44" y="24" width="2" height="2" fill="#F3DFC6"/>
<rect x="40" y="22" width="2" height="2" fill="#FFF2E2"/>
<rect x="42" y="22" width="2" height="2" fill="#FFF2E2"/>
<rect x="44" y="22" width="2" height="2" fill="#F3DFC6"/>
<rect x="46" y="22" width="2" height="2" fill="#F3DFC6"/>
<rect x="42" y="20" width="2" height="2" fill="#FFF2E2"/>
<rect x="44" y="20" width="2" height="2" fill="#FFF2E2"/>
<rect x="46" y="20" width="2" height="2" fill="#F3DFC6"/>
<rect x="48" y="20" width="2" height="2" fill="#F3DFC6"/>
<rect x="44" y="18" width="2" height="2" fill="#FFF2E2"/>
<rect x="46" y="18" width="2" height="2" fill="#FFF2E2"/>
<rect x="48" y="18" width="2" height="2" fill="#F3DFC6"/>
<rect x="50" y="18" width="2" height="2" fill="#F3DFC6"/>
<rect x="46" y="16" width="2" height="2" fill="#FFF2E2"/>
<rect x="48" y="16" width="2" height="2" fill="#FFF2E2"/>
<rect x="50" y="16" width="2" height="2" fill="#F3DFC6"/>
<rect x="52" y="16" width="2" height="2" fill="#F3DFC6"/>
<rect x="48" y="14" width="2" height="2" fill="#FFF2E2"/>
<rect x="50" y="14" width="2" height="2" fill="#FFF2E2"/>
<rect x="52" y="14" width="2" height="2" fill="#F3DFC6"/>
<rect x="54" y="18" width="2" height="2" fill="#E7CFB2"/>
<rect x="52" y="18" width="2" height="2" fill="#CEB391"/>
<rect x="56" y="20" width="2" height="2" fill="#E7CFB2"/>
<rect x="54" y="20" width="2" height="2" fill="#CEB391"/>
<rect x="58" y="22" width="2" height="2" fill="#E7CFB2"/>
<rect x="56" y="22" width="2" height="2" fill="#CEB391"/>
<rect x="60" y="24" width="2" height="2" fill="#E7CFB2"/>
<rect x="58" y="24" width="2" height="2" fill="#CEB391"/>
<rect x="62" y="26" width="2" height="2" fill="#E7CFB2"/>
<rect x="60" y="26" width="2" height="2" fill="#CEB391"/>
<rect x="64" y="28" width="2" height="2" fill="#E7CFB2"/>
<rect x="62" y="28" width="2" height="2" fill="#CEB391"/>
<rect x="66" y="30" width="2" height="2" fill="#E7CFB2"/>
<rect x="64" y="30" width="2" height="2" fill="#CEB391"/>
<rect x="68" y="32" width="2" height="2" fill="#E7CFB2"/>
<rect x="66" y="32" width="2" height="2" fill="#CEB391"/>
<rect x="54" y="14" width="2" height="2" fill="#F3DFC6"/>
<rect x="50" y="12" width="2" height="2" fill="#FFF2E2"/>
<rect x="52" y="12" width="2" height="2" fill="#FFF2E2"/>
<rect x="54" y="12" width="2" height="2" fill="#F3DFC6"/>
<rect x="56" y="12" width="2" height="2" fill="#F3DFC6"/>
<rect x="52" y="10" width="2" height="2" fill="#FFF2E2"/>
<rect x="54" y="10" width="2" height="2" fill="#FFF2E2"/>
<rect x="56" y="10" width="2" height="2" fill="#F3DFC6"/>
<rect x="58" y="10" width="2" height="2" fill="#F3DFC6"/>
<rect x="54" y="8" width="2" height="2" fill="#FFF2E2"/>
<rect x="56" y="8" width="2" height="2" fill="#FFF2E2"/>
<rect x="58" y="8" width="2" height="2" fill="#F3DFC6"/>
<rect x="60" y="8" width="2" height="2" fill="#F3DFC6"/>
<rect x="56" y="6" width="2" height="2" fill="#FFF2E2"/>
<rect x="58" y="6" width="2" height="2" fill="#FFF2E2"/>
<rect x="60" y="6" width="2" height="2" fill="#F3DFC6"/>
<rect x="62" y="6" width="2" height="2" fill="#F3DFC6"/>
<rect x="58" y="4" width="2" height="2" fill="#FFF2E2"/>
<rect x="60" y="4" width="2" height="2" fill="#FFF2E2"/>
<rect x="62" y="4" width="2" height="2" fill="#F3DFC6"/>
<rect x="64" y="4" width="2" height="2" fill="#F3DFC6"/>
<rect x="60" y="2" width="2" height="2" fill="#FFF2E2"/>
<rect x="62" y="2" width="2" height="2" fill="#FFF2E2"/>
<rect x="64" y="2" width="2" height="2" fill="#F3DFC6"/>
<rect x="66" y="2" width="2" height="2" fill="#F3DFC6"/>
<rect x="62" width="2" height="2" fill="#FFF2E2"/>
<rect x="64" width="2" height="2" fill="#FFF2E2"/>
<rect x="66" width="2" height="2" fill="#F3DFC6"/>
<rect x="68" width="2" height="2" fill="#F3DFC6"/>
<rect x="28" y="12" width="2" height="2" fill="#FF0700"/>
<rect x="26" y="14" width="2" height="2" fill="#FF0700"/>
<rect x="24" y="16" width="2" height="2" fill="#FF0700"/>
<rect x="22" y="18" width="2" height="2" fill="#FF0700"/>
<rect x="20" y="20" width="2" height="2" fill="#FFB4B1"/>
<rect x="16" y="20" width="2" height="2" fill="#FFF6F5"/>
<rect x="12" y="20" width="2" height="2" fill="#FFB4B1"/>
<rect x="18" y="22" width="2" height="2" fill="#FF312B"/>
<rect x="16" y="22" width="2" height="2" fill="#FFF6F5"/>
<rect x="14" y="22" width="2" height="2" fill="#FFF6F5"/>
<rect x="12" y="22" width="2" height="2" fill="#FF312B"/>
<rect x="10" y="20" width="2" height="2" fill="#FFB4B1"/>
<rect x="10" y="22" width="2" height="2" fill="#FF0700"/>
<rect x="12" y="24" width="2" height="2" fill="#FF0700"/>
<rect x="14" y="24" width="2" height="2" fill="#FF0700"/>
<rect x="16" y="24" width="2" height="2" fill="#FFF6F5"/>
<rect x="18" y="24" width="2" height="2" fill="#FFF6F5"/>
<rect x="20" y="24" width="2" height="2" fill="#FF0700"/>
<rect x="22" y="24" width="2" height="2" fill="#FF0700"/>
<rect x="24" y="24" width="2" height="2" fill="#FFF6F5"/>
<rect x="26" y="24" width="2" height="2" fill="#FFF6F5"/>
<rect x="28" y="24" width="2" height="2" fill="#FF0700"/>
<rect x="30" y="24" width="2" height="2" fill="#FF0700"/>
<rect x="32" y="24" width="2" height="2" fill="#FFF6F5"/>
<rect x="34" y="24" width="2" height="2" fill="#FFF6F5"/>
<rect x="36" y="24" width="2" height="2" fill="#FF0700"/>
<rect x="38" y="22" width="2" height="2" fill="#FF0700"/>
<rect x="40" y="20" width="2" height="2" fill="#FF0700"/>
<rect x="42" y="18" width="2" height="2" fill="#FF0700"/>
<rect x="44" y="16" width="2" height="2" fill="#FF0700"/>
<rect x="46" y="14" width="2" height="2" fill="#FF0700"/>
<rect x="48" y="12" width="2" height="2" fill="#FF0700"/>
<rect x="50" y="10" width="2" height="2" fill="#FF0700"/>
<rect x="52" y="8" width="2" height="2" fill="#FF0700"/>
<rect x="54" y="6" width="2" height="2" fill="#FF0700"/>
<rect x="56" y="4" width="2" height="2" fill="#FF0700"/>
<rect x="58" y="2" width="2" height="2" fill="#FF0700"/>
<rect x="56" y="2" width="2" height="2" fill="#FF0700"/>
<rect x="54" y="4" width="2" height="2" fill="#FF312B"/>
<rect x="52" y="4" width="2" height="2" fill="#FFF6F5"/>
<rect x="50" y="4" width="2" height="2" fill="#FF312B"/>
<rect x="48" y="4" width="2" height="2" fill="#FF312B"/>
<rect x="46" y="4" width="2" height="2" fill="#FFF6F5"/>
<rect x="44" y="4" width="2" height="2" fill="#FF312B"/>
<rect x="42" y="4" width="2" height="2" fill="#FF312B"/>
<rect x="40" y="2" width="2" height="2" fill="#FF312B"/>
<rect x="42" y="2" width="2" height="2" fill="#FFF6F5"/>
<rect x="38" y="4" width="2" height="2" fill="#FF312B"/>
<rect x="36" y="6" width="2" height="2" fill="#FF312B"/>
<rect x="34" y="8" width="2" height="2" fill="#FF312B"/>
<rect x="32" y="10" width="2" height="2" fill="#FF312B"/>
<rect x="30" y="12" width="2" height="2" fill="#FF312B"/>
<rect x="28" y="14" width="2" height="2" fill="#FF312B"/>
<rect x="26" y="16" width="2" height="2" fill="#FF0700"/>
<rect x="24" y="18" width="2" height="2" fill="#FF0700"/>
<rect x="22" y="20" width="2" height="2" fill="#FFF6F5"/>
<rect x="18" y="20" width="2" height="2" fill="#FFB4B1"/>
<rect x="14" y="20" width="2" height="2" fill="#FFF6F5"/>
<rect x="20" y="22" width="2" height="2" fill="#FF312B"/>
<rect x="22" y="22" width="2" height="2" fill="#FFF6F5"/>
<rect x="24" y="22" width="2" height="2" fill="#FFF6F5"/>
<rect x="26" y="22" width="2" height="2" fill="#FF312B"/>
<rect x="28" y="22" width="2" height="2" fill="#FF312B"/>
<rect x="30" y="22" width="2" height="2" fill="#FFF6F5"/>
<rect x="32" y="22" width="2" height="2" fill="#FFF6F5"/>
<rect x="34" y="22" width="2" height="2" fill="#FF312B"/>
<rect x="36" y="22" width="2" height="2" fill="#FF312B"/>
<rect x="38" y="20" width="2" height="2" fill="#FFB4B1"/>
<rect x="40" y="18" width="2" height="2" fill="#FFB4B1"/>
<rect x="42" y="16" width="2" height="2" fill="#FFB4B1"/>
<rect x="44" y="14" width="2" height="2" fill="#FF0700"/>
<rect x="46" y="12" width="2" height="2" fill="#FF312B"/>
<rect x="48" y="10" width="2" height="2" fill="#FF312B"/>
<rect x="50" y="8" width="2" height="2" fill="#FF312B"/>
<rect x="52" y="6" width="2" height="2" fill="#FF312B"/>
<rect x="50" y="6" width="2" height="2" fill="#FFF6F5"/>
<rect x="48" y="6" width="2" height="2" fill="#FF312B"/>
<rect x="46" y="6" width="2" height="2" fill="#FF312B"/>
<rect x="44" y="6" width="2" height="2" fill="#FFF6F5"/>
<rect x="42" y="6" width="2" height="2" fill="#FF312B"/>
<rect x="40" y="6" width="2" height="2" fill="#FF312B"/>
<rect x="40" y="4" width="2" height="2" fill="#FFF6F5"/>
<rect x="38" y="6" width="2" height="2" fill="#FFF6F5"/>
<rect x="36" y="8" width="2" height="2" fill="#FFF6F5"/>
<rect x="34" y="10" width="2" height="2" fill="#FFF6F5"/>
<rect x="32" y="12" width="2" height="2" fill="#FFF6F5"/>
<rect x="30" y="14" width="2" height="2" fill="#FFF6F5"/>
<rect x="28" y="16" width="2" height="2" fill="#FFB4B1"/>
<rect x="26" y="18" width="2" height="2" fill="#FFB4B1"/>
<rect x="24" y="20" width="2" height="2" fill="#FFF6F5"/>
<rect x="26" y="20" width="2" height="2" fill="#FFB4B1"/>
<rect x="28" y="20" width="2" height="2" fill="#FFB4B1"/>
<rect x="30" y="20" width="2" height="2" fill="#FFF6F5"/>
<rect x="32" y="20" width="2" height="2" fill="#FFF6F5"/>
<rect x="34" y="20" width="2" height="2" fill="#FFB4B1"/>
<rect x="36" y="20" width="2" height="2" fill="#FFB4B1"/>
<rect x="38" y="18" width="2" height="2" fill="#FF0700"/>
<rect x="40" y="16" width="2" height="2" fill="#FFB4B1"/>
<rect x="42" y="14" width="2" height="2" fill="#FFF6F5"/>
<rect x="44" y="12" width="2" height="2" fill="#FFF6F5"/>
<rect x="46" y="10" width="2" height="2" fill="#FFF6F5"/>
<rect x="48" y="8" width="2" height="2" fill="#FFF6F5"/>
<rect x="46" y="8" width="2" height="2" fill="#FF312B"/>
<rect x="44" y="8" width="2" height="2" fill="#FF312B"/>
<rect x="42" y="8" width="2" height="2" fill="#FFF6F5"/>
<rect x="40" y="8" width="2" height="2" fill="#FF312B"/>
<rect x="38" y="8" width="2" height="2" fill="#FF312B"/>
<rect x="36" y="10" width="2" height="2" fill="#FF312B"/>
<rect x="34" y="12" width="2" height="2" fill="#FF312B"/>
<rect x="32" y="14" width="2" height="2" fill="#FF0700"/>
<rect x="30" y="16" width="2" height="2" fill="#FFB4B1"/>
<rect x="28" y="18" width="2" height="2" fill="#FFB4B1"/>
<rect x="30" y="18" width="2" height="2" fill="#FF0700"/>
<rect x="32" y="18" width="2" height="2" fill="#FF0700"/>
<rect x="34" y="18" width="2" height="2" fill="#FFB4B1"/>
<rect x="36" y="18" width="2" height="2" fill="#FF0700"/>
<rect x="38" y="16" width="2" height="2" fill="#FF0700"/>
<rect x="40" y="14" width="2" height="2" fill="#FF312B"/>
<rect x="42" y="12" width="2" height="2" fill="#FF312B"/>
<rect x="44" y="10" width="2" height="2" fill="#FF312B"/>
<rect x="42" y="10" width="2" height="2" fill="#FF312B"/>
<rect x="40" y="10" width="2" height="2" fill="#FFF6F5"/>
<rect x="38" y="10" width="2" height="2" fill="#FF312B"/>
<rect x="40" y="12" width="2" height="2" fill="#FF312B"/>
<rect x="38" y="12" width="2" height="2" fill="#FFF6F5"/>
<rect x="36" y="12" width="2" height="2" fill="#FF312B"/>
<rect x="38" y="14" width="2" height="2" fill="#FF0700"/>
<rect x="36" y="14" width="2" height="2" fill="#FFF6F5"/>
<rect x="34" y="14" width="2" height="2" fill="#FF312B"/>
<rect x="36" y="16" width="2" height="2" fill="#FFB4B1"/>
<rect x="34" y="16" width="2" height="2" fill="#FFB4B1"/>
<rect x="32" y="16" width="2" height="2" fill="#FF0700"/>
<rect x="30" y="10" width="2" height="2" fill="#FF0700"/>
<rect x="32" y="8" width="2" height="2" fill="#FF0700"/>
<rect x="34" y="6" width="2" height="2" fill="#FF0700"/>
<rect x="36" y="4" width="2" height="2" fill="#FF0700"/>
<rect x="38" y="2" width="2" height="2" fill="#FF0700"/>
</svg>
