<svg width="120" height="120" viewBox="0 0 120 120" fill="none" xmlns="http://www.w3.org/2000/svg">
<rect x="46" y="88" width="2" height="2" fill="black" fill-opacity="0.5"/>
<rect x="50" y="88" width="2" height="2" fill="black" fill-opacity="0.5"/>
<rect x="50" y="90" width="2" height="2" fill="black" fill-opacity="0.5"/>
<rect x="48" y="90" width="2" height="2" fill="black" fill-opacity="0.5"/>
<rect x="46" y="90" width="2" height="2" fill="black" fill-opacity="0.5"/>
<rect x="44" y="90" width="2" height="2" fill="black" fill-opacity="0.5"/>
<rect x="54" y="88" width="2" height="2" fill="black" fill-opacity="0.5"/>
<rect x="54" y="90" width="2" height="2" fill="black" fill-opacity="0.5"/>
<rect x="58" y="88" width="2" height="2" fill="black" fill-opacity="0.5"/>
<rect x="58" y="90" width="2" height="2" fill="black" fill-opacity="0.5"/>
<rect x="58" y="86" width="2" height="2" fill="black" fill-opacity="0.5"/>
<rect x="62" y="88" width="2" height="2" fill="black" fill-opacity="0.5"/>
<rect x="62" y="90" width="2" height="2" fill="black" fill-opacity="0.5"/>
<rect x="62" y="86" width="2" height="2" fill="black" fill-opacity="0.5"/>
<rect x="66" y="88" width="2" height="2" fill="black" fill-opacity="0.5"/>
<rect x="66" y="90" width="2" height="2" fill="black" fill-opacity="0.5"/>
<rect x="66" y="86" width="2" height="2" fill="black" fill-opacity="0.5"/>
<rect x="70" y="88" width="2" height="2" fill="black" fill-opacity="0.5"/>
<rect x="70" y="90" width="2" height="2" fill="black" fill-opacity="0.5"/>
<rect x="72" y="90" width="2" height="2" fill="black" fill-opacity="0.5"/>
<rect x="74" y="90" width="2" height="2" fill="black" fill-opacity="0.5"/>
<rect x="76" y="90" width="2" height="2" fill="black" fill-opacity="0.5"/>
<rect x="74" y="88" width="2" height="2" fill="black" fill-opacity="0.5"/>
<rect x="78" y="88" width="2" height="2" fill="black" fill-opacity="0.5"/>
<rect x="44" y="88" width="2" height="2" fill="black" fill-opacity="0.5"/>
<rect x="48" y="88" width="2" height="2" fill="black" fill-opacity="0.5"/>
<rect x="52" y="88" width="2" height="2" fill="black" fill-opacity="0.5"/>
<rect x="52" y="90" width="2" height="2" fill="black" fill-opacity="0.5"/>
<rect x="56" y="88" width="2" height="2" fill="black" fill-opacity="0.5"/>
<rect x="56" y="90" width="2" height="2" fill="black" fill-opacity="0.5"/>
<rect x="56" y="86" width="2" height="2" fill="black" fill-opacity="0.5"/>
<rect x="54" y="86" width="2" height="2" fill="black" fill-opacity="0.5"/>
<rect x="52" y="86" width="2" height="2" fill="black" fill-opacity="0.5"/>
<rect x="50" y="86" width="2" height="2" fill="black" fill-opacity="0.5"/>
<rect x="48" y="86" width="2" height="2" fill="black" fill-opacity="0.5"/>
<rect x="60" y="88" width="2" height="2" fill="black" fill-opacity="0.5"/>
<rect x="60" y="90" width="2" height="2" fill="black" fill-opacity="0.5"/>
<rect x="60" y="86" width="2" height="2" fill="black" fill-opacity="0.5"/>
<rect x="64" y="88" width="2" height="2" fill="black" fill-opacity="0.5"/>
<rect x="64" y="90" width="2" height="2" fill="black" fill-opacity="0.5"/>
<rect x="64" y="86" width="2" height="2" fill="black" fill-opacity="0.5"/>
<rect x="68" y="88" width="2" height="2" fill="black" fill-opacity="0.5"/>
<rect x="68" y="90" width="2" height="2" fill="black" fill-opacity="0.5"/>
<rect x="68" y="86" width="2" height="2" fill="black" fill-opacity="0.5"/>
<rect x="70" y="86" width="2" height="2" fill="black" fill-opacity="0.5"/>
<rect x="72" y="86" width="2" height="2" fill="black" fill-opacity="0.5"/>
<rect x="72" y="88" width="2" height="2" fill="black" fill-opacity="0.5"/>
<rect x="76" y="88" width="2" height="2" fill="black" fill-opacity="0.5"/>
<rect x="74" y="86" width="2" height="2" fill="black" fill-opacity="0.5"/>
<rect x="82" y="88" width="2" height="2" fill="#730E00"/>
<rect x="84" y="88" width="2" height="2" fill="#730E00"/>
<rect x="86" y="86" width="2" height="2" fill="#FF0700"/>
<rect x="86" y="88" width="2" height="2" fill="#730E00"/>
<rect x="84" y="86" width="2" height="2" fill="#AA0E03"/>
<rect x="82" y="86" width="2" height="2" fill="#AA0E03"/>
<rect x="84" y="84" width="2" height="2" fill="#FF0700"/>
<rect x="82" y="84" width="2" height="2" fill="#AA0E03"/>
<rect x="80" y="84" width="2" height="2" fill="#AA0E03"/>
<rect x="84" y="82" width="2" height="2" fill="#FF0700"/>
<rect x="82" y="82" width="2" height="2" fill="#FF0700"/>
<rect x="80" y="82" width="2" height="2" fill="#730E00"/>
<rect x="76" y="78" width="2" height="2" fill="#730E00"/>
<rect x="76" y="76" width="2" height="2" fill="#3E0800"/>
<rect x="76" y="74" width="2" height="2" fill="#AA0E03"/>
<rect x="78" y="74" width="2" height="2" fill="#3E0800"/>
<rect x="76" y="72" width="2" height="2" fill="#AA0E03"/>
<rect x="78" y="72" width="2" height="2" fill="#3E0800"/>
<rect x="78" y="76" width="2" height="2" fill="#730E00"/>
<rect x="80" y="74" width="2" height="2" fill="#730E00"/>
<rect x="80" y="72" width="2" height="2" fill="#730E00"/>
<rect x="72" y="82" width="2" height="2" fill="#730E00"/>
<rect x="70" y="82" width="2" height="2" fill="#3E0800"/>
<rect x="68" y="82" width="2" height="2" fill="#3E0800"/>
<rect x="66" y="82" width="2" height="2" fill="#3E0800"/>
<rect x="64" y="82" width="2" height="2" fill="#3E0800"/>
<rect x="62" y="82" width="2" height="2" fill="#3E0800"/>
<rect x="60" y="82" width="2" height="2" fill="#3E0800"/>
<rect x="58" y="82" width="2" height="2" fill="#3E0800"/>
<rect x="56" y="82" width="2" height="2" fill="#3E0800"/>
<rect x="54" y="82" width="2" height="2" fill="#3E0800"/>
<rect x="52" y="82" width="2" height="2" fill="#3E0800"/>
<rect x="50" y="82" width="2" height="2" fill="#3E0800"/>
<rect x="48" y="82" width="2" height="2" fill="#3E0800"/>
<rect x="46" y="82" width="2" height="2" fill="#3E0800"/>
<rect width="2" height="2" transform="matrix(-1 0 0 1 90 80)" fill="#730E00"/>
<rect x="44" y="82" width="2" height="2" fill="#3E0800"/>
<rect width="2" height="2" transform="matrix(-1 0 0 1 92 80)" fill="#FF0700"/>
<rect x="44" y="84" width="2" height="2" fill="#3E0800"/>
<rect width="2" height="2" transform="matrix(-1 0 0 1 92 82)" fill="#AA0E03"/>
<rect x="42" y="84" width="2" height="2" fill="#3E0800"/>
<rect width="2" height="2" transform="matrix(-1 0 0 1 94 82)" fill="#FF0700"/>
<rect x="44" y="80" width="2" height="2" fill="#3E0800"/>
<rect width="2" height="2" transform="matrix(-1 0 0 1 92 78)" fill="#FF0700"/>
<rect x="46" y="80" width="2" height="2" fill="#AA0E03"/>
<rect width="2" height="2" transform="matrix(-1 0 0 1 90 78)" fill="#FF0700"/>
<rect width="2" height="2" transform="matrix(-1 0 0 1 88 78)" fill="#730E00"/>
<rect width="2" height="2" transform="matrix(-1 0 0 1 86 78)" fill="#730E00"/>
<rect width="2" height="2" transform="matrix(-1 0 0 1 84 78)" fill="#3E0800"/>
<rect width="2" height="2" transform="matrix(-1 0 0 1 86 76)" fill="#3E0800"/>
<rect width="2" height="2" transform="matrix(-1 0 0 1 88 76)" fill="#3E0800"/>
<rect width="2" height="2" transform="matrix(-1 0 0 1 86 74)" fill="#3E0800"/>
<rect width="2" height="2" transform="matrix(-1 0 0 1 88 74)" fill="#3E0800"/>
<rect width="2" height="2" transform="matrix(-1 0 0 1 90 74)" fill="#730E00"/>
<rect width="2" height="2" transform="matrix(-1 0 0 1 92 74)" fill="#730E00"/>
<rect width="2" height="2" transform="matrix(-1 0 0 1 94 74)" fill="#730E00"/>
<rect x="24" y="77" width="2" height="2" fill="#FF0700"/>
<rect x="24" y="79" width="2" height="2" fill="#FF0700"/>
<rect x="26" y="79" width="2" height="2" fill="#AA0E03"/>
<rect x="28" y="79" width="2" height="2" fill="#AA0E03"/>
<rect x="24" y="81" width="2" height="2" fill="#AA0E03"/>
<rect x="26" y="81" width="2" height="2" fill="#AA0E03"/>
<rect x="28" y="81" width="2" height="2" fill="#AA0E03"/>
<rect x="24" y="83" width="2" height="2" fill="#AA0E03"/>
<rect x="24" y="85" width="2" height="2" fill="#AA0E03"/>
<rect x="22" y="77" width="2" height="2" fill="#FF0700"/>
<rect x="22" y="79" width="2" height="2" fill="#FF0700"/>
<rect x="22" y="81" width="2" height="2" fill="#FF0700"/>
<rect x="22" y="83" width="2" height="2" fill="#FF0700"/>
<rect x="22" y="85" width="2" height="2" fill="#AA0E03"/>
<rect x="80" y="80" width="2" height="2" fill="#730E00"/>
<rect x="82" y="80" width="2" height="2" fill="#3E0800"/>
<rect x="80" y="78" width="2" height="2" fill="#730E00"/>
<rect x="82" y="76" width="2" height="2" fill="#3E0800"/>
<rect x="82" y="74" width="2" height="2" fill="#3E0800"/>
<rect x="82" y="72" width="2" height="2" fill="#3E0800"/>
<rect x="80" y="70" width="2" height="2" fill="#3E0800"/>
<rect x="80" y="68" width="2" height="2" fill="#AA0E03"/>
<rect x="80" y="66" width="2" height="2" fill="#AA0E03"/>
<rect x="80" y="64" width="2" height="2" fill="#AA0E03"/>
<rect x="80" y="62" width="2" height="2" fill="#AA0E03"/>
<rect x="68" y="54" width="2" height="2" fill="#3E0800"/>
<rect x="52" y="54" width="2" height="2" fill="#3E0800"/>
<rect x="66" y="54" width="2" height="2" fill="#3E0800"/>
<rect x="50" y="54" width="2" height="2" fill="#3E0800"/>
<rect x="64" y="54" width="2" height="2" fill="#3E0800"/>
<rect x="82" y="62" width="2" height="2" fill="#730E00"/>
<rect width="2" height="2" transform="matrix(-1 0 0 1 36 58)" fill="#FF514C"/>
<rect x="82" y="64" width="2" height="2" fill="#730E00"/>
<rect width="2" height="2" transform="matrix(-1 0 0 1 36 60)" fill="#FF0700"/>
<rect x="82" y="66" width="2" height="2" fill="#730E00"/>
<rect width="2" height="2" transform="matrix(-1 0 0 1 36 62)" fill="#FF0700"/>
<rect width="2" height="2" transform="matrix(-1 0 0 1 34 60)" fill="#FF0700"/>
<rect x="84" y="62" width="2" height="2" fill="#730E00"/>
<rect width="2" height="2" transform="matrix(-1 0 0 1 34 58)" fill="#FF0700"/>
<rect x="84" y="60" width="2" height="2" fill="#FF0700"/>
<rect width="2" height="2" transform="matrix(-1 0 0 1 32 56)" fill="#FF514C"/>
<rect x="82" y="60" width="2" height="2" fill="#FF0700"/>
<rect width="2" height="2" transform="matrix(-1 0 0 1 38 60)" fill="#FF0700"/>
<rect width="2" height="2" transform="matrix(-1 0 0 1 38 58)" fill="#FF514C"/>
<rect x="80" y="60" width="2" height="2" fill="#FF0700"/>
<rect x="78" y="60" width="2" height="2" fill="#FF0700"/>
<rect x="76" y="58" width="2" height="2" fill="#FF0700"/>
<rect x="74" y="58" width="2" height="2" fill="#FF0700"/>
<rect x="72" y="58" width="2" height="2" fill="#FF0700"/>
<rect x="70" y="58" width="2" height="2" fill="#FF0700"/>
<rect x="68" y="58" width="2" height="2" fill="#FF0700"/>
<rect x="66" y="58" width="2" height="2" fill="#FF0700"/>
<rect x="64" y="58" width="2" height="2" fill="#FF0700"/>
<rect x="62" y="58" width="2" height="2" fill="#FF0700"/>
<rect x="60" y="58" width="2" height="2" fill="#FF0700"/>
<rect x="58" y="58" width="2" height="2" fill="#FF0700"/>
<rect x="56" y="58" width="2" height="2" fill="#FF0700"/>
<rect x="54" y="58" width="2" height="2" fill="#FF0700"/>
<rect x="52" y="58" width="2" height="2" fill="#FF0700"/>
<rect x="50" y="58" width="2" height="2" fill="#FF0700"/>
<rect x="48" y="58" width="2" height="2" fill="#FF0700"/>
<rect x="46" y="58" width="2" height="2" fill="#FF0700"/>
<rect x="44" y="58" width="2" height="2" fill="#FF0700"/>
<rect x="40" y="62" width="2" height="2" fill="#AA0E03"/>
<rect x="40" y="66" width="2" height="2" fill="#AA0E03"/>
<rect x="40" y="70" width="2" height="2" fill="#AA0E03"/>
<rect x="40" y="74" width="2" height="2" fill="#AA0E03"/>
<rect x="40" y="76" width="2" height="2" fill="#3E0800"/>
<rect x="36" y="74" width="2" height="2" fill="#3E0800"/>
<rect x="32" y="74" width="2" height="2" fill="#AA0E03"/>
<rect x="46" y="78" width="2" height="2" fill="#AA0E03"/>
<rect x="42" y="58" width="2" height="2" fill="#FF0700"/>
<rect x="38" y="62" width="2" height="2" fill="#FF0700"/>
<rect x="38" y="66" width="2" height="2" fill="#AA0E03"/>
<rect x="38" y="70" width="2" height="2" fill="#AA0E03"/>
<rect x="38" y="74" width="2" height="2" fill="#AA0E03"/>
<rect x="38" y="76" width="2" height="2" fill="#3E0800"/>
<rect x="38" y="78" width="2" height="2" fill="#AA0E03"/>
<rect x="34" y="74" width="2" height="2" fill="#AA0E03"/>
<rect x="30" y="74" width="2" height="2" fill="#AA0E03"/>
<rect x="36" y="76" width="2" height="2" fill="#3E0800"/>
<rect x="36" y="78" width="2" height="2" fill="#3E0800"/>
<rect x="36" y="80" width="2" height="2" fill="#AA0E03"/>
<rect x="34" y="82" width="2" height="2" fill="#AA0E03"/>
<rect x="34" y="78" width="2" height="2" fill="#3E0800"/>
<rect x="34" y="80" width="2" height="2" fill="#AA0E03"/>
<rect x="32" y="82" width="2" height="2" fill="#FF0700"/>
<rect x="42" y="86" width="2" height="2" fill="#FF0700"/>
<rect x="44" y="86" width="2" height="2" fill="#AA0E03"/>
<rect width="2" height="2" transform="matrix(-1 0 0 1 94 84)" fill="#FF0700"/>
<rect x="34" y="84" width="2" height="2" fill="#FF0700"/>
<rect x="34" y="86" width="2" height="2" fill="#AA0E03"/>
<rect x="34" y="88" width="2" height="2" fill="#AA0E03"/>
<rect x="40" y="86" width="2" height="2" fill="#FF0700"/>
<rect x="40" y="84" width="2" height="2" fill="#FF0700"/>
<rect width="2" height="2" transform="matrix(-1 0 0 1 96 76)" fill="#730E00"/>
<rect width="2" height="2" transform="matrix(-1 0 0 1 96 78)" fill="#730E00"/>
<rect x="40" y="88" width="2" height="2" fill="#FF0700"/>
<rect width="2" height="2" transform="matrix(-1 0 0 1 94 86)" fill="#FF0700"/>
<rect x="40" y="90" width="2" height="2" fill="#AA0E03"/>
<rect width="2" height="2" transform="matrix(-1 0 0 1 94 88)" fill="#AA0E03"/>
<rect x="42" y="88" width="2" height="2" fill="#FF0700"/>
<rect x="44" y="88" width="2" height="2" fill="#AA0E03"/>
<rect width="2" height="2" transform="matrix(-1 0 0 1 92 86)" fill="#FF0700"/>
<rect x="42" y="90" width="2" height="2" fill="#AA0E03"/>
<rect width="2" height="2" transform="matrix(-1 0 0 1 92 88)" fill="#AA0E03"/>
<rect x="32" y="84" width="2" height="2" fill="#FF0700"/>
<rect x="32" y="86" width="2" height="2" fill="#FF0700"/>
<rect x="32" y="88" width="2" height="2" fill="#AA0E03"/>
<rect x="28" y="73" width="2" height="2" fill="#FF0700"/>
<rect x="32" y="72" width="2" height="2" fill="#3E0800"/>
<rect x="36" y="72" width="2" height="2" fill="#3E0800"/>
<rect x="36" y="70" width="2" height="2" fill="#3E0800"/>
<rect x="36" y="68" width="2" height="2" fill="#AA0E03"/>
<rect x="36" y="66" width="2" height="2" fill="#AA0E03"/>
<rect x="36" y="64" width="2" height="2" fill="#AA0E03"/>
<rect x="36" y="62" width="2" height="2" fill="#FF0700"/>
<rect x="26" y="73" width="2" height="2" fill="#FF0700"/>
<rect x="30" y="72" width="2" height="2" fill="#FF0700"/>
<rect x="34" y="72" width="2" height="2" fill="#3E0800"/>
<rect x="44" y="78" width="2" height="2" fill="#AA0E03"/>
<rect x="74" y="56" width="2" height="2" fill="#FF514C"/>
<rect x="72" y="56" width="2" height="2" fill="#FF514C"/>
<rect x="70" y="56" width="2" height="2" fill="#FF514C"/>
<rect x="68" y="56" width="2" height="2" fill="#FF514C"/>
<rect x="66" y="56" width="2" height="2" fill="#FF514C"/>
<rect x="64" y="56" width="2" height="2" fill="#FF514C"/>
<rect x="62" y="56" width="2" height="2" fill="#FF514C"/>
<rect x="60" y="56" width="2" height="2" fill="#FF514C"/>
<rect x="58" y="56" width="2" height="2" fill="#FF514C"/>
<rect x="56" y="56" width="2" height="2" fill="#FF514C"/>
<rect x="54" y="56" width="2" height="2" fill="#FF514C"/>
<rect x="52" y="56" width="2" height="2" fill="#FF514C"/>
<rect x="50" y="56" width="2" height="2" fill="#FF514C"/>
<rect x="48" y="56" width="2" height="2" fill="#FF514C"/>
<rect x="46" y="56" width="2" height="2" fill="#FF514C"/>
<rect x="44" y="56" width="2" height="2" fill="#FF514C"/>
<rect x="40" y="60" width="2" height="2" fill="#FF0700"/>
<rect x="40" y="58" width="2" height="2" fill="#FF514C"/>
<rect x="40" y="64" width="2" height="2" fill="#AA0E03"/>
<rect x="40" y="68" width="2" height="2" fill="#AA0E03"/>
<rect x="40" y="72" width="2" height="2" fill="#AA0E03"/>
<rect x="42" y="56" width="2" height="2" fill="#FF514C"/>
<rect x="38" y="60" width="2" height="2" fill="#FF0700"/>
<rect x="38" y="58" width="2" height="2" fill="#FF514C"/>
<rect x="38" y="64" width="2" height="2" fill="#AA0E03"/>
<rect x="38" y="68" width="2" height="2" fill="#AA0E03"/>
<rect x="38" y="72" width="2" height="2" fill="#AA0E03"/>
<rect x="78" y="62" width="2" height="2" fill="#AA0E03"/>
<rect x="78" y="64" width="2" height="2" fill="#AA0E03"/>
<rect x="78" y="66" width="2" height="2" fill="#AA0E03"/>
<rect x="66" y="66" width="2" height="2" fill="#FF0700"/>
<rect x="60" y="66" width="2" height="2" fill="#AA0E03"/>
<rect x="64" y="66" width="2" height="2" fill="#AA0E03"/>
<rect x="58" y="66" width="2" height="2" fill="#FF0700"/>
<rect x="62" y="66" width="2" height="2" fill="#AA0E03"/>
<rect x="62" y="68" width="2" height="2" fill="#AA0E03"/>
<rect x="62" y="70" width="2" height="2" fill="#AA0E03"/>
<rect x="64" y="70" width="2" height="2" fill="#AA0E03"/>
<rect x="64" y="68" width="2" height="2" fill="#AA0E03"/>
<rect x="78" y="68" width="2" height="2" fill="#AA0E03"/>
<rect x="78" y="70" width="2" height="2" fill="#AA0E03"/>
<rect x="76" y="62" width="2" height="2" fill="#AA0E03"/>
<rect x="76" y="64" width="2" height="2" fill="#AA0E03"/>
<rect x="76" y="66" width="2" height="2" fill="#AA0E03"/>
<rect x="76" y="68" width="2" height="2" fill="#AA0E03"/>
<rect x="76" y="70" width="2" height="2" fill="#AA0E03"/>
<rect width="2" height="2" transform="matrix(-1 0 0 1 32 60)" fill="#FF0700"/>
<rect x="86" y="62" width="2" height="2" fill="#730E00"/>
<rect width="2" height="2" transform="matrix(-1 0 0 1 32 58)" fill="#FF0700"/>
<rect x="86" y="60" width="2" height="2" fill="#FF0700"/>
<rect width="2" height="2" transform="matrix(-1 0 0 1 30 56)" fill="#FF514C"/>
<rect width="2" height="2" transform="matrix(-1 0 0 1 30 60)" fill="#730E00"/>
<rect width="2" height="2" transform="matrix(-1 0 0 1 30 58)" fill="#FF0700"/>
<rect width="2" height="2" transform="matrix(-1 0 0 1 28 58)" fill="#AA0E03"/>
<rect x="88" y="60" width="2" height="2" fill="#730E00"/>
<rect width="2" height="2" transform="matrix(-1 0 0 1 28 56)" fill="#FF0700"/>
<rect width="2" height="2" transform="matrix(-1 0 0 1 28 54)" fill="#FF0700"/>
<rect width="2" height="2" transform="matrix(-1 0 0 1 26 56)" fill="#AA0E03"/>
<rect x="86" y="58" width="2" height="2" fill="#FF0700"/>
<rect width="2" height="2" transform="matrix(-1 0 0 1 24 54)" fill="#AA0E03"/>
<rect x="86" y="56" width="2" height="2" fill="#FF0700"/>
<rect width="2" height="2" transform="matrix(-1 0 0 1 24 52)" fill="#FF0700"/>
<rect x="86" y="54" width="2" height="2" fill="#FF0700"/>
<rect width="2" height="2" transform="matrix(-1 0 0 1 24 50)" fill="#FF0700"/>
<rect x="86" y="52" width="2" height="2" fill="#FF0700"/>
<rect width="2" height="2" transform="matrix(-1 0 0 1 24 48)" fill="#FF0700"/>
<rect x="86" y="50" width="2" height="2" fill="#FF0700"/>
<rect width="2" height="2" transform="matrix(-1 0 0 1 24 46)" fill="#FF0700"/>
<rect x="84" y="58" width="2" height="2" fill="#FF0700"/>
<rect width="2" height="2" transform="matrix(-1 0 0 1 26 54)" fill="#AA0E03"/>
<rect x="84" y="56" width="2" height="2" fill="#FF0700"/>
<rect width="2" height="2" transform="matrix(-1 0 0 1 26 52)" fill="#FF0700"/>
<rect x="84" y="54" width="2" height="2" fill="#FF0700"/>
<rect width="2" height="2" transform="matrix(-1 0 0 1 26 50)" fill="#FF0700"/>
<rect x="84" y="52" width="2" height="2" fill="#FF0700"/>
<rect width="2" height="2" transform="matrix(-1 0 0 1 26 48)" fill="#FF0700"/>
<rect x="82" y="50" width="2" height="2" fill="#FF0700"/>
<rect width="2" height="2" transform="matrix(-1 0 0 1 28 46)" fill="#AA0E03"/>
<rect x="80" y="50" width="2" height="2" fill="#FF0700"/>
<rect width="2" height="2" transform="matrix(-1 0 0 1 30 46)" fill="#FF0700"/>
<rect x="78" y="50" width="2" height="2" fill="#FF0700"/>
<rect width="2" height="2" transform="matrix(-1 0 0 1 32 46)" fill="#FF0700"/>
<rect x="76" y="50" width="2" height="2" fill="#FF514C"/>
<rect width="2" height="2" transform="matrix(-1 0 0 1 34 46)" fill="#FF514C"/>
<rect x="78" y="52" width="2" height="2" fill="#AA0E03"/>
<rect width="2" height="2" transform="matrix(-1 0 0 1 32 48)" fill="#FF514C"/>
<rect x="80" y="52" width="2" height="2" fill="#FF0700"/>
<rect width="2" height="2" transform="matrix(-1 0 0 1 30 48)" fill="#FF0700"/>
<rect x="80" y="54" width="2" height="2" fill="#AA0E03"/>
<rect width="2" height="2" transform="matrix(-1 0 0 1 30 50)" fill="#FF0700"/>
<rect x="82" y="52" width="2" height="2" fill="#FF0700"/>
<rect width="2" height="2" transform="matrix(-1 0 0 1 28 48)" fill="#FF0700"/>
<rect x="82" y="54" width="2" height="2" fill="#FF0700"/>
<rect width="2" height="2" transform="matrix(-1 0 0 1 28 50)" fill="#FF0700"/>
<rect x="82" y="56" width="2" height="2" fill="#AA0E03"/>
<rect width="2" height="2" transform="matrix(-1 0 0 1 28 52)" fill="#FF0700"/>
<rect x="76" y="46" width="2" height="2" fill="#FF514C"/>
<rect width="2" height="2" transform="matrix(-1 0 0 1 34 42)" fill="#FF514C"/>
<rect x="76" y="42" width="2" height="2" fill="#FF514C"/>
<rect width="2" height="2" transform="matrix(-1 0 0 1 34 38)" fill="#FF514C"/>
<rect x="78" y="40" width="2" height="2" fill="#FF0700"/>
<rect width="2" height="2" transform="matrix(-1 0 0 1 32 36)" fill="#FF0700"/>
<rect x="80" y="40" width="2" height="2" fill="#AA0E03"/>
<rect width="2" height="2" transform="matrix(-1 0 0 1 30 36)" fill="#AA0E03"/>
<rect x="82" y="42" width="2" height="2" fill="#AA0E03"/>
<rect x="94" y="50" width="2" height="2" fill="#AA0E03"/>
<rect width="2" height="2" transform="matrix(-1 0 0 1 16 46)" fill="#FF514C"/>
<rect width="2" height="2" transform="matrix(-1 0 0 1 16 48)" fill="#FF514C"/>
<rect x="92" y="52" width="2" height="2" fill="#AA0E03"/>
<rect width="2" height="2" transform="matrix(-1 0 0 1 18 48)" fill="#FF514C"/>
<rect x="90" y="52" width="2" height="2" fill="#FF0700"/>
<rect width="2" height="2" transform="matrix(-1 0 0 1 20 48)" fill="#FF0700"/>
<rect x="90" y="54" width="2" height="2" fill="#AA0E03"/>
<rect width="2" height="2" transform="matrix(-1 0 0 1 20 50)" fill="#FF514C"/>
<rect width="2" height="2" transform="matrix(-1 0 0 1 14 46)" fill="#FF514C"/>
<rect x="84" y="50" width="2" height="2" fill="#FF0700"/>
<rect width="2" height="2" transform="matrix(-1 0 0 1 26 46)" fill="#AA0E03"/>
<rect x="82" y="48" width="2" height="2" fill="#FF0700"/>
<rect width="2" height="2" transform="matrix(-1 0 0 1 28 44)" fill="#AA0E03"/>
<rect x="80" y="48" width="2" height="2" fill="#FF0700"/>
<rect width="2" height="2" transform="matrix(-1 0 0 1 30 44)" fill="#AA0E03"/>
<rect x="78" y="48" width="2" height="2" fill="#FF0700"/>
<rect width="2" height="2" transform="matrix(-1 0 0 1 32 44)" fill="#FF0700"/>
<rect x="78" y="46" width="2" height="2" fill="#FF0700"/>
<rect width="2" height="2" transform="matrix(-1 0 0 1 32 42)" fill="#FF0700"/>
<rect width="2" height="2" transform="matrix(-1 0 0 1 30 75)" fill="#FF0700"/>
<rect width="2" height="2" transform="matrix(-1 0 0 1 30 77)" fill="#FF0700"/>
<rect width="2" height="2" transform="matrix(-1 0 0 1 28 77)" fill="#FF0700"/>
<rect width="2" height="2" transform="matrix(-1 0 0 1 28 75)" fill="#FF0700"/>
<rect x="78" y="44" width="2" height="2" fill="#FF0700"/>
<rect width="2" height="2" transform="matrix(-1 0 0 1 32 40)" fill="#FF0700"/>
<rect x="80" y="46" width="2" height="2" fill="#FF0700"/>
<rect width="2" height="2" transform="matrix(-1 0 0 1 30 42)" fill="#AA0E03"/>
<rect x="90" y="50" width="2" height="2" fill="#FF0700"/>
<rect width="2" height="2" transform="matrix(-1 0 0 1 20 46)" fill="#FF0700"/>
<rect x="92" y="50" width="2" height="2" fill="#FF0700"/>
<rect width="2" height="2" transform="matrix(-1 0 0 1 18 46)" fill="#FF0700"/>
<rect x="92" y="48" width="2" height="2" fill="#FF0700"/>
<rect width="2" height="2" transform="matrix(-1 0 0 1 18 44)" fill="#FF0700"/>
<rect x="92" y="46" width="2" height="2" fill="#FF0700"/>
<rect width="2" height="2" transform="matrix(-1 0 0 1 18 42)" fill="#FF0700"/>
<rect x="92" y="44" width="2" height="2" fill="#FF0700"/>
<rect width="2" height="2" transform="matrix(-1 0 0 1 18 40)" fill="#FF0700"/>
<rect x="92" y="42" width="2" height="2" fill="#FF0700"/>
<rect width="2" height="2" transform="matrix(-1 0 0 1 18 38)" fill="#FF0700"/>
<rect x="92" y="40" width="2" height="2" fill="#FF0700"/>
<rect width="2" height="2" transform="matrix(-1 0 0 1 18 36)" fill="#FF0700"/>
<rect x="92" y="38" width="2" height="2" fill="#FF0700"/>
<rect width="2" height="2" transform="matrix(-1 0 0 1 18 34)" fill="#FF0700"/>
<rect x="90" y="38" width="2" height="2" fill="#FF0700"/>
<rect width="2" height="2" transform="matrix(-1 0 0 1 20 34)" fill="#AA0E03"/>
<rect x="90" y="40" width="2" height="2" fill="#FF0700"/>
<rect width="2" height="2" transform="matrix(-1 0 0 1 20 36)" fill="#AA0E03"/>
<rect x="90" y="42" width="2" height="2" fill="#FF0700"/>
<rect width="2" height="2" transform="matrix(-1 0 0 1 20 38)" fill="#AA0E03"/>
<rect x="90" y="44" width="2" height="2" fill="#FF0700"/>
<rect width="2" height="2" transform="matrix(-1 0 0 1 20 40)" fill="#FF0700"/>
<rect x="90" y="46" width="2" height="2" fill="#FF0700"/>
<rect width="2" height="2" transform="matrix(-1 0 0 1 20 42)" fill="#FF0700"/>
<rect x="90" y="48" width="2" height="2" fill="#FF0700"/>
<rect width="2" height="2" transform="matrix(-1 0 0 1 20 44)" fill="#FF0700"/>
<rect x="88" y="48" width="2" height="2" fill="#FF0700"/>
<rect width="2" height="2" transform="matrix(-1 0 0 1 22 44)" fill="#FF0700"/>
<rect x="86" y="48" width="2" height="2" fill="#FF0700"/>
<rect width="2" height="2" transform="matrix(-1 0 0 1 24 44)" fill="#AA0E03"/>
<rect x="84" y="48" width="2" height="2" fill="#FF0700"/>
<rect width="2" height="2" transform="matrix(-1 0 0 1 26 44)" fill="#AA0E03"/>
<rect x="82" y="46" width="2" height="2" fill="#FF0700"/>
<rect x="76" y="60" width="2" height="2" fill="#FF0700"/>
<rect x="70" y="60" width="2" height="2" fill="#FF0700"/>
<rect x="70" y="62" width="2" height="2" fill="#FF0700"/>
<rect x="70" y="64" width="2" height="2" fill="#FF0700"/>
<rect x="70" y="66" width="2" height="2" fill="#FF0700"/>
<rect x="70" y="68" width="2" height="2" fill="#FF0700"/>
<rect x="70" y="70" width="2" height="2" fill="#FF0700"/>
<rect x="70" y="72" width="2" height="2" fill="#FF0700"/>
<rect x="70" y="74" width="2" height="2" fill="#FF0700"/>
<rect x="70" y="76" width="2" height="2" fill="#FF0700"/>
<rect x="70" y="78" width="2" height="2" fill="#FF0700"/>
<rect x="70" y="80" width="2" height="2" fill="#AA0E03"/>
<rect x="66" y="60" width="2" height="2" fill="#FF0700"/>
<rect x="66" y="62" width="2" height="2" fill="#FF0700"/>
<rect x="66" y="64" width="2" height="2" fill="#FF0700"/>
<rect x="62" y="60" width="2" height="2" fill="#FF0700"/>
<rect x="62" y="62" width="2" height="2" fill="#AA0E03"/>
<rect x="62" y="64" width="2" height="2" fill="#FF0700"/>
<rect x="58" y="60" width="2" height="2" fill="#FF0700"/>
<rect x="58" y="62" width="2" height="2" fill="#FF0700"/>
<rect x="58" y="64" width="2" height="2" fill="#FF0700"/>
<rect x="54" y="60" width="2" height="2" fill="#FF0700"/>
<rect x="54" y="62" width="2" height="2" fill="#FF0700"/>
<rect x="54" y="64" width="2" height="2" fill="#FF0700"/>
<rect x="54" y="66" width="2" height="2" fill="#FF0700"/>
<rect x="54" y="68" width="2" height="2" fill="#FF0700"/>
<rect x="54" y="70" width="2" height="2" fill="#FF0700"/>
<rect x="50" y="60" width="2" height="2" fill="#FF0700"/>
<rect x="50" y="62" width="2" height="2" fill="#FF0700"/>
<rect x="50" y="64" width="2" height="2" fill="#FF0700"/>
<rect x="50" y="66" width="2" height="2" fill="#FF0700"/>
<rect x="50" y="68" width="2" height="2" fill="#FF0700"/>
<rect x="50" y="70" width="2" height="2" fill="#FF0700"/>
<rect x="46" y="60" width="2" height="2" fill="#FF0700"/>
<rect x="46" y="62" width="2" height="2" fill="#FF0700"/>
<rect x="46" y="64" width="2" height="2" fill="#FF0700"/>
<rect x="46" y="66" width="2" height="2" fill="#FF0700"/>
<rect x="46" y="68" width="2" height="2" fill="#FF0700"/>
<rect x="46" y="70" width="2" height="2" fill="#FF0700"/>
<rect x="46" y="72" width="2" height="2" fill="#FF0700"/>
<rect x="46" y="74" width="2" height="2" fill="#FF0700"/>
<rect x="46" y="76" width="2" height="2" fill="#FF0700"/>
<rect x="42" y="60" width="2" height="2" fill="#AA0E03"/>
<rect x="42" y="62" width="2" height="2" fill="#FF0700"/>
<rect x="42" y="64" width="2" height="2" fill="#FF0700"/>
<rect x="42" y="66" width="2" height="2" fill="#FF0700"/>
<rect x="42" y="68" width="2" height="2" fill="#FF0700"/>
<rect x="42" y="70" width="2" height="2" fill="#FF0700"/>
<rect x="42" y="72" width="2" height="2" fill="#FF0700"/>
<rect x="42" y="74" width="2" height="2" fill="#FF0700"/>
<rect x="42" y="76" width="2" height="2" fill="#AA0E03"/>
<rect x="74" y="60" width="2" height="2" fill="#AA0E03"/>
<rect x="74" y="62" width="2" height="2" fill="#FF0700"/>
<rect x="74" y="64" width="2" height="2" fill="#FF0700"/>
<rect x="74" y="66" width="2" height="2" fill="#FF0700"/>
<rect x="74" y="68" width="2" height="2" fill="#FF0700"/>
<rect x="74" y="70" width="2" height="2" fill="#FF0700"/>
<rect x="74" y="72" width="2" height="2" fill="#AA0E03"/>
<rect x="74" y="74" width="2" height="2" fill="#AA0E03"/>
<rect x="74" y="76" width="2" height="2" fill="#AA0E03"/>
<rect x="74" y="78" width="2" height="2" fill="#AA0E03"/>
<rect x="74" y="80" width="2" height="2" fill="#730E00"/>
<rect x="72" y="60" width="2" height="2" fill="#FF0700"/>
<rect x="72" y="62" width="2" height="2" fill="#FF0700"/>
<rect x="72" y="64" width="2" height="2" fill="#FF0700"/>
<rect x="72" y="66" width="2" height="2" fill="#FF0700"/>
<rect x="72" y="68" width="2" height="2" fill="#FF0700"/>
<rect x="72" y="70" width="2" height="2" fill="#FF0700"/>
<rect x="72" y="72" width="2" height="2" fill="#FF0700"/>
<rect x="72" y="74" width="2" height="2" fill="#FF0700"/>
<rect x="72" y="76" width="2" height="2" fill="#FF0700"/>
<rect x="72" y="78" width="2" height="2" fill="#AA0E03"/>
<rect x="72" y="80" width="2" height="2" fill="#AA0E03"/>
<rect x="68" y="60" width="2" height="2" fill="#FF0700"/>
<rect x="68" y="62" width="2" height="2" fill="#FF0700"/>
<rect x="68" y="64" width="2" height="2" fill="#FF0700"/>
<rect x="68" y="66" width="2" height="2" fill="#FF0700"/>
<rect x="68" y="68" width="2" height="2" fill="#FF0700"/>
<rect x="66" y="68" width="2" height="2" fill="#FF0700"/>
<rect x="68" y="70" width="2" height="2" fill="#FF0700"/>
<rect x="66" y="70" width="2" height="2" fill="#FF0700"/>
<rect x="66" y="72" width="2" height="2" fill="#FF0700"/>
<rect x="64" y="72" width="2" height="2" fill="#FF0700"/>
<rect x="62" y="72" width="2" height="2" fill="#FF0700"/>
<rect x="60" y="72" width="2" height="2" fill="#FF0700"/>
<rect x="58" y="72" width="2" height="2" fill="#FF0700"/>
<rect x="56" y="72" width="2" height="2" fill="#FF0700"/>
<rect x="54" y="72" width="2" height="2" fill="#FF0700"/>
<rect x="52" y="72" width="2" height="2" fill="#FF0700"/>
<rect x="50" y="72" width="2" height="2" fill="#FF0700"/>
<rect x="48" y="72" width="2" height="2" fill="#FF0700"/>
<rect x="66" y="74" width="2" height="2" fill="#FF0700"/>
<rect x="64" y="74" width="2" height="2" fill="#FF0700"/>
<rect x="62" y="74" width="2" height="2" fill="#FF0700"/>
<rect x="60" y="74" width="2" height="2" fill="#FF0700"/>
<rect x="58" y="74" width="2" height="2" fill="#FF0700"/>
<rect x="56" y="74" width="2" height="2" fill="#FF0700"/>
<rect x="54" y="74" width="2" height="2" fill="#FF0700"/>
<rect x="52" y="74" width="2" height="2" fill="#FF0700"/>
<rect x="50" y="74" width="2" height="2" fill="#FF0700"/>
<rect x="48" y="74" width="2" height="2" fill="#FF0700"/>
<rect x="66" y="76" width="2" height="2" fill="#FF0700"/>
<rect x="64" y="76" width="2" height="2" fill="#FF0700"/>
<rect x="62" y="76" width="2" height="2" fill="#FF0700"/>
<rect x="60" y="76" width="2" height="2" fill="#FF0700"/>
<rect x="58" y="76" width="2" height="2" fill="#FF0700"/>
<rect x="56" y="76" width="2" height="2" fill="#FF0700"/>
<rect x="54" y="76" width="2" height="2" fill="#FF0700"/>
<rect x="52" y="76" width="2" height="2" fill="#FF0700"/>
<rect x="50" y="76" width="2" height="2" fill="#FF0700"/>
<rect x="48" y="76" width="2" height="2" fill="#FF0700"/>
<rect x="66" y="78" width="2" height="2" fill="#FF0700"/>
<rect x="64" y="78" width="2" height="2" fill="#FF0700"/>
<rect x="62" y="78" width="2" height="2" fill="#FF0700"/>
<rect x="60" y="78" width="2" height="2" fill="#FF0700"/>
<rect x="58" y="78" width="2" height="2" fill="#FF0700"/>
<rect x="56" y="78" width="2" height="2" fill="#FF0700"/>
<rect x="54" y="78" width="2" height="2" fill="#FF0700"/>
<rect x="52" y="78" width="2" height="2" fill="#FF0700"/>
<rect x="50" y="78" width="2" height="2" fill="#FF0700"/>
<rect x="48" y="78" width="2" height="2" fill="#FF0700"/>
<rect x="66" y="80" width="2" height="2" fill="#AA0E03"/>
<rect x="64" y="80" width="2" height="2" fill="#AA0E03"/>
<rect x="62" y="80" width="2" height="2" fill="#AA0E03"/>
<rect x="60" y="80" width="2" height="2" fill="#AA0E03"/>
<rect x="58" y="80" width="2" height="2" fill="#AA0E03"/>
<rect x="56" y="80" width="2" height="2" fill="#AA0E03"/>
<rect x="54" y="80" width="2" height="2" fill="#AA0E03"/>
<rect x="52" y="80" width="2" height="2" fill="#AA0E03"/>
<rect x="50" y="80" width="2" height="2" fill="#AA0E03"/>
<rect x="48" y="80" width="2" height="2" fill="#AA0E03"/>
<rect x="68" y="72" width="2" height="2" fill="#FF0700"/>
<rect x="68" y="74" width="2" height="2" fill="#FF0700"/>
<rect x="68" y="76" width="2" height="2" fill="#FF0700"/>
<rect x="68" y="78" width="2" height="2" fill="#FF0700"/>
<rect x="68" y="80" width="2" height="2" fill="#AA0E03"/>
<rect x="64" y="60" width="2" height="2" fill="#FF0700"/>
<rect x="64" y="62" width="2" height="2" fill="#AA0E03"/>
<rect x="64" y="64" width="2" height="2" fill="#FF0700"/>
<rect x="60" y="60" width="2" height="2" fill="#FF0700"/>
<rect x="60" y="62" width="2" height="2" fill="#AA0E03"/>
<rect x="60" y="64" width="2" height="2" fill="#FF0700"/>
<rect x="56" y="60" width="2" height="2" fill="#FF0700"/>
<rect x="56" y="62" width="2" height="2" fill="#FF0700"/>
<rect x="56" y="64" width="2" height="2" fill="#FF0700"/>
<rect x="56" y="66" width="2" height="2" fill="#FF0700"/>
<rect x="56" y="68" width="2" height="2" fill="#FF0700"/>
<rect x="58" y="68" width="2" height="2" fill="#FF0700"/>
<rect x="60" y="68" width="2" height="2" fill="#FF0700"/>
<rect x="56" y="70" width="2" height="2" fill="#FF0700"/>
<rect x="58" y="70" width="2" height="2" fill="#FF0700"/>
<rect x="60" y="70" width="2" height="2" fill="#FF0700"/>
<rect x="52" y="60" width="2" height="2" fill="#FF0700"/>
<rect x="52" y="62" width="2" height="2" fill="#FF0700"/>
<rect x="52" y="64" width="2" height="2" fill="#FF0700"/>
<rect x="52" y="66" width="2" height="2" fill="#FF0700"/>
<rect x="52" y="68" width="2" height="2" fill="#FF0700"/>
<rect x="52" y="70" width="2" height="2" fill="#FF0700"/>
<rect x="48" y="60" width="2" height="2" fill="#FF0700"/>
<rect x="48" y="62" width="2" height="2" fill="#FF0700"/>
<rect x="48" y="64" width="2" height="2" fill="#FF0700"/>
<rect x="48" y="66" width="2" height="2" fill="#FF0700"/>
<rect x="48" y="68" width="2" height="2" fill="#FF0700"/>
<rect x="48" y="70" width="2" height="2" fill="#FF0700"/>
<rect x="43.988" y="60" width="2.02405" height="2" fill="#FF0700"/>
<rect x="44" y="62" width="2" height="2" fill="#FF0700"/>
<rect x="44" y="64" width="2" height="2" fill="#FF0700"/>
<rect x="44" y="66" width="2" height="2" fill="#FF0700"/>
<rect x="44" y="68" width="2" height="2" fill="#FF0700"/>
<rect x="44" y="70" width="2" height="2" fill="#FF0700"/>
<rect x="44" y="72" width="2" height="2" fill="#FF0700"/>
<rect x="44" y="74" width="2" height="2" fill="#FF0700"/>
<rect x="44" y="76" width="2" height="2" fill="#AA0E03"/>
<rect width="2" height="2" transform="matrix(-1 0 0 1 28 42)" fill="#AA0E03"/>
<rect x="80" y="44" width="2" height="2" fill="#FF0700"/>
<rect width="2" height="2" transform="matrix(-1 0 0 1 30 40)" fill="#AA0E03"/>
<rect x="80" y="42" width="2" height="2" fill="#FF0700"/>
<rect width="2" height="2" transform="matrix(-1 0 0 1 30 38)" fill="#AA0E03"/>
<rect x="78" y="42" width="2" height="2" fill="#FF0700"/>
<rect width="2" height="2" transform="matrix(-1 0 0 1 32 38)" fill="#FF0700"/>
<rect x="76" y="48" width="2" height="2" fill="#FF514C"/>
<rect width="2" height="2" transform="matrix(-1 0 0 1 34 44)" fill="#FF514C"/>
<rect x="76" y="44" width="2" height="2" fill="#FF514C"/>
<rect width="2" height="2" transform="matrix(-1 0 0 1 34 40)" fill="#FF514C"/>
<rect x="76" y="40" width="2" height="2" fill="#FF514C"/>
<rect width="2" height="2" transform="matrix(-1 0 0 1 34 36)" fill="#FF514C"/>
<rect x="78" y="38" width="2" height="2" fill="#FF514C"/>
<rect width="2" height="2" transform="matrix(-1 0 0 1 32 34)" fill="#FF514C"/>
<rect width="2" height="2" transform="matrix(-1 0 0 1 32 32)" fill="#FF514C"/>
<rect x="80" y="38" width="2" height="2" fill="#FF0700"/>
<rect x="80" y="36" width="2" height="2" fill="#FF514C"/>
<rect x="80" y="34" width="2" height="2" fill="#FF514C"/>
<rect x="78" y="36" width="2" height="2" fill="#FF514C"/>
<rect width="2" height="2" transform="matrix(-1 0 0 1 30 34)" fill="#AA0E03"/>
<rect width="2" height="2" transform="matrix(-1 0 0 1 30 32)" fill="#FF514C"/>
<rect width="2" height="2" transform="matrix(-1 0 0 1 30 30)" fill="#FF514C"/>
<rect x="94" y="48" width="2" height="2" fill="#AA0E03"/>
<rect width="2" height="2" transform="matrix(-1 0 0 1 16 44)" fill="#FF514C"/>
<rect x="94" y="46" width="2" height="2" fill="#AA0E03"/>
<rect width="2" height="2" transform="matrix(-1 0 0 1 16 42)" fill="#FF0700"/>
<rect x="94" y="44" width="2" height="2" fill="#AA0E03"/>
<rect width="2" height="2" transform="matrix(-1 0 0 1 16 40)" fill="#FF0700"/>
<rect x="94" y="42" width="2" height="2" fill="#FF0700"/>
<rect width="2" height="2" transform="matrix(-1 0 0 1 16 38)" fill="#FF0700"/>
<rect x="94" y="40" width="2" height="2" fill="#FF0700"/>
<rect width="2" height="2" transform="matrix(-1 0 0 1 16 36)" fill="#FF0700"/>
<rect x="94" y="38" width="2" height="2" fill="#FF0700"/>
<rect x="94" y="36" width="2" height="2" fill="#AA0E03"/>
<rect width="2" height="2" transform="matrix(-1 0 0 1 16 34)" fill="#FF514C"/>
<rect x="90" y="36" width="2" height="2" fill="#FF0700"/>
<rect width="2" height="2" transform="matrix(-1 0 0 1 20 32)" fill="#FF0700"/>
<rect x="90" y="34" width="2" height="2" fill="#FF514C"/>
<rect width="2" height="2" transform="matrix(-1 0 0 1 20 30)" fill="#FF514C"/>
<rect x="88" y="36" width="2" height="2" fill="#AA0E03"/>
<rect width="2" height="2" transform="matrix(-1 0 0 1 22 32)" fill="#AA0E03"/>
<rect x="88" y="38" width="2" height="2" fill="#AA0E03"/>
<rect width="2" height="2" transform="matrix(-1 0 0 1 22 34)" fill="#AA0E03"/>
<rect x="88" y="40" width="2" height="2" fill="#AA0E03"/>
<rect width="2" height="2" transform="matrix(-1 0 0 1 22 36)" fill="#AA0E03"/>
<rect x="88" y="42" width="2" height="2" fill="#AA0E03"/>
<rect width="2" height="2" transform="matrix(-1 0 0 1 22 38)" fill="#AA0E03"/>
<rect x="88" y="44" width="2" height="2" fill="#AA0E03"/>
<rect width="2" height="2" transform="matrix(-1 0 0 1 22 40)" fill="#AA0E03"/>
<rect x="88" y="46" width="2" height="2" fill="#AA0E03"/>
<rect width="2" height="2" transform="matrix(-1 0 0 1 22 42)" fill="#AA0E03"/>
<rect x="86" y="46" width="2" height="2" fill="#730E00"/>
<rect width="2" height="2" transform="matrix(-1 0 0 1 24 42)" fill="#AA0E03"/>
<rect x="84" y="46" width="2" height="2" fill="#730E00"/>
<rect width="2" height="2" transform="matrix(-1 0 0 1 26 42)" fill="#AA0E03"/>
<rect x="82" y="44" width="2" height="2" fill="#730E00"/>
<rect width="2" height="2" transform="matrix(-1 0 0 1 14 44)" fill="#FF514C"/>
<rect x="96" y="46" width="2" height="2" fill="#AA0E03"/>
<rect width="2" height="2" transform="matrix(-1 0 0 1 14 42)" fill="#FF514C"/>
<rect x="96" y="44" width="2" height="2" fill="#AA0E03"/>
<rect width="2" height="2" transform="matrix(-1 0 0 1 14 40)" fill="#FF514C"/>
<rect x="96" y="42" width="2" height="2" fill="#AA0E03"/>
<rect width="2" height="2" transform="matrix(-1 0 0 1 14 38)" fill="#FF514C"/>
<rect x="96" y="40" width="2" height="2" fill="#AA0E03"/>
<rect width="2" height="2" transform="matrix(-1 0 0 1 14 36)" fill="#FF514C"/>
<rect x="96" y="38" width="2" height="2" fill="#AA0E03"/>
<rect width="2" height="2" transform="matrix(-1 0 0 1 14 34)" fill="#FF514C"/>
<rect x="92" y="36" width="2" height="2" fill="#FF0700"/>
<rect width="2" height="2" transform="matrix(-1 0 0 1 18 32)" fill="#FF514C"/>
<rect x="92" y="34" width="2" height="2" fill="#FF514C"/>
<rect width="2" height="2" transform="matrix(-1 0 0 1 18 30)" fill="#FF514C"/>
<rect x="88" y="34" width="2" height="2" fill="#FF514C"/>
<rect width="2" height="2" transform="matrix(-1 0 0 1 22 30)" fill="#FF514C"/>
<rect width="2" height="2" transform="matrix(-1 0 0 1 22 28)" fill="#FF514C"/>
<rect x="88" y="58" width="2" height="2" fill="#730E00"/>
<rect width="2" height="2" transform="matrix(-1 0 0 1 22 54)" fill="#FF514C"/>
<rect x="88" y="56" width="2" height="2" fill="#730E00"/>
<rect width="2" height="2" transform="matrix(-1 0 0 1 22 52)" fill="#FF514C"/>
<rect x="88" y="54" width="2" height="2" fill="#AA0E03"/>
<rect width="2" height="2" transform="matrix(-1 0 0 1 22 50)" fill="#FF0700"/>
<rect x="88" y="52" width="2" height="2" fill="#FF0700"/>
<rect width="2" height="2" transform="matrix(-1 0 0 1 22 48)" fill="#FF0700"/>
<rect x="88" y="50" width="2" height="2" fill="#FF0700"/>
<rect width="2" height="2" transform="matrix(-1 0 0 1 22 46)" fill="#FF0700"/>
<rect x="82" y="68" width="2" height="2" fill="#AA0E03"/>
<rect width="2" height="2" transform="matrix(-1 0 0 1 36 64)" fill="#AA0E03"/>
<rect width="2" height="2" transform="matrix(-1 0 0 1 34 62)" fill="#3E0800"/>
<rect width="2" height="2" transform="matrix(-1 0 0 1 32 62)" fill="#730E00"/>
<rect width="2" height="2" transform="matrix(-1 0 0 1 30 62)" fill="#730E00"/>
<rect width="2" height="2" transform="matrix(-1 0 0 1 52 52)" fill="#730E00"/>
<rect width="2" height="2" transform="matrix(-1 0 0 1 68 52)" fill="#730E00"/>
<rect width="2" height="2" transform="matrix(-1 0 0 1 50 52)" fill="#730E00"/>
<rect width="2" height="2" transform="matrix(-1 0 0 1 66 52)" fill="#730E00"/>
<rect width="2" height="2" transform="matrix(-1 0 0 1 48 50)" fill="#730E00"/>
<rect width="2" height="2" transform="matrix(-1 0 0 1 64 50)" fill="#730E00"/>
<rect width="2" height="2" transform="matrix(-1 0 0 1 50 50)" fill="#730E00"/>
<rect width="2" height="2" transform="matrix(-1 0 0 1 66 50)" fill="#730E00"/>
<rect width="2" height="2" transform="matrix(-1 0 0 1 52 50)" fill="#271816"/>
<rect width="2" height="2" transform="matrix(-1 0 0 1 68 50)" fill="#271816"/>
<rect width="2" height="2" transform="matrix(-1 0 0 1 54 50)" fill="#271816"/>
<rect width="2" height="2" transform="matrix(-1 0 0 1 70 50)" fill="#271816"/>
<rect width="2" height="2" transform="matrix(-1 0 0 1 48 48)" fill="#730E00"/>
<rect width="2" height="2" transform="matrix(-1 0 0 1 64 48)" fill="#730E00"/>
<rect width="2" height="2" transform="matrix(-1 0 0 1 50 48)" fill="#271816"/>
<rect width="2" height="2" transform="matrix(-1 0 0 1 66 48)" fill="#271816"/>
<rect width="2" height="2" transform="matrix(-1 0 0 1 52 48)" fill="#DECDBF"/>
<rect width="2" height="2" transform="matrix(-1 0 0 1 68 48)" fill="#DECDBF"/>
<rect width="2" height="2" transform="matrix(-1 0 0 1 54 48)" fill="#DECDBF"/>
<rect width="2" height="2" transform="matrix(-1 0 0 1 70 48)" fill="#DECDBF"/>
<rect width="2" height="2" transform="matrix(-1 0 0 1 48 46)" fill="#730E00"/>
<rect width="2" height="2" transform="matrix(-1 0 0 1 64 46)" fill="#730E00"/>
<rect width="2" height="2" transform="matrix(-1 0 0 1 50 46)" fill="#271816"/>
<rect width="2" height="2" transform="matrix(-1 0 0 1 66 46)" fill="#271816"/>
<rect width="2" height="2" transform="matrix(-1 0 0 1 52 46)" fill="#DECDBF"/>
<rect width="2" height="2" transform="matrix(-1 0 0 1 68 46)" fill="#DECDBF"/>
<rect width="2" height="2" transform="matrix(-1 0 0 1 54 46)" fill="white"/>
<rect width="2" height="2" transform="matrix(-1 0 0 1 70 46)" fill="white"/>
<rect width="2" height="2" transform="matrix(-1 0 0 1 48 44)" fill="#730E00"/>
<rect width="2" height="2" transform="matrix(-1 0 0 1 64 44)" fill="#730E00"/>
<rect width="2" height="2" transform="matrix(-1 0 0 1 50 44)" fill="#271816"/>
<rect width="2" height="2" transform="matrix(-1 0 0 1 66 44)" fill="#271816"/>
<rect width="2" height="2" transform="matrix(-1 0 0 1 52 44)" fill="white"/>
<rect width="2" height="2" transform="matrix(-1 0 0 1 68 44)" fill="white"/>
<rect width="2" height="2" transform="matrix(-1 0 0 1 54 44)" fill="white"/>
<rect width="2" height="2" transform="matrix(-1 0 0 1 70 44)" fill="white"/>
<rect width="2" height="2" transform="matrix(-1 0 0 1 56 44)" fill="#271816"/>
<rect width="2" height="2" transform="matrix(-1 0 0 1 72 44)" fill="#271816"/>
<rect width="2" height="2" transform="matrix(-1 0 0 1 54 42)" fill="#AA0E03"/>
<rect width="2" height="2" transform="matrix(-1 0 0 1 70 42)" fill="#AA0E03"/>
<rect width="2" height="2" transform="matrix(-1 0 0 1 52 42)" fill="#AA0E03"/>
<rect width="2" height="2" transform="matrix(-1 0 0 1 68 42)" fill="#AA0E03"/>
<rect width="2" height="2" transform="matrix(-1 0 0 1 50 42)" fill="#FF0700"/>
<rect width="2" height="2" transform="matrix(-1 0 0 1 66 42)" fill="#FF0700"/>
<rect width="2" height="2" transform="matrix(-1 0 0 1 56 46)" fill="#271816"/>
<rect width="2" height="2" transform="matrix(-1 0 0 1 72 46)" fill="#271816"/>
<rect width="2" height="2" transform="matrix(-1 0 0 1 56 48)" fill="#271816"/>
<rect width="2" height="2" transform="matrix(-1 0 0 1 72 48)" fill="#271816"/>
<rect width="2" height="2" transform="matrix(-1 0 0 1 56 50)" fill="#730E00"/>
<rect width="2" height="2" transform="matrix(-1 0 0 1 72 50)" fill="#730E00"/>
<rect width="2" height="2" transform="matrix(-1 0 0 1 54 52)" fill="#730E00"/>
<rect width="2" height="2" transform="matrix(-1 0 0 1 70 52)" fill="#730E00"/>
<rect x="82" y="70" width="2" height="2" fill="#AA0E03"/>
<rect width="2" height="2" transform="matrix(-1 0 0 1 36 66)" fill="#AA0E03"/>
<rect x="84" y="68" width="2" height="2" fill="#730E00"/>
<rect width="2" height="2" transform="matrix(-1 0 0 1 34 64)" fill="#730E00"/>
<rect x="84" y="72" width="2" height="2" fill="#AA0E03"/>
<rect width="2" height="2" transform="matrix(-1 0 0 1 36 68)" fill="#AA0E03"/>
<rect x="86" y="72" width="2" height="2" fill="#AA0E03"/>
<rect width="2" height="2" transform="matrix(-1 0 0 1 34 68)" fill="#3E0800"/>
<rect x="84" y="70" width="2" height="2" fill="#AA0E03"/>
<rect width="2" height="2" transform="matrix(-1 0 0 1 34 66)" fill="#730E00"/>
<rect x="88" y="72" width="2" height="2" fill="#AA0E03"/>
<rect x="86" y="70" width="2" height="2" fill="#730E00"/>
<rect x="90" y="72" width="2" height="2" fill="#FF0700"/>
<rect x="88" y="70" width="2" height="2" fill="#FF0700"/>
<rect x="92" y="72" width="2" height="2" fill="#FF0700"/>
<rect x="90" y="70" width="2" height="2" fill="#FF0700"/>
<rect x="92" y="70" width="2" height="2" fill="#FF0700"/>
<rect x="94.0049" y="71.9951" width="2" height="2" transform="rotate(0.279067 94.0049 71.9951)" fill="#FF0700"/>
<rect x="94" y="74" width="2" height="2" fill="#FF0700"/>
<rect x="96" y="76" width="2" height="2" fill="#FF0700"/>
<rect x="96" y="78" width="2" height="2" fill="#730E00"/>
<rect x="98" y="80" width="2" height="2" fill="#730E00"/>
<rect x="98" y="82" width="2" height="2" fill="#730E00"/>
<rect x="100" y="82" width="2" height="2" fill="#AA0E03"/>
<rect x="100" y="84" width="2" height="2" fill="#730E00"/>
<rect x="100" y="80" width="2" height="2" fill="#FF0700"/>
<rect x="98" y="78" width="2" height="2" fill="#FF0700"/>
<rect x="98" y="76" width="2" height="2" fill="#FF0700"/>
<rect x="96" y="74" width="2" height="2" fill="#FF0700"/>
</svg>
