<svg width="16" height="16" viewBox="0 0 16 16" fill="none" xmlns="http://www.w3.org/2000/svg">
<path d="M12 10.67C11.47 10.67 10.99 10.88 10.63 11.22L5.91 8.47C5.95 8.32 5.97 8.16 5.97 8C5.97 7.84 5.95 7.68 5.91 7.53L10.57 4.81C10.95 5.17 11.45 5.39 12 5.39C13.16 5.39 14.1 4.45 14.1 3.29C14.1 2.13 13.16 1.19 12 1.19C10.84 1.19 9.9 2.13 9.9 3.29C9.9 3.45 9.92 3.61 9.96 3.76L5.3 6.48C4.92 6.12 4.42 5.9 3.87 5.9C2.71 5.9 1.77 6.84 1.77 8C1.77 9.16 2.71 10.1 3.87 10.1C4.42 10.1 4.92 9.88 5.3 9.52L10.01 12.27C9.97 12.41 9.95 12.56 9.95 12.71C9.95 13.84 10.87 14.76 12 14.76C13.13 14.76 14.05 13.84 14.05 12.71C14.05 11.58 13.13 10.67 12 10.67Z" fill="currentColor"/>
</svg>
