<svg xmlns="http://www.w3.org/2000/svg" width="20" height="22" viewBox="0 0 20 22" shape-rendering="crispEdges">
  <!-- border (#a9cff3) -->
  <rect x="8" y="0" width="2" height="2" fill="#a9cff3"/>
  <rect x="10" y="0" width="2" height="2" fill="#a9cff3"/>
  <rect x="4" y="2" width="2" height="2" fill="#a9cff3"/>
  <rect x="6" y="2" width="2" height="2" fill="#a9cff3"/>
  <rect x="12" y="2" width="2" height="2" fill="#a9cff3"/>
  <rect x="14" y="2" width="2" height="2" fill="#a9cff3"/>
  <rect x="2" y="4" width="2" height="2" fill="#a9cff3"/>
  <rect x="16" y="4" width="2" height="2" fill="#a9cff3"/>
  <rect x="2" y="6" width="2" height="2" fill="#a9cff3"/>
  <rect x="0" y="8" width="2" height="2" fill="#a9cff3"/>
  <rect x="0" y="10" width="2" height="2" fill="#a9cff3"/>
  <rect x="0" y="12" width="2" height="2" fill="#a9cff3"/>
  <rect x="18" y="8" width="2" height="2" fill="#a9cff3"/>
  <rect x="18" y="10" width="2" height="2" fill="#a9cff3"/>
  <rect x="18" y="12" width="2" height="2" fill="#a9cff3"/>
  <rect x="14" y="8" width="2" height="2" fill="#a9cff3"/>
  <rect x="12" y="10" width="2" height="2" fill="#a9cff3"/>
  <rect x="6" y="10" width="2" height="2" fill="#a9cff3"/>
  <rect x="10" y="12" width="2" height="2" fill="#a9cff3"/>
  <rect x="2" y="14" width="2" height="2" fill="#a9cff3"/>
  <rect x="16" y="14" width="2" height="2" fill="#a9cff3"/>
  <rect x="2" y="16" width="2" height="2" fill="#a9cff3"/>
  <rect x="16" y="16" width="2" height="2" fill="#a9cff3"/>
  <rect x="4" y="18" width="2" height="2" fill="#a9cff3"/>
  <rect x="6" y="18" width="2" height="2" fill="#a9cff3"/>
  <rect x="12" y="18" width="2" height="2" fill="#a9cff3"/>
  <rect x="14" y="18" width="2" height="2" fill="#a9cff3"/>
  <rect x="8" y="20" width="2" height="2" fill="#a9cff3"/>
  <rect x="10" y="20" width="2" height="2" fill="#a9cff3"/>
  <!-- highlight (#d5ebff) -->
  <rect x="16" y="6" width="2" height="2" fill="#d5ebff"/>
  <rect x="8" y="14" width="2" height="2" fill="#d5ebff"/>
  <!-- fill (#56a0e7) -->
  <rect x="8" y="2" width="2" height="2" fill="#56a0e7"/>
  <rect x="10" y="2" width="2" height="2" fill="#56a0e7"/>
  <rect x="4" y="4" width="2" height="2" fill="#56a0e7"/>
  <rect x="6" y="4" width="2" height="2" fill="#56a0e7"/>
  <rect x="8" y="4" width="2" height="2" fill="#56a0e7"/>
  <rect x="10" y="4" width="2" height="2" fill="#56a0e7"/>
  <rect x="12" y="4" width="2" height="2" fill="#56a0e7"/>
  <rect x="14" y="4" width="2" height="2" fill="#56a0e7"/>
  <rect x="4" y="6" width="2" height="2" fill="#56a0e7"/>
  <rect x="6" y="6" width="2" height="2" fill="#56a0e7"/>
  <rect x="8" y="6" width="2" height="2" fill="#56a0e7"/>
  <rect x="10" y="6" width="2" height="2" fill="#56a0e7"/>
  <rect x="12" y="6" width="2" height="2" fill="#56a0e7"/>
  <rect x="2" y="8" width="2" height="2" fill="#56a0e7"/>
  <rect x="4" y="8" width="2" height="2" fill="#56a0e7"/>
  <rect x="6" y="8" width="2" height="2" fill="#56a0e7"/>
  <rect x="8" y="8" width="2" height="2" fill="#56a0e7"/>
  <rect x="10" y="8" width="2" height="2" fill="#56a0e7"/>
  <rect x="16" y="8" width="2" height="2" fill="#56a0e7"/>
  <rect x="2" y="10" width="2" height="2" fill="#56a0e7"/>
  <rect x="8" y="10" width="2" height="2" fill="#56a0e7"/>
  <rect x="14" y="10" width="2" height="2" fill="#56a0e7"/>
  <rect x="16" y="10" width="2" height="2" fill="#56a0e7"/>
  <rect x="2" y="12" width="2" height="2" fill="#56a0e7"/>
  <rect x="4" y="12" width="2" height="2" fill="#56a0e7"/>
  <rect x="12" y="12" width="2" height="2" fill="#56a0e7"/>
  <rect x="14" y="12" width="2" height="2" fill="#56a0e7"/>
  <rect x="16" y="12" width="2" height="2" fill="#56a0e7"/>
  <rect x="4" y="14" width="2" height="2" fill="#56a0e7"/>
  <rect x="6" y="14" width="2" height="2" fill="#56a0e7"/>
  <rect x="10" y="14" width="2" height="2" fill="#56a0e7"/>
  <rect x="12" y="14" width="2" height="2" fill="#56a0e7"/>
  <rect x="14" y="14" width="2" height="2" fill="#56a0e7"/>
  <rect x="4" y="16" width="2" height="2" fill="#56a0e7"/>
  <rect x="6" y="16" width="2" height="2" fill="#56a0e7"/>
  <rect x="8" y="16" width="2" height="2" fill="#56a0e7"/>
  <rect x="10" y="16" width="2" height="2" fill="#56a0e7"/>
  <rect x="12" y="16" width="2" height="2" fill="#56a0e7"/>
  <rect x="14" y="16" width="2" height="2" fill="#56a0e7"/>
  <rect x="8" y="18" width="2" height="2" fill="#56a0e7"/>
  <rect x="10" y="18" width="2" height="2" fill="#56a0e7"/>
  <!-- checkmark (#ffffff) -->
  <rect x="14" y="6" width="2" height="2" fill="#ffffff"/>
  <rect x="12" y="8" width="2" height="2" fill="#ffffff"/>
  <rect x="4" y="10" width="2" height="2" fill="#ffffff"/>
  <rect x="10" y="10" width="2" height="2" fill="#ffffff"/>
  <rect x="6" y="12" width="2" height="2" fill="#ffffff"/>
  <rect x="8" y="12" width="2" height="2" fill="#ffffff"/>
</svg>
