<svg width="51" height="32" viewBox="0 0 51 32" fill="none" xmlns="http://www.w3.org/2000/svg">
<rect x="38.8571" width="1.14286" height="1.14286" fill="white"/>
<rect width="1.14286" height="1.14286" transform="matrix(-1 0 0 1 11.4286 0)" fill="white"/>
<rect x="43.4286" width="1.14286" height="1.14286" fill="white"/>
<rect width="1.14286" height="1.14286" transform="matrix(-1 0 0 1 6.85715 0)" fill="white"/>
<rect x="44.5714" width="1.14286" height="1.14286" fill="white"/>
<rect width="1.14286" height="1.14286" transform="matrix(-1 0 0 1 5.71429 0)" fill="white"/>
<rect x="45.7143" width="1.14286" height="1.14286" fill="white"/>
<rect width="1.14286" height="1.14286" transform="matrix(-1 0 0 1 4.57144 0)" fill="white"/>
<rect x="37.7143" y="1.14285" width="1.14286" height="1.14286" fill="white"/>
<rect width="1.14286" height="1.14286" transform="matrix(-1 0 0 1 12.5714 1.14285)" fill="white"/>
<rect x="38.8571" y="1.14285" width="1.14286" height="1.14286" fill="white"/>
<rect width="1.14286" height="1.14286" transform="matrix(-1 0 0 1 11.4286 1.14285)" fill="white"/>
<rect x="44.5714" y="1.14285" width="1.14286" height="1.14286" fill="white"/>
<rect width="1.14286" height="1.14286" transform="matrix(-1 0 0 1 5.71429 1.14285)" fill="white"/>
<rect x="45.7143" y="1.14285" width="1.14286" height="1.14286" fill="white"/>
<rect width="1.14286" height="1.14286" transform="matrix(-1 0 0 1 4.57144 1.14285)" fill="white"/>
<rect x="46.8571" y="1.14285" width="1.14286" height="1.14286" fill="white"/>
<rect width="1.14286" height="1.14286" transform="matrix(-1 0 0 1 3.42856 1.14285)" fill="white"/>
<rect x="37.7143" y="2.28572" width="1.14286" height="1.14286" fill="white"/>
<rect width="1.14286" height="1.14286" transform="matrix(-1 0 0 1 12.5714 2.28572)" fill="white"/>
<rect x="38.8571" y="2.28572" width="1.14286" height="1.14286" fill="white"/>
<rect width="1.14286" height="1.14286" transform="matrix(-1 0 0 1 11.4286 2.28572)" fill="white"/>
<rect x="45.7143" y="2.28572" width="1.14286" height="1.14286" fill="white"/>
<rect width="1.14286" height="1.14286" transform="matrix(-1 0 0 1 4.57144 2.28572)" fill="white"/>
<rect x="46.8571" y="2.28572" width="1.14286" height="1.14286" fill="white"/>
<rect width="1.14286" height="1.14286" transform="matrix(-1 0 0 1 3.42856 2.28572)" fill="white"/>
<rect x="48" y="2.28572" width="1.14286" height="1.14286" fill="white"/>
<rect width="1.14286" height="1.14286" transform="matrix(-1 0 0 1 2.28571 2.28572)" fill="white"/>
<rect x="36.5714" y="3.42857" width="1.14286" height="1.14286" fill="white"/>
<rect width="1.14286" height="1.14286" transform="matrix(-1 0 0 1 13.7143 3.42857)" fill="white"/>
<rect x="37.7143" y="3.42857" width="1.14286" height="1.14286" fill="white"/>
<rect width="1.14286" height="1.14286" transform="matrix(-1 0 0 1 12.5714 3.42857)" fill="white"/>
<rect x="38.8571" y="3.42857" width="1.14286" height="1.14286" fill="white"/>
<rect width="1.14286" height="1.14286" transform="matrix(-1 0 0 1 11.4286 3.42857)" fill="white"/>
<rect x="45.7143" y="3.42857" width="1.14286" height="1.14286" fill="white"/>
<rect width="1.14286" height="1.14286" transform="matrix(-1 0 0 1 4.57144 3.42857)" fill="white"/>
<rect x="46.8571" y="3.42857" width="1.14286" height="1.14286" fill="white"/>
<rect width="1.14286" height="1.14286" transform="matrix(-1 0 0 1 3.42856 3.42857)" fill="white"/>
<rect x="48" y="3.42857" width="1.14286" height="1.14286" fill="white"/>
<rect width="1.14286" height="1.14286" transform="matrix(-1 0 0 1 2.28571 3.42857)" fill="white"/>
<rect width="1.14286" height="1.14286" transform="matrix(-1 0 0 1 29.1429 4.57143)" fill="white"/>
<rect x="21.1429" y="4.57143" width="1.14286" height="1.14286" fill="white"/>
<rect width="1.14286" height="1.14286" transform="matrix(-1 0 0 1 30.2857 4.57143)" fill="white"/>
<rect x="20" y="4.57143" width="1.14286" height="1.14286" fill="white"/>
<rect width="1.14286" height="1.14286" transform="matrix(-1 0 0 1 31.4286 4.57143)" fill="white"/>
<rect x="18.8571" y="4.57143" width="1.14286" height="1.14286" fill="white"/>
<rect x="36.5714" y="4.57143" width="1.14286" height="1.14286" fill="white"/>
<rect width="1.14286" height="1.14286" transform="matrix(-1 0 0 1 13.7143 4.57143)" fill="white"/>
<rect x="37.7143" y="4.57143" width="1.14286" height="1.14286" fill="white"/>
<rect width="1.14286" height="1.14286" transform="matrix(-1 0 0 1 12.5714 4.57143)" fill="white"/>
<rect x="38.8571" y="4.57143" width="1.14286" height="1.14286" fill="white"/>
<rect width="1.14286" height="1.14286" transform="matrix(-1 0 0 1 11.4286 4.57143)" fill="white"/>
<rect x="40" y="4.57143" width="1.14286" height="1.14286" fill="white"/>
<rect width="1.14286" height="1.14286" transform="matrix(-1 0 0 1 10.2857 4.57143)" fill="white"/>
<rect x="44.5714" y="4.57143" width="1.14286" height="1.14286" fill="white"/>
<rect width="1.14286" height="1.14286" transform="matrix(-1 0 0 1 5.71429 4.57143)" fill="white"/>
<rect x="45.7143" y="4.57143" width="1.14286" height="1.14286" fill="white"/>
<rect width="1.14286" height="1.14286" transform="matrix(-1 0 0 1 4.57144 4.57143)" fill="white"/>
<rect x="46.8571" y="4.57143" width="1.14286" height="1.14286" fill="white"/>
<rect width="1.14286" height="1.14286" transform="matrix(-1 0 0 1 3.42856 4.57143)" fill="white"/>
<rect x="48" y="4.57143" width="1.14286" height="1.14286" fill="white"/>
<rect width="1.14286" height="1.14286" transform="matrix(-1 0 0 1 2.28571 4.57143)" fill="white"/>
<rect width="1.14286" height="1.14286" transform="matrix(-1 0 0 1 28 5.71428)" fill="white"/>
<rect x="22.2857" y="5.71428" width="1.14286" height="1.14286" fill="white"/>
<rect width="1.14286" height="1.14286" transform="matrix(-1 0 0 1 29.1429 5.71428)" fill="white"/>
<rect x="21.1429" y="5.71428" width="1.14286" height="1.14286" fill="white"/>
<rect width="1.14286" height="1.14286" transform="matrix(-1 0 0 1 30.2857 5.71428)" fill="white"/>
<rect x="20" y="5.71428" width="1.14286" height="1.14286" fill="white"/>
<rect width="1.14286" height="1.14286" transform="matrix(-1 0 0 1 31.4286 5.71428)" fill="white"/>
<rect x="18.8571" y="5.71428" width="1.14286" height="1.14286" fill="white"/>
<rect width="1.14286" height="1.14286" transform="matrix(-1 0 0 1 32.5714 5.71428)" fill="white"/>
<rect x="17.7143" y="5.71428" width="1.14286" height="1.14286" fill="white"/>
<rect x="36.5714" y="5.71428" width="1.14286" height="1.14286" fill="white"/>
<rect width="1.14286" height="1.14286" transform="matrix(-1 0 0 1 13.7143 5.71428)" fill="white"/>
<rect x="37.7143" y="5.71428" width="1.14286" height="1.14286" fill="white"/>
<rect width="1.14286" height="1.14286" transform="matrix(-1 0 0 1 12.5714 5.71428)" fill="white"/>
<rect x="38.8571" y="5.71428" width="1.14286" height="1.14286" fill="white"/>
<rect width="1.14286" height="1.14286" transform="matrix(-1 0 0 1 11.4286 5.71428)" fill="white"/>
<rect x="40" y="5.71428" width="1.14286" height="1.14286" fill="white"/>
<rect width="1.14286" height="1.14286" transform="matrix(-1 0 0 1 10.2857 5.71428)" fill="white"/>
<rect x="43.4286" y="5.71428" width="1.14286" height="1.14286" fill="white"/>
<rect width="1.14286" height="1.14286" transform="matrix(-1 0 0 1 6.85715 5.71428)" fill="white"/>
<rect x="44.5714" y="5.71428" width="1.14286" height="1.14286" fill="white"/>
<rect width="1.14286" height="1.14286" transform="matrix(-1 0 0 1 5.71429 5.71428)" fill="white"/>
<rect x="45.7143" y="5.71428" width="1.14286" height="1.14286" fill="white"/>
<rect width="1.14286" height="1.14286" transform="matrix(-1 0 0 1 4.57144 5.71428)" fill="white"/>
<rect x="46.8571" y="5.71428" width="1.14286" height="1.14286" fill="white"/>
<rect width="1.14286" height="1.14286" transform="matrix(-1 0 0 1 3.42856 5.71428)" fill="white"/>
<rect x="48" y="5.71428" width="1.14286" height="1.14286" fill="white"/>
<rect width="1.14286" height="1.14286" transform="matrix(-1 0 0 1 2.28571 5.71428)" fill="white"/>
<rect width="1.14286" height="1.14286" transform="matrix(-1 0 0 1 28 6.85715)" fill="white"/>
<rect x="22.2857" y="6.85715" width="1.14286" height="1.14286" fill="white"/>
<rect width="1.14286" height="1.14286" transform="matrix(-1 0 0 1 29.1429 6.85715)" fill="white"/>
<rect x="21.1429" y="6.85715" width="1.14286" height="1.14286" fill="white"/>
<rect width="1.14286" height="1.14286" transform="matrix(-1 0 0 1 30.2857 6.85715)" fill="white"/>
<rect x="20" y="6.85715" width="1.14286" height="1.14286" fill="white"/>
<rect width="1.14286" height="1.14286" transform="matrix(-1 0 0 1 31.4286 6.85715)" fill="white"/>
<rect x="18.8571" y="6.85715" width="1.14286" height="1.14286" fill="white"/>
<rect width="1.14286" height="1.14286" transform="matrix(-1 0 0 1 32.5714 6.85715)" fill="white"/>
<rect x="17.7143" y="6.85715" width="1.14286" height="1.14286" fill="white"/>
<rect x="36.5714" y="6.85715" width="1.14286" height="1.14286" fill="white"/>
<rect width="1.14286" height="1.14286" transform="matrix(-1 0 0 1 13.7143 6.85715)" fill="white"/>
<rect x="37.7143" y="6.85715" width="1.14286" height="1.14286" fill="white"/>
<rect width="1.14286" height="1.14286" transform="matrix(-1 0 0 1 12.5714 6.85715)" fill="white"/>
<rect x="38.8571" y="6.85715" width="1.14286" height="1.14286" fill="white"/>
<rect width="1.14286" height="1.14286" transform="matrix(-1 0 0 1 11.4286 6.85715)" fill="white"/>
<rect x="40" y="6.85715" width="1.14286" height="1.14286" fill="white"/>
<rect width="1.14286" height="1.14286" transform="matrix(-1 0 0 1 10.2857 6.85715)" fill="white"/>
<rect x="41.1429" y="6.85715" width="1.14286" height="1.14286" fill="white"/>
<rect width="1.14286" height="1.14286" transform="matrix(-1 0 0 1 9.14285 6.85715)" fill="white"/>
<rect x="42.2857" y="6.85715" width="1.14286" height="1.14286" fill="white"/>
<rect width="1.14286" height="1.14286" transform="matrix(-1 0 0 1 8 6.85715)" fill="white"/>
<rect x="43.4286" y="6.85715" width="1.14286" height="1.14286" fill="white"/>
<rect width="1.14286" height="1.14286" transform="matrix(-1 0 0 1 6.85715 6.85715)" fill="white"/>
<rect x="44.5714" y="6.85715" width="1.14286" height="1.14286" fill="white"/>
<rect width="1.14286" height="1.14286" transform="matrix(-1 0 0 1 5.71429 6.85715)" fill="white"/>
<rect x="45.7143" y="6.85715" width="1.14286" height="1.14286" fill="white"/>
<rect width="1.14286" height="1.14286" transform="matrix(-1 0 0 1 4.57144 6.85715)" fill="white"/>
<rect x="46.8571" y="6.85715" width="1.14286" height="1.14286" fill="white"/>
<rect width="1.14286" height="1.14286" transform="matrix(-1 0 0 1 3.42856 6.85715)" fill="white"/>
<rect x="48" y="6.85715" width="1.14286" height="1.14286" fill="white"/>
<rect width="1.14286" height="1.14286" transform="matrix(-1 0 0 1 2.28571 6.85715)" fill="white"/>
<rect width="1.14286" height="1.14286" transform="matrix(-1 0 0 1 28 8)" fill="white"/>
<rect x="22.2857" y="8" width="1.14286" height="1.14286" fill="white"/>
<rect width="1.14286" height="1.14286" transform="matrix(-1 0 0 1 29.1429 8)" fill="white"/>
<rect x="21.1429" y="8" width="1.14286" height="1.14286" fill="white"/>
<rect width="1.14286" height="1.14286" transform="matrix(-1 0 0 1 30.2857 8)" fill="white"/>
<rect x="20" y="8" width="1.14286" height="1.14286" fill="white"/>
<rect width="1.14286" height="1.14286" transform="matrix(-1 0 0 1 31.4286 8)" fill="white"/>
<rect x="18.8571" y="8" width="1.14286" height="1.14286" fill="white"/>
<rect width="1.14286" height="1.14286" transform="matrix(-1 0 0 1 32.5714 8)" fill="white"/>
<rect x="17.7143" y="8" width="1.14286" height="1.14286" fill="white"/>
<rect x="36.5714" y="8" width="1.14286" height="1.14286" fill="white"/>
<rect width="1.14286" height="1.14286" transform="matrix(-1 0 0 1 13.7143 8)" fill="white"/>
<rect x="37.7143" y="8" width="1.14286" height="1.14286" fill="white"/>
<rect width="1.14286" height="1.14286" transform="matrix(-1 0 0 1 12.5714 8)" fill="white"/>
<rect x="38.8571" y="8" width="1.14286" height="1.14286" fill="white"/>
<rect width="1.14286" height="1.14286" transform="matrix(-1 0 0 1 11.4286 8)" fill="white"/>
<rect x="40" y="8" width="1.14286" height="1.14286" fill="white"/>
<rect width="1.14286" height="1.14286" transform="matrix(-1 0 0 1 10.2857 8)" fill="white"/>
<rect x="41.1429" y="8" width="1.14286" height="1.14286" fill="white"/>
<rect width="1.14286" height="1.14286" transform="matrix(-1 0 0 1 9.14285 8)" fill="white"/>
<rect x="42.2857" y="8" width="1.14286" height="1.14286" fill="white"/>
<rect width="1.14286" height="1.14286" transform="matrix(-1 0 0 1 8 8)" fill="white"/>
<rect x="43.4286" y="8" width="1.14286" height="1.14286" fill="white"/>
<rect width="1.14286" height="1.14286" transform="matrix(-1 0 0 1 6.85715 8)" fill="white"/>
<rect x="44.5714" y="8" width="1.14286" height="1.14286" fill="white"/>
<rect width="1.14286" height="1.14286" transform="matrix(-1 0 0 1 5.71429 8)" fill="white"/>
<rect x="45.7143" y="8" width="1.14286" height="1.14286" fill="white"/>
<rect width="1.14286" height="1.14286" transform="matrix(-1 0 0 1 4.57144 8)" fill="white"/>
<rect x="46.8571" y="8" width="1.14286" height="1.14286" fill="white"/>
<rect width="1.14286" height="1.14286" transform="matrix(-1 0 0 1 3.42856 8)" fill="white"/>
<rect width="1.14286" height="1.14286" transform="matrix(-1 0 0 1 28 9.14285)" fill="white"/>
<rect x="22.2857" y="9.14285" width="1.14286" height="1.14286" fill="white"/>
<rect width="1.14286" height="1.14286" transform="matrix(-1 0 0 1 29.1429 9.14285)" fill="white"/>
<rect x="21.1429" y="9.14285" width="1.14286" height="1.14286" fill="white"/>
<rect width="1.14286" height="1.14286" transform="matrix(-1 0 0 1 30.2857 9.14285)" fill="white"/>
<rect x="20" y="9.14285" width="1.14286" height="1.14286" fill="white"/>
<rect width="1.14286" height="1.14286" transform="matrix(-1 0 0 1 31.4286 9.14285)" fill="white"/>
<rect x="18.8571" y="9.14285" width="1.14286" height="1.14286" fill="white"/>
<rect width="1.14286" height="1.14286" transform="matrix(-1 0 0 1 32.5714 9.14285)" fill="white"/>
<rect x="17.7143" y="9.14285" width="1.14286" height="1.14286" fill="white"/>
<rect x="36.5714" y="9.14285" width="1.14286" height="1.14286" fill="white"/>
<rect width="1.14286" height="1.14286" transform="matrix(-1 0 0 1 13.7143 9.14285)" fill="white"/>
<rect x="37.7143" y="9.14285" width="1.14286" height="1.14286" fill="white"/>
<rect width="1.14286" height="1.14286" transform="matrix(-1 0 0 1 12.5714 9.14285)" fill="white"/>
<rect x="38.8571" y="9.14285" width="1.14286" height="1.14286" fill="white"/>
<rect width="1.14286" height="1.14286" transform="matrix(-1 0 0 1 11.4286 9.14285)" fill="white"/>
<rect x="40" y="9.14285" width="1.14286" height="1.14286" fill="white"/>
<rect width="1.14286" height="1.14286" transform="matrix(-1 0 0 1 10.2857 9.14285)" fill="white"/>
<rect x="41.1429" y="9.14285" width="1.14286" height="1.14286" fill="white"/>
<rect width="1.14286" height="1.14286" transform="matrix(-1 0 0 1 9.14285 9.14285)" fill="white"/>
<rect x="42.2857" y="9.14285" width="1.14286" height="1.14286" fill="white"/>
<rect width="1.14286" height="1.14286" transform="matrix(-1 0 0 1 8 9.14285)" fill="white"/>
<rect x="43.4286" y="9.14285" width="1.14286" height="1.14286" fill="white"/>
<rect width="1.14286" height="1.14286" transform="matrix(-1 0 0 1 6.85715 9.14285)" fill="white"/>
<rect x="44.5714" y="9.14285" width="1.14286" height="1.14286" fill="white"/>
<rect width="1.14286" height="1.14286" transform="matrix(-1 0 0 1 5.71429 9.14285)" fill="white"/>
<rect x="45.7143" y="9.14285" width="1.14286" height="1.14286" fill="white"/>
<rect width="1.14286" height="1.14286" transform="matrix(-1 0 0 1 4.57144 9.14285)" fill="white"/>
<rect x="46.8571" y="9.14285" width="1.14286" height="1.14286" fill="white"/>
<rect width="1.14286" height="1.14286" transform="matrix(-1 0 0 1 3.42856 9.14285)" fill="white"/>
<rect width="1.14286" height="1.14286" transform="matrix(-1 0 0 1 29.1429 10.2857)" fill="white"/>
<rect x="21.1429" y="10.2857" width="1.14286" height="1.14286" fill="white"/>
<rect width="1.14286" height="1.14286" transform="matrix(-1 0 0 1 30.2857 10.2857)" fill="white"/>
<rect x="20" y="10.2857" width="1.14286" height="1.14286" fill="white"/>
<rect width="1.14286" height="1.14286" transform="matrix(-1 0 0 1 31.4286 10.2857)" fill="white"/>
<rect x="18.8571" y="10.2857" width="1.14286" height="1.14286" fill="white"/>
<rect x="37.7143" y="10.2857" width="1.14286" height="1.14286" fill="white"/>
<rect width="1.14286" height="1.14286" transform="matrix(-1 0 0 1 12.5714 10.2857)" fill="white"/>
<rect x="38.8571" y="10.2857" width="1.14286" height="1.14286" fill="white"/>
<rect width="1.14286" height="1.14286" transform="matrix(-1 0 0 1 11.4286 10.2857)" fill="white"/>
<rect x="40" y="10.2857" width="1.14286" height="1.14286" fill="white"/>
<rect width="1.14286" height="1.14286" transform="matrix(-1 0 0 1 10.2857 10.2857)" fill="white"/>
<rect x="41.1429" y="10.2857" width="1.14286" height="1.14286" fill="white"/>
<rect width="1.14286" height="1.14286" transform="matrix(-1 0 0 1 9.14285 10.2857)" fill="white"/>
<rect x="42.2857" y="10.2857" width="1.14286" height="1.14286" fill="white"/>
<rect width="1.14286" height="1.14286" transform="matrix(-1 0 0 1 8 10.2857)" fill="white"/>
<rect x="43.4286" y="10.2857" width="1.14286" height="1.14286" fill="white"/>
<rect width="1.14286" height="1.14286" transform="matrix(-1 0 0 1 6.85715 10.2857)" fill="white"/>
<rect x="44.5714" y="10.2857" width="1.14286" height="1.14286" fill="white"/>
<rect width="1.14286" height="1.14286" transform="matrix(-1 0 0 1 5.71429 10.2857)" fill="white"/>
<rect x="45.7143" y="10.2857" width="1.14286" height="1.14286" fill="white"/>
<rect width="1.14286" height="1.14286" transform="matrix(-1 0 0 1 4.57144 10.2857)" fill="white"/>
<rect x="27.4286" y="11.4286" width="1.14286" height="1.14286" fill="white"/>
<rect width="1.14286" height="1.14286" transform="matrix(-1 0 0 1 22.8571 11.4286)" fill="white"/>
<rect x="28.5714" y="11.4286" width="1.14286" height="1.14286" fill="white"/>
<rect width="1.14286" height="1.14286" transform="matrix(-1 0 0 1 21.7143 11.4286)" fill="white"/>
<rect x="29.7143" y="11.4286" width="1.14286" height="1.14286" fill="white"/>
<rect width="1.14286" height="1.14286" transform="matrix(-1 0 0 1 20.5714 11.4286)" fill="white"/>
<rect x="38.8571" y="11.4286" width="1.14286" height="1.14286" fill="white"/>
<rect width="1.14286" height="1.14286" transform="matrix(-1 0 0 1 11.4286 11.4286)" fill="white"/>
<rect x="40" y="11.4286" width="1.14286" height="1.14286" fill="white"/>
<rect width="1.14286" height="1.14286" transform="matrix(-1 0 0 1 10.2857 11.4286)" fill="white"/>
<rect x="41.1429" y="11.4286" width="1.14286" height="1.14286" fill="white"/>
<rect width="1.14286" height="1.14286" transform="matrix(-1 0 0 1 9.14285 11.4286)" fill="white"/>
<rect x="42.2857" y="11.4286" width="1.14286" height="1.14286" fill="white"/>
<rect width="1.14286" height="1.14286" transform="matrix(-1 0 0 1 8 11.4286)" fill="white"/>
<rect x="43.4286" y="11.4286" width="1.14286" height="1.14286" fill="white"/>
<rect width="1.14286" height="1.14286" transform="matrix(-1 0 0 1 6.85715 11.4286)" fill="white"/>
<rect x="44.5714" y="11.4286" width="1.14286" height="1.14286" fill="white"/>
<rect width="1.14286" height="1.14286" transform="matrix(-1 0 0 1 5.71429 11.4286)" fill="white"/>
<rect x="25.1429" y="12.5714" width="1.14286" height="1.14286" fill="white"/>
<rect width="1.14286" height="1.14286" transform="matrix(-1 0 0 1 25.1429 12.5714)" fill="white"/>
<rect x="26.2857" y="12.5714" width="1.14286" height="1.14286" fill="white"/>
<rect width="1.14286" height="1.14286" transform="matrix(-1 0 0 1 24 12.5714)" fill="white"/>
<rect x="27.4286" y="12.5714" width="1.14286" height="1.14286" fill="white"/>
<rect width="1.14286" height="1.14286" transform="matrix(-1 0 0 1 22.8571 12.5714)" fill="white"/>
<rect x="28.5714" y="12.5714" width="1.14286" height="1.14286" fill="white"/>
<rect width="1.14286" height="1.14286" transform="matrix(-1 0 0 1 21.7143 12.5714)" fill="white"/>
<rect x="29.7143" y="12.5714" width="1.14286" height="1.14286" fill="white"/>
<rect width="1.14286" height="1.14286" transform="matrix(-1 0 0 1 20.5714 12.5714)" fill="white"/>
<rect x="30.8571" y="12.5714" width="1.14286" height="1.14286" fill="white"/>
<rect width="1.14286" height="1.14286" transform="matrix(-1 0 0 1 19.4286 12.5714)" fill="white"/>
<rect x="32" y="12.5714" width="1.14286" height="1.14286" fill="white"/>
<rect width="1.14286" height="1.14286" transform="matrix(-1 0 0 1 18.2857 12.5714)" fill="white"/>
<rect x="33.1429" y="12.5714" width="1.14286" height="1.14286" fill="white"/>
<rect width="1.14286" height="1.14286" transform="matrix(-1 0 0 1 17.1429 12.5714)" fill="white"/>
<rect x="40" y="12.5714" width="1.14286" height="1.14286" fill="white"/>
<rect width="1.14286" height="1.14286" transform="matrix(-1 0 0 1 10.2857 12.5714)" fill="white"/>
<rect x="41.1429" y="12.5714" width="1.14286" height="1.14286" fill="white"/>
<rect width="1.14286" height="1.14286" transform="matrix(-1 0 0 1 9.14285 12.5714)" fill="white"/>
<rect x="42.2857" y="12.5714" width="1.14286" height="1.14286" fill="white"/>
<rect width="1.14286" height="1.14286" transform="matrix(-1 0 0 1 8 12.5714)" fill="white"/>
<rect x="43.4286" y="12.5714" width="1.14286" height="1.14286" fill="white"/>
<rect width="1.14286" height="1.14286" transform="matrix(-1 0 0 1 6.85715 12.5714)" fill="white"/>
<rect x="25.1429" y="13.7143" width="1.14286" height="1.14286" fill="white"/>
<rect width="1.14286" height="1.14286" transform="matrix(-1 0 0 1 25.1429 13.7143)" fill="white"/>
<rect x="26.2857" y="13.7143" width="1.14286" height="1.14286" fill="white"/>
<rect width="1.14286" height="1.14286" transform="matrix(-1 0 0 1 24 13.7143)" fill="white"/>
<rect x="27.4286" y="13.7143" width="1.14286" height="1.14286" fill="white"/>
<rect width="1.14286" height="1.14286" transform="matrix(-1 0 0 1 22.8571 13.7143)" fill="white"/>
<rect x="28.5714" y="13.7143" width="1.14286" height="1.14286" fill="white"/>
<rect width="1.14286" height="1.14286" transform="matrix(-1 0 0 1 21.7143 13.7143)" fill="white"/>
<rect x="29.7143" y="13.7143" width="1.14286" height="1.14286" fill="white"/>
<rect width="1.14286" height="1.14286" transform="matrix(-1 0 0 1 20.5714 13.7143)" fill="white"/>
<rect x="30.8571" y="13.7143" width="1.14286" height="1.14286" fill="white"/>
<rect width="1.14286" height="1.14286" transform="matrix(-1 0 0 1 19.4286 13.7143)" fill="white"/>
<rect x="32" y="13.7143" width="1.14286" height="1.14286" fill="white"/>
<rect width="1.14286" height="1.14286" transform="matrix(-1 0 0 1 18.2857 13.7143)" fill="white"/>
<rect x="33.1429" y="13.7143" width="1.14286" height="1.14286" fill="white"/>
<rect width="1.14286" height="1.14286" transform="matrix(-1 0 0 1 17.1429 13.7143)" fill="white"/>
<rect x="34.2857" y="13.7143" width="1.14286" height="1.14286" fill="white"/>
<rect width="1.14286" height="1.14286" transform="matrix(-1 0 0 1 16 13.7143)" fill="white"/>
<rect x="41.1429" y="13.7143" width="1.14286" height="1.14286" fill="white"/>
<rect width="1.14286" height="1.14286" transform="matrix(-1 0 0 1 9.14285 13.7143)" fill="white"/>
<rect x="42.2857" y="13.7143" width="1.14286" height="1.14286" fill="white"/>
<rect width="1.14286" height="1.14286" transform="matrix(-1 0 0 1 8 13.7143)" fill="white"/>
<rect x="43.4286" y="13.7143" width="1.14286" height="1.14286" fill="white"/>
<rect width="1.14286" height="1.14286" transform="matrix(-1 0 0 1 6.85715 13.7143)" fill="white"/>
<rect x="25.1429" y="14.8571" width="1.14286" height="1.14286" fill="white"/>
<rect width="1.14286" height="1.14286" transform="matrix(-1 0 0 1 25.1429 14.8571)" fill="white"/>
<rect x="26.2857" y="14.8571" width="1.14286" height="1.14286" fill="white"/>
<rect width="1.14286" height="1.14286" transform="matrix(-1 0 0 1 24 14.8571)" fill="white"/>
<rect x="27.4286" y="14.8571" width="1.14286" height="1.14286" fill="white"/>
<rect width="1.14286" height="1.14286" transform="matrix(-1 0 0 1 22.8571 14.8571)" fill="white"/>
<rect x="28.5714" y="14.8571" width="1.14286" height="1.14286" fill="white"/>
<rect width="1.14286" height="1.14286" transform="matrix(-1 0 0 1 21.7143 14.8571)" fill="white"/>
<rect x="29.7143" y="14.8571" width="1.14286" height="1.14286" fill="white"/>
<rect width="1.14286" height="1.14286" transform="matrix(-1 0 0 1 20.5714 14.8571)" fill="white"/>
<rect x="30.8571" y="14.8571" width="1.14286" height="1.14286" fill="white"/>
<rect width="1.14286" height="1.14286" transform="matrix(-1 0 0 1 19.4286 14.8571)" fill="white"/>
<rect x="32" y="14.8571" width="1.14286" height="1.14286" fill="white"/>
<rect width="1.14286" height="1.14286" transform="matrix(-1 0 0 1 18.2857 14.8571)" fill="white"/>
<rect x="33.1429" y="14.8571" width="1.14286" height="1.14286" fill="white"/>
<rect width="1.14286" height="1.14286" transform="matrix(-1 0 0 1 17.1429 14.8571)" fill="white"/>
<rect x="34.2857" y="14.8571" width="1.14286" height="1.14286" fill="white"/>
<rect width="1.14286" height="1.14286" transform="matrix(-1 0 0 1 16 14.8571)" fill="white"/>
<rect x="35.4286" y="14.8571" width="1.14286" height="1.14286" fill="white"/>
<rect width="1.14286" height="1.14286" transform="matrix(-1 0 0 1 14.8571 14.8571)" fill="white"/>
<rect x="36.5714" y="14.8571" width="1.14286" height="1.14286" fill="white"/>
<rect width="1.14286" height="1.14286" transform="matrix(-1 0 0 1 13.7143 14.8571)" fill="white"/>
<rect x="37.7143" y="14.8571" width="1.14286" height="1.14286" fill="white"/>
<rect width="1.14286" height="1.14286" transform="matrix(-1 0 0 1 12.5714 14.8571)" fill="white"/>
<rect x="38.8571" y="14.8571" width="1.14286" height="1.14286" fill="white"/>
<rect width="1.14286" height="1.14286" transform="matrix(-1 0 0 1 11.4286 14.8571)" fill="white"/>
<rect x="40" y="14.8571" width="1.14286" height="1.14286" fill="white"/>
<rect width="1.14286" height="1.14286" transform="matrix(-1 0 0 1 10.2857 14.8571)" fill="white"/>
<rect x="41.1429" y="14.8571" width="1.14286" height="1.14286" fill="white"/>
<rect width="1.14286" height="1.14286" transform="matrix(-1 0 0 1 9.14285 14.8571)" fill="white"/>
<rect x="42.2857" y="14.8571" width="1.14286" height="1.14286" fill="white"/>
<rect width="1.14286" height="1.14286" transform="matrix(-1 0 0 1 8 14.8571)" fill="white"/>
<rect x="25.1429" y="16" width="1.14286" height="1.14286" fill="white"/>
<rect width="1.14286" height="1.14286" transform="matrix(-1 0 0 1 25.1429 16)" fill="white"/>
<rect x="26.2857" y="16" width="1.14286" height="1.14286" fill="white"/>
<rect width="1.14286" height="1.14286" transform="matrix(-1 0 0 1 24 16)" fill="white"/>
<rect x="27.4286" y="16" width="1.14286" height="1.14286" fill="white"/>
<rect width="1.14286" height="1.14286" transform="matrix(-1 0 0 1 22.8571 16)" fill="white"/>
<rect x="28.5714" y="16" width="1.14286" height="1.14286" fill="white"/>
<rect width="1.14286" height="1.14286" transform="matrix(-1 0 0 1 21.7143 16)" fill="white"/>
<rect x="29.7143" y="16" width="1.14286" height="1.14286" fill="white"/>
<rect width="1.14286" height="1.14286" transform="matrix(-1 0 0 1 20.5714 16)" fill="white"/>
<rect x="30.8571" y="16" width="1.14286" height="1.14286" fill="white"/>
<rect width="1.14286" height="1.14286" transform="matrix(-1 0 0 1 19.4286 16)" fill="white"/>
<rect x="32" y="16" width="1.14286" height="1.14286" fill="white"/>
<rect width="1.14286" height="1.14286" transform="matrix(-1 0 0 1 18.2857 16)" fill="white"/>
<rect x="33.1429" y="16" width="1.14286" height="1.14286" fill="white"/>
<rect width="1.14286" height="1.14286" transform="matrix(-1 0 0 1 17.1429 16)" fill="white"/>
<rect x="34.2857" y="16" width="1.14286" height="1.14286" fill="white"/>
<rect width="1.14286" height="1.14286" transform="matrix(-1 0 0 1 16 16)" fill="white"/>
<rect x="35.4286" y="16" width="1.14286" height="1.14286" fill="white"/>
<rect width="1.14286" height="1.14286" transform="matrix(-1 0 0 1 14.8571 16)" fill="white"/>
<rect x="36.5714" y="16" width="1.14286" height="1.14286" fill="white"/>
<rect width="1.14286" height="1.14286" transform="matrix(-1 0 0 1 13.7143 16)" fill="white"/>
<rect x="37.7143" y="16" width="1.14286" height="1.14286" fill="white"/>
<rect width="1.14286" height="1.14286" transform="matrix(-1 0 0 1 12.5714 16)" fill="white"/>
<rect x="38.8571" y="16" width="1.14286" height="1.14286" fill="white"/>
<rect width="1.14286" height="1.14286" transform="matrix(-1 0 0 1 11.4286 16)" fill="white"/>
<rect x="40" y="16" width="1.14286" height="1.14286" fill="white"/>
<rect width="1.14286" height="1.14286" transform="matrix(-1 0 0 1 10.2857 16)" fill="white"/>
<rect x="41.1429" y="16" width="1.14286" height="1.14286" fill="white"/>
<rect width="1.14286" height="1.14286" transform="matrix(-1 0 0 1 9.14285 16)" fill="white"/>
<rect x="25.1429" y="17.1429" width="1.14286" height="1.14286" fill="white"/>
<rect width="1.14286" height="1.14286" transform="matrix(-1 0 0 1 25.1429 17.1429)" fill="white"/>
<rect x="26.2857" y="17.1429" width="1.14286" height="1.14286" fill="white"/>
<rect width="1.14286" height="1.14286" transform="matrix(-1 0 0 1 24 17.1429)" fill="white"/>
<rect x="27.4286" y="17.1429" width="1.14286" height="1.14286" fill="white"/>
<rect width="1.14286" height="1.14286" transform="matrix(-1 0 0 1 22.8571 17.1429)" fill="white"/>
<rect x="28.5714" y="17.1429" width="1.14286" height="1.14286" fill="white"/>
<rect width="1.14286" height="1.14286" transform="matrix(-1 0 0 1 21.7143 17.1429)" fill="white"/>
<rect x="29.7143" y="17.1429" width="1.14286" height="1.14286" fill="white"/>
<rect width="1.14286" height="1.14286" transform="matrix(-1 0 0 1 20.5714 17.1429)" fill="white"/>
<rect x="30.8571" y="17.1429" width="1.14286" height="1.14286" fill="white"/>
<rect width="1.14286" height="1.14286" transform="matrix(-1 0 0 1 19.4286 17.1429)" fill="white"/>
<rect x="32" y="17.1429" width="1.14286" height="1.14286" fill="white"/>
<rect width="1.14286" height="1.14286" transform="matrix(-1 0 0 1 18.2857 17.1429)" fill="white"/>
<rect x="33.1429" y="17.1429" width="1.14286" height="1.14286" fill="white"/>
<rect width="1.14286" height="1.14286" transform="matrix(-1 0 0 1 17.1429 17.1429)" fill="white"/>
<rect x="34.2857" y="17.1429" width="1.14286" height="1.14286" fill="white"/>
<rect width="1.14286" height="1.14286" transform="matrix(-1 0 0 1 16 17.1429)" fill="white"/>
<rect x="35.4286" y="17.1429" width="1.14286" height="1.14286" fill="white"/>
<rect width="1.14286" height="1.14286" transform="matrix(-1 0 0 1 14.8571 17.1429)" fill="white"/>
<rect x="36.5714" y="17.1429" width="1.14286" height="1.14286" fill="white"/>
<rect width="1.14286" height="1.14286" transform="matrix(-1 0 0 1 13.7143 17.1429)" fill="white"/>
<rect x="37.7143" y="17.1429" width="1.14286" height="1.14286" fill="white"/>
<rect width="1.14286" height="1.14286" transform="matrix(-1 0 0 1 12.5714 17.1429)" fill="white"/>
<rect x="25.1429" y="18.2857" width="1.14286" height="1.14286" fill="white"/>
<rect width="1.14286" height="1.14286" transform="matrix(-1 0 0 1 25.1429 18.2857)" fill="white"/>
<rect x="26.2857" y="18.2857" width="1.14286" height="1.14286" fill="white"/>
<rect width="1.14286" height="1.14286" transform="matrix(-1 0 0 1 24 18.2857)" fill="white"/>
<rect x="27.4286" y="18.2857" width="1.14286" height="1.14286" fill="white"/>
<rect width="1.14286" height="1.14286" transform="matrix(-1 0 0 1 22.8571 18.2857)" fill="white"/>
<rect x="28.5714" y="18.2857" width="1.14286" height="1.14286" fill="white"/>
<rect width="1.14286" height="1.14286" transform="matrix(-1 0 0 1 21.7143 18.2857)" fill="white"/>
<rect x="29.7143" y="18.2857" width="1.14286" height="1.14286" fill="white"/>
<rect width="1.14286" height="1.14286" transform="matrix(-1 0 0 1 20.5714 18.2857)" fill="white"/>
<rect x="30.8571" y="18.2857" width="1.14286" height="1.14286" fill="white"/>
<rect width="1.14286" height="1.14286" transform="matrix(-1 0 0 1 19.4286 18.2857)" fill="white"/>
<rect x="32" y="18.2857" width="1.14286" height="1.14286" fill="white"/>
<rect width="1.14286" height="1.14286" transform="matrix(-1 0 0 1 18.2857 18.2857)" fill="white"/>
<rect x="33.1429" y="18.2857" width="1.14286" height="1.14286" fill="white"/>
<rect width="1.14286" height="1.14286" transform="matrix(-1 0 0 1 17.1429 18.2857)" fill="white"/>
<rect x="34.2857" y="18.2857" width="1.14286" height="1.14286" fill="white"/>
<rect width="1.14286" height="1.14286" transform="matrix(-1 0 0 1 16 18.2857)" fill="white"/>
<rect x="35.4286" y="18.2857" width="1.14286" height="1.14286" fill="white"/>
<rect width="1.14286" height="1.14286" transform="matrix(-1 0 0 1 14.8571 18.2857)" fill="white"/>
<rect x="36.5714" y="18.2857" width="1.14286" height="1.14286" fill="white"/>
<rect width="1.14286" height="1.14286" transform="matrix(-1 0 0 1 13.7143 18.2857)" fill="white"/>
<rect x="37.7143" y="18.2857" width="1.14286" height="1.14286" fill="white"/>
<rect width="1.14286" height="1.14286" transform="matrix(-1 0 0 1 12.5714 18.2857)" fill="white"/>
<rect x="25.1429" y="19.4286" width="1.14286" height="1.14286" fill="white"/>
<rect width="1.14286" height="1.14286" transform="matrix(-1 0 0 1 25.1429 19.4286)" fill="white"/>
<rect x="26.2857" y="19.4286" width="1.14286" height="1.14286" fill="white"/>
<rect width="1.14286" height="1.14286" transform="matrix(-1 0 0 1 24 19.4286)" fill="white"/>
<rect x="27.4286" y="19.4286" width="1.14286" height="1.14286" fill="white"/>
<rect width="1.14286" height="1.14286" transform="matrix(-1 0 0 1 22.8571 19.4286)" fill="white"/>
<rect x="28.5714" y="19.4286" width="1.14286" height="1.14286" fill="white"/>
<rect width="1.14286" height="1.14286" transform="matrix(-1 0 0 1 21.7143 19.4286)" fill="white"/>
<rect x="29.7143" y="19.4286" width="1.14286" height="1.14286" fill="white"/>
<rect width="1.14286" height="1.14286" transform="matrix(-1 0 0 1 20.5714 19.4286)" fill="white"/>
<rect x="30.8571" y="19.4286" width="1.14286" height="1.14286" fill="white"/>
<rect width="1.14286" height="1.14286" transform="matrix(-1 0 0 1 19.4286 19.4286)" fill="white"/>
<rect x="32" y="19.4286" width="1.14286" height="1.14286" fill="white"/>
<rect width="1.14286" height="1.14286" transform="matrix(-1 0 0 1 18.2857 19.4286)" fill="white"/>
<rect x="33.1429" y="19.4286" width="1.14286" height="1.14286" fill="white"/>
<rect width="1.14286" height="1.14286" transform="matrix(-1 0 0 1 17.1429 19.4286)" fill="white"/>
<rect x="34.2857" y="19.4286" width="1.14286" height="1.14286" fill="white"/>
<rect width="1.14286" height="1.14286" transform="matrix(-1 0 0 1 16 19.4286)" fill="white"/>
<rect x="35.4286" y="19.4286" width="1.14286" height="1.14286" fill="white"/>
<rect width="1.14286" height="1.14286" transform="matrix(-1 0 0 1 14.8571 19.4286)" fill="white"/>
<rect x="36.5714" y="19.4286" width="1.14286" height="1.14286" fill="white"/>
<rect width="1.14286" height="1.14286" transform="matrix(-1 0 0 1 13.7143 19.4286)" fill="white"/>
<rect x="37.7143" y="19.4286" width="1.14286" height="1.14286" fill="white"/>
<rect width="1.14286" height="1.14286" transform="matrix(-1 0 0 1 12.5714 19.4286)" fill="white"/>
<rect x="38.8571" y="19.4286" width="1.14286" height="1.14286" fill="white"/>
<rect width="1.14286" height="1.14286" transform="matrix(-1 0 0 1 11.4286 19.4286)" fill="white"/>
<rect x="25.1429" y="20.5714" width="1.14286" height="1.14286" fill="white"/>
<rect width="1.14286" height="1.14286" transform="matrix(-1 0 0 1 25.1429 20.5714)" fill="white"/>
<rect x="26.2857" y="20.5714" width="1.14286" height="1.14286" fill="white"/>
<rect width="1.14286" height="1.14286" transform="matrix(-1 0 0 1 24 20.5714)" fill="white"/>
<rect x="27.4286" y="20.5714" width="1.14286" height="1.14286" fill="white"/>
<rect width="1.14286" height="1.14286" transform="matrix(-1 0 0 1 22.8571 20.5714)" fill="white"/>
<rect x="28.5714" y="20.5714" width="1.14286" height="1.14286" fill="white"/>
<rect width="1.14286" height="1.14286" transform="matrix(-1 0 0 1 21.7143 20.5714)" fill="white"/>
<rect x="29.7143" y="20.5714" width="1.14286" height="1.14286" fill="white"/>
<rect width="1.14286" height="1.14286" transform="matrix(-1 0 0 1 20.5714 20.5714)" fill="white"/>
<rect x="30.8571" y="20.5714" width="1.14286" height="1.14286" fill="white"/>
<rect width="1.14286" height="1.14286" transform="matrix(-1 0 0 1 19.4286 20.5714)" fill="white"/>
<rect x="32" y="20.5714" width="1.14286" height="1.14286" fill="white"/>
<rect width="1.14286" height="1.14286" transform="matrix(-1 0 0 1 18.2857 20.5714)" fill="white"/>
<rect x="33.1429" y="20.5714" width="1.14286" height="1.14286" fill="white"/>
<rect width="1.14286" height="1.14286" transform="matrix(-1 0 0 1 17.1429 20.5714)" fill="white"/>
<rect x="34.2857" y="20.5714" width="1.14286" height="1.14286" fill="white"/>
<rect width="1.14286" height="1.14286" transform="matrix(-1 0 0 1 16 20.5714)" fill="white"/>
<rect x="35.4286" y="20.5714" width="1.14286" height="1.14286" fill="white"/>
<rect width="1.14286" height="1.14286" transform="matrix(-1 0 0 1 14.8571 20.5714)" fill="white"/>
<rect x="36.5714" y="20.5714" width="1.14286" height="1.14286" fill="white"/>
<rect width="1.14286" height="1.14286" transform="matrix(-1 0 0 1 13.7143 20.5714)" fill="white"/>
<rect x="37.7143" y="20.5714" width="1.14286" height="1.14286" fill="white"/>
<rect width="1.14286" height="1.14286" transform="matrix(-1 0 0 1 12.5714 20.5714)" fill="white"/>
<rect x="38.8571" y="20.5714" width="1.14286" height="1.14286" fill="white"/>
<rect width="1.14286" height="1.14286" transform="matrix(-1 0 0 1 11.4286 20.5714)" fill="white"/>
<rect x="40" y="20.5714" width="1.14286" height="1.14286" fill="white"/>
<rect width="1.14286" height="1.14286" transform="matrix(-1 0 0 1 10.2857 20.5714)" fill="white"/>
<rect x="41.1429" y="20.5714" width="1.14286" height="1.14286" fill="white"/>
<rect width="1.14286" height="1.14286" transform="matrix(-1 0 0 1 9.14285 20.5714)" fill="white"/>
<rect x="42.2857" y="20.5714" width="1.14286" height="1.14286" fill="white"/>
<rect width="1.14286" height="1.14286" transform="matrix(-1 0 0 1 8 20.5714)" fill="white"/>
<rect x="43.4286" y="20.5714" width="1.14286" height="1.14286" fill="white"/>
<rect width="1.14286" height="1.14286" transform="matrix(-1 0 0 1 6.85715 20.5714)" fill="white"/>
<rect x="45.7171" y="21.7115" width="1.14286" height="1.14286" transform="rotate(0.279067 45.7171 21.7115)" fill="white"/>
<rect width="1.14286" height="1.14286" transform="matrix(-0.999988 0.00487062 0.00487062 0.999988 4.56863 21.7115)" fill="white"/>
<rect x="25.1429" y="21.7143" width="1.14286" height="1.14286" fill="white"/>
<rect width="1.14286" height="1.14286" transform="matrix(-1 0 0 1 25.1429 21.7143)" fill="white"/>
<rect x="26.2857" y="21.7143" width="1.14286" height="1.14286" fill="white"/>
<rect width="1.14286" height="1.14286" transform="matrix(-1 0 0 1 24 21.7143)" fill="white"/>
<rect x="27.4286" y="21.7143" width="1.14286" height="1.14286" fill="white"/>
<rect width="1.14286" height="1.14286" transform="matrix(-1 0 0 1 22.8571 21.7143)" fill="white"/>
<rect x="28.5714" y="21.7143" width="1.14286" height="1.14286" fill="white"/>
<rect width="1.14286" height="1.14286" transform="matrix(-1 0 0 1 21.7143 21.7143)" fill="white"/>
<rect x="29.7143" y="21.7143" width="1.14286" height="1.14286" fill="white"/>
<rect width="1.14286" height="1.14286" transform="matrix(-1 0 0 1 20.5714 21.7143)" fill="white"/>
<rect x="30.8571" y="21.7143" width="1.14286" height="1.14286" fill="white"/>
<rect width="1.14286" height="1.14286" transform="matrix(-1 0 0 1 19.4286 21.7143)" fill="white"/>
<rect x="32" y="21.7143" width="1.14286" height="1.14286" fill="white"/>
<rect width="1.14286" height="1.14286" transform="matrix(-1 0 0 1 18.2857 21.7143)" fill="white"/>
<rect x="33.1429" y="21.7143" width="1.14286" height="1.14286" fill="white"/>
<rect width="1.14286" height="1.14286" transform="matrix(-1 0 0 1 17.1429 21.7143)" fill="white"/>
<rect x="34.2857" y="21.7143" width="1.14286" height="1.14286" fill="white"/>
<rect width="1.14286" height="1.14286" transform="matrix(-1 0 0 1 16 21.7143)" fill="white"/>
<rect x="35.4286" y="21.7143" width="1.14286" height="1.14286" fill="white"/>
<rect width="1.14286" height="1.14286" transform="matrix(-1 0 0 1 14.8571 21.7143)" fill="white"/>
<rect x="36.5714" y="21.7143" width="1.14286" height="1.14286" fill="white"/>
<rect width="1.14286" height="1.14286" transform="matrix(-1 0 0 1 13.7143 21.7143)" fill="white"/>
<rect x="37.7143" y="21.7143" width="1.14286" height="1.14286" fill="white"/>
<rect width="1.14286" height="1.14286" transform="matrix(-1 0 0 1 12.5714 21.7143)" fill="white"/>
<rect x="38.8571" y="21.7143" width="1.14286" height="1.14286" fill="white"/>
<rect width="1.14286" height="1.14286" transform="matrix(-1 0 0 1 11.4286 21.7143)" fill="white"/>
<rect x="40" y="21.7143" width="1.14286" height="1.14286" fill="white"/>
<rect width="1.14286" height="1.14286" transform="matrix(-1 0 0 1 10.2857 21.7143)" fill="white"/>
<rect x="41.1429" y="21.7143" width="1.14286" height="1.14286" fill="white"/>
<rect width="1.14286" height="1.14286" transform="matrix(-1 0 0 1 9.14285 21.7143)" fill="white"/>
<rect x="42.2857" y="21.7143" width="1.14286" height="1.14286" fill="white"/>
<rect width="1.14286" height="1.14286" transform="matrix(-1 0 0 1 8 21.7143)" fill="white"/>
<rect x="43.4286" y="21.7143" width="1.14286" height="1.14286" fill="white"/>
<rect width="1.14286" height="1.14286" transform="matrix(-1 0 0 1 6.85715 21.7143)" fill="white"/>
<rect x="44.5714" y="21.7143" width="1.14286" height="1.14286" fill="white"/>
<rect width="1.14286" height="1.14286" transform="matrix(-1 0 0 1 5.71429 21.7143)" fill="white"/>
<rect x="25.1429" y="22.8571" width="1.14286" height="1.14286" fill="white"/>
<rect width="1.14286" height="1.14286" transform="matrix(-1 0 0 1 25.1429 22.8571)" fill="white"/>
<rect x="26.2857" y="22.8571" width="1.14286" height="1.14286" fill="white"/>
<rect width="1.14286" height="1.14286" transform="matrix(-1 0 0 1 24 22.8571)" fill="white"/>
<rect x="27.4286" y="22.8571" width="1.14286" height="1.14286" fill="white"/>
<rect width="1.14286" height="1.14286" transform="matrix(-1 0 0 1 22.8571 22.8571)" fill="white"/>
<rect x="28.5714" y="22.8571" width="1.14286" height="1.14286" fill="white"/>
<rect width="1.14286" height="1.14286" transform="matrix(-1 0 0 1 21.7143 22.8571)" fill="white"/>
<rect x="29.7143" y="22.8571" width="1.14286" height="1.14286" fill="white"/>
<rect width="1.14286" height="1.14286" transform="matrix(-1 0 0 1 20.5714 22.8571)" fill="white"/>
<rect x="30.8571" y="22.8571" width="1.14286" height="1.14286" fill="white"/>
<rect width="1.14286" height="1.14286" transform="matrix(-1 0 0 1 19.4286 22.8571)" fill="white"/>
<rect x="32" y="22.8571" width="1.14286" height="1.14286" fill="white"/>
<rect width="1.14286" height="1.14286" transform="matrix(-1 0 0 1 18.2857 22.8571)" fill="white"/>
<rect x="33.1429" y="22.8571" width="1.14286" height="1.14286" fill="white"/>
<rect width="1.14286" height="1.14286" transform="matrix(-1 0 0 1 17.1429 22.8571)" fill="white"/>
<rect x="34.2857" y="22.8571" width="1.14286" height="1.14286" fill="white"/>
<rect width="1.14286" height="1.14286" transform="matrix(-1 0 0 1 16 22.8571)" fill="white"/>
<rect x="35.4286" y="22.8571" width="1.14286" height="1.14286" fill="white"/>
<rect width="1.14286" height="1.14286" transform="matrix(-1 0 0 1 14.8571 22.8571)" fill="white"/>
<rect x="36.5714" y="22.8571" width="1.14286" height="1.14286" fill="white"/>
<rect width="1.14286" height="1.14286" transform="matrix(-1 0 0 1 13.7143 22.8571)" fill="white"/>
<rect x="37.7143" y="22.8571" width="1.14286" height="1.14286" fill="white"/>
<rect width="1.14286" height="1.14286" transform="matrix(-1 0 0 1 12.5714 22.8571)" fill="white"/>
<rect width="1.14286" height="1.14286" transform="matrix(-1 0 0 1 40 22.8571)" fill="white"/>
<rect x="10.2857" y="22.8571" width="1.14286" height="1.14286" fill="white"/>
<rect width="1.14286" height="1.14286" transform="matrix(-1 0 0 1 41.1429 22.8571)" fill="white"/>
<rect x="9.14285" y="22.8571" width="1.14286" height="1.14286" fill="white"/>
<rect width="1.14286" height="1.14286" transform="matrix(-1 0 0 1 42.2857 22.8571)" fill="white"/>
<rect x="8" y="22.8571" width="1.14286" height="1.14286" fill="white"/>
<rect width="1.14286" height="1.14286" transform="matrix(-1 0 0 1 43.4286 22.8571)" fill="white"/>
<rect x="6.85715" y="22.8571" width="1.14286" height="1.14286" fill="white"/>
<rect width="1.14286" height="1.14286" transform="matrix(-1 0 0 1 44.5714 22.8571)" fill="white"/>
<rect x="5.71429" y="22.8571" width="1.14286" height="1.14286" fill="white"/>
<rect width="1.14286" height="1.14286" transform="matrix(-1 0 0 1 45.7143 22.8571)" fill="white"/>
<rect x="4.57144" y="22.8571" width="1.14286" height="1.14286" fill="white"/>
<rect x="45.7143" y="22.8571" width="1.14286" height="1.14286" fill="white"/>
<rect width="1.14286" height="1.14286" transform="matrix(-1 0 0 1 4.57144 22.8571)" fill="white"/>
<rect x="46.8571" y="22.8571" width="1.14286" height="1.14286" fill="white"/>
<rect width="1.14286" height="1.14286" transform="matrix(-1 0 0 1 3.42856 22.8571)" fill="white"/>
<rect x="25.1429" y="24" width="1.14286" height="1.14286" fill="white"/>
<rect width="1.14286" height="1.14286" transform="matrix(-1 0 0 1 25.1429 24)" fill="white"/>
<rect x="26.2857" y="24" width="1.14286" height="1.14286" fill="white"/>
<rect width="1.14286" height="1.14286" transform="matrix(-1 0 0 1 24 24)" fill="white"/>
<rect x="27.4286" y="24" width="1.14286" height="1.14286" fill="white"/>
<rect width="1.14286" height="1.14286" transform="matrix(-1 0 0 1 22.8571 24)" fill="white"/>
<rect x="28.5714" y="24" width="1.14286" height="1.14286" fill="white"/>
<rect width="1.14286" height="1.14286" transform="matrix(-1 0 0 1 21.7143 24)" fill="white"/>
<rect x="29.7143" y="24" width="1.14286" height="1.14286" fill="white"/>
<rect width="1.14286" height="1.14286" transform="matrix(-1 0 0 1 20.5714 24)" fill="white"/>
<rect x="30.8571" y="24" width="1.14286" height="1.14286" fill="white"/>
<rect width="1.14286" height="1.14286" transform="matrix(-1 0 0 1 19.4286 24)" fill="white"/>
<rect x="32" y="24" width="1.14286" height="1.14286" fill="white"/>
<rect width="1.14286" height="1.14286" transform="matrix(-1 0 0 1 18.2857 24)" fill="white"/>
<rect x="33.1429" y="24" width="1.14286" height="1.14286" fill="white"/>
<rect width="1.14286" height="1.14286" transform="matrix(-1 0 0 1 17.1429 24)" fill="white"/>
<rect x="34.2857" y="24" width="1.14286" height="1.14286" fill="white"/>
<rect width="1.14286" height="1.14286" transform="matrix(-1 0 0 1 16 24)" fill="white"/>
<rect x="35.4286" y="24" width="1.14286" height="1.14286" fill="white"/>
<rect width="1.14286" height="1.14286" transform="matrix(-1 0 0 1 14.8571 24)" fill="white"/>
<rect x="37.7143" y="24" width="1.14286" height="1.14286" fill="white"/>
<rect width="1.14286" height="1.14286" transform="matrix(-1 0 0 1 12.5714 24)" fill="white"/>
<rect width="1.14286" height="1.14286" transform="matrix(-1 0 0 1 40 24)" fill="white"/>
<rect x="10.2857" y="24" width="1.14286" height="1.14286" fill="white"/>
<rect width="1.14286" height="1.14286" transform="matrix(-1 0 0 1 41.1429 24)" fill="white"/>
<rect x="9.14285" y="24" width="1.14286" height="1.14286" fill="white"/>
<rect width="1.14286" height="1.14286" transform="matrix(-1 0 0 1 45.7143 24)" fill="white"/>
<rect x="4.57144" y="24" width="1.14286" height="1.14286" fill="white"/>
<rect width="1.14286" height="1.14286" transform="matrix(-1 0 0 1 46.8571 24)" fill="white"/>
<rect x="3.42856" y="24" width="1.14286" height="1.14286" fill="white"/>
<rect x="46.8571" y="24" width="1.14286" height="1.14286" fill="white"/>
<rect width="1.14286" height="1.14286" transform="matrix(-1 0 0 1 3.42856 24)" fill="white"/>
<rect x="48" y="24" width="1.14286" height="1.14286" fill="white"/>
<rect width="1.14286" height="1.14286" transform="matrix(-1 0 0 1 2.28571 24)" fill="white"/>
<rect x="25.1429" y="25.1429" width="1.14286" height="1.14286" fill="white"/>
<rect width="1.14286" height="1.14286" transform="matrix(-1 0 0 1 25.1429 25.1429)" fill="white"/>
<rect x="26.2857" y="25.1429" width="1.14286" height="1.14286" fill="white"/>
<rect width="1.14286" height="1.14286" transform="matrix(-1 0 0 1 24 25.1429)" fill="white"/>
<rect x="27.4286" y="25.1429" width="1.14286" height="1.14286" fill="white"/>
<rect width="1.14286" height="1.14286" transform="matrix(-1 0 0 1 22.8571 25.1429)" fill="white"/>
<rect x="28.5714" y="25.1429" width="1.14286" height="1.14286" fill="white"/>
<rect width="1.14286" height="1.14286" transform="matrix(-1 0 0 1 21.7143 25.1429)" fill="white"/>
<rect x="29.7143" y="25.1429" width="1.14286" height="1.14286" fill="white"/>
<rect width="1.14286" height="1.14286" transform="matrix(-1 0 0 1 20.5714 25.1429)" fill="white"/>
<rect x="30.8571" y="25.1429" width="1.14286" height="1.14286" fill="white"/>
<rect width="1.14286" height="1.14286" transform="matrix(-1 0 0 1 19.4286 25.1429)" fill="white"/>
<rect x="32" y="25.1429" width="1.14286" height="1.14286" fill="white"/>
<rect width="1.14286" height="1.14286" transform="matrix(-1 0 0 1 18.2857 25.1429)" fill="white"/>
<rect x="33.1429" y="25.1429" width="1.14286" height="1.14286" fill="white"/>
<rect width="1.14286" height="1.14286" transform="matrix(-1 0 0 1 17.1429 25.1429)" fill="white"/>
<rect x="34.2857" y="25.1429" width="1.14286" height="1.14286" fill="white"/>
<rect width="1.14286" height="1.14286" transform="matrix(-1 0 0 1 16 25.1429)" fill="white"/>
<rect x="36.5714" y="25.1429" width="1.14286" height="1.14286" fill="white"/>
<rect width="1.14286" height="1.14286" transform="matrix(-1 0 0 1 13.7143 25.1429)" fill="white"/>
<rect width="1.14286" height="1.14286" transform="matrix(-1 0 0 1 38.8571 25.1429)" fill="white"/>
<rect x="11.4286" y="25.1429" width="1.14286" height="1.14286" fill="white"/>
<rect width="1.14286" height="1.14286" transform="matrix(-1 0 0 1 40 25.1429)" fill="white"/>
<rect x="10.2857" y="25.1429" width="1.14286" height="1.14286" fill="white"/>
<rect width="1.14286" height="1.14286" transform="matrix(-1 0 0 1 41.1429 25.1429)" fill="white"/>
<rect x="9.14285" y="25.1429" width="1.14286" height="1.14286" fill="white"/>
<rect width="1.14286" height="1.14286" transform="matrix(-1 0 0 1 42.2857 25.1429)" fill="white"/>
<rect x="8" y="25.1429" width="1.14286" height="1.14286" fill="white"/>
<rect width="1.14286" height="1.14286" transform="matrix(-1 0 0 1 43.4286 25.1429)" fill="white"/>
<rect x="6.85715" y="25.1429" width="1.14286" height="1.14286" fill="white"/>
<rect width="1.14286" height="1.14286" transform="matrix(-1 0 0 1 46.8571 25.1429)" fill="white"/>
<rect x="3.42856" y="25.1429" width="1.14286" height="1.14286" fill="white"/>
<rect x="46.8571" y="25.1429" width="1.14286" height="1.14286" fill="white"/>
<rect width="1.14286" height="1.14286" transform="matrix(-1 0 0 1 3.42856 25.1429)" fill="white"/>
<rect x="48" y="25.1429" width="1.14286" height="1.14286" fill="white"/>
<rect width="1.14286" height="1.14286" transform="matrix(-1 0 0 1 2.28571 25.1429)" fill="white"/>
<rect x="25.1429" y="26.2857" width="1.14286" height="1.14286" fill="white"/>
<rect width="1.14286" height="1.14286" transform="matrix(-1 0 0 1 25.1429 26.2857)" fill="white"/>
<rect x="26.2857" y="26.2857" width="1.14286" height="1.14286" fill="white"/>
<rect width="1.14286" height="1.14286" transform="matrix(-1 0 0 1 24 26.2857)" fill="white"/>
<rect x="27.4286" y="26.2857" width="1.14286" height="1.14286" fill="white"/>
<rect width="1.14286" height="1.14286" transform="matrix(-1 0 0 1 22.8571 26.2857)" fill="white"/>
<rect x="28.5714" y="26.2857" width="1.14286" height="1.14286" fill="white"/>
<rect width="1.14286" height="1.14286" transform="matrix(-1 0 0 1 21.7143 26.2857)" fill="white"/>
<rect x="29.7143" y="26.2857" width="1.14286" height="1.14286" fill="white"/>
<rect width="1.14286" height="1.14286" transform="matrix(-1 0 0 1 20.5714 26.2857)" fill="white"/>
<rect x="30.8571" y="26.2857" width="1.14286" height="1.14286" fill="white"/>
<rect width="1.14286" height="1.14286" transform="matrix(-1 0 0 1 19.4286 26.2857)" fill="white"/>
<rect x="32" y="26.2857" width="1.14286" height="1.14286" fill="white"/>
<rect width="1.14286" height="1.14286" transform="matrix(-1 0 0 1 18.2857 26.2857)" fill="white"/>
<rect x="33.1429" y="26.2857" width="1.14286" height="1.14286" fill="white"/>
<rect width="1.14286" height="1.14286" transform="matrix(-1 0 0 1 17.1429 26.2857)" fill="white"/>
<rect x="36.5714" y="26.2857" width="1.14286" height="1.14286" fill="white"/>
<rect width="1.14286" height="1.14286" transform="matrix(-1 0 0 1 13.7143 26.2857)" fill="white"/>
<rect x="37.7143" y="26.2857" width="1.14286" height="1.14286" fill="white"/>
<rect width="1.14286" height="1.14286" transform="matrix(-1 0 0 1 12.5714 26.2857)" fill="white"/>
<rect width="1.14286" height="1.14286" transform="matrix(-1 0 0 1 42.2857 26.2857)" fill="white"/>
<rect x="8" y="26.2857" width="1.14286" height="1.14286" fill="white"/>
<rect width="1.14286" height="1.14286" transform="matrix(-1 0 0 1 43.4286 26.2857)" fill="white"/>
<rect x="6.85715" y="26.2857" width="1.14286" height="1.14286" fill="white"/>
<rect x="48" y="26.2857" width="1.14286" height="1.14286" fill="white"/>
<rect width="1.14286" height="1.14286" transform="matrix(-1 0 0 1 2.28571 26.2857)" fill="white"/>
<rect x="49.1429" y="26.2857" width="1.14286" height="1.14286" fill="white"/>
<rect width="1.14286" height="1.14286" transform="matrix(-1 0 0 1 1.14285 26.2857)" fill="white"/>
<rect x="25.1429" y="27.4286" width="1.14286" height="1.14286" fill="white"/>
<rect width="1.14286" height="1.14286" transform="matrix(-1 0 0 1 25.1429 27.4286)" fill="white"/>
<rect x="26.2857" y="27.4286" width="1.14286" height="1.14286" fill="white"/>
<rect width="1.14286" height="1.14286" transform="matrix(-1 0 0 1 24 27.4286)" fill="white"/>
<rect x="27.4286" y="27.4286" width="1.14286" height="1.14286" fill="white"/>
<rect width="1.14286" height="1.14286" transform="matrix(-1 0 0 1 22.8571 27.4286)" fill="white"/>
<rect x="28.5714" y="27.4286" width="1.14286" height="1.14286" fill="white"/>
<rect width="1.14286" height="1.14286" transform="matrix(-1 0 0 1 21.7143 27.4286)" fill="white"/>
<rect x="29.7143" y="27.4286" width="1.14286" height="1.14286" fill="white"/>
<rect width="1.14286" height="1.14286" transform="matrix(-1 0 0 1 20.5714 27.4286)" fill="white"/>
<rect x="30.8571" y="27.4286" width="1.14286" height="1.14286" fill="white"/>
<rect width="1.14286" height="1.14286" transform="matrix(-1 0 0 1 19.4286 27.4286)" fill="white"/>
<rect x="32" y="27.4286" width="1.14286" height="1.14286" fill="white"/>
<rect width="1.14286" height="1.14286" transform="matrix(-1 0 0 1 18.2857 27.4286)" fill="white"/>
<rect x="36.5714" y="27.4286" width="1.14286" height="1.14286" fill="white"/>
<rect width="1.14286" height="1.14286" transform="matrix(-1 0 0 1 13.7143 27.4286)" fill="white"/>
<rect x="37.7143" y="27.4286" width="1.14286" height="1.14286" fill="white"/>
<rect width="1.14286" height="1.14286" transform="matrix(-1 0 0 1 12.5714 27.4286)" fill="white"/>
<rect x="38.8571" y="27.4286" width="1.14286" height="1.14286" fill="white"/>
<rect width="1.14286" height="1.14286" transform="matrix(-1 0 0 1 11.4286 27.4286)" fill="white"/>
<rect width="1.14286" height="1.14286" transform="matrix(-1 0 0 1 43.4286 27.4286)" fill="white"/>
<rect x="6.85715" y="27.4286" width="1.14286" height="1.14286" fill="white"/>
<rect width="1.14286" height="1.14286" transform="matrix(-1 0 0 1 44.5714 27.4286)" fill="white"/>
<rect x="5.71429" y="27.4286" width="1.14286" height="1.14286" fill="white"/>
<rect width="1.14286" height="1.14286" transform="matrix(-1 0 0 1 45.7143 27.4286)" fill="white"/>
<rect x="4.57144" y="27.4286" width="1.14286" height="1.14286" fill="white"/>
<rect x="48" y="27.4286" width="1.14286" height="1.14286" fill="white"/>
<rect width="1.14286" height="1.14286" transform="matrix(-1 0 0 1 2.28571 27.4286)" fill="white"/>
<rect x="49.1429" y="27.4286" width="1.14286" height="1.14286" fill="white"/>
<rect width="1.14286" height="1.14286" transform="matrix(-1 0 0 1 1.14285 27.4286)" fill="white"/>
<rect x="36.5714" y="28.5714" width="1.14286" height="1.14286" fill="white"/>
<rect width="1.14286" height="1.14286" transform="matrix(-1 0 0 1 13.7143 28.5714)" fill="white"/>
<rect x="37.7143" y="28.5714" width="1.14286" height="1.14286" fill="white"/>
<rect width="1.14286" height="1.14286" transform="matrix(-1 0 0 1 12.5714 28.5714)" fill="white"/>
<rect x="38.8571" y="28.5714" width="1.14286" height="1.14286" fill="white"/>
<rect width="1.14286" height="1.14286" transform="matrix(-1 0 0 1 11.4286 28.5714)" fill="white"/>
<rect width="1.14286" height="1.14286" transform="matrix(-1 0 0 1 44.5714 28.5714)" fill="white"/>
<rect x="5.71429" y="28.5714" width="1.14286" height="1.14286" fill="white"/>
<rect width="1.14286" height="1.14286" transform="matrix(-1 0 0 1 45.7143 28.5714)" fill="white"/>
<rect x="4.57144" y="28.5714" width="1.14286" height="1.14286" fill="white"/>
<rect x="49.1429" y="28.5714" width="1.14286" height="1.14286" fill="white"/>
<rect width="1.14286" height="1.14286" transform="matrix(-1 0 0 1 1.14285 28.5714)" fill="white"/>
<rect x="37.7143" y="29.7143" width="1.14286" height="1.14286" fill="white"/>
<rect width="1.14286" height="1.14286" transform="matrix(-1 0 0 1 12.5714 29.7143)" fill="white"/>
<rect x="38.8571" y="29.7143" width="1.14286" height="1.14286" fill="white"/>
<rect width="1.14286" height="1.14286" transform="matrix(-1 0 0 1 11.4286 29.7143)" fill="white"/>
<rect x="40" y="29.7143" width="1.14286" height="1.14286" fill="white"/>
<rect width="1.14286" height="1.14286" transform="matrix(-1 0 0 1 10.2857 29.7143)" fill="white"/>
<rect width="1.14286" height="1.14286" transform="matrix(-1 0 0 1 44.5714 29.7143)" fill="white"/>
<rect x="5.71429" y="29.7143" width="1.14286" height="1.14286" fill="white"/>
<rect width="1.14286" height="1.14286" transform="matrix(-1 0 0 1 45.7143 29.7143)" fill="white"/>
<rect x="4.57144" y="29.7143" width="1.14286" height="1.14286" fill="white"/>
<rect x="37.7143" y="30.8571" width="1.14286" height="1.14286" fill="white"/>
<rect width="1.14286" height="1.14286" transform="matrix(-1 0 0 1 12.5714 30.8571)" fill="white"/>
<rect x="38.8571" y="30.8571" width="1.14286" height="1.14286" fill="white"/>
<rect width="1.14286" height="1.14286" transform="matrix(-1 0 0 1 11.4286 30.8571)" fill="white"/>
<rect x="40" y="30.8571" width="1.14286" height="1.14286" fill="white"/>
<rect width="1.14286" height="1.14286" transform="matrix(-1 0 0 1 10.2857 30.8571)" fill="white"/>
<rect width="1.14286" height="1.14286" transform="matrix(-1 0 0 1 44.5714 30.8571)" fill="white"/>
<rect x="5.71429" y="30.8571" width="1.14286" height="1.14286" fill="white"/>
<rect width="1.14286" height="1.14286" transform="matrix(-1 0 0 1 45.7143 30.8571)" fill="white"/>
<rect x="4.57144" y="30.8571" width="1.14286" height="1.14286" fill="white"/>
</svg>
