<svg width="219" height="32" viewBox="0 0 219 32" fill="none" xmlns="http://www.w3.org/2000/svg">
<rect x="38.8571" width="1.14286" height="1.14286" fill="white"/>
<rect width="1.14286" height="1.14286" transform="matrix(-1 0 0 1 11.4286 0)" fill="white"/>
<rect x="43.4286" width="1.14286" height="1.14286" fill="white"/>
<rect width="1.14286" height="1.14286" transform="matrix(-1 0 0 1 6.85715 0)" fill="white"/>
<rect x="44.5714" width="1.14286" height="1.14286" fill="white"/>
<rect width="1.14286" height="1.14286" transform="matrix(-1 0 0 1 5.71429 0)" fill="white"/>
<rect x="45.7143" width="1.14286" height="1.14286" fill="white"/>
<rect width="1.14286" height="1.14286" transform="matrix(-1 0 0 1 4.57144 0)" fill="white"/>
<rect x="37.7143" y="1.14285" width="1.14286" height="1.14286" fill="white"/>
<rect width="1.14286" height="1.14286" transform="matrix(-1 0 0 1 12.5714 1.14285)" fill="white"/>
<rect x="38.8571" y="1.14285" width="1.14286" height="1.14286" fill="white"/>
<rect width="1.14286" height="1.14286" transform="matrix(-1 0 0 1 11.4286 1.14285)" fill="white"/>
<rect x="44.5714" y="1.14285" width="1.14286" height="1.14286" fill="white"/>
<rect width="1.14286" height="1.14286" transform="matrix(-1 0 0 1 5.71429 1.14285)" fill="white"/>
<rect x="45.7143" y="1.14285" width="1.14286" height="1.14286" fill="white"/>
<rect width="1.14286" height="1.14286" transform="matrix(-1 0 0 1 4.57144 1.14285)" fill="white"/>
<rect x="46.8571" y="1.14285" width="1.14286" height="1.14286" fill="white"/>
<rect width="1.14286" height="1.14286" transform="matrix(-1 0 0 1 3.42856 1.14285)" fill="white"/>
<rect x="37.7143" y="2.28572" width="1.14286" height="1.14286" fill="white"/>
<rect width="1.14286" height="1.14286" transform="matrix(-1 0 0 1 12.5714 2.28572)" fill="white"/>
<rect x="38.8571" y="2.28572" width="1.14286" height="1.14286" fill="white"/>
<rect width="1.14286" height="1.14286" transform="matrix(-1 0 0 1 11.4286 2.28572)" fill="white"/>
<rect x="45.7143" y="2.28572" width="1.14286" height="1.14286" fill="white"/>
<rect width="1.14286" height="1.14286" transform="matrix(-1 0 0 1 4.57144 2.28572)" fill="white"/>
<rect x="46.8571" y="2.28572" width="1.14286" height="1.14286" fill="white"/>
<rect width="1.14286" height="1.14286" transform="matrix(-1 0 0 1 3.42856 2.28572)" fill="white"/>
<rect x="48" y="2.28572" width="1.14286" height="1.14286" fill="white"/>
<rect width="1.14286" height="1.14286" transform="matrix(-1 0 0 1 2.28571 2.28572)" fill="white"/>
<rect x="36.5714" y="3.42857" width="1.14286" height="1.14286" fill="white"/>
<rect width="1.14286" height="1.14286" transform="matrix(-1 0 0 1 13.7143 3.42857)" fill="white"/>
<rect x="37.7143" y="3.42857" width="1.14286" height="1.14286" fill="white"/>
<rect width="1.14286" height="1.14286" transform="matrix(-1 0 0 1 12.5714 3.42857)" fill="white"/>
<rect x="38.8571" y="3.42857" width="1.14286" height="1.14286" fill="white"/>
<rect width="1.14286" height="1.14286" transform="matrix(-1 0 0 1 11.4286 3.42857)" fill="white"/>
<rect x="45.7143" y="3.42857" width="1.14286" height="1.14286" fill="white"/>
<rect width="1.14286" height="1.14286" transform="matrix(-1 0 0 1 4.57144 3.42857)" fill="white"/>
<rect x="46.8571" y="3.42857" width="1.14286" height="1.14286" fill="white"/>
<rect width="1.14286" height="1.14286" transform="matrix(-1 0 0 1 3.42856 3.42857)" fill="white"/>
<rect x="48" y="3.42857" width="1.14286" height="1.14286" fill="white"/>
<rect width="1.14286" height="1.14286" transform="matrix(-1 0 0 1 2.28571 3.42857)" fill="white"/>
<rect width="1.14286" height="1.14286" transform="matrix(-1 0 0 1 29.1429 4.57143)" fill="white"/>
<rect x="21.1429" y="4.57143" width="1.14286" height="1.14286" fill="white"/>
<rect width="1.14286" height="1.14286" transform="matrix(-1 0 0 1 30.2857 4.57143)" fill="white"/>
<rect x="20" y="4.57143" width="1.14286" height="1.14286" fill="white"/>
<rect width="1.14286" height="1.14286" transform="matrix(-1 0 0 1 31.4286 4.57143)" fill="white"/>
<rect x="18.8571" y="4.57143" width="1.14286" height="1.14286" fill="white"/>
<rect x="36.5714" y="4.57143" width="1.14286" height="1.14286" fill="white"/>
<rect width="1.14286" height="1.14286" transform="matrix(-1 0 0 1 13.7143 4.57143)" fill="white"/>
<rect x="37.7143" y="4.57143" width="1.14286" height="1.14286" fill="white"/>
<rect width="1.14286" height="1.14286" transform="matrix(-1 0 0 1 12.5714 4.57143)" fill="white"/>
<rect x="38.8571" y="4.57143" width="1.14286" height="1.14286" fill="white"/>
<rect width="1.14286" height="1.14286" transform="matrix(-1 0 0 1 11.4286 4.57143)" fill="white"/>
<rect x="40" y="4.57143" width="1.14286" height="1.14286" fill="white"/>
<rect width="1.14286" height="1.14286" transform="matrix(-1 0 0 1 10.2857 4.57143)" fill="white"/>
<rect x="44.5714" y="4.57143" width="1.14286" height="1.14286" fill="white"/>
<rect width="1.14286" height="1.14286" transform="matrix(-1 0 0 1 5.71429 4.57143)" fill="white"/>
<rect x="45.7143" y="4.57143" width="1.14286" height="1.14286" fill="white"/>
<rect width="1.14286" height="1.14286" transform="matrix(-1 0 0 1 4.57144 4.57143)" fill="white"/>
<rect x="46.8571" y="4.57143" width="1.14286" height="1.14286" fill="white"/>
<rect width="1.14286" height="1.14286" transform="matrix(-1 0 0 1 3.42856 4.57143)" fill="white"/>
<rect x="48" y="4.57143" width="1.14286" height="1.14286" fill="white"/>
<rect width="1.14286" height="1.14286" transform="matrix(-1 0 0 1 2.28571 4.57143)" fill="white"/>
<rect width="1.14286" height="1.14286" transform="matrix(-1 0 0 1 28 5.71428)" fill="white"/>
<rect x="22.2857" y="5.71428" width="1.14286" height="1.14286" fill="white"/>
<rect width="1.14286" height="1.14286" transform="matrix(-1 0 0 1 29.1429 5.71428)" fill="white"/>
<rect x="21.1429" y="5.71428" width="1.14286" height="1.14286" fill="white"/>
<rect width="1.14286" height="1.14286" transform="matrix(-1 0 0 1 30.2857 5.71428)" fill="white"/>
<rect x="20" y="5.71428" width="1.14286" height="1.14286" fill="white"/>
<rect width="1.14286" height="1.14286" transform="matrix(-1 0 0 1 31.4286 5.71428)" fill="white"/>
<rect x="18.8571" y="5.71428" width="1.14286" height="1.14286" fill="white"/>
<rect width="1.14286" height="1.14286" transform="matrix(-1 0 0 1 32.5714 5.71428)" fill="white"/>
<rect x="17.7143" y="5.71428" width="1.14286" height="1.14286" fill="white"/>
<rect x="36.5714" y="5.71428" width="1.14286" height="1.14286" fill="white"/>
<rect width="1.14286" height="1.14286" transform="matrix(-1 0 0 1 13.7143 5.71428)" fill="white"/>
<rect x="37.7143" y="5.71428" width="1.14286" height="1.14286" fill="white"/>
<rect width="1.14286" height="1.14286" transform="matrix(-1 0 0 1 12.5714 5.71428)" fill="white"/>
<rect x="38.8571" y="5.71428" width="1.14286" height="1.14286" fill="white"/>
<rect width="1.14286" height="1.14286" transform="matrix(-1 0 0 1 11.4286 5.71428)" fill="white"/>
<rect x="40" y="5.71428" width="1.14286" height="1.14286" fill="white"/>
<rect width="1.14286" height="1.14286" transform="matrix(-1 0 0 1 10.2857 5.71428)" fill="white"/>
<rect x="43.4286" y="5.71428" width="1.14286" height="1.14286" fill="white"/>
<rect width="1.14286" height="1.14286" transform="matrix(-1 0 0 1 6.85715 5.71428)" fill="white"/>
<rect x="44.5714" y="5.71428" width="1.14286" height="1.14286" fill="white"/>
<rect width="1.14286" height="1.14286" transform="matrix(-1 0 0 1 5.71429 5.71428)" fill="white"/>
<rect x="45.7143" y="5.71428" width="1.14286" height="1.14286" fill="white"/>
<rect width="1.14286" height="1.14286" transform="matrix(-1 0 0 1 4.57144 5.71428)" fill="white"/>
<rect x="46.8571" y="5.71428" width="1.14286" height="1.14286" fill="white"/>
<rect width="1.14286" height="1.14286" transform="matrix(-1 0 0 1 3.42856 5.71428)" fill="white"/>
<rect x="48" y="5.71428" width="1.14286" height="1.14286" fill="white"/>
<rect width="1.14286" height="1.14286" transform="matrix(-1 0 0 1 2.28571 5.71428)" fill="white"/>
<rect width="1.14286" height="1.14286" transform="matrix(-1 0 0 1 28 6.85715)" fill="white"/>
<rect x="22.2857" y="6.85715" width="1.14286" height="1.14286" fill="white"/>
<rect width="1.14286" height="1.14286" transform="matrix(-1 0 0 1 29.1429 6.85715)" fill="white"/>
<rect x="21.1429" y="6.85715" width="1.14286" height="1.14286" fill="white"/>
<rect width="1.14286" height="1.14286" transform="matrix(-1 0 0 1 30.2857 6.85715)" fill="white"/>
<rect x="20" y="6.85715" width="1.14286" height="1.14286" fill="white"/>
<rect width="1.14286" height="1.14286" transform="matrix(-1 0 0 1 31.4286 6.85715)" fill="white"/>
<rect x="18.8571" y="6.85715" width="1.14286" height="1.14286" fill="white"/>
<rect width="1.14286" height="1.14286" transform="matrix(-1 0 0 1 32.5714 6.85715)" fill="white"/>
<rect x="17.7143" y="6.85715" width="1.14286" height="1.14286" fill="white"/>
<rect x="36.5714" y="6.85715" width="1.14286" height="1.14286" fill="white"/>
<rect width="1.14286" height="1.14286" transform="matrix(-1 0 0 1 13.7143 6.85715)" fill="white"/>
<rect x="37.7143" y="6.85715" width="1.14286" height="1.14286" fill="white"/>
<rect width="1.14286" height="1.14286" transform="matrix(-1 0 0 1 12.5714 6.85715)" fill="white"/>
<rect x="38.8571" y="6.85715" width="1.14286" height="1.14286" fill="white"/>
<rect width="1.14286" height="1.14286" transform="matrix(-1 0 0 1 11.4286 6.85715)" fill="white"/>
<rect x="40" y="6.85715" width="1.14286" height="1.14286" fill="white"/>
<rect width="1.14286" height="1.14286" transform="matrix(-1 0 0 1 10.2857 6.85715)" fill="white"/>
<rect x="41.1429" y="6.85715" width="1.14286" height="1.14286" fill="white"/>
<rect width="1.14286" height="1.14286" transform="matrix(-1 0 0 1 9.14285 6.85715)" fill="white"/>
<rect x="42.2857" y="6.85715" width="1.14286" height="1.14286" fill="white"/>
<rect width="1.14286" height="1.14286" transform="matrix(-1 0 0 1 8 6.85715)" fill="white"/>
<rect x="43.4286" y="6.85715" width="1.14286" height="1.14286" fill="white"/>
<rect width="1.14286" height="1.14286" transform="matrix(-1 0 0 1 6.85715 6.85715)" fill="white"/>
<rect x="44.5714" y="6.85715" width="1.14286" height="1.14286" fill="white"/>
<rect width="1.14286" height="1.14286" transform="matrix(-1 0 0 1 5.71429 6.85715)" fill="white"/>
<rect x="45.7143" y="6.85715" width="1.14286" height="1.14286" fill="white"/>
<rect width="1.14286" height="1.14286" transform="matrix(-1 0 0 1 4.57144 6.85715)" fill="white"/>
<rect x="46.8571" y="6.85715" width="1.14286" height="1.14286" fill="white"/>
<rect width="1.14286" height="1.14286" transform="matrix(-1 0 0 1 3.42856 6.85715)" fill="white"/>
<rect x="48" y="6.85715" width="1.14286" height="1.14286" fill="white"/>
<rect width="1.14286" height="1.14286" transform="matrix(-1 0 0 1 2.28571 6.85715)" fill="white"/>
<rect width="1.14286" height="1.14286" transform="matrix(-1 0 0 1 28 8)" fill="white"/>
<rect x="22.2857" y="8" width="1.14286" height="1.14286" fill="white"/>
<rect width="1.14286" height="1.14286" transform="matrix(-1 0 0 1 29.1429 8)" fill="white"/>
<rect x="21.1429" y="8" width="1.14286" height="1.14286" fill="white"/>
<rect width="1.14286" height="1.14286" transform="matrix(-1 0 0 1 30.2857 8)" fill="white"/>
<rect x="20" y="8" width="1.14286" height="1.14286" fill="white"/>
<rect width="1.14286" height="1.14286" transform="matrix(-1 0 0 1 31.4286 8)" fill="white"/>
<rect x="18.8571" y="8" width="1.14286" height="1.14286" fill="white"/>
<rect width="1.14286" height="1.14286" transform="matrix(-1 0 0 1 32.5714 8)" fill="white"/>
<rect x="17.7143" y="8" width="1.14286" height="1.14286" fill="white"/>
<rect x="36.5714" y="8" width="1.14286" height="1.14286" fill="white"/>
<rect width="1.14286" height="1.14286" transform="matrix(-1 0 0 1 13.7143 8)" fill="white"/>
<rect x="37.7143" y="8" width="1.14286" height="1.14286" fill="white"/>
<rect width="1.14286" height="1.14286" transform="matrix(-1 0 0 1 12.5714 8)" fill="white"/>
<rect x="38.8571" y="8" width="1.14286" height="1.14286" fill="white"/>
<rect width="1.14286" height="1.14286" transform="matrix(-1 0 0 1 11.4286 8)" fill="white"/>
<rect x="40" y="8" width="1.14286" height="1.14286" fill="white"/>
<rect width="1.14286" height="1.14286" transform="matrix(-1 0 0 1 10.2857 8)" fill="white"/>
<rect x="41.1429" y="8" width="1.14286" height="1.14286" fill="white"/>
<rect width="1.14286" height="1.14286" transform="matrix(-1 0 0 1 9.14285 8)" fill="white"/>
<rect x="42.2857" y="8" width="1.14286" height="1.14286" fill="white"/>
<rect width="1.14286" height="1.14286" transform="matrix(-1 0 0 1 8 8)" fill="white"/>
<rect x="43.4286" y="8" width="1.14286" height="1.14286" fill="white"/>
<rect width="1.14286" height="1.14286" transform="matrix(-1 0 0 1 6.85715 8)" fill="white"/>
<rect x="44.5714" y="8" width="1.14286" height="1.14286" fill="white"/>
<rect width="1.14286" height="1.14286" transform="matrix(-1 0 0 1 5.71429 8)" fill="white"/>
<rect x="45.7143" y="8" width="1.14286" height="1.14286" fill="white"/>
<rect width="1.14286" height="1.14286" transform="matrix(-1 0 0 1 4.57144 8)" fill="white"/>
<rect x="46.8571" y="8" width="1.14286" height="1.14286" fill="white"/>
<rect width="1.14286" height="1.14286" transform="matrix(-1 0 0 1 3.42856 8)" fill="white"/>
<rect width="1.14286" height="1.14286" transform="matrix(-1 0 0 1 28 9.14285)" fill="white"/>
<rect x="22.2857" y="9.14285" width="1.14286" height="1.14286" fill="white"/>
<rect width="1.14286" height="1.14286" transform="matrix(-1 0 0 1 29.1429 9.14285)" fill="white"/>
<rect x="21.1429" y="9.14285" width="1.14286" height="1.14286" fill="white"/>
<rect width="1.14286" height="1.14286" transform="matrix(-1 0 0 1 30.2857 9.14285)" fill="white"/>
<rect x="20" y="9.14285" width="1.14286" height="1.14286" fill="white"/>
<rect width="1.14286" height="1.14286" transform="matrix(-1 0 0 1 31.4286 9.14285)" fill="white"/>
<rect x="18.8571" y="9.14285" width="1.14286" height="1.14286" fill="white"/>
<rect width="1.14286" height="1.14286" transform="matrix(-1 0 0 1 32.5714 9.14285)" fill="white"/>
<rect x="17.7143" y="9.14285" width="1.14286" height="1.14286" fill="white"/>
<rect x="36.5714" y="9.14285" width="1.14286" height="1.14286" fill="white"/>
<rect width="1.14286" height="1.14286" transform="matrix(-1 0 0 1 13.7143 9.14285)" fill="white"/>
<rect x="37.7143" y="9.14285" width="1.14286" height="1.14286" fill="white"/>
<rect width="1.14286" height="1.14286" transform="matrix(-1 0 0 1 12.5714 9.14285)" fill="white"/>
<rect x="38.8571" y="9.14285" width="1.14286" height="1.14286" fill="white"/>
<rect width="1.14286" height="1.14286" transform="matrix(-1 0 0 1 11.4286 9.14285)" fill="white"/>
<rect x="40" y="9.14285" width="1.14286" height="1.14286" fill="white"/>
<rect width="1.14286" height="1.14286" transform="matrix(-1 0 0 1 10.2857 9.14285)" fill="white"/>
<rect x="41.1429" y="9.14285" width="1.14286" height="1.14286" fill="white"/>
<rect width="1.14286" height="1.14286" transform="matrix(-1 0 0 1 9.14285 9.14285)" fill="white"/>
<rect x="42.2857" y="9.14285" width="1.14286" height="1.14286" fill="white"/>
<rect width="1.14286" height="1.14286" transform="matrix(-1 0 0 1 8 9.14285)" fill="white"/>
<rect x="43.4286" y="9.14285" width="1.14286" height="1.14286" fill="white"/>
<rect width="1.14286" height="1.14286" transform="matrix(-1 0 0 1 6.85715 9.14285)" fill="white"/>
<rect x="44.5714" y="9.14285" width="1.14286" height="1.14286" fill="white"/>
<rect width="1.14286" height="1.14286" transform="matrix(-1 0 0 1 5.71429 9.14285)" fill="white"/>
<rect x="45.7143" y="9.14285" width="1.14286" height="1.14286" fill="white"/>
<rect width="1.14286" height="1.14286" transform="matrix(-1 0 0 1 4.57144 9.14285)" fill="white"/>
<rect x="46.8571" y="9.14285" width="1.14286" height="1.14286" fill="white"/>
<rect width="1.14286" height="1.14286" transform="matrix(-1 0 0 1 3.42856 9.14285)" fill="white"/>
<rect width="1.14286" height="1.14286" transform="matrix(-1 0 0 1 29.1429 10.2857)" fill="white"/>
<rect x="21.1429" y="10.2857" width="1.14286" height="1.14286" fill="white"/>
<rect width="1.14286" height="1.14286" transform="matrix(-1 0 0 1 30.2857 10.2857)" fill="white"/>
<rect x="20" y="10.2857" width="1.14286" height="1.14286" fill="white"/>
<rect width="1.14286" height="1.14286" transform="matrix(-1 0 0 1 31.4286 10.2857)" fill="white"/>
<rect x="18.8571" y="10.2857" width="1.14286" height="1.14286" fill="white"/>
<rect x="37.7143" y="10.2857" width="1.14286" height="1.14286" fill="white"/>
<rect width="1.14286" height="1.14286" transform="matrix(-1 0 0 1 12.5714 10.2857)" fill="white"/>
<rect x="38.8571" y="10.2857" width="1.14286" height="1.14286" fill="white"/>
<rect width="1.14286" height="1.14286" transform="matrix(-1 0 0 1 11.4286 10.2857)" fill="white"/>
<rect x="40" y="10.2857" width="1.14286" height="1.14286" fill="white"/>
<rect width="1.14286" height="1.14286" transform="matrix(-1 0 0 1 10.2857 10.2857)" fill="white"/>
<rect x="41.1429" y="10.2857" width="1.14286" height="1.14286" fill="white"/>
<rect width="1.14286" height="1.14286" transform="matrix(-1 0 0 1 9.14285 10.2857)" fill="white"/>
<rect x="42.2857" y="10.2857" width="1.14286" height="1.14286" fill="white"/>
<rect width="1.14286" height="1.14286" transform="matrix(-1 0 0 1 8 10.2857)" fill="white"/>
<rect x="43.4286" y="10.2857" width="1.14286" height="1.14286" fill="white"/>
<rect width="1.14286" height="1.14286" transform="matrix(-1 0 0 1 6.85715 10.2857)" fill="white"/>
<rect x="44.5714" y="10.2857" width="1.14286" height="1.14286" fill="white"/>
<rect width="1.14286" height="1.14286" transform="matrix(-1 0 0 1 5.71429 10.2857)" fill="white"/>
<rect x="45.7143" y="10.2857" width="1.14286" height="1.14286" fill="white"/>
<rect width="1.14286" height="1.14286" transform="matrix(-1 0 0 1 4.57144 10.2857)" fill="white"/>
<rect x="27.4286" y="11.4286" width="1.14286" height="1.14286" fill="white"/>
<rect width="1.14286" height="1.14286" transform="matrix(-1 0 0 1 22.8571 11.4286)" fill="white"/>
<rect x="28.5714" y="11.4286" width="1.14286" height="1.14286" fill="white"/>
<rect width="1.14286" height="1.14286" transform="matrix(-1 0 0 1 21.7143 11.4286)" fill="white"/>
<rect x="29.7143" y="11.4286" width="1.14286" height="1.14286" fill="white"/>
<rect width="1.14286" height="1.14286" transform="matrix(-1 0 0 1 20.5714 11.4286)" fill="white"/>
<rect x="38.8571" y="11.4286" width="1.14286" height="1.14286" fill="white"/>
<rect width="1.14286" height="1.14286" transform="matrix(-1 0 0 1 11.4286 11.4286)" fill="white"/>
<rect x="40" y="11.4286" width="1.14286" height="1.14286" fill="white"/>
<rect width="1.14286" height="1.14286" transform="matrix(-1 0 0 1 10.2857 11.4286)" fill="white"/>
<rect x="41.1429" y="11.4286" width="1.14286" height="1.14286" fill="white"/>
<rect width="1.14286" height="1.14286" transform="matrix(-1 0 0 1 9.14285 11.4286)" fill="white"/>
<rect x="42.2857" y="11.4286" width="1.14286" height="1.14286" fill="white"/>
<rect width="1.14286" height="1.14286" transform="matrix(-1 0 0 1 8 11.4286)" fill="white"/>
<rect x="43.4286" y="11.4286" width="1.14286" height="1.14286" fill="white"/>
<rect width="1.14286" height="1.14286" transform="matrix(-1 0 0 1 6.85715 11.4286)" fill="white"/>
<rect x="44.5714" y="11.4286" width="1.14286" height="1.14286" fill="white"/>
<rect width="1.14286" height="1.14286" transform="matrix(-1 0 0 1 5.71429 11.4286)" fill="white"/>
<rect x="25.1429" y="12.5714" width="1.14286" height="1.14286" fill="white"/>
<rect width="1.14286" height="1.14286" transform="matrix(-1 0 0 1 25.1429 12.5714)" fill="white"/>
<rect x="26.2857" y="12.5714" width="1.14286" height="1.14286" fill="white"/>
<rect width="1.14286" height="1.14286" transform="matrix(-1 0 0 1 24 12.5714)" fill="white"/>
<rect x="27.4286" y="12.5714" width="1.14286" height="1.14286" fill="white"/>
<rect width="1.14286" height="1.14286" transform="matrix(-1 0 0 1 22.8571 12.5714)" fill="white"/>
<rect x="28.5714" y="12.5714" width="1.14286" height="1.14286" fill="white"/>
<rect width="1.14286" height="1.14286" transform="matrix(-1 0 0 1 21.7143 12.5714)" fill="white"/>
<rect x="29.7143" y="12.5714" width="1.14286" height="1.14286" fill="white"/>
<rect width="1.14286" height="1.14286" transform="matrix(-1 0 0 1 20.5714 12.5714)" fill="white"/>
<rect x="30.8571" y="12.5714" width="1.14286" height="1.14286" fill="white"/>
<rect width="1.14286" height="1.14286" transform="matrix(-1 0 0 1 19.4286 12.5714)" fill="white"/>
<rect x="32" y="12.5714" width="1.14286" height="1.14286" fill="white"/>
<rect width="1.14286" height="1.14286" transform="matrix(-1 0 0 1 18.2857 12.5714)" fill="white"/>
<rect x="33.1429" y="12.5714" width="1.14286" height="1.14286" fill="white"/>
<rect width="1.14286" height="1.14286" transform="matrix(-1 0 0 1 17.1429 12.5714)" fill="white"/>
<rect x="40" y="12.5714" width="1.14286" height="1.14286" fill="white"/>
<rect width="1.14286" height="1.14286" transform="matrix(-1 0 0 1 10.2857 12.5714)" fill="white"/>
<rect x="41.1429" y="12.5714" width="1.14286" height="1.14286" fill="white"/>
<rect width="1.14286" height="1.14286" transform="matrix(-1 0 0 1 9.14285 12.5714)" fill="white"/>
<rect x="42.2857" y="12.5714" width="1.14286" height="1.14286" fill="white"/>
<rect width="1.14286" height="1.14286" transform="matrix(-1 0 0 1 8 12.5714)" fill="white"/>
<rect x="43.4286" y="12.5714" width="1.14286" height="1.14286" fill="white"/>
<rect width="1.14286" height="1.14286" transform="matrix(-1 0 0 1 6.85715 12.5714)" fill="white"/>
<rect x="25.1429" y="13.7143" width="1.14286" height="1.14286" fill="white"/>
<rect width="1.14286" height="1.14286" transform="matrix(-1 0 0 1 25.1429 13.7143)" fill="white"/>
<rect x="26.2857" y="13.7143" width="1.14286" height="1.14286" fill="white"/>
<rect width="1.14286" height="1.14286" transform="matrix(-1 0 0 1 24 13.7143)" fill="white"/>
<rect x="27.4286" y="13.7143" width="1.14286" height="1.14286" fill="white"/>
<rect width="1.14286" height="1.14286" transform="matrix(-1 0 0 1 22.8571 13.7143)" fill="white"/>
<rect x="28.5714" y="13.7143" width="1.14286" height="1.14286" fill="white"/>
<rect width="1.14286" height="1.14286" transform="matrix(-1 0 0 1 21.7143 13.7143)" fill="white"/>
<rect x="29.7143" y="13.7143" width="1.14286" height="1.14286" fill="white"/>
<rect width="1.14286" height="1.14286" transform="matrix(-1 0 0 1 20.5714 13.7143)" fill="white"/>
<rect x="30.8571" y="13.7143" width="1.14286" height="1.14286" fill="white"/>
<rect width="1.14286" height="1.14286" transform="matrix(-1 0 0 1 19.4286 13.7143)" fill="white"/>
<rect x="32" y="13.7143" width="1.14286" height="1.14286" fill="white"/>
<rect width="1.14286" height="1.14286" transform="matrix(-1 0 0 1 18.2857 13.7143)" fill="white"/>
<rect x="33.1429" y="13.7143" width="1.14286" height="1.14286" fill="white"/>
<rect width="1.14286" height="1.14286" transform="matrix(-1 0 0 1 17.1429 13.7143)" fill="white"/>
<rect x="34.2857" y="13.7143" width="1.14286" height="1.14286" fill="white"/>
<rect width="1.14286" height="1.14286" transform="matrix(-1 0 0 1 16 13.7143)" fill="white"/>
<rect x="41.1429" y="13.7143" width="1.14286" height="1.14286" fill="white"/>
<rect width="1.14286" height="1.14286" transform="matrix(-1 0 0 1 9.14285 13.7143)" fill="white"/>
<rect x="42.2857" y="13.7143" width="1.14286" height="1.14286" fill="white"/>
<rect width="1.14286" height="1.14286" transform="matrix(-1 0 0 1 8 13.7143)" fill="white"/>
<rect x="43.4286" y="13.7143" width="1.14286" height="1.14286" fill="white"/>
<rect width="1.14286" height="1.14286" transform="matrix(-1 0 0 1 6.85715 13.7143)" fill="white"/>
<rect x="25.1429" y="14.8571" width="1.14286" height="1.14286" fill="white"/>
<rect width="1.14286" height="1.14286" transform="matrix(-1 0 0 1 25.1429 14.8571)" fill="white"/>
<rect x="26.2857" y="14.8571" width="1.14286" height="1.14286" fill="white"/>
<rect width="1.14286" height="1.14286" transform="matrix(-1 0 0 1 24 14.8571)" fill="white"/>
<rect x="27.4286" y="14.8571" width="1.14286" height="1.14286" fill="white"/>
<rect width="1.14286" height="1.14286" transform="matrix(-1 0 0 1 22.8571 14.8571)" fill="white"/>
<rect x="28.5714" y="14.8571" width="1.14286" height="1.14286" fill="white"/>
<rect width="1.14286" height="1.14286" transform="matrix(-1 0 0 1 21.7143 14.8571)" fill="white"/>
<rect x="29.7143" y="14.8571" width="1.14286" height="1.14286" fill="white"/>
<rect width="1.14286" height="1.14286" transform="matrix(-1 0 0 1 20.5714 14.8571)" fill="white"/>
<rect x="30.8571" y="14.8571" width="1.14286" height="1.14286" fill="white"/>
<rect width="1.14286" height="1.14286" transform="matrix(-1 0 0 1 19.4286 14.8571)" fill="white"/>
<rect x="32" y="14.8571" width="1.14286" height="1.14286" fill="white"/>
<rect width="1.14286" height="1.14286" transform="matrix(-1 0 0 1 18.2857 14.8571)" fill="white"/>
<rect x="33.1429" y="14.8571" width="1.14286" height="1.14286" fill="white"/>
<rect width="1.14286" height="1.14286" transform="matrix(-1 0 0 1 17.1429 14.8571)" fill="white"/>
<rect x="34.2857" y="14.8571" width="1.14286" height="1.14286" fill="white"/>
<rect width="1.14286" height="1.14286" transform="matrix(-1 0 0 1 16 14.8571)" fill="white"/>
<rect x="35.4286" y="14.8571" width="1.14286" height="1.14286" fill="white"/>
<rect width="1.14286" height="1.14286" transform="matrix(-1 0 0 1 14.8571 14.8571)" fill="white"/>
<rect x="36.5714" y="14.8571" width="1.14286" height="1.14286" fill="white"/>
<rect width="1.14286" height="1.14286" transform="matrix(-1 0 0 1 13.7143 14.8571)" fill="white"/>
<rect x="37.7143" y="14.8571" width="1.14286" height="1.14286" fill="white"/>
<rect width="1.14286" height="1.14286" transform="matrix(-1 0 0 1 12.5714 14.8571)" fill="white"/>
<rect x="38.8571" y="14.8571" width="1.14286" height="1.14286" fill="white"/>
<rect width="1.14286" height="1.14286" transform="matrix(-1 0 0 1 11.4286 14.8571)" fill="white"/>
<rect x="40" y="14.8571" width="1.14286" height="1.14286" fill="white"/>
<rect width="1.14286" height="1.14286" transform="matrix(-1 0 0 1 10.2857 14.8571)" fill="white"/>
<rect x="41.1429" y="14.8571" width="1.14286" height="1.14286" fill="white"/>
<rect width="1.14286" height="1.14286" transform="matrix(-1 0 0 1 9.14285 14.8571)" fill="white"/>
<rect x="42.2857" y="14.8571" width="1.14286" height="1.14286" fill="white"/>
<rect width="1.14286" height="1.14286" transform="matrix(-1 0 0 1 8 14.8571)" fill="white"/>
<rect x="25.1429" y="16" width="1.14286" height="1.14286" fill="white"/>
<rect width="1.14286" height="1.14286" transform="matrix(-1 0 0 1 25.1429 16)" fill="white"/>
<rect x="26.2857" y="16" width="1.14286" height="1.14286" fill="white"/>
<rect width="1.14286" height="1.14286" transform="matrix(-1 0 0 1 24 16)" fill="white"/>
<rect x="27.4286" y="16" width="1.14286" height="1.14286" fill="white"/>
<rect width="1.14286" height="1.14286" transform="matrix(-1 0 0 1 22.8571 16)" fill="white"/>
<rect x="28.5714" y="16" width="1.14286" height="1.14286" fill="white"/>
<rect width="1.14286" height="1.14286" transform="matrix(-1 0 0 1 21.7143 16)" fill="white"/>
<rect x="29.7143" y="16" width="1.14286" height="1.14286" fill="white"/>
<rect width="1.14286" height="1.14286" transform="matrix(-1 0 0 1 20.5714 16)" fill="white"/>
<rect x="30.8571" y="16" width="1.14286" height="1.14286" fill="white"/>
<rect width="1.14286" height="1.14286" transform="matrix(-1 0 0 1 19.4286 16)" fill="white"/>
<rect x="32" y="16" width="1.14286" height="1.14286" fill="white"/>
<rect width="1.14286" height="1.14286" transform="matrix(-1 0 0 1 18.2857 16)" fill="white"/>
<rect x="33.1429" y="16" width="1.14286" height="1.14286" fill="white"/>
<rect width="1.14286" height="1.14286" transform="matrix(-1 0 0 1 17.1429 16)" fill="white"/>
<rect x="34.2857" y="16" width="1.14286" height="1.14286" fill="white"/>
<rect width="1.14286" height="1.14286" transform="matrix(-1 0 0 1 16 16)" fill="white"/>
<rect x="35.4286" y="16" width="1.14286" height="1.14286" fill="white"/>
<rect width="1.14286" height="1.14286" transform="matrix(-1 0 0 1 14.8571 16)" fill="white"/>
<rect x="36.5714" y="16" width="1.14286" height="1.14286" fill="white"/>
<rect width="1.14286" height="1.14286" transform="matrix(-1 0 0 1 13.7143 16)" fill="white"/>
<rect x="37.7143" y="16" width="1.14286" height="1.14286" fill="white"/>
<rect width="1.14286" height="1.14286" transform="matrix(-1 0 0 1 12.5714 16)" fill="white"/>
<rect x="38.8571" y="16" width="1.14286" height="1.14286" fill="white"/>
<rect width="1.14286" height="1.14286" transform="matrix(-1 0 0 1 11.4286 16)" fill="white"/>
<rect x="40" y="16" width="1.14286" height="1.14286" fill="white"/>
<rect width="1.14286" height="1.14286" transform="matrix(-1 0 0 1 10.2857 16)" fill="white"/>
<rect x="41.1429" y="16" width="1.14286" height="1.14286" fill="white"/>
<rect width="1.14286" height="1.14286" transform="matrix(-1 0 0 1 9.14285 16)" fill="white"/>
<rect x="25.1429" y="17.1429" width="1.14286" height="1.14286" fill="white"/>
<rect width="1.14286" height="1.14286" transform="matrix(-1 0 0 1 25.1429 17.1429)" fill="white"/>
<rect x="26.2857" y="17.1429" width="1.14286" height="1.14286" fill="white"/>
<rect width="1.14286" height="1.14286" transform="matrix(-1 0 0 1 24 17.1429)" fill="white"/>
<rect x="27.4286" y="17.1429" width="1.14286" height="1.14286" fill="white"/>
<rect width="1.14286" height="1.14286" transform="matrix(-1 0 0 1 22.8571 17.1429)" fill="white"/>
<rect x="28.5714" y="17.1429" width="1.14286" height="1.14286" fill="white"/>
<rect width="1.14286" height="1.14286" transform="matrix(-1 0 0 1 21.7143 17.1429)" fill="white"/>
<rect x="29.7143" y="17.1429" width="1.14286" height="1.14286" fill="white"/>
<rect width="1.14286" height="1.14286" transform="matrix(-1 0 0 1 20.5714 17.1429)" fill="white"/>
<rect x="30.8571" y="17.1429" width="1.14286" height="1.14286" fill="white"/>
<rect width="1.14286" height="1.14286" transform="matrix(-1 0 0 1 19.4286 17.1429)" fill="white"/>
<rect x="32" y="17.1429" width="1.14286" height="1.14286" fill="white"/>
<rect width="1.14286" height="1.14286" transform="matrix(-1 0 0 1 18.2857 17.1429)" fill="white"/>
<rect x="33.1429" y="17.1429" width="1.14286" height="1.14286" fill="white"/>
<rect width="1.14286" height="1.14286" transform="matrix(-1 0 0 1 17.1429 17.1429)" fill="white"/>
<rect x="34.2857" y="17.1429" width="1.14286" height="1.14286" fill="white"/>
<rect width="1.14286" height="1.14286" transform="matrix(-1 0 0 1 16 17.1429)" fill="white"/>
<rect x="35.4286" y="17.1429" width="1.14286" height="1.14286" fill="white"/>
<rect width="1.14286" height="1.14286" transform="matrix(-1 0 0 1 14.8571 17.1429)" fill="white"/>
<rect x="36.5714" y="17.1429" width="1.14286" height="1.14286" fill="white"/>
<rect width="1.14286" height="1.14286" transform="matrix(-1 0 0 1 13.7143 17.1429)" fill="white"/>
<rect x="37.7143" y="17.1429" width="1.14286" height="1.14286" fill="white"/>
<rect width="1.14286" height="1.14286" transform="matrix(-1 0 0 1 12.5714 17.1429)" fill="white"/>
<rect x="25.1429" y="18.2857" width="1.14286" height="1.14286" fill="white"/>
<rect width="1.14286" height="1.14286" transform="matrix(-1 0 0 1 25.1429 18.2857)" fill="white"/>
<rect x="26.2857" y="18.2857" width="1.14286" height="1.14286" fill="white"/>
<rect width="1.14286" height="1.14286" transform="matrix(-1 0 0 1 24 18.2857)" fill="white"/>
<rect x="27.4286" y="18.2857" width="1.14286" height="1.14286" fill="white"/>
<rect width="1.14286" height="1.14286" transform="matrix(-1 0 0 1 22.8571 18.2857)" fill="white"/>
<rect x="28.5714" y="18.2857" width="1.14286" height="1.14286" fill="white"/>
<rect width="1.14286" height="1.14286" transform="matrix(-1 0 0 1 21.7143 18.2857)" fill="white"/>
<rect x="29.7143" y="18.2857" width="1.14286" height="1.14286" fill="white"/>
<rect width="1.14286" height="1.14286" transform="matrix(-1 0 0 1 20.5714 18.2857)" fill="white"/>
<rect x="30.8571" y="18.2857" width="1.14286" height="1.14286" fill="white"/>
<rect width="1.14286" height="1.14286" transform="matrix(-1 0 0 1 19.4286 18.2857)" fill="white"/>
<rect x="32" y="18.2857" width="1.14286" height="1.14286" fill="white"/>
<rect width="1.14286" height="1.14286" transform="matrix(-1 0 0 1 18.2857 18.2857)" fill="white"/>
<rect x="33.1429" y="18.2857" width="1.14286" height="1.14286" fill="white"/>
<rect width="1.14286" height="1.14286" transform="matrix(-1 0 0 1 17.1429 18.2857)" fill="white"/>
<rect x="34.2857" y="18.2857" width="1.14286" height="1.14286" fill="white"/>
<rect width="1.14286" height="1.14286" transform="matrix(-1 0 0 1 16 18.2857)" fill="white"/>
<rect x="35.4286" y="18.2857" width="1.14286" height="1.14286" fill="white"/>
<rect width="1.14286" height="1.14286" transform="matrix(-1 0 0 1 14.8571 18.2857)" fill="white"/>
<rect x="36.5714" y="18.2857" width="1.14286" height="1.14286" fill="white"/>
<rect width="1.14286" height="1.14286" transform="matrix(-1 0 0 1 13.7143 18.2857)" fill="white"/>
<rect x="37.7143" y="18.2857" width="1.14286" height="1.14286" fill="white"/>
<rect width="1.14286" height="1.14286" transform="matrix(-1 0 0 1 12.5714 18.2857)" fill="white"/>
<rect x="25.1429" y="19.4286" width="1.14286" height="1.14286" fill="white"/>
<rect width="1.14286" height="1.14286" transform="matrix(-1 0 0 1 25.1429 19.4286)" fill="white"/>
<rect x="26.2857" y="19.4286" width="1.14286" height="1.14286" fill="white"/>
<rect width="1.14286" height="1.14286" transform="matrix(-1 0 0 1 24 19.4286)" fill="white"/>
<rect x="27.4286" y="19.4286" width="1.14286" height="1.14286" fill="white"/>
<rect width="1.14286" height="1.14286" transform="matrix(-1 0 0 1 22.8571 19.4286)" fill="white"/>
<rect x="28.5714" y="19.4286" width="1.14286" height="1.14286" fill="white"/>
<rect width="1.14286" height="1.14286" transform="matrix(-1 0 0 1 21.7143 19.4286)" fill="white"/>
<rect x="29.7143" y="19.4286" width="1.14286" height="1.14286" fill="white"/>
<rect width="1.14286" height="1.14286" transform="matrix(-1 0 0 1 20.5714 19.4286)" fill="white"/>
<rect x="30.8571" y="19.4286" width="1.14286" height="1.14286" fill="white"/>
<rect width="1.14286" height="1.14286" transform="matrix(-1 0 0 1 19.4286 19.4286)" fill="white"/>
<rect x="32" y="19.4286" width="1.14286" height="1.14286" fill="white"/>
<rect width="1.14286" height="1.14286" transform="matrix(-1 0 0 1 18.2857 19.4286)" fill="white"/>
<rect x="33.1429" y="19.4286" width="1.14286" height="1.14286" fill="white"/>
<rect width="1.14286" height="1.14286" transform="matrix(-1 0 0 1 17.1429 19.4286)" fill="white"/>
<rect x="34.2857" y="19.4286" width="1.14286" height="1.14286" fill="white"/>
<rect width="1.14286" height="1.14286" transform="matrix(-1 0 0 1 16 19.4286)" fill="white"/>
<rect x="35.4286" y="19.4286" width="1.14286" height="1.14286" fill="white"/>
<rect width="1.14286" height="1.14286" transform="matrix(-1 0 0 1 14.8571 19.4286)" fill="white"/>
<rect x="36.5714" y="19.4286" width="1.14286" height="1.14286" fill="white"/>
<rect width="1.14286" height="1.14286" transform="matrix(-1 0 0 1 13.7143 19.4286)" fill="white"/>
<rect x="37.7143" y="19.4286" width="1.14286" height="1.14286" fill="white"/>
<rect width="1.14286" height="1.14286" transform="matrix(-1 0 0 1 12.5714 19.4286)" fill="white"/>
<rect x="38.8571" y="19.4286" width="1.14286" height="1.14286" fill="white"/>
<rect width="1.14286" height="1.14286" transform="matrix(-1 0 0 1 11.4286 19.4286)" fill="white"/>
<rect x="25.1429" y="20.5714" width="1.14286" height="1.14286" fill="white"/>
<rect width="1.14286" height="1.14286" transform="matrix(-1 0 0 1 25.1429 20.5714)" fill="white"/>
<rect x="26.2857" y="20.5714" width="1.14286" height="1.14286" fill="white"/>
<rect width="1.14286" height="1.14286" transform="matrix(-1 0 0 1 24 20.5714)" fill="white"/>
<rect x="27.4286" y="20.5714" width="1.14286" height="1.14286" fill="white"/>
<rect width="1.14286" height="1.14286" transform="matrix(-1 0 0 1 22.8571 20.5714)" fill="white"/>
<rect x="28.5714" y="20.5714" width="1.14286" height="1.14286" fill="white"/>
<rect width="1.14286" height="1.14286" transform="matrix(-1 0 0 1 21.7143 20.5714)" fill="white"/>
<rect x="29.7143" y="20.5714" width="1.14286" height="1.14286" fill="white"/>
<rect width="1.14286" height="1.14286" transform="matrix(-1 0 0 1 20.5714 20.5714)" fill="white"/>
<rect x="30.8571" y="20.5714" width="1.14286" height="1.14286" fill="white"/>
<rect width="1.14286" height="1.14286" transform="matrix(-1 0 0 1 19.4286 20.5714)" fill="white"/>
<rect x="32" y="20.5714" width="1.14286" height="1.14286" fill="white"/>
<rect width="1.14286" height="1.14286" transform="matrix(-1 0 0 1 18.2857 20.5714)" fill="white"/>
<rect x="33.1429" y="20.5714" width="1.14286" height="1.14286" fill="white"/>
<rect width="1.14286" height="1.14286" transform="matrix(-1 0 0 1 17.1429 20.5714)" fill="white"/>
<rect x="34.2857" y="20.5714" width="1.14286" height="1.14286" fill="white"/>
<rect width="1.14286" height="1.14286" transform="matrix(-1 0 0 1 16 20.5714)" fill="white"/>
<rect x="35.4286" y="20.5714" width="1.14286" height="1.14286" fill="white"/>
<rect width="1.14286" height="1.14286" transform="matrix(-1 0 0 1 14.8571 20.5714)" fill="white"/>
<rect x="36.5714" y="20.5714" width="1.14286" height="1.14286" fill="white"/>
<rect width="1.14286" height="1.14286" transform="matrix(-1 0 0 1 13.7143 20.5714)" fill="white"/>
<rect x="37.7143" y="20.5714" width="1.14286" height="1.14286" fill="white"/>
<rect width="1.14286" height="1.14286" transform="matrix(-1 0 0 1 12.5714 20.5714)" fill="white"/>
<rect x="38.8571" y="20.5714" width="1.14286" height="1.14286" fill="white"/>
<rect width="1.14286" height="1.14286" transform="matrix(-1 0 0 1 11.4286 20.5714)" fill="white"/>
<rect x="40" y="20.5714" width="1.14286" height="1.14286" fill="white"/>
<rect width="1.14286" height="1.14286" transform="matrix(-1 0 0 1 10.2857 20.5714)" fill="white"/>
<rect x="41.1429" y="20.5714" width="1.14286" height="1.14286" fill="white"/>
<rect width="1.14286" height="1.14286" transform="matrix(-1 0 0 1 9.14285 20.5714)" fill="white"/>
<rect x="42.2857" y="20.5714" width="1.14286" height="1.14286" fill="white"/>
<rect width="1.14286" height="1.14286" transform="matrix(-1 0 0 1 8 20.5714)" fill="white"/>
<rect x="43.4286" y="20.5714" width="1.14286" height="1.14286" fill="white"/>
<rect width="1.14286" height="1.14286" transform="matrix(-1 0 0 1 6.85715 20.5714)" fill="white"/>
<rect x="45.7171" y="21.7115" width="1.14286" height="1.14286" transform="rotate(0.279067 45.7171 21.7115)" fill="white"/>
<rect width="1.14286" height="1.14286" transform="matrix(-0.999988 0.00487062 0.00487062 0.999988 4.56863 21.7115)" fill="white"/>
<rect x="25.1429" y="21.7143" width="1.14286" height="1.14286" fill="white"/>
<rect width="1.14286" height="1.14286" transform="matrix(-1 0 0 1 25.1429 21.7143)" fill="white"/>
<rect x="26.2857" y="21.7143" width="1.14286" height="1.14286" fill="white"/>
<rect width="1.14286" height="1.14286" transform="matrix(-1 0 0 1 24 21.7143)" fill="white"/>
<rect x="27.4286" y="21.7143" width="1.14286" height="1.14286" fill="white"/>
<rect width="1.14286" height="1.14286" transform="matrix(-1 0 0 1 22.8571 21.7143)" fill="white"/>
<rect x="28.5714" y="21.7143" width="1.14286" height="1.14286" fill="white"/>
<rect width="1.14286" height="1.14286" transform="matrix(-1 0 0 1 21.7143 21.7143)" fill="white"/>
<rect x="29.7143" y="21.7143" width="1.14286" height="1.14286" fill="white"/>
<rect width="1.14286" height="1.14286" transform="matrix(-1 0 0 1 20.5714 21.7143)" fill="white"/>
<rect x="30.8571" y="21.7143" width="1.14286" height="1.14286" fill="white"/>
<rect width="1.14286" height="1.14286" transform="matrix(-1 0 0 1 19.4286 21.7143)" fill="white"/>
<rect x="32" y="21.7143" width="1.14286" height="1.14286" fill="white"/>
<rect width="1.14286" height="1.14286" transform="matrix(-1 0 0 1 18.2857 21.7143)" fill="white"/>
<rect x="33.1429" y="21.7143" width="1.14286" height="1.14286" fill="white"/>
<rect width="1.14286" height="1.14286" transform="matrix(-1 0 0 1 17.1429 21.7143)" fill="white"/>
<rect x="34.2857" y="21.7143" width="1.14286" height="1.14286" fill="white"/>
<rect width="1.14286" height="1.14286" transform="matrix(-1 0 0 1 16 21.7143)" fill="white"/>
<rect x="35.4286" y="21.7143" width="1.14286" height="1.14286" fill="white"/>
<rect width="1.14286" height="1.14286" transform="matrix(-1 0 0 1 14.8571 21.7143)" fill="white"/>
<rect x="36.5714" y="21.7143" width="1.14286" height="1.14286" fill="white"/>
<rect width="1.14286" height="1.14286" transform="matrix(-1 0 0 1 13.7143 21.7143)" fill="white"/>
<rect x="37.7143" y="21.7143" width="1.14286" height="1.14286" fill="white"/>
<rect width="1.14286" height="1.14286" transform="matrix(-1 0 0 1 12.5714 21.7143)" fill="white"/>
<rect x="38.8571" y="21.7143" width="1.14286" height="1.14286" fill="white"/>
<rect width="1.14286" height="1.14286" transform="matrix(-1 0 0 1 11.4286 21.7143)" fill="white"/>
<rect x="40" y="21.7143" width="1.14286" height="1.14286" fill="white"/>
<rect width="1.14286" height="1.14286" transform="matrix(-1 0 0 1 10.2857 21.7143)" fill="white"/>
<rect x="41.1429" y="21.7143" width="1.14286" height="1.14286" fill="white"/>
<rect width="1.14286" height="1.14286" transform="matrix(-1 0 0 1 9.14285 21.7143)" fill="white"/>
<rect x="42.2857" y="21.7143" width="1.14286" height="1.14286" fill="white"/>
<rect width="1.14286" height="1.14286" transform="matrix(-1 0 0 1 8 21.7143)" fill="white"/>
<rect x="43.4286" y="21.7143" width="1.14286" height="1.14286" fill="white"/>
<rect width="1.14286" height="1.14286" transform="matrix(-1 0 0 1 6.85715 21.7143)" fill="white"/>
<rect x="44.5714" y="21.7143" width="1.14286" height="1.14286" fill="white"/>
<rect width="1.14286" height="1.14286" transform="matrix(-1 0 0 1 5.71429 21.7143)" fill="white"/>
<rect x="25.1429" y="22.8571" width="1.14286" height="1.14286" fill="white"/>
<rect width="1.14286" height="1.14286" transform="matrix(-1 0 0 1 25.1429 22.8571)" fill="white"/>
<rect x="26.2857" y="22.8571" width="1.14286" height="1.14286" fill="white"/>
<rect width="1.14286" height="1.14286" transform="matrix(-1 0 0 1 24 22.8571)" fill="white"/>
<rect x="27.4286" y="22.8571" width="1.14286" height="1.14286" fill="white"/>
<rect width="1.14286" height="1.14286" transform="matrix(-1 0 0 1 22.8571 22.8571)" fill="white"/>
<rect x="28.5714" y="22.8571" width="1.14286" height="1.14286" fill="white"/>
<rect width="1.14286" height="1.14286" transform="matrix(-1 0 0 1 21.7143 22.8571)" fill="white"/>
<rect x="29.7143" y="22.8571" width="1.14286" height="1.14286" fill="white"/>
<rect width="1.14286" height="1.14286" transform="matrix(-1 0 0 1 20.5714 22.8571)" fill="white"/>
<rect x="30.8571" y="22.8571" width="1.14286" height="1.14286" fill="white"/>
<rect width="1.14286" height="1.14286" transform="matrix(-1 0 0 1 19.4286 22.8571)" fill="white"/>
<rect x="32" y="22.8571" width="1.14286" height="1.14286" fill="white"/>
<rect width="1.14286" height="1.14286" transform="matrix(-1 0 0 1 18.2857 22.8571)" fill="white"/>
<rect x="33.1429" y="22.8571" width="1.14286" height="1.14286" fill="white"/>
<rect width="1.14286" height="1.14286" transform="matrix(-1 0 0 1 17.1429 22.8571)" fill="white"/>
<rect x="34.2857" y="22.8571" width="1.14286" height="1.14286" fill="white"/>
<rect width="1.14286" height="1.14286" transform="matrix(-1 0 0 1 16 22.8571)" fill="white"/>
<rect x="35.4286" y="22.8571" width="1.14286" height="1.14286" fill="white"/>
<rect width="1.14286" height="1.14286" transform="matrix(-1 0 0 1 14.8571 22.8571)" fill="white"/>
<rect x="36.5714" y="22.8571" width="1.14286" height="1.14286" fill="white"/>
<rect width="1.14286" height="1.14286" transform="matrix(-1 0 0 1 13.7143 22.8571)" fill="white"/>
<rect x="37.7143" y="22.8571" width="1.14286" height="1.14286" fill="white"/>
<rect width="1.14286" height="1.14286" transform="matrix(-1 0 0 1 12.5714 22.8571)" fill="white"/>
<rect width="1.14286" height="1.14286" transform="matrix(-1 0 0 1 40 22.8571)" fill="white"/>
<rect x="10.2857" y="22.8571" width="1.14286" height="1.14286" fill="white"/>
<rect width="1.14286" height="1.14286" transform="matrix(-1 0 0 1 41.1429 22.8571)" fill="white"/>
<rect x="9.14285" y="22.8571" width="1.14286" height="1.14286" fill="white"/>
<rect width="1.14286" height="1.14286" transform="matrix(-1 0 0 1 42.2857 22.8571)" fill="white"/>
<rect x="8" y="22.8571" width="1.14286" height="1.14286" fill="white"/>
<rect width="1.14286" height="1.14286" transform="matrix(-1 0 0 1 43.4286 22.8571)" fill="white"/>
<rect x="6.85715" y="22.8571" width="1.14286" height="1.14286" fill="white"/>
<rect width="1.14286" height="1.14286" transform="matrix(-1 0 0 1 44.5714 22.8571)" fill="white"/>
<rect x="5.71429" y="22.8571" width="1.14286" height="1.14286" fill="white"/>
<rect width="1.14286" height="1.14286" transform="matrix(-1 0 0 1 45.7143 22.8571)" fill="white"/>
<rect x="4.57144" y="22.8571" width="1.14286" height="1.14286" fill="white"/>
<rect x="45.7143" y="22.8571" width="1.14286" height="1.14286" fill="white"/>
<rect width="1.14286" height="1.14286" transform="matrix(-1 0 0 1 4.57144 22.8571)" fill="white"/>
<rect x="46.8571" y="22.8571" width="1.14286" height="1.14286" fill="white"/>
<rect width="1.14286" height="1.14286" transform="matrix(-1 0 0 1 3.42856 22.8571)" fill="white"/>
<rect x="25.1429" y="24" width="1.14286" height="1.14286" fill="white"/>
<rect width="1.14286" height="1.14286" transform="matrix(-1 0 0 1 25.1429 24)" fill="white"/>
<rect x="26.2857" y="24" width="1.14286" height="1.14286" fill="white"/>
<rect width="1.14286" height="1.14286" transform="matrix(-1 0 0 1 24 24)" fill="white"/>
<rect x="27.4286" y="24" width="1.14286" height="1.14286" fill="white"/>
<rect width="1.14286" height="1.14286" transform="matrix(-1 0 0 1 22.8571 24)" fill="white"/>
<rect x="28.5714" y="24" width="1.14286" height="1.14286" fill="white"/>
<rect width="1.14286" height="1.14286" transform="matrix(-1 0 0 1 21.7143 24)" fill="white"/>
<rect x="29.7143" y="24" width="1.14286" height="1.14286" fill="white"/>
<rect width="1.14286" height="1.14286" transform="matrix(-1 0 0 1 20.5714 24)" fill="white"/>
<rect x="30.8571" y="24" width="1.14286" height="1.14286" fill="white"/>
<rect width="1.14286" height="1.14286" transform="matrix(-1 0 0 1 19.4286 24)" fill="white"/>
<rect x="32" y="24" width="1.14286" height="1.14286" fill="white"/>
<rect width="1.14286" height="1.14286" transform="matrix(-1 0 0 1 18.2857 24)" fill="white"/>
<rect x="33.1429" y="24" width="1.14286" height="1.14286" fill="white"/>
<rect width="1.14286" height="1.14286" transform="matrix(-1 0 0 1 17.1429 24)" fill="white"/>
<rect x="34.2857" y="24" width="1.14286" height="1.14286" fill="white"/>
<rect width="1.14286" height="1.14286" transform="matrix(-1 0 0 1 16 24)" fill="white"/>
<rect x="35.4286" y="24" width="1.14286" height="1.14286" fill="white"/>
<rect width="1.14286" height="1.14286" transform="matrix(-1 0 0 1 14.8571 24)" fill="white"/>
<rect x="37.7143" y="24" width="1.14286" height="1.14286" fill="white"/>
<rect width="1.14286" height="1.14286" transform="matrix(-1 0 0 1 12.5714 24)" fill="white"/>
<rect width="1.14286" height="1.14286" transform="matrix(-1 0 0 1 40 24)" fill="white"/>
<rect x="10.2857" y="24" width="1.14286" height="1.14286" fill="white"/>
<rect width="1.14286" height="1.14286" transform="matrix(-1 0 0 1 41.1429 24)" fill="white"/>
<rect x="9.14285" y="24" width="1.14286" height="1.14286" fill="white"/>
<rect width="1.14286" height="1.14286" transform="matrix(-1 0 0 1 45.7143 24)" fill="white"/>
<rect x="4.57144" y="24" width="1.14286" height="1.14286" fill="white"/>
<rect width="1.14286" height="1.14286" transform="matrix(-1 0 0 1 46.8571 24)" fill="white"/>
<rect x="3.42856" y="24" width="1.14286" height="1.14286" fill="white"/>
<rect x="46.8571" y="24" width="1.14286" height="1.14286" fill="white"/>
<rect width="1.14286" height="1.14286" transform="matrix(-1 0 0 1 3.42856 24)" fill="white"/>
<rect x="48" y="24" width="1.14286" height="1.14286" fill="white"/>
<rect width="1.14286" height="1.14286" transform="matrix(-1 0 0 1 2.28571 24)" fill="white"/>
<rect x="25.1429" y="25.1429" width="1.14286" height="1.14286" fill="white"/>
<rect width="1.14286" height="1.14286" transform="matrix(-1 0 0 1 25.1429 25.1429)" fill="white"/>
<rect x="26.2857" y="25.1429" width="1.14286" height="1.14286" fill="white"/>
<rect width="1.14286" height="1.14286" transform="matrix(-1 0 0 1 24 25.1429)" fill="white"/>
<rect x="27.4286" y="25.1429" width="1.14286" height="1.14286" fill="white"/>
<rect width="1.14286" height="1.14286" transform="matrix(-1 0 0 1 22.8571 25.1429)" fill="white"/>
<rect x="28.5714" y="25.1429" width="1.14286" height="1.14286" fill="white"/>
<rect width="1.14286" height="1.14286" transform="matrix(-1 0 0 1 21.7143 25.1429)" fill="white"/>
<rect x="29.7143" y="25.1429" width="1.14286" height="1.14286" fill="white"/>
<rect width="1.14286" height="1.14286" transform="matrix(-1 0 0 1 20.5714 25.1429)" fill="white"/>
<rect x="30.8571" y="25.1429" width="1.14286" height="1.14286" fill="white"/>
<rect width="1.14286" height="1.14286" transform="matrix(-1 0 0 1 19.4286 25.1429)" fill="white"/>
<rect x="32" y="25.1429" width="1.14286" height="1.14286" fill="white"/>
<rect width="1.14286" height="1.14286" transform="matrix(-1 0 0 1 18.2857 25.1429)" fill="white"/>
<rect x="33.1429" y="25.1429" width="1.14286" height="1.14286" fill="white"/>
<rect width="1.14286" height="1.14286" transform="matrix(-1 0 0 1 17.1429 25.1429)" fill="white"/>
<rect x="34.2857" y="25.1429" width="1.14286" height="1.14286" fill="white"/>
<rect width="1.14286" height="1.14286" transform="matrix(-1 0 0 1 16 25.1429)" fill="white"/>
<rect x="36.5714" y="25.1429" width="1.14286" height="1.14286" fill="white"/>
<rect width="1.14286" height="1.14286" transform="matrix(-1 0 0 1 13.7143 25.1429)" fill="white"/>
<rect width="1.14286" height="1.14286" transform="matrix(-1 0 0 1 38.8571 25.1429)" fill="white"/>
<rect x="11.4286" y="25.1429" width="1.14286" height="1.14286" fill="white"/>
<rect width="1.14286" height="1.14286" transform="matrix(-1 0 0 1 40 25.1429)" fill="white"/>
<rect x="10.2857" y="25.1429" width="1.14286" height="1.14286" fill="white"/>
<rect width="1.14286" height="1.14286" transform="matrix(-1 0 0 1 41.1429 25.1429)" fill="white"/>
<rect x="9.14285" y="25.1429" width="1.14286" height="1.14286" fill="white"/>
<rect width="1.14286" height="1.14286" transform="matrix(-1 0 0 1 42.2857 25.1429)" fill="white"/>
<rect x="8" y="25.1429" width="1.14286" height="1.14286" fill="white"/>
<rect width="1.14286" height="1.14286" transform="matrix(-1 0 0 1 43.4286 25.1429)" fill="white"/>
<rect x="6.85715" y="25.1429" width="1.14286" height="1.14286" fill="white"/>
<rect width="1.14286" height="1.14286" transform="matrix(-1 0 0 1 46.8571 25.1429)" fill="white"/>
<rect x="3.42856" y="25.1429" width="1.14286" height="1.14286" fill="white"/>
<rect x="46.8571" y="25.1429" width="1.14286" height="1.14286" fill="white"/>
<rect width="1.14286" height="1.14286" transform="matrix(-1 0 0 1 3.42856 25.1429)" fill="white"/>
<rect x="48" y="25.1429" width="1.14286" height="1.14286" fill="white"/>
<rect width="1.14286" height="1.14286" transform="matrix(-1 0 0 1 2.28571 25.1429)" fill="white"/>
<rect x="25.1429" y="26.2857" width="1.14286" height="1.14286" fill="white"/>
<rect width="1.14286" height="1.14286" transform="matrix(-1 0 0 1 25.1429 26.2857)" fill="white"/>
<rect x="26.2857" y="26.2857" width="1.14286" height="1.14286" fill="white"/>
<rect width="1.14286" height="1.14286" transform="matrix(-1 0 0 1 24 26.2857)" fill="white"/>
<rect x="27.4286" y="26.2857" width="1.14286" height="1.14286" fill="white"/>
<rect width="1.14286" height="1.14286" transform="matrix(-1 0 0 1 22.8571 26.2857)" fill="white"/>
<rect x="28.5714" y="26.2857" width="1.14286" height="1.14286" fill="white"/>
<rect width="1.14286" height="1.14286" transform="matrix(-1 0 0 1 21.7143 26.2857)" fill="white"/>
<rect x="29.7143" y="26.2857" width="1.14286" height="1.14286" fill="white"/>
<rect width="1.14286" height="1.14286" transform="matrix(-1 0 0 1 20.5714 26.2857)" fill="white"/>
<rect x="30.8571" y="26.2857" width="1.14286" height="1.14286" fill="white"/>
<rect width="1.14286" height="1.14286" transform="matrix(-1 0 0 1 19.4286 26.2857)" fill="white"/>
<rect x="32" y="26.2857" width="1.14286" height="1.14286" fill="white"/>
<rect width="1.14286" height="1.14286" transform="matrix(-1 0 0 1 18.2857 26.2857)" fill="white"/>
<rect x="33.1429" y="26.2857" width="1.14286" height="1.14286" fill="white"/>
<rect width="1.14286" height="1.14286" transform="matrix(-1 0 0 1 17.1429 26.2857)" fill="white"/>
<rect x="36.5714" y="26.2857" width="1.14286" height="1.14286" fill="white"/>
<rect width="1.14286" height="1.14286" transform="matrix(-1 0 0 1 13.7143 26.2857)" fill="white"/>
<rect x="37.7143" y="26.2857" width="1.14286" height="1.14286" fill="white"/>
<rect width="1.14286" height="1.14286" transform="matrix(-1 0 0 1 12.5714 26.2857)" fill="white"/>
<rect width="1.14286" height="1.14286" transform="matrix(-1 0 0 1 42.2857 26.2857)" fill="white"/>
<rect x="8" y="26.2857" width="1.14286" height="1.14286" fill="white"/>
<rect width="1.14286" height="1.14286" transform="matrix(-1 0 0 1 43.4286 26.2857)" fill="white"/>
<rect x="6.85715" y="26.2857" width="1.14286" height="1.14286" fill="white"/>
<rect x="48" y="26.2857" width="1.14286" height="1.14286" fill="white"/>
<rect width="1.14286" height="1.14286" transform="matrix(-1 0 0 1 2.28571 26.2857)" fill="white"/>
<rect x="49.1429" y="26.2857" width="1.14286" height="1.14286" fill="white"/>
<rect width="1.14286" height="1.14286" transform="matrix(-1 0 0 1 1.14285 26.2857)" fill="white"/>
<rect x="25.1429" y="27.4286" width="1.14286" height="1.14286" fill="white"/>
<rect width="1.14286" height="1.14286" transform="matrix(-1 0 0 1 25.1429 27.4286)" fill="white"/>
<rect x="26.2857" y="27.4286" width="1.14286" height="1.14286" fill="white"/>
<rect width="1.14286" height="1.14286" transform="matrix(-1 0 0 1 24 27.4286)" fill="white"/>
<rect x="27.4286" y="27.4286" width="1.14286" height="1.14286" fill="white"/>
<rect width="1.14286" height="1.14286" transform="matrix(-1 0 0 1 22.8571 27.4286)" fill="white"/>
<rect x="28.5714" y="27.4286" width="1.14286" height="1.14286" fill="white"/>
<rect width="1.14286" height="1.14286" transform="matrix(-1 0 0 1 21.7143 27.4286)" fill="white"/>
<rect x="29.7143" y="27.4286" width="1.14286" height="1.14286" fill="white"/>
<rect width="1.14286" height="1.14286" transform="matrix(-1 0 0 1 20.5714 27.4286)" fill="white"/>
<rect x="30.8571" y="27.4286" width="1.14286" height="1.14286" fill="white"/>
<rect width="1.14286" height="1.14286" transform="matrix(-1 0 0 1 19.4286 27.4286)" fill="white"/>
<rect x="32" y="27.4286" width="1.14286" height="1.14286" fill="white"/>
<rect width="1.14286" height="1.14286" transform="matrix(-1 0 0 1 18.2857 27.4286)" fill="white"/>
<rect x="36.5714" y="27.4286" width="1.14286" height="1.14286" fill="white"/>
<rect width="1.14286" height="1.14286" transform="matrix(-1 0 0 1 13.7143 27.4286)" fill="white"/>
<rect x="37.7143" y="27.4286" width="1.14286" height="1.14286" fill="white"/>
<rect width="1.14286" height="1.14286" transform="matrix(-1 0 0 1 12.5714 27.4286)" fill="white"/>
<rect x="38.8571" y="27.4286" width="1.14286" height="1.14286" fill="white"/>
<rect width="1.14286" height="1.14286" transform="matrix(-1 0 0 1 11.4286 27.4286)" fill="white"/>
<rect width="1.14286" height="1.14286" transform="matrix(-1 0 0 1 43.4286 27.4286)" fill="white"/>
<rect x="6.85715" y="27.4286" width="1.14286" height="1.14286" fill="white"/>
<rect width="1.14286" height="1.14286" transform="matrix(-1 0 0 1 44.5714 27.4286)" fill="white"/>
<rect x="5.71429" y="27.4286" width="1.14286" height="1.14286" fill="white"/>
<rect width="1.14286" height="1.14286" transform="matrix(-1 0 0 1 45.7143 27.4286)" fill="white"/>
<rect x="4.57144" y="27.4286" width="1.14286" height="1.14286" fill="white"/>
<rect x="48" y="27.4286" width="1.14286" height="1.14286" fill="white"/>
<rect width="1.14286" height="1.14286" transform="matrix(-1 0 0 1 2.28571 27.4286)" fill="white"/>
<rect x="49.1429" y="27.4286" width="1.14286" height="1.14286" fill="white"/>
<rect width="1.14286" height="1.14286" transform="matrix(-1 0 0 1 1.14285 27.4286)" fill="white"/>
<rect x="36.5714" y="28.5714" width="1.14286" height="1.14286" fill="white"/>
<rect width="1.14286" height="1.14286" transform="matrix(-1 0 0 1 13.7143 28.5714)" fill="white"/>
<rect x="37.7143" y="28.5714" width="1.14286" height="1.14286" fill="white"/>
<rect width="1.14286" height="1.14286" transform="matrix(-1 0 0 1 12.5714 28.5714)" fill="white"/>
<rect x="38.8571" y="28.5714" width="1.14286" height="1.14286" fill="white"/>
<rect width="1.14286" height="1.14286" transform="matrix(-1 0 0 1 11.4286 28.5714)" fill="white"/>
<rect width="1.14286" height="1.14286" transform="matrix(-1 0 0 1 44.5714 28.5714)" fill="white"/>
<rect x="5.71429" y="28.5714" width="1.14286" height="1.14286" fill="white"/>
<rect width="1.14286" height="1.14286" transform="matrix(-1 0 0 1 45.7143 28.5714)" fill="white"/>
<rect x="4.57144" y="28.5714" width="1.14286" height="1.14286" fill="white"/>
<rect x="49.1429" y="28.5714" width="1.14286" height="1.14286" fill="white"/>
<rect width="1.14286" height="1.14286" transform="matrix(-1 0 0 1 1.14285 28.5714)" fill="white"/>
<rect x="37.7143" y="29.7143" width="1.14286" height="1.14286" fill="white"/>
<rect width="1.14286" height="1.14286" transform="matrix(-1 0 0 1 12.5714 29.7143)" fill="white"/>
<rect x="38.8571" y="29.7143" width="1.14286" height="1.14286" fill="white"/>
<rect width="1.14286" height="1.14286" transform="matrix(-1 0 0 1 11.4286 29.7143)" fill="white"/>
<rect x="40" y="29.7143" width="1.14286" height="1.14286" fill="white"/>
<rect width="1.14286" height="1.14286" transform="matrix(-1 0 0 1 10.2857 29.7143)" fill="white"/>
<rect width="1.14286" height="1.14286" transform="matrix(-1 0 0 1 44.5714 29.7143)" fill="white"/>
<rect x="5.71429" y="29.7143" width="1.14286" height="1.14286" fill="white"/>
<rect width="1.14286" height="1.14286" transform="matrix(-1 0 0 1 45.7143 29.7143)" fill="white"/>
<rect x="4.57144" y="29.7143" width="1.14286" height="1.14286" fill="white"/>
<rect x="37.7143" y="30.8571" width="1.14286" height="1.14286" fill="white"/>
<rect width="1.14286" height="1.14286" transform="matrix(-1 0 0 1 12.5714 30.8571)" fill="white"/>
<rect x="38.8571" y="30.8571" width="1.14286" height="1.14286" fill="white"/>
<rect width="1.14286" height="1.14286" transform="matrix(-1 0 0 1 11.4286 30.8571)" fill="white"/>
<rect x="40" y="30.8571" width="1.14286" height="1.14286" fill="white"/>
<rect width="1.14286" height="1.14286" transform="matrix(-1 0 0 1 10.2857 30.8571)" fill="white"/>
<rect width="1.14286" height="1.14286" transform="matrix(-1 0 0 1 44.5714 30.8571)" fill="white"/>
<rect x="5.71429" y="30.8571" width="1.14286" height="1.14286" fill="white"/>
<rect width="1.14286" height="1.14286" transform="matrix(-1 0 0 1 45.7143 30.8571)" fill="white"/>
<rect x="4.57144" y="30.8571" width="1.14286" height="1.14286" fill="white"/>
<g filter="url(#filter0_dd_240_141324)">
<path d="M65.3457 9H71.4057L72.7857 11.08L71.1457 12.68L70.1857 11.26H66.2857L65.9257 11.64V13.98L66.5257 14.86H71.5857L73.1857 17.28V21.3L71.5457 23H64.5657L63.3857 21.32L64.9657 19.68L65.7457 20.74H70.5457L70.7657 20.56V17.68L70.3657 17.12H65.3057L63.5057 14.44V10.92L65.3457 9ZM77.3379 11.94H83.3379L84.9979 14.4L83.4379 16.02L82.2379 14.26H78.4179L77.9779 14.72V20.02L78.5979 20.94H82.4379L83.7979 19.56L84.9579 21.3L83.3179 23H77.3179L75.5579 20.38V13.78L77.3379 11.94ZM88.2901 11.6H91.6501L93.4301 14.24V20.82H97.0901V23H87.4501V20.82H91.1101V14.66L90.5101 13.78H88.2901V11.6ZM90.8701 9.4H93.6701V6.6H90.8701V9.4ZM101.322 11.94H107.222L109.042 14.66L105.502 18.3H101.842V19.74L102.482 20.68H106.322L107.422 19.54L108.822 21.3L107.182 23H101.282L99.5423 20.4V13.78L101.322 11.94ZM101.842 14.74V16.28H104.622L106.102 14.72L105.782 14.26H102.302L101.842 14.74ZM111.434 11.98H113.854V12.64L114.954 11.98H119.294L121.094 14.64V23H118.674V15.08L118.094 14.22H114.214L113.854 14.64V23H111.434V11.98ZM125.307 11.94H131.307L132.967 14.4L131.407 16.02L130.207 14.26H126.387L125.947 14.72V20.02L126.567 20.94H130.407L131.767 19.56L132.927 21.3L131.287 23H125.287L123.527 20.38V13.78L125.307 11.94ZM137.299 11.94H143.199L145.019 14.66L141.479 18.3H137.819V19.74L138.459 20.68H142.299L143.399 19.54L144.799 21.3L143.159 23H137.259L135.519 20.4V13.78L137.299 11.94ZM137.819 14.74V16.28H140.599L142.079 14.72L141.759 14.26H138.279L137.819 14.74ZM159.403 9H167.743L168.883 10.62V12.76L166.923 14.8H167.023L169.063 17.8V21.84L167.183 23H159.403V9ZM161.823 11.24V14.8H163.803L166.443 12.02V11.24H161.823ZM161.823 17.04V20.74H166.663V18.2L165.823 17.04H161.823ZM173.275 11.94H179.175L180.995 14.66L177.455 18.3H173.795V19.74L174.435 20.68H178.275L179.375 19.54L180.775 21.3L179.135 23H173.235L171.495 20.4V13.78L173.275 11.94ZM173.795 14.74V16.28H176.575L178.055 14.72L177.735 14.26H174.255L173.795 14.74ZM184.968 11.94H191.648L193.048 14V23H190.628V22.34L189.528 23H185.168L183.368 20.32V19.26L186.588 15.9H190.628V14.16H184.968V11.94ZM185.868 19.88L186.248 20.74H190.548V18.18H187.488L185.868 19.84V19.88ZM197.26 11.94H203.26L204.92 14.4L203.36 16.02L202.16 14.26H198.34L197.9 14.72V20.02L198.52 20.94H202.36L203.72 19.56L204.88 21.3L203.24 23H197.24L195.48 20.38V13.78L197.26 11.94ZM207.372 7.62H209.792V12.64L210.872 11.98H215.172L217.032 14.6V23H214.612V15.06L214.032 14.22H210.192L209.792 14.6V23H207.372V7.62Z" fill="white"/>
</g>
<defs>
<filter id="filter0_dd_240_141324" x="63.3857" y="5.60001" width="153.646" height="18.4" filterUnits="userSpaceOnUse" color-interpolation-filters="sRGB">
<feFlood flood-opacity="0" result="BackgroundImageFix"/>
<feColorMatrix in="SourceAlpha" type="matrix" values="0 0 0 0 0 0 0 0 0 0 0 0 0 0 0 0 0 0 127 0" result="hardAlpha"/>
<feOffset dy="-1"/>
<feComposite in2="hardAlpha" operator="out"/>
<feColorMatrix type="matrix" values="0 0 0 0 0.336326 0 0 0 0 0.627987 0 0 0 0 0.904297 0 0 0 1 0"/>
<feBlend mode="normal" in2="BackgroundImageFix" result="effect1_dropShadow_240_141324"/>
<feColorMatrix in="SourceAlpha" type="matrix" values="0 0 0 0 0 0 0 0 0 0 0 0 0 0 0 0 0 0 127 0" result="hardAlpha"/>
<feOffset dy="1"/>
<feComposite in2="hardAlpha" operator="out"/>
<feColorMatrix type="matrix" values="0 0 0 0 0.0699086 0 0 0 0 0.313014 0 0 0 0 0.543589 0 0 0 1 0"/>
<feBlend mode="normal" in2="effect1_dropShadow_240_141324" result="effect2_dropShadow_240_141324"/>
<feBlend mode="normal" in="SourceGraphic" in2="effect2_dropShadow_240_141324" result="shape"/>
</filter>
</defs>
</svg>
