<svg viewBox="0 0 692 126" xmlns="http://www.w3.org/2000/svg">
  <rect width="692" height="126" fill="#1271CB" />
  <g fill="none" stroke="#67FF4C" stroke-width="8">
    <path d="M 0 6 C 8 0 16 12 24 6 C 32 0 40 12 48 6 C 56 0 64 12 72 6 C 80 0 88 12 96 6 C 104 0 112 12 120 6 C 128 0 136 12 144 6 C 152 0 160 12 168 6 C 176 0 184 12 192 6 C 200 0 208 12 216 6 C 224 0 232 12 240 6 C 248 0 256 12 264 6 C 272 0 280 12 288 6 C 296 0 304 12 312 6 C 320 0 328 12 336 6 C 344 0 352 12 360 6 C 368 0 376 12 384 6 C 392 0 400 12 408 6 C 416 0 424 12 432 6 C 440 0 448 12 456 6 C 464 0 472 12 480 6 C 488 0 496 12 504 6 C 512 0 520 12 528 6 C 536 0 544 12 552 6 C 560 0 568 12 576 6 C 584 0 592 12 600 6 C 608 0 616 12 624 6 C 632 0 640 12 648 6 C 656 0 664 12 672 6 C 680 0 688 12 696 6" transform="translate(0 10)" />
    <path d="M 0 6 C 8 0 16 12 24 6 C 32 0 40 12 48 6 C 56 0 64 12 72 6 C 80 0 88 12 96 6 C 104 0 112 12 120 6 C 128 0 136 12 144 6 C 152 0 160 12 168 6 C 176 0 184 12 192 6 C 200 0 208 12 216 6 C 224 0 232 12 240 6 C 248 0 256 12 264 6 C 272 0 280 12 288 6 C 296 0 304 12 312 6 C 320 0 328 12 336 6 C 344 0 352 12 360 6 C 368 0 376 12 384 6 C 392 0 400 12 408 6 C 416 0 424 12 432 6 C 440 0 448 12 456 6 C 464 0 472 12 480 6 C 488 0 496 12 504 6 C 512 0 520 12 528 6 C 536 0 544 12 552 6 C 560 0 568 12 576 6 C 584 0 592 12 600 6 C 608 0 616 12 624 6 C 632 0 640 12 648 6 C 656 0 664 12 672 6 C 680 0 688 12 696 6" transform="translate(0 24)" />
    <path d="M 0 6 C 8 0 16 12 24 6 C 32 0 40 12 48 6 C 56 0 64 12 72 6 C 80 0 88 12 96 6 C 104 0 112 12 120 6 C 128 0 136 12 144 6 C 152 0 160 12 168 6 C 176 0 184 12 192 6 C 200 0 208 12 216 6 C 224 0 232 12 240 6 C 248 0 256 12 264 6 C 272 0 280 12 288 6 C 296 0 304 12 312 6 C 320 0 328 12 336 6 C 344 0 352 12 360 6 C 368 0 376 12 384 6 C 392 0 400 12 408 6 C 416 0 424 12 432 6 C 440 0 448 12 456 6 C 464 0 472 12 480 6 C 488 0 496 12 504 6 C 512 0 520 12 528 6 C 536 0 544 12 552 6 C 560 0 568 12 576 6 C 584 0 592 12 600 6 C 608 0 616 12 624 6 C 632 0 640 12 648 6 C 656 0 664 12 672 6 C 680 0 688 12 696 6" transform="translate(0 38)" />
    <path d="M 0 6 C 8 0 16 12 24 6 C 32 0 40 12 48 6 C 56 0 64 12 72 6 C 80 0 88 12 96 6 C 104 0 112 12 120 6 C 128 0 136 12 144 6 C 152 0 160 12 168 6 C 176 0 184 12 192 6 C 200 0 208 12 216 6 C 224 0 232 12 240 6 C 248 0 256 12 264 6 C 272 0 280 12 288 6 C 296 0 304 12 312 6 C 320 0 328 12 336 6 C 344 0 352 12 360 6 C 368 0 376 12 384 6 C 392 0 400 12 408 6 C 416 0 424 12 432 6 C 440 0 448 12 456 6 C 464 0 472 12 480 6 C 488 0 496 12 504 6 C 512 0 520 12 528 6 C 536 0 544 12 552 6 C 560 0 568 12 576 6 C 584 0 592 12 600 6 C 608 0 616 12 624 6 C 632 0 640 12 648 6 C 656 0 664 12 672 6 C 680 0 688 12 696 6" transform="translate(0 52)" />
    <path d="M 0 6 C 8 0 16 12 24 6 C 32 0 40 12 48 6 C 56 0 64 12 72 6 C 80 0 88 12 96 6 C 104 0 112 12 120 6 C 128 0 136 12 144 6 C 152 0 160 12 168 6 C 176 0 184 12 192 6 C 200 0 208 12 216 6 C 224 0 232 12 240 6 C 248 0 256 12 264 6 C 272 0 280 12 288 6 C 296 0 304 12 312 6 C 320 0 328 12 336 6 C 344 0 352 12 360 6 C 368 0 376 12 384 6 C 392 0 400 12 408 6 C 416 0 424 12 432 6 C 440 0 448 12 456 6 C 464 0 472 12 480 6 C 488 0 496 12 504 6 C 512 0 520 12 528 6 C 536 0 544 12 552 6 C 560 0 568 12 576 6 C 584 0 592 12 600 6 C 608 0 616 12 624 6 C 632 0 640 12 648 6 C 656 0 664 12 672 6 C 680 0 688 12 696 6" transform="translate(0 66)" />
    <path d="M 0 6 C 8 0 16 12 24 6 C 32 0 40 12 48 6 C 56 0 64 12 72 6 C 80 0 88 12 96 6 C 104 0 112 12 120 6 C 128 0 136 12 144 6 C 152 0 160 12 168 6 C 176 0 184 12 192 6 C 200 0 208 12 216 6 C 224 0 232 12 240 6 C 248 0 256 12 264 6 C 272 0 280 12 288 6 C 296 0 304 12 312 6 C 320 0 328 12 336 6 C 344 0 352 12 360 6 C 368 0 376 12 384 6 C 392 0 400 12 408 6 C 416 0 424 12 432 6 C 440 0 448 12 456 6 C 464 0 472 12 480 6 C 488 0 496 12 504 6 C 512 0 520 12 528 6 C 536 0 544 12 552 6 C 560 0 568 12 576 6 C 584 0 592 12 600 6 C 608 0 616 12 624 6 C 632 0 640 12 648 6 C 656 0 664 12 672 6 C 680 0 688 12 696 6" transform="translate(0 80)" />
    <path d="M 0 6 C 8 0 16 12 24 6 C 32 0 40 12 48 6 C 56 0 64 12 72 6 C 80 0 88 12 96 6 C 104 0 112 12 120 6 C 128 0 136 12 144 6 C 152 0 160 12 168 6 C 176 0 184 12 192 6 C 200 0 208 12 216 6 C 224 0 232 12 240 6 C 248 0 256 12 264 6 C 272 0 280 12 288 6 C 296 0 304 12 312 6 C 320 0 328 12 336 6 C 344 0 352 12 360 6 C 368 0 376 12 384 6 C 392 0 400 12 408 6 C 416 0 424 12 432 6 C 440 0 448 12 456 6 C 464 0 472 12 480 6 C 488 0 496 12 504 6 C 512 0 520 12 528 6 C 536 0 544 12 552 6 C 560 0 568 12 576 6 C 584 0 592 12 600 6 C 608 0 616 12 624 6 C 632 0 640 12 648 6 C 656 0 664 12 672 6 C 680 0 688 12 696 6" transform="translate(0 94)" />
    <path d="M 0 6 C 8 0 16 12 24 6 C 32 0 40 12 48 6 C 56 0 64 12 72 6 C 80 0 88 12 96 6 C 104 0 112 12 120 6 C 128 0 136 12 144 6 C 152 0 160 12 168 6 C 176 0 184 12 192 6 C 200 0 208 12 216 6 C 224 0 232 12 240 6 C 248 0 256 12 264 6 C 272 0 280 12 288 6 C 296 0 304 12 312 6 C 320 0 328 12 336 6 C 344 0 352 12 360 6 C 368 0 376 12 384 6 C 392 0 400 12 408 6 C 416 0 424 12 432 6 C 440 0 448 12 456 6 C 464 0 472 12 480 6 C 488 0 496 12 504 6 C 512 0 520 12 528 6 C 536 0 544 12 552 6 C 560 0 568 12 576 6 C 584 0 592 12 600 6 C 608 0 616 12 624 6 C 632 0 640 12 648 6 C 656 0 664 12 672 6 C 680 0 688 12 696 6" transform="translate(0 108)" />
  </g>
</svg>
