<svg width="154" height="19" viewBox="0 0 154 19" fill="none" xmlns="http://www.w3.org/2000/svg">
<g filter="url(#filter0_dd_240_142004)">
<path d="M1.96002 3.39999H8.02003L9.40003 5.47999L7.76002 7.07999L6.80002 5.65999H2.90002L2.54002 6.03999V8.37999L3.14002 9.25999H8.20003L9.80002 11.68V15.7L8.16003 17.4H1.18002L2.44826e-05 15.72L1.58002 14.08L2.36002 15.14H7.16002L7.38002 14.96V12.08L6.98002 11.52H1.92002L0.120025 8.83999V5.31999L1.96002 3.39999ZM13.9522 6.33999H19.9522L21.6122 8.79999L20.0522 10.42L18.8522 8.65999H15.0322L14.5922 9.11999V14.42L15.2122 15.34H19.0522L20.4122 13.96L21.5722 15.7L19.9322 17.4H13.9322L12.1722 14.78V8.17999L13.9522 6.33999ZM24.9044 5.99999H28.2644L30.0444 8.63999V15.22H33.7044V17.4H24.0644V15.22H27.7244V9.05999L27.1244 8.17999H24.9044V5.99999ZM27.4844 3.79999H30.2844V0.999993H27.4844V3.79999ZM37.9366 6.33999H43.8366L45.6566 9.05999L42.1166 12.7H38.4566V14.14L39.0966 15.08H42.9366L44.0366 13.94L45.4366 15.7L43.7966 17.4H37.8966L36.1566 14.8V8.17999L37.9366 6.33999ZM38.4566 9.13999V10.68H41.2366L42.7166 9.11999L42.3966 8.65999H38.9166L38.4566 9.13999ZM48.0488 6.37999H50.4688V7.03999L51.5688 6.37999H55.9088L57.7088 9.03999V17.4H55.2888V9.47999L54.7088 8.61999H50.8288L50.4688 9.03999V17.4H48.0488V6.37999ZM61.921 6.33999H67.921L69.581 8.79999L68.021 10.42L66.821 8.65999H63.001L62.561 9.11999V14.42L63.181 15.34H67.021L68.381 13.96L69.541 15.7L67.901 17.4H61.901L60.141 14.78V8.17999L61.921 6.33999ZM73.9131 6.33999H79.8131L81.6332 9.05999L78.0931 12.7H74.4331V14.14L75.0731 15.08H78.9131L80.0132 13.94L81.4131 15.7L79.7731 17.4H73.8731L72.1331 14.8V8.17999L73.9131 6.33999ZM74.4331 9.13999V10.68H77.2131L78.6931 9.11999L78.3731 8.65999H74.8931L74.4331 9.13999ZM96.0175 3.39999H104.358L105.498 5.01999V7.15999L103.538 9.19999H103.638L105.678 12.2V16.24L103.798 17.4H96.0175V3.39999ZM98.4375 5.63999V9.19999H100.418L103.058 6.41999V5.63999H98.4375ZM98.4375 11.44V15.14H103.278V12.6L102.438 11.44H98.4375ZM109.89 6.33999H115.79L117.61 9.05999L114.07 12.7H110.41V14.14L111.05 15.08H114.89L115.99 13.94L117.39 15.7L115.75 17.4H109.85L108.11 14.8V8.17999L109.89 6.33999ZM110.41 9.13999V10.68H113.19L114.67 9.11999L114.35 8.65999H110.87L110.41 9.13999ZM121.582 6.33999H128.262L129.662 8.39999V17.4H127.242V16.74L126.142 17.4H121.782L119.982 14.72V13.66L123.202 10.3H127.242V8.55999H121.582V6.33999ZM122.482 14.28L122.862 15.14H127.162V12.58H124.102L122.482 14.24V14.28ZM133.874 6.33999H139.874L141.534 8.79999L139.974 10.42L138.774 8.65999H134.954L134.514 9.11999V14.42L135.134 15.34H138.974L140.334 13.96L141.494 15.7L139.854 17.4H133.854L132.094 14.78V8.17999L133.874 6.33999ZM143.986 2.01999H146.406V7.03999L147.486 6.37999H151.786L153.646 8.99999V17.4H151.226V9.45999L150.646 8.61999H146.806L146.406 8.99999V17.4H143.986V2.01999Z" fill="white"/>
</g>
<defs>
<filter id="filter0_dd_240_142004" x="0" y="0" width="153.646" height="18.4" filterUnits="userSpaceOnUse" color-interpolation-filters="sRGB">
<feFlood flood-opacity="0" result="BackgroundImageFix"/>
<feColorMatrix in="SourceAlpha" type="matrix" values="0 0 0 0 0 0 0 0 0 0 0 0 0 0 0 0 0 0 127 0" result="hardAlpha"/>
<feOffset dy="-1"/>
<feComposite in2="hardAlpha" operator="out"/>
<feColorMatrix type="matrix" values="0 0 0 0 0.336326 0 0 0 0 0.627987 0 0 0 0 0.904297 0 0 0 1 0"/>
<feBlend mode="normal" in2="BackgroundImageFix" result="effect1_dropShadow_240_142004"/>
<feColorMatrix in="SourceAlpha" type="matrix" values="0 0 0 0 0 0 0 0 0 0 0 0 0 0 0 0 0 0 127 0" result="hardAlpha"/>
<feOffset dy="1"/>
<feComposite in2="hardAlpha" operator="out"/>
<feColorMatrix type="matrix" values="0 0 0 0 0.0699086 0 0 0 0 0.313014 0 0 0 0 0.543589 0 0 0 1 0"/>
<feBlend mode="normal" in2="effect1_dropShadow_240_142004" result="effect2_dropShadow_240_142004"/>
<feBlend mode="normal" in="SourceGraphic" in2="effect2_dropShadow_240_142004" result="shape"/>
</filter>
</defs>
</svg>
