<svg width="128" height="36" viewBox="0 0 128 36" fill="none" xmlns="http://www.w3.org/2000/svg">
<rect x="78" y="8" width="2" height="2" fill="#56A0E7"/>
<rect x="106" y="8" width="2" height="2" fill="#A9CFF3"/>
<rect x="78" y="10" width="2" height="2" fill="#228DF4"/>
<rect x="106" y="10" width="2" height="2" fill="#228DF4"/>
<rect x="82" y="10" width="2" height="2" fill="#228DF4"/>
<rect x="82" y="8" width="2" height="2" fill="#56A0E7"/>
<rect x="110" y="10" width="2" height="2" fill="#56A0E7"/>
<rect x="86" y="10" width="2" height="2" fill="#228DF4"/>
<rect x="86" y="8" width="2" height="2" fill="#56A0E7"/>
<rect x="114" y="10" width="2" height="2" fill="#56A0E7"/>
<rect x="92" y="10" width="2" height="2" fill="#228DF4"/>
<rect x="92" y="8" width="2" height="2" fill="#56A0E7"/>
<rect x="120" y="10" width="2" height="2" fill="#56A0E7"/>
<rect x="90" y="10" width="2" height="2" fill="#228DF4"/>
<rect x="90" y="8" width="2" height="2" fill="#56A0E7"/>
<rect x="118" y="10" width="2" height="2" fill="#56A0E7"/>
<rect x="96" y="10" width="2" height="2" fill="#228DF4"/>
<rect x="96" y="8" width="2" height="2" fill="#56A0E7"/>
<rect x="124" y="10" width="2" height="2" fill="#A9CFF3"/>
<rect x="98" y="10" width="2" height="2" fill="#228DF4"/>
<rect x="98" y="12" width="2" height="2" fill="#228DF4"/>
<rect x="108" y="32" width="2" height="2" fill="#FF312B"/>
<rect x="18" y="32" width="2" height="2" fill="#FFFAF5"/>
<rect x="58" y="2" width="2" height="2" fill="#FFFAF5"/>
<rect x="118" y="2" width="2" height="2" fill="#E7CFB2"/>
<rect x="30" y="6" width="2" height="2" fill="#E7CFB2"/>
<rect x="2" y="20" width="2" height="2" fill="#E7CFB2"/>
<rect x="110" y="32" width="2" height="2" fill="#FF312B"/>
<rect x="20" y="32" width="2" height="2" fill="#FFFAF5"/>
<rect x="60" y="2" width="2" height="2" fill="#FFFAF5"/>
<rect x="120" y="2" width="2" height="2" fill="#E7CFB2"/>
<rect x="32" y="6" width="2" height="2" fill="#E7CFB2"/>
<rect x="4" y="20" width="2" height="2" fill="#E7CFB2"/>
<rect x="108" y="30" width="2" height="2" fill="#FF312B"/>
<rect x="18" y="30" width="2" height="2" fill="#FFFAF5"/>
<rect x="58" width="2" height="2" fill="#FFFAF5"/>
<rect x="118" width="2" height="2" fill="#E7CFB2"/>
<rect x="30" y="4" width="2" height="2" fill="#E7CFB2"/>
<rect x="2" y="18" width="2" height="2" fill="#E7CFB2"/>
<rect x="106" y="32" width="2" height="2" fill="#FF312B"/>
<rect x="16" y="32" width="2" height="2" fill="#FFFAF5"/>
<rect x="56" y="2" width="2" height="2" fill="#FFFAF5"/>
<rect x="116" y="2" width="2" height="2" fill="#E7CFB2"/>
<rect x="28" y="6" width="2" height="2" fill="#E7CFB2"/>
<rect y="20" width="2" height="2" fill="#E7CFB2"/>
<rect x="108" y="34" width="2" height="2" fill="#FF312B"/>
<rect x="18" y="34" width="2" height="2" fill="#FFFAF5"/>
<rect x="58" y="4" width="2" height="2" fill="#FFFAF5"/>
<rect x="98" y="14" width="2" height="2" fill="#56A0E7"/>
<rect x="98" y="16" width="2" height="2" fill="#228DF4"/>
<rect x="98" y="18" width="2" height="2" fill="#228DF4"/>
<rect x="98" y="8" width="2" height="2" fill="#A9CFF3"/>
<rect x="126" y="10" width="2" height="2" fill="#A9CFF3"/>
<rect x="78" y="12" width="2" height="2" fill="#228DF4"/>
<rect x="106" y="12" width="2" height="2" fill="#228DF4"/>
<rect x="82" y="12" width="2" height="2" fill="#228DF4"/>
<rect x="110" y="12" width="2" height="2" fill="#228DF4"/>
<rect x="86" y="12" width="2" height="2" fill="#228DF4"/>
<rect x="114" y="12" width="2" height="2" fill="#228DF4"/>
<rect x="92" y="12" width="2" height="2" fill="#228DF4"/>
<rect x="92" y="14" width="2" height="2" fill="#56A0E7"/>
<rect x="92" y="16" width="2" height="2" fill="#228DF4"/>
<rect x="92" y="18" width="2" height="2" fill="#228DF4"/>
<rect x="120" y="12" width="2" height="2" fill="#228DF4"/>
<rect x="90" y="12" width="2" height="2" fill="#228DF4"/>
<rect x="118" y="12" width="2" height="2" fill="#228DF4"/>
<rect x="96" y="12" width="2" height="2" fill="#228DF4"/>
<rect x="96" y="14" width="2" height="2" fill="#56A0E7"/>
<rect x="96" y="16" width="2" height="2" fill="#228DF4"/>
<rect x="96" y="18" width="2" height="2" fill="#228DF4"/>
<rect x="124" y="12" width="2" height="2" fill="#228DF4"/>
<rect x="78" y="14" width="2" height="2" fill="#A9CFF3"/>
<rect x="106" y="14" width="2" height="2" fill="#56A0E7"/>
<rect x="82" y="14" width="2" height="2" fill="#A9CFF3"/>
<rect x="82" y="16" width="2" height="2" fill="#228DF4"/>
<rect x="82" y="18" width="2" height="2" fill="#228DF4"/>
<rect x="110" y="14" width="2" height="2" fill="#228DF4"/>
<rect x="86" y="14" width="2" height="2" fill="#A9CFF3"/>
<rect x="86" y="16" width="2" height="2" fill="#228DF4"/>
<rect x="86" y="18" width="2" height="2" fill="#228DF4"/>
<rect x="114" y="14" width="2" height="2" fill="#228DF4"/>
<rect x="90" y="14" width="2" height="2" fill="#56A0E7"/>
<rect x="90" y="16" width="2" height="2" fill="#228DF4"/>
<rect x="90" y="18" width="2" height="2" fill="#228DF4"/>
<rect x="118" y="14" width="2" height="2" fill="#228DF4"/>
<rect x="78" y="16" width="2" height="2" fill="#228DF4"/>
<rect x="106" y="16" width="2" height="2" fill="#228DF4"/>
<rect x="78" y="18" width="2" height="2" fill="#228DF4"/>
<rect x="106" y="18" width="2" height="2" fill="#228DF4"/>
<rect x="74" y="8" width="2" height="2" fill="#56A0E7"/>
<rect x="102" y="8" width="2" height="2" fill="#A9CFF3"/>
<rect x="74" y="10" width="2" height="2" fill="#228DF4"/>
<rect x="102" y="10" width="2" height="2" fill="#228DF4"/>
<rect x="74" y="12" width="2" height="2" fill="#228DF4"/>
<rect x="102" y="12" width="2" height="2" fill="#228DF4"/>
<rect x="74" y="14" width="2" height="2" fill="#228DF4"/>
<rect x="102" y="14" width="2" height="2" fill="#228DF4"/>
<rect x="74" y="16" width="2" height="2" fill="#228DF4"/>
<rect x="102" y="16" width="2" height="2" fill="#228DF4"/>
<rect x="74" y="18" width="2" height="2" fill="#228DF4"/>
<rect x="102" y="18" width="2" height="2" fill="#228DF4"/>
<rect x="70" y="8" width="2" height="2" fill="#56A0E7"/>
<rect x="70" y="10" width="2" height="2" fill="#228DF4"/>
<rect x="70" y="12" width="2" height="2" fill="#228DF4"/>
<rect x="70" y="14" width="2" height="2" fill="#228DF4"/>
<rect x="70" y="16" width="2" height="2" fill="#228DF4"/>
<rect x="70" y="18" width="2" height="2" fill="#228DF4"/>
<rect x="66" y="8" width="2" height="2" fill="#56A0E7"/>
<rect x="66" y="10" width="2" height="2" fill="#56A0E7"/>
<rect x="66" y="12" width="2" height="2" fill="#228DF4"/>
<rect x="66" y="14" width="2" height="2" fill="#228DF4"/>
<rect x="66" y="16" width="2" height="2" fill="#228DF4"/>
<rect x="66" y="18" width="2" height="2" fill="#228DF4"/>
<rect x="62" y="8" width="2" height="2" fill="#56A0E7"/>
<rect x="62" y="10" width="2" height="2" fill="#56A0E7"/>
<rect x="62" y="12" width="2" height="2" fill="#228DF4"/>
<rect x="62" y="14" width="2" height="2" fill="#228DF4"/>
<rect x="62" y="16" width="2" height="2" fill="#228DF4"/>
<rect x="62" y="18" width="2" height="2" fill="#228DF4"/>
<rect x="58" y="8" width="2" height="2" fill="#56A0E7"/>
<rect x="58" y="10" width="2" height="2" fill="#56A0E7"/>
<rect x="58" y="12" width="2" height="2" fill="#228DF4"/>
<rect x="58" y="14" width="2" height="2" fill="#228DF4"/>
<rect x="58" y="16" width="2" height="2" fill="#228DF4"/>
<rect x="58" y="18" width="2" height="2" fill="#228DF4"/>
<rect x="54" y="8" width="2" height="2" fill="#A9CFF3"/>
<rect x="54" y="10" width="2" height="2" fill="#56A0E7"/>
<rect x="54" y="12" width="2" height="2" fill="#228DF4"/>
<rect x="54" y="14" width="2" height="2" fill="#228DF4"/>
<rect x="54" y="16" width="2" height="2" fill="#228DF4"/>
<rect x="54" y="18" width="2" height="2" fill="#228DF4"/>
<rect x="50" y="8" width="2" height="2" fill="#A9CFF3"/>
<rect x="50" y="10" width="2" height="2" fill="#56A0E7"/>
<rect x="50" y="12" width="2" height="2" fill="#228DF4"/>
<rect x="50" y="14" width="2" height="2" fill="#A9CFF3"/>
<rect x="50" y="16" width="2" height="2" fill="#228DF4"/>
<rect x="50" y="18" width="2" height="2" fill="#228DF4"/>
<rect x="46" y="8" width="2" height="2" fill="#A9CFF3"/>
<rect x="46" y="10" width="2" height="2" fill="#56A0E7"/>
<rect x="46" y="12" width="2" height="2" fill="#228DF4"/>
<rect x="46" y="14" width="2" height="2" fill="#56A0E7"/>
<rect x="46" y="16" width="2" height="2" fill="#228DF4"/>
<rect x="46" y="18" width="2" height="2" fill="#228DF4"/>
<rect x="42" y="8" width="2" height="2" fill="#56A0E7"/>
<rect x="42" y="10" width="2" height="2" fill="#56A0E7"/>
<rect x="42" y="12" width="2" height="2" fill="#228DF4"/>
<rect x="42" y="14" width="2" height="2" fill="#56A0E7"/>
<rect x="42" y="16" width="2" height="2" fill="#228DF4"/>
<rect x="42" y="18" width="2" height="2" fill="#228DF4"/>
<rect x="38" y="8" width="2" height="2" fill="#56A0E7"/>
<rect x="38" y="10" width="2" height="2" fill="#56A0E7"/>
<rect x="38" y="12" width="2" height="2" fill="#228DF4"/>
<rect x="38" y="14" width="2" height="2" fill="#228DF4"/>
<rect x="38" y="16" width="2" height="2" fill="#228DF4"/>
<rect x="38" y="18" width="2" height="2" fill="#228DF4"/>
<rect x="34" y="8" width="2" height="2" fill="#A9CFF3"/>
<rect x="34" y="10" width="2" height="2" fill="#56A0E7"/>
<rect x="34" y="12" width="2" height="2" fill="#228DF4"/>
<rect x="34" y="14" width="2" height="2" fill="#228DF4"/>
<rect x="34" y="16" width="2" height="2" fill="#228DF4"/>
<rect x="34" y="18" width="2" height="2" fill="#228DF4"/>
<rect x="30" y="8" width="2" height="2" fill="#56A0E7"/>
<rect x="30" y="10" width="2" height="2" fill="#56A0E7"/>
<rect x="24" y="10" width="2" height="2" fill="#56A0E7"/>
<rect x="18" y="10" width="2" height="2" fill="#56A0E7"/>
<rect x="12" y="10" width="2" height="2" fill="#56A0E7"/>
<rect x="30" y="12" width="2" height="2" fill="#228DF4"/>
<rect x="24" y="12" width="2" height="2" fill="#228DF4"/>
<rect x="18" y="12" width="2" height="2" fill="#228DF4"/>
<rect x="12" y="12" width="2" height="2" fill="#228DF4"/>
<rect x="4" y="12" width="2" height="2" fill="#56A0E7"/>
<rect x="30" y="14" width="2" height="2" fill="#228DF4"/>
<rect x="24" y="14" width="2" height="2" fill="#228DF4"/>
<rect x="18" y="14" width="2" height="2" fill="#228DF4"/>
<rect x="12" y="14" width="2" height="2" fill="#228DF4"/>
<rect x="4" y="14" width="2" height="2" fill="#228DF4"/>
<rect x="30" y="16" width="2" height="2" fill="#228DF4"/>
<rect x="24" y="16" width="2" height="2" fill="#228DF4"/>
<rect x="18" y="16" width="2" height="2" fill="#228DF4"/>
<rect x="12" y="16" width="2" height="2" fill="#228DF4"/>
<rect x="30" y="18" width="2" height="2" fill="#228DF4"/>
<rect x="76" y="8" width="2" height="2" fill="#56A0E7"/>
<rect x="104" y="8" width="2" height="2" fill="#A9CFF3"/>
<rect x="76" y="10" width="2" height="2" fill="#228DF4"/>
<rect x="104" y="10" width="2" height="2" fill="#228DF4"/>
<rect x="80" y="10" width="2" height="2" fill="#228DF4"/>
<rect x="80" y="8" width="2" height="2" fill="#56A0E7"/>
<rect x="108" y="10" width="2" height="2" fill="#56A0E7"/>
<rect x="84" y="10" width="2" height="2" fill="#228DF4"/>
<rect x="84" y="8" width="2" height="2" fill="#56A0E7"/>
<rect x="112" y="10" width="2" height="2" fill="#56A0E7"/>
<rect x="88" y="10" width="2" height="2" fill="#228DF4"/>
<rect x="88" y="8" width="2" height="2" fill="#56A0E7"/>
<rect x="116" y="10" width="2" height="2" fill="#56A0E7"/>
<rect x="94" y="10" width="2" height="2" fill="#228DF4"/>
<rect x="94" y="8" width="2" height="2" fill="#56A0E7"/>
<rect x="122" y="10" width="2" height="2" fill="#A9CFF3"/>
<rect x="76" y="12" width="2" height="2" fill="#228DF4"/>
<rect x="104" y="12" width="2" height="2" fill="#228DF4"/>
<rect x="80" y="12" width="2" height="2" fill="#228DF4"/>
<rect x="108" y="12" width="2" height="2" fill="#228DF4"/>
<rect x="84" y="12" width="2" height="2" fill="#228DF4"/>
<rect x="112" y="12" width="2" height="2" fill="#228DF4"/>
<rect x="88" y="12" width="2" height="2" fill="#228DF4"/>
<rect x="116" y="12" width="2" height="2" fill="#228DF4"/>
<rect x="94" y="12" width="2" height="2" fill="#228DF4"/>
<rect x="94" y="14" width="2" height="2" fill="#56A0E7"/>
<rect x="94" y="16" width="2" height="2" fill="#228DF4"/>
<rect x="94" y="18" width="2" height="2" fill="#228DF4"/>
<rect x="122" y="12" width="2" height="2" fill="#228DF4"/>
<rect x="76" y="14" width="2" height="2" fill="#228DF4"/>
<rect x="104" y="14" width="2" height="2" fill="#56A0E7"/>
<rect x="80" y="14" width="2" height="2" fill="#A9CFF3"/>
<rect x="80" y="16" width="2" height="2" fill="#228DF4"/>
<rect x="80" y="18" width="2" height="2" fill="#228DF4"/>
<rect x="108" y="14" width="2" height="2" fill="#228DF4"/>
<rect x="108" y="16" width="2" height="2" fill="#228DF4"/>
<rect x="110" y="16" width="2" height="2" fill="#228DF4"/>
<rect x="112" y="16" width="2" height="2" fill="#228DF4"/>
<rect x="84" y="14" width="2" height="2" fill="#A9CFF3"/>
<rect x="84" y="16" width="2" height="2" fill="#228DF4"/>
<rect x="84" y="18" width="2" height="2" fill="#228DF4"/>
<rect x="112" y="14" width="2" height="2" fill="#228DF4"/>
<rect x="88" y="14" width="2" height="2" fill="#56A0E7"/>
<rect x="88" y="16" width="2" height="2" fill="#228DF4"/>
<rect x="88" y="18" width="2" height="2" fill="#228DF4"/>
<rect x="116" y="14" width="2" height="2" fill="#228DF4"/>
<rect x="76" y="16" width="2" height="2" fill="#228DF4"/>
<rect x="104" y="16" width="2" height="2" fill="#228DF4"/>
<rect x="76" y="18" width="2" height="2" fill="#228DF4"/>
<rect x="104" y="18" width="2" height="2" fill="#228DF4"/>
<rect x="72" y="8" width="2" height="2" fill="#56A0E7"/>
<rect x="100" y="8" width="2" height="2" fill="#A9CFF3"/>
<rect x="72" y="10" width="2" height="2" fill="#228DF4"/>
<rect x="100" y="10" width="2" height="2" fill="#228DF4"/>
<rect x="72" y="12" width="2" height="2" fill="#228DF4"/>
<rect x="100" y="12" width="2" height="2" fill="#228DF4"/>
<rect x="72" y="14" width="2" height="2" fill="#228DF4"/>
<rect x="100" y="14" width="2" height="2" fill="#228DF4"/>
<rect x="72" y="16" width="2" height="2" fill="#228DF4"/>
<rect x="100" y="16" width="2" height="2" fill="#228DF4"/>
<rect x="72" y="18" width="2" height="2" fill="#228DF4"/>
<rect x="100" y="18" width="2" height="2" fill="#228DF4"/>
<rect x="68" y="8" width="2" height="2" fill="#56A0E7"/>
<rect x="68" y="10" width="2" height="2" fill="#56A0E7"/>
<rect x="68" y="12" width="2" height="2" fill="#228DF4"/>
<rect x="68" y="14" width="2" height="2" fill="#228DF4"/>
<rect x="68" y="16" width="2" height="2" fill="#228DF4"/>
<rect x="68" y="18" width="2" height="2" fill="#228DF4"/>
<rect x="64" y="8" width="2" height="2" fill="#56A0E7"/>
<rect x="64" y="10" width="2" height="2" fill="#56A0E7"/>
<rect x="64" y="12" width="2" height="2" fill="#228DF4"/>
<rect x="64" y="14" width="2" height="2" fill="#228DF4"/>
<rect x="64" y="16" width="2" height="2" fill="#228DF4"/>
<rect x="64" y="18" width="2" height="2" fill="#228DF4"/>
<rect x="60" y="8" width="2" height="2" fill="#56A0E7"/>
<rect x="60" y="10" width="2" height="2" fill="#56A0E7"/>
<rect x="60" y="12" width="2" height="2" fill="#228DF4"/>
<rect x="60" y="14" width="2" height="2" fill="#228DF4"/>
<rect x="60" y="16" width="2" height="2" fill="#228DF4"/>
<rect x="60" y="18" width="2" height="2" fill="#228DF4"/>
<rect x="56" y="8" width="2" height="2" fill="#A9CFF3"/>
<rect x="56" y="10" width="2" height="2" fill="#56A0E7"/>
<rect x="56" y="12" width="2" height="2" fill="#228DF4"/>
<rect x="56" y="14" width="2" height="2" fill="#228DF4"/>
<rect x="56" y="16" width="2" height="2" fill="#228DF4"/>
<rect x="56" y="18" width="2" height="2" fill="#228DF4"/>
<rect x="52" y="8" width="2" height="2" fill="#A9CFF3"/>
<rect x="52" y="10" width="2" height="2" fill="#56A0E7"/>
<rect x="52" y="12" width="2" height="2" fill="#228DF4"/>
<rect x="52" y="14" width="2" height="2" fill="#228DF4"/>
<rect x="52" y="16" width="2" height="2" fill="#228DF4"/>
<rect x="52" y="18" width="2" height="2" fill="#228DF4"/>
<rect x="48" y="8" width="2" height="2" fill="#A9CFF3"/>
<rect x="48" y="10" width="2" height="2" fill="#56A0E7"/>
<rect x="48" y="12" width="2" height="2" fill="#228DF4"/>
<rect x="48" y="14" width="2" height="2" fill="#A9CFF3"/>
<rect x="48" y="16" width="2" height="2" fill="#228DF4"/>
<rect x="48" y="18" width="2" height="2" fill="#228DF4"/>
<rect x="44" y="8" width="2" height="2" fill="#A9CFF3"/>
<rect x="44" y="10" width="2" height="2" fill="#56A0E7"/>
<rect x="44" y="12" width="2" height="2" fill="#228DF4"/>
<rect x="44" y="14" width="2" height="2" fill="#56A0E7"/>
<rect x="44" y="16" width="2" height="2" fill="#228DF4"/>
<rect x="44" y="18" width="2" height="2" fill="#228DF4"/>
<rect x="40" y="8" width="2" height="2" fill="#56A0E7"/>
<rect x="40" y="10" width="2" height="2" fill="#56A0E7"/>
<rect x="40" y="12" width="2" height="2" fill="#228DF4"/>
<rect x="40" y="14" width="2" height="2" fill="#56A0E7"/>
<rect x="40" y="16" width="2" height="2" fill="#228DF4"/>
<rect x="40" y="18" width="2" height="2" fill="#228DF4"/>
<rect x="36" y="8" width="2" height="2" fill="#56A0E7"/>
<rect x="36" y="10" width="2" height="2" fill="#56A0E7"/>
<rect x="36" y="12" width="2" height="2" fill="#228DF4"/>
<rect x="36" y="14" width="2" height="2" fill="#228DF4"/>
<rect x="36" y="16" width="2" height="2" fill="#228DF4"/>
<rect x="36" y="18" width="2" height="2" fill="#228DF4"/>
<rect x="32" y="8" width="2" height="2" fill="#A9CFF3"/>
<rect x="32" y="10" width="2" height="2" fill="#56A0E7"/>
<rect x="26" y="10" width="2" height="2" fill="#56A0E7"/>
<rect x="20" y="10" width="2" height="2" fill="#56A0E7"/>
<rect x="14" y="10" width="2" height="2" fill="#56A0E7"/>
<rect x="32" y="12" width="2" height="2" fill="#228DF4"/>
<rect x="26" y="12" width="2" height="2" fill="#228DF4"/>
<rect x="20" y="12" width="2" height="2" fill="#228DF4"/>
<rect x="14" y="12" width="2" height="2" fill="#228DF4"/>
<rect x="6" y="12" width="2" height="2" fill="#56A0E7"/>
<rect x="32" y="14" width="2" height="2" fill="#228DF4"/>
<rect x="26" y="14" width="2" height="2" fill="#228DF4"/>
<rect x="20" y="14" width="2" height="2" fill="#228DF4"/>
<rect x="14" y="14" width="2" height="2" fill="#228DF4"/>
<rect x="6" y="14" width="2" height="2" fill="#228DF4"/>
<rect x="32" y="16" width="2" height="2" fill="#228DF4"/>
<rect x="26" y="16" width="2" height="2" fill="#228DF4"/>
<rect x="20" y="16" width="2" height="2" fill="#228DF4"/>
<rect x="14" y="16" width="2" height="2" fill="#228DF4"/>
<rect x="32" y="18" width="2" height="2" fill="#228DF4"/>
<rect x="28" y="8" width="2" height="2" fill="#56A0E7"/>
<rect x="28" y="10" width="2" height="2" fill="#56A0E7"/>
<rect x="22" y="10" width="2" height="2" fill="#56A0E7"/>
<rect x="16" y="10" width="2" height="2" fill="#56A0E7"/>
<rect x="10" y="10" width="2" height="2" fill="#56A0E7"/>
<rect x="28" y="12" width="2" height="2" fill="#228DF4"/>
<rect x="22" y="12" width="2" height="2" fill="#228DF4"/>
<rect x="16" y="12" width="2" height="2" fill="#228DF4"/>
<rect x="8" y="12" width="2" height="2" fill="#56A0E7"/>
<rect x="10" y="12" width="2" height="2" fill="#228DF4"/>
<rect x="2" y="12" width="2" height="2" fill="#56A0E7"/>
<rect y="12" width="2" height="2" fill="#56A0E7"/>
<rect x="28" y="14" width="2" height="2" fill="#228DF4"/>
<rect x="22" y="14" width="2" height="2" fill="#228DF4"/>
<rect x="16" y="14" width="2" height="2" fill="#228DF4"/>
<rect x="8" y="14" width="2" height="2" fill="#228DF4"/>
<rect x="10" y="14" width="2" height="2" fill="#228DF4"/>
<rect x="2" y="14" width="2" height="2" fill="#228DF4"/>
<rect x="28" y="16" width="2" height="2" fill="#228DF4"/>
<rect x="22" y="16" width="2" height="2" fill="#228DF4"/>
<rect x="16" y="16" width="2" height="2" fill="#228DF4"/>
<rect x="10" y="16" width="2" height="2" fill="#228DF4"/>
<rect x="28" y="18" width="2" height="2" fill="#228DF4"/>
</svg>
