<svg width="24" height="24" viewBox="0 0 24 24" fill="none" xmlns="http://www.w3.org/2000/svg">
<path d="M13 1H11V2H13V1Z" fill="#080818"/>
<path d="M12 2H11V3H12V2Z" fill="#080818"/>
<path d="M13 2H12V3H13V2Z" fill="#A8C0C8"/>
<path d="M14 2H13V3H14V2Z" fill="#080818"/>
<path d="M12 3H11V4H12V3Z" fill="#080818"/>
<path d="M13 3H12V4H13V3Z" fill="#688088"/>
<path d="M14 3H13V4H14V3Z" fill="#080818"/>
<path d="M12 4H11V5H12V4Z" fill="#080818"/>
<path d="M13 4H12V5H13V4Z" fill="#506068"/>
<path d="M14 4H13V5H14V4Z" fill="#080818"/>
<path d="M17 5H7V6H17V5Z" fill="#080818"/>
<path d="M7 6H6V7H7V6Z" fill="#080818"/>
<path d="M9 6H7V7H9V6Z" fill="#A8C0C8"/>
<path d="M12 6H9V7H12V6Z" fill="#88A0A8"/>
<path d="M15 6H12V7H15V6Z" fill="#688088"/>
<path d="M17 6H15V7H17V6Z" fill="#506068"/>
<path d="M18 6H17V7H18V6Z" fill="#080818"/>
<path d="M6 7H5V8H6V7Z" fill="#080818"/>
<path d="M7 7H6V8H7V7Z" fill="#A8C0C8"/>
<path d="M10 7H7V8H10V7Z" fill="#88A0A8"/>
<path d="M14 7H10V8H14V7Z" fill="#688088"/>
<path d="M17 7H14V8H17V7Z" fill="#506068"/>
<path d="M18 7H17V8H18V7Z" fill="#384048"/>
<path d="M19 7H18V8H19V7Z" fill="#080818"/>
<path d="M6 8H5V9H6V8Z" fill="#080818"/>
<path d="M7 8H6V9H7V8Z" fill="#A8C0C8"/>
<path d="M8 8H7V9H8V8Z" fill="#88A0A8"/>
<path d="M11 8H8V9H11V8Z" fill="#080818"/>
<path d="M13 8H11V9H13V8Z" fill="#688088"/>
<path d="M16 8H13V9H16V8Z" fill="#080818"/>
<path d="M17 8H16V9H17V8Z" fill="#506068"/>
<path d="M19 8H17V9H19V8Z" fill="#384048"/>
<path d="M20 8H19V9H20V8Z" fill="#080818"/>
<path d="M6 9H5V10H6V9Z" fill="#080818"/>
<path d="M8 9H6V10H8V9Z" fill="#88A0A8"/>
<path d="M9 9H8V10H9V9Z" fill="#080818"/>
<path d="M10 9H9V10H10V9Z" fill="#30E868"/>
<path d="M11 9H10V10H11V9Z" fill="#18C850"/>
<path d="M12 9H11V10H12V9Z" fill="#080818"/>
<path d="M13 9H12V10H13V9Z" fill="#688088"/>
<path d="M14 9H13V10H14V9Z" fill="#080818"/>
<path d="M15 9H14V10H15V9Z" fill="#30E868"/>
<path d="M16 9H15V10H16V9Z" fill="#18C850"/>
<path d="M17 9H16V10H17V9Z" fill="#080818"/>
<path d="M19 9H17V10H19V9Z" fill="#384048"/>
<path d="M20 9H19V10H20V9Z" fill="#080818"/>
<path d="M6 10H5V11H6V10Z" fill="#080818"/>
<path d="M7 10H6V11H7V10Z" fill="#88A0A8"/>
<path d="M8 10H7V11H8V10Z" fill="#688088"/>
<path d="M9 10H8V11H9V10Z" fill="#080818"/>
<path d="M11 10H9V11H11V10Z" fill="#18C850"/>
<path d="M12 10H11V11H12V10Z" fill="#080818"/>
<path d="M13 10H12V11H13V10Z" fill="#506068"/>
<path d="M14 10H13V11H14V10Z" fill="#080818"/>
<path d="M16 10H14V11H16V10Z" fill="#18C850"/>
<path d="M17 10H16V11H17V10Z" fill="#080818"/>
<path d="M19 10H17V11H19V10Z" fill="#384048"/>
<path d="M20 10H19V11H20V10Z" fill="#080818"/>
<path d="M6 11H5V12H6V11Z" fill="#080818"/>
<path d="M7 11H6V12H7V11Z" fill="#88A0A8"/>
<path d="M8 11H7V12H8V11Z" fill="#688088"/>
<path d="M11 11H8V12H11V11Z" fill="#080818"/>
<path d="M13 11H11V12H13V11Z" fill="#506068"/>
<path d="M16 11H13V12H16V11Z" fill="#080818"/>
<path d="M19 11H16V12H19V11Z" fill="#384048"/>
<path d="M20 11H19V12H20V11Z" fill="#080818"/>
<path d="M6 12H5V13H6V12Z" fill="#080818"/>
<path d="M9 12H6V13H9V12Z" fill="#688088"/>
<path d="M13 12H9V13H13V12Z" fill="#506068"/>
<path d="M19 12H13V13H19V12Z" fill="#384048"/>
<path d="M20 12H19V13H20V12Z" fill="#080818"/>
<path d="M6 13H5V14H6V13Z" fill="#080818"/>
<path d="M8 13H6V14H8V13Z" fill="#688088"/>
<path d="M12 13H8V14H12V13Z" fill="#506068"/>
<path d="M19 13H12V14H19V13Z" fill="#384048"/>
<path d="M20 13H19V14H20V13Z" fill="#080818"/>
<path d="M6 14H5V15H6V14Z" fill="#080818"/>
<path d="M7 14H6V15H7V14Z" fill="#688088"/>
<path d="M9 14H7V15H9V14Z" fill="#506068"/>
<path d="M15 14H9V15H15V14Z" fill="#080818"/>
<path d="M19 14H15V15H19V14Z" fill="#384048"/>
<path d="M20 14H19V15H20V14Z" fill="#080818"/>
<path d="M6 15H5V16H6V15Z" fill="#080818"/>
<path d="M9 15H6V16H9V15Z" fill="#506068"/>
<path d="M10 15H9V16H10V15Z" fill="#384048"/>
<path d="M13 15H10V16H13V15Z" fill="#506068"/>
<path d="M19 15H13V16H19V15Z" fill="#384048"/>
<path d="M20 15H19V16H20V15Z" fill="#080818"/>
<path d="M6 16H5V17H6V16Z" fill="#080818"/>
<path d="M8 16H6V17H8V16Z" fill="#506068"/>
<path d="M19 16H8V17H19V16Z" fill="#384048"/>
<path d="M20 16H19V17H20V16Z" fill="#080818"/>
<path d="M19 17H6V18H19V17Z" fill="#080818"/>
<path d="M6 18H4V19H6V18Z" fill="#080818"/>
<path d="M21 18H19V19H21V18Z" fill="#080818"/>
<path d="M5 19H4V20H5V19Z" fill="#080818"/>
<path d="M6 19H5V20H6V19Z" fill="#688088"/>
<path d="M7 19H6V20H7V19Z" fill="#080818"/>
<path d="M19 19H18V20H19V19Z" fill="#080818"/>
<path d="M20 19H19V20H20V19Z" fill="#506068"/>
<path d="M21 19H20V20H21V19Z" fill="#080818"/>
<path d="M5 20H4V21H5V20Z" fill="#080818"/>
<path d="M6 20H5V21H6V20Z" fill="#506068"/>
<path d="M7 20H6V21H7V20Z" fill="#080818"/>
<path d="M19 20H18V21H19V20Z" fill="#080818"/>
<path d="M20 20H19V21H20V20Z" fill="#384048"/>
<path d="M21 20H20V21H21V20Z" fill="#080818"/>
<path d="M6 21H5V22H6V21Z" fill="#080818"/>
<path d="M20 21H19V22H20V21Z" fill="#080818"/>
</svg>
