<svg width="24" height="24" viewBox="0 0 24 24" fill="none" xmlns="http://www.w3.org/2000/svg">
<path d="M16 0H8V1H16V0Z" fill="#080818"/>
<path d="M8 1H6V2H8V1Z" fill="#080818"/>
<path d="M11 1H8V2H11V1Z" fill="#203840"/>
<path d="M14 1H11V2H14V1Z" fill="#182830"/>
<path d="M16 1H14V2H16V1Z" fill="#101820"/>
<path d="M18 1H16V2H18V1Z" fill="#080818"/>
<path d="M6 2H5V3H6V2Z" fill="#080818"/>
<path d="M9 2H6V3H9V2Z" fill="#203840"/>
<path d="M13 2H9V3H13V2Z" fill="#182830"/>
<path d="M18 2H13V3H18V2Z" fill="#101820"/>
<path d="M19 2H18V3H19V2Z" fill="#080818"/>
<path d="M5 3H4V4H5V3Z" fill="#080818"/>
<path d="M8 3H5V4H8V3Z" fill="#203840"/>
<path d="M12 3H8V4H12V3Z" fill="#182830"/>
<path d="M19 3H12V4H19V3Z" fill="#101820"/>
<path d="M20 3H19V4H20V3Z" fill="#080818"/>
<path d="M4 4H3V5H4V4Z" fill="#080818"/>
<path d="M7 4H4V5H7V4Z" fill="#203840"/>
<path d="M11 4H7V5H11V4Z" fill="#182830"/>
<path d="M20 4H11V5H20V4Z" fill="#101820"/>
<path d="M21 4H20V5H21V4Z" fill="#080818"/>
<path d="M4 5H3V6H4V5Z" fill="#080818"/>
<path d="M6 5H4V6H6V5Z" fill="#203840"/>
<path d="M10 5H6V6H10V5Z" fill="#182830"/>
<path d="M21 5H10V6H21V5Z" fill="#101820"/>
<path d="M22 5H21V6H22V5Z" fill="#080818"/>
<path d="M3 6H2V7H3V6Z" fill="#080818"/>
<path d="M5 6H3V7H5V6Z" fill="#203840"/>
<path d="M9 6H5V7H9V6Z" fill="#182830"/>
<path d="M22 6H9V7H22V6Z" fill="#101820"/>
<path d="M23 6H22V7H23V6Z" fill="#080818"/>
<path d="M3 7H2V8H3V7Z" fill="#080818"/>
<path d="M4 7H3V8H4V7Z" fill="#203840"/>
<path d="M8 7H4V8H8V7Z" fill="#182830"/>
<path d="M22 7H8V8H22V7Z" fill="#101820"/>
<path d="M23 7H22V8H23V7Z" fill="#080818"/>
<path d="M2 8H1V9H2V8Z" fill="#080818"/>
<path d="M3 8H2V9H3V8Z" fill="#203840"/>
<path d="M7 8H3V9H7V8Z" fill="#182830"/>
<path d="M10 8H7V9H10V8Z" fill="#101820"/>
<path d="M11 8H10V9H11V8Z" fill="#48E070"/>
<path d="M23 8H11V9H23V8Z" fill="#101820"/>
<path d="M24 8H23V9H24V8Z" fill="#080818"/>
<path d="M2 9H1V10H2V9Z" fill="#080818"/>
<path d="M3 9H2V10H3V9Z" fill="#203840"/>
<path d="M6 9H3V10H6V9Z" fill="#182830"/>
<path d="M9 9H6V10H9V9Z" fill="#101820"/>
<path d="M10 9H9V10H10V9Z" fill="#28C050"/>
<path d="M11 9H10V10H11V9Z" fill="#080818"/>
<path d="M12 9H11V10H12V9Z" fill="#28C050"/>
<path d="M14 9H12V10H14V9Z" fill="#101820"/>
<path d="M15 9H14V10H15V9Z" fill="#48E070"/>
<path d="M23 9H15V10H23V9Z" fill="#101820"/>
<path d="M24 9H23V10H24V9Z" fill="#080818"/>
<path d="M2 10H1V11H2V10Z" fill="#080818"/>
<path d="M5 10H2V11H5V10Z" fill="#182830"/>
<path d="M8 10H5V11H8V10Z" fill="#101820"/>
<path d="M9 10H8V11H9V10Z" fill="#28C050"/>
<path d="M10 10H9V11H10V10Z" fill="#080818"/>
<path d="M11 10H10V11H11V10Z" fill="#101820"/>
<path d="M12 10H11V11H12V10Z" fill="#080818"/>
<path d="M14 10H12V11H14V10Z" fill="#28C050"/>
<path d="M15 10H14V11H15V10Z" fill="#080818"/>
<path d="M16 10H15V11H16V10Z" fill="#28C050"/>
<path d="M18 10H16V11H18V10Z" fill="#101820"/>
<path d="M19 10H18V11H19V10Z" fill="#48E070"/>
<path d="M23 10H19V11H23V10Z" fill="#101820"/>
<path d="M24 10H23V11H24V10Z" fill="#080818"/>
<path d="M2 11H1V12H2V11Z" fill="#080818"/>
<path d="M4 11H2V12H4V11Z" fill="#182830"/>
<path d="M6 11H4V12H6V11Z" fill="#101820"/>
<path d="M8 11H6V12H8V11Z" fill="#28C050"/>
<path d="M9 11H8V12H9V11Z" fill="#080818"/>
<path d="M12 11H9V12H12V11Z" fill="#101820"/>
<path d="M14 11H12V12H14V11Z" fill="#080818"/>
<path d="M15 11H14V12H15V11Z" fill="#101820"/>
<path d="M16 11H15V12H16V11Z" fill="#080818"/>
<path d="M18 11H16V12H18V11Z" fill="#28C050"/>
<path d="M19 11H18V12H19V11Z" fill="#080818"/>
<path d="M20 11H19V12H20V11Z" fill="#28C050"/>
<path d="M23 11H20V12H23V11Z" fill="#101820"/>
<path d="M24 11H23V12H24V11Z" fill="#080818"/>
<path d="M2 12H1V13H2V12Z" fill="#080818"/>
<path d="M4 12H2V13H4V12Z" fill="#182830"/>
<path d="M6 12H4V13H6V12Z" fill="#28C050"/>
<path d="M8 12H6V13H8V12Z" fill="#080818"/>
<path d="M16 12H8V13H16V12Z" fill="#101820"/>
<path d="M18 12H16V13H18V12Z" fill="#080818"/>
<path d="M19 12H18V13H19V12Z" fill="#101820"/>
<path d="M20 12H19V13H20V12Z" fill="#080818"/>
<path d="M21 12H20V13H21V12Z" fill="#28C050"/>
<path d="M23 12H21V13H23V12Z" fill="#101820"/>
<path d="M24 12H23V13H24V12Z" fill="#080818"/>
<path d="M2 13H1V14H2V13Z" fill="#080818"/>
<path d="M3 13H2V14H3V13Z" fill="#182830"/>
<path d="M4 13H3V14H4V13Z" fill="#28C050"/>
<path d="M6 13H4V14H6V13Z" fill="#080818"/>
<path d="M20 13H6V14H20V13Z" fill="#101820"/>
<path d="M21 13H20V14H21V13Z" fill="#080818"/>
<path d="M22 13H21V14H22V13Z" fill="#189838"/>
<path d="M23 13H22V14H23V13Z" fill="#101820"/>
<path d="M24 13H23V14H24V13Z" fill="#080818"/>
<path d="M4 14H2V15H4V14Z" fill="#080818"/>
<path d="M21 14H4V15H21V14Z" fill="#101820"/>
<path d="M23 14H21V15H23V14Z" fill="#080818"/>
<path d="M3 15H2V16H3V15Z" fill="#080818"/>
<path d="M22 15H3V16H22V15Z" fill="#101820"/>
<path d="M23 15H22V16H23V15Z" fill="#080818"/>
<path d="M3 16H2V17H3V16Z" fill="#080818"/>
<path d="M21 16H3V17H21V16Z" fill="#101820"/>
<path d="M22 16H21V17H22V16Z" fill="#080818"/>
<path d="M4 17H3V18H4V17Z" fill="#080818"/>
<path d="M20 17H4V18H20V17Z" fill="#101820"/>
<path d="M21 17H20V18H21V17Z" fill="#080818"/>
<path d="M4 18H3V19H4V18Z" fill="#080818"/>
<path d="M19 18H4V19H19V18Z" fill="#101820"/>
<path d="M20 18H19V19H20V18Z" fill="#080818"/>
<path d="M5 19H4V20H5V19Z" fill="#080818"/>
<path d="M18 19H5V20H18V19Z" fill="#101820"/>
<path d="M19 19H18V20H19V19Z" fill="#080818"/>
<path d="M6 20H5V21H6V20Z" fill="#080818"/>
<path d="M17 20H6V21H17V20Z" fill="#101820"/>
<path d="M18 20H17V21H18V20Z" fill="#080818"/>
<path d="M8 21H6V22H8V21Z" fill="#080818"/>
<path d="M15 21H8V22H15V21Z" fill="#101820"/>
<path d="M17 21H15V22H17V21Z" fill="#080818"/>
<path d="M15 22H8V23H15V22Z" fill="#080818"/>
</svg>
