<svg width="24" height="24" viewBox="0 0 24 24" fill="none" xmlns="http://www.w3.org/2000/svg">
<path d="M20 2H4V3H20V2Z" fill="#081018"/>
<path d="M5 3H4V4H5V3Z" fill="#081018"/>
<path d="M6 3H5V4H6V3Z" fill="#F0D050"/>
<path d="M8 3H6V4H8V3Z" fill="#D8B030"/>
<path d="M16 3H8V4H16V3Z" fill="#B89020"/>
<path d="M18 3H16V4H18V3Z" fill="#D8B030"/>
<path d="M19 3H18V4H19V3Z" fill="#F0D050"/>
<path d="M20 3H19V4H20V3Z" fill="#081018"/>
<path d="M20 4H4V5H20V4Z" fill="#081018"/>
<path d="M6 5H5V6H6V5Z" fill="#081018"/>
<path d="M8 5H6V6H8V5Z" fill="#F0E8C8"/>
<path d="M16 5H8V6H16V5Z" fill="#E0D0A8"/>
<path d="M18 5H16V6H18V5Z" fill="#C8B088"/>
<path d="M19 5H18V6H19V5Z" fill="#081018"/>
<path d="M7 6H6V7H7V6Z" fill="#081018"/>
<path d="M8 6H7V7H8V6Z" fill="#F0E8C8"/>
<path d="M11 6H8V7H11V6Z" fill="#E0D0A8"/>
<path d="M17 6H11V7H17V6Z" fill="#C8B088"/>
<path d="M18 6H17V7H18V6Z" fill="#081018"/>
<path d="M8 7H7V8H8V7Z" fill="#081018"/>
<path d="M9 7H8V8H9V7Z" fill="#E0D0A8"/>
<path d="M16 7H9V8H16V7Z" fill="#C8B088"/>
<path d="M17 7H16V8H17V7Z" fill="#081018"/>
<path d="M9 8H8V9H9V8Z" fill="#081018"/>
<path d="M15 8H9V9H15V8Z" fill="#C8B088"/>
<path d="M16 8H15V9H16V8Z" fill="#081018"/>
<path d="M10 9H9V10H10V9Z" fill="#081018"/>
<path d="M14 9H10V10H14V9Z" fill="#C8B088"/>
<path d="M15 9H14V10H15V9Z" fill="#081018"/>
<path d="M11 10H10V11H11V10Z" fill="#081018"/>
<path d="M13 10H11V11H13V10Z" fill="#C8B088"/>
<path d="M14 10H13V11H14V10Z" fill="#081018"/>
<path d="M13 11H11V12H13V11Z" fill="#081018"/>
<path d="M13 12H11V13H13V12Z" fill="#081018"/>
<path d="M11 13H10V14H11V13Z" fill="#081018"/>
<path d="M13 13H11V14H13V13Z" fill="#C8B088"/>
<path d="M14 13H13V14H14V13Z" fill="#081018"/>
<path d="M10 14H9V15H10V14Z" fill="#081018"/>
<path d="M12 14H10V15H12V14Z" fill="#C8B088"/>
<path d="M14 14H12V15H14V14Z" fill="#E0D0A8"/>
<path d="M15 14H14V15H15V14Z" fill="#081018"/>
<path d="M9 15H8V16H9V15Z" fill="#081018"/>
<path d="M11 15H9V16H11V15Z" fill="#C8B088"/>
<path d="M15 15H11V16H15V15Z" fill="#E0D0A8"/>
<path d="M16 15H15V16H16V15Z" fill="#081018"/>
<path d="M8 16H7V17H8V16Z" fill="#081018"/>
<path d="M10 16H8V17H10V16Z" fill="#C8B088"/>
<path d="M13 16H10V17H13V16Z" fill="#E0D0A8"/>
<path d="M16 16H13V17H16V16Z" fill="#F0E8C8"/>
<path d="M17 16H16V17H17V16Z" fill="#081018"/>
<path d="M7 17H6V18H7V17Z" fill="#081018"/>
<path d="M9 17H7V18H9V17Z" fill="#C8B088"/>
<path d="M12 17H9V18H12V17Z" fill="#E0D0A8"/>
<path d="M17 17H12V18H17V17Z" fill="#F0E8C8"/>
<path d="M18 17H17V18H18V17Z" fill="#081018"/>
<path d="M6 18H5V19H6V18Z" fill="#081018"/>
<path d="M8 18H6V19H8V18Z" fill="#C8B088"/>
<path d="M11 18H8V19H11V18Z" fill="#E0D0A8"/>
<path d="M18 18H11V19H18V18Z" fill="#F0E8C8"/>
<path d="M19 18H18V19H19V18Z" fill="#081018"/>
<path d="M20 19H4V20H20V19Z" fill="#081018"/>
<path d="M5 20H4V21H5V20Z" fill="#081018"/>
<path d="M6 20H5V21H6V20Z" fill="#F0D050"/>
<path d="M8 20H6V21H8V20Z" fill="#D8B030"/>
<path d="M16 20H8V21H16V20Z" fill="#B89020"/>
<path d="M18 20H16V21H18V20Z" fill="#D8B030"/>
<path d="M19 20H18V21H19V20Z" fill="#F0D050"/>
<path d="M20 20H19V21H20V20Z" fill="#081018"/>
<path d="M20 21H4V22H20V21Z" fill="#081018"/>
</svg>
