<svg width="24" height="24" viewBox="0 0 24 24" fill="none" xmlns="http://www.w3.org/2000/svg">
<path d="M16 1H8V2H16V1Z" fill="#080818"/>
<path d="M8 2H6V3H8V2Z" fill="#080818"/>
<path d="M11 2H8V3H11V2Z" fill="#203840"/>
<path d="M14 2H11V3H14V2Z" fill="#182830"/>
<path d="M16 2H14V3H16V2Z" fill="#101820"/>
<path d="M18 2H16V3H18V2Z" fill="#080818"/>
<path d="M6 3H5V4H6V3Z" fill="#080818"/>
<path d="M9 3H6V4H9V3Z" fill="#203840"/>
<path d="M13 3H9V4H13V3Z" fill="#182830"/>
<path d="M18 3H13V4H18V3Z" fill="#101820"/>
<path d="M19 3H18V4H19V3Z" fill="#080818"/>
<path d="M5 4H4V5H5V4Z" fill="#080818"/>
<path d="M8 4H5V5H8V4Z" fill="#203840"/>
<path d="M12 4H8V5H12V4Z" fill="#182830"/>
<path d="M19 4H12V5H19V4Z" fill="#101820"/>
<path d="M20 4H19V5H20V4Z" fill="#080818"/>
<path d="M4 5H3V6H4V5Z" fill="#080818"/>
<path d="M6 5H4V6H6V5Z" fill="#203840"/>
<path d="M7 5H6V6H7V5Z" fill="#F0D050"/>
<path d="M14 5H7V6H14V5Z" fill="#D8B030"/>
<path d="M15 5H14V6H15V5Z" fill="#B89020"/>
<path d="M20 5H15V6H20V5Z" fill="#101820"/>
<path d="M21 5H20V6H21V5Z" fill="#080818"/>
<path d="M3 6H2V7H3V6Z" fill="#080818"/>
<path d="M5 6H3V7H5V6Z" fill="#203840"/>
<path d="M6 6H5V7H6V6Z" fill="#182830"/>
<path d="M7 6H6V7H7V6Z" fill="#F0D050"/>
<path d="M9 6H7V7H9V6Z" fill="#182830"/>
<path d="M21 6H9V7H21V6Z" fill="#101820"/>
<path d="M22 6H21V7H22V6Z" fill="#080818"/>
<path d="M3 7H2V8H3V7Z" fill="#080818"/>
<path d="M4 7H3V8H4V7Z" fill="#203840"/>
<path d="M7 7H4V8H7V7Z" fill="#182830"/>
<path d="M8 7H7V8H8V7Z" fill="#D8B030"/>
<path d="M21 7H8V8H21V7Z" fill="#101820"/>
<path d="M22 7H21V8H22V7Z" fill="#080818"/>
<path d="M2 8H1V9H2V8Z" fill="#080818"/>
<path d="M3 8H2V9H3V8Z" fill="#203840"/>
<path d="M6 8H3V9H6V8Z" fill="#182830"/>
<path d="M8 8H6V9H8V8Z" fill="#101820"/>
<path d="M9 8H8V9H9V8Z" fill="#D8B030"/>
<path d="M22 8H9V9H22V8Z" fill="#101820"/>
<path d="M23 8H22V9H23V8Z" fill="#080818"/>
<path d="M2 9H1V10H2V9Z" fill="#080818"/>
<path d="M3 9H2V10H3V9Z" fill="#203840"/>
<path d="M5 9H3V10H5V9Z" fill="#182830"/>
<path d="M9 9H5V10H9V9Z" fill="#101820"/>
<path d="M10 9H9V10H10V9Z" fill="#B89020"/>
<path d="M22 9H10V10H22V9Z" fill="#101820"/>
<path d="M23 9H22V10H23V9Z" fill="#080818"/>
<path d="M2 10H1V11H2V10Z" fill="#080818"/>
<path d="M4 10H2V11H4V10Z" fill="#182830"/>
<path d="M10 10H4V11H10V10Z" fill="#101820"/>
<path d="M11 10H10V11H11V10Z" fill="#B89020"/>
<path d="M22 10H11V11H22V10Z" fill="#101820"/>
<path d="M23 10H22V11H23V10Z" fill="#080818"/>
<path d="M2 11H1V12H2V11Z" fill="#080818"/>
<path d="M4 11H2V12H4V11Z" fill="#182830"/>
<path d="M11 11H4V12H11V11Z" fill="#101820"/>
<path d="M12 11H11V12H12V11Z" fill="#886818"/>
<path d="M22 11H12V12H22V11Z" fill="#101820"/>
<path d="M23 11H22V12H23V11Z" fill="#080818"/>
<path d="M2 12H1V13H2V12Z" fill="#080818"/>
<path d="M3 12H2V13H3V12Z" fill="#182830"/>
<path d="M10 12H3V13H10V12Z" fill="#101820"/>
<path d="M11 12H10V13H11V12Z" fill="#B89020"/>
<path d="M22 12H11V13H22V12Z" fill="#101820"/>
<path d="M23 12H22V13H23V12Z" fill="#080818"/>
<path d="M2 13H1V14H2V13Z" fill="#080818"/>
<path d="M3 13H2V14H3V13Z" fill="#182830"/>
<path d="M9 13H3V14H9V13Z" fill="#101820"/>
<path d="M10 13H9V14H10V13Z" fill="#B89020"/>
<path d="M22 13H10V14H22V13Z" fill="#101820"/>
<path d="M23 13H22V14H23V13Z" fill="#080818"/>
<path d="M3 14H2V15H3V14Z" fill="#080818"/>
<path d="M8 14H3V15H8V14Z" fill="#101820"/>
<path d="M9 14H8V15H9V14Z" fill="#D8B030"/>
<path d="M21 14H9V15H21V14Z" fill="#101820"/>
<path d="M22 14H21V15H22V14Z" fill="#080818"/>
<path d="M3 15H2V16H3V15Z" fill="#080818"/>
<path d="M7 15H3V16H7V15Z" fill="#101820"/>
<path d="M8 15H7V16H8V15Z" fill="#D8B030"/>
<path d="M21 15H8V16H21V15Z" fill="#101820"/>
<path d="M22 15H21V16H22V15Z" fill="#080818"/>
<path d="M3 16H2V17H3V16Z" fill="#080818"/>
<path d="M6 16H3V17H6V16Z" fill="#101820"/>
<path d="M7 16H6V17H7V16Z" fill="#D8B030"/>
<path d="M20 16H7V17H20V16Z" fill="#101820"/>
<path d="M21 16H20V17H21V16Z" fill="#080818"/>
<path d="M4 17H3V18H4V17Z" fill="#080818"/>
<path d="M6 17H4V18H6V17Z" fill="#101820"/>
<path d="M14 17H6V18H14V17Z" fill="#B89020"/>
<path d="M15 17H14V18H15V17Z" fill="#886818"/>
<path d="M19 17H15V18H19V17Z" fill="#101820"/>
<path d="M20 17H19V18H20V17Z" fill="#080818"/>
<path d="M5 18H4V19H5V18Z" fill="#080818"/>
<path d="M18 18H5V19H18V18Z" fill="#101820"/>
<path d="M19 18H18V19H19V18Z" fill="#080818"/>
<path d="M6 19H5V20H6V19Z" fill="#080818"/>
<path d="M17 19H6V20H17V19Z" fill="#101820"/>
<path d="M18 19H17V20H18V19Z" fill="#080818"/>
<path d="M8 20H6V21H8V20Z" fill="#080818"/>
<path d="M15 20H8V21H15V20Z" fill="#101820"/>
<path d="M17 20H15V21H17V20Z" fill="#080818"/>
<path d="M15 21H8V22H15V21Z" fill="#080818"/>
</svg>
