<svg width="24" height="24" viewBox="0 0 24 24" fill="none" xmlns="http://www.w3.org/2000/svg">
<path d="M15 1H9V2H15V1Z" fill="#081018"/>
<path d="M9 2H8V3H9V2Z" fill="#081018"/>
<path d="M10 2H9V3H10V2Z" fill="#A8A8A8"/>
<path d="M14 2H10V3H14V2Z" fill="#888888"/>
<path d="M15 2H14V3H15V2Z" fill="#686868"/>
<path d="M16 2H15V3H16V2Z" fill="#081018"/>
<path d="M8 3H7V4H8V3Z" fill="#081018"/>
<path d="M9 3H8V4H9V3Z" fill="#A8A8A8"/>
<path d="M10 3H9V4H10V3Z" fill="#888888"/>
<path d="M11 3H10V4H11V3Z" fill="#686868"/>
<path d="M13 3H11V4H13V3Z" fill="#081018"/>
<path d="M14 3H13V4H14V3Z" fill="#686868"/>
<path d="M16 3H14V4H16V3Z" fill="#484848"/>
<path d="M17 3H16V4H17V3Z" fill="#081018"/>
<path d="M8 4H7V5H8V4Z" fill="#081018"/>
<path d="M9 4H8V5H9V4Z" fill="#888888"/>
<path d="M10 4H9V5H10V4Z" fill="#686868"/>
<path d="M11 4H10V5H11V4Z" fill="#081018"/>
<path d="M14 4H13V5H14V4Z" fill="#081018"/>
<path d="M16 4H14V5H16V4Z" fill="#484848"/>
<path d="M17 4H16V5H17V4Z" fill="#081018"/>
<path d="M8 5H7V6H8V5Z" fill="#081018"/>
<path d="M9 5H8V6H9V5Z" fill="#888888"/>
<path d="M10 5H9V6H10V5Z" fill="#686868"/>
<path d="M11 5H10V6H11V5Z" fill="#081018"/>
<path d="M14 5H13V6H14V5Z" fill="#081018"/>
<path d="M16 5H14V6H16V5Z" fill="#484848"/>
<path d="M17 5H16V6H17V5Z" fill="#081018"/>
<path d="M8 6H7V7H8V6Z" fill="#081018"/>
<path d="M9 6H8V7H9V6Z" fill="#888888"/>
<path d="M10 6H9V7H10V6Z" fill="#686868"/>
<path d="M11 6H10V7H11V6Z" fill="#081018"/>
<path d="M14 6H13V7H14V6Z" fill="#081018"/>
<path d="M16 6H14V7H16V6Z" fill="#484848"/>
<path d="M17 6H16V7H17V6Z" fill="#081018"/>
<path d="M18 7H6V8H18V7Z" fill="#081018"/>
<path d="M6 8H5V9H6V8Z" fill="#081018"/>
<path d="M7 8H6V9H7V8Z" fill="#F0D050"/>
<path d="M10 8H7V9H10V8Z" fill="#D8B030"/>
<path d="M14 8H10V9H14V8Z" fill="#B89020"/>
<path d="M18 8H14V9H18V8Z" fill="#886818"/>
<path d="M19 8H18V9H19V8Z" fill="#081018"/>
<path d="M6 9H5V10H6V9Z" fill="#081018"/>
<path d="M8 9H6V10H8V9Z" fill="#D8B030"/>
<path d="M12 9H8V10H12V9Z" fill="#B89020"/>
<path d="M18 9H12V10H18V9Z" fill="#886818"/>
<path d="M19 9H18V10H19V9Z" fill="#081018"/>
<path d="M6 10H5V11H6V10Z" fill="#081018"/>
<path d="M7 10H6V11H7V10Z" fill="#D8B030"/>
<path d="M11 10H7V11H11V10Z" fill="#B89020"/>
<path d="M18 10H11V11H18V10Z" fill="#886818"/>
<path d="M19 10H18V11H19V10Z" fill="#081018"/>
<path d="M6 11H5V12H6V11Z" fill="#081018"/>
<path d="M7 11H6V12H7V11Z" fill="#D8B030"/>
<path d="M10 11H7V12H10V11Z" fill="#B89020"/>
<path d="M14 11H10V12H14V11Z" fill="#081018"/>
<path d="M18 11H14V12H18V11Z" fill="#886818"/>
<path d="M19 11H18V12H19V11Z" fill="#081018"/>
<path d="M6 12H5V13H6V12Z" fill="#081018"/>
<path d="M9 12H6V13H9V12Z" fill="#B89020"/>
<path d="M10 12H9V13H10V12Z" fill="#081018"/>
<path d="M11 12H10V13H11V12Z" fill="#A8A8A8"/>
<path d="M13 12H11V13H13V12Z" fill="#888888"/>
<path d="M14 12H13V13H14V12Z" fill="#686868"/>
<path d="M15 12H14V13H15V12Z" fill="#081018"/>
<path d="M18 12H15V13H18V12Z" fill="#886818"/>
<path d="M19 12H18V13H19V12Z" fill="#081018"/>
<path d="M6 13H5V14H6V13Z" fill="#081018"/>
<path d="M9 13H6V14H9V13Z" fill="#B89020"/>
<path d="M10 13H9V14H10V13Z" fill="#081018"/>
<path d="M12 13H10V14H12V13Z" fill="#888888"/>
<path d="M14 13H12V14H14V13Z" fill="#686868"/>
<path d="M15 13H14V14H15V13Z" fill="#081018"/>
<path d="M18 13H15V14H18V13Z" fill="#886818"/>
<path d="M19 13H18V14H19V13Z" fill="#081018"/>
<path d="M6 14H5V15H6V14Z" fill="#081018"/>
<path d="M9 14H6V15H9V14Z" fill="#B89020"/>
<path d="M10 14H9V15H10V14Z" fill="#081018"/>
<path d="M11 14H10V15H11V14Z" fill="#888888"/>
<path d="M13 14H11V15H13V14Z" fill="#686868"/>
<path d="M14 14H13V15H14V14Z" fill="#484848"/>
<path d="M15 14H14V15H15V14Z" fill="#081018"/>
<path d="M18 14H15V15H18V14Z" fill="#886818"/>
<path d="M19 14H18V15H19V14Z" fill="#081018"/>
<path d="M6 15H5V16H6V15Z" fill="#081018"/>
<path d="M9 15H6V16H9V15Z" fill="#B89020"/>
<path d="M10 15H9V16H10V15Z" fill="#081018"/>
<path d="M12 15H10V16H12V15Z" fill="#686868"/>
<path d="M14 15H12V16H14V15Z" fill="#484848"/>
<path d="M15 15H14V16H15V15Z" fill="#081018"/>
<path d="M18 15H15V16H18V15Z" fill="#886818"/>
<path d="M19 15H18V16H19V15Z" fill="#081018"/>
<path d="M6 16H5V17H6V16Z" fill="#081018"/>
<path d="M8 16H6V17H8V16Z" fill="#B89020"/>
<path d="M10 16H8V17H10V16Z" fill="#886818"/>
<path d="M14 16H10V17H14V16Z" fill="#081018"/>
<path d="M18 16H14V17H18V16Z" fill="#886818"/>
<path d="M19 16H18V17H19V16Z" fill="#081018"/>
<path d="M6 17H5V18H6V17Z" fill="#081018"/>
<path d="M7 17H6V18H7V17Z" fill="#B89020"/>
<path d="M18 17H7V18H18V17Z" fill="#886818"/>
<path d="M19 17H18V18H19V17Z" fill="#081018"/>
<path d="M6 18H5V19H6V18Z" fill="#081018"/>
<path d="M18 18H6V19H18V18Z" fill="#886818"/>
<path d="M19 18H18V19H19V18Z" fill="#081018"/>
<path d="M18 19H6V20H18V19Z" fill="#081018"/>
</svg>
