<svg width="24" height="24" viewBox="0 0 24 24" fill="none" xmlns="http://www.w3.org/2000/svg">
<path d="M14 1H10V2H14V1Z" fill="#080818"/>
<path d="M10 2H9V3H10V2Z" fill="#080818"/>
<path d="M11 2H10V3H11V2Z" fill="#F0E0C8"/>
<path d="M13 2H11V3H13V2Z" fill="#E8D0B0"/>
<path d="M14 2H13V3H14V2Z" fill="#D8B898"/>
<path d="M15 2H14V3H15V2Z" fill="#080818"/>
<path d="M9 3H8V4H9V3Z" fill="#080818"/>
<path d="M10 3H9V4H10V3Z" fill="#F0E0C8"/>
<path d="M12 3H10V4H12V3Z" fill="#E8D0B0"/>
<path d="M14 3H12V4H14V3Z" fill="#D8B898"/>
<path d="M15 3H14V4H15V3Z" fill="#C8A080"/>
<path d="M16 3H15V4H16V3Z" fill="#080818"/>
<path d="M9 4H8V5H9V4Z" fill="#080818"/>
<path d="M11 4H9V5H11V4Z" fill="#E8D0B0"/>
<path d="M13 4H11V5H13V4Z" fill="#D8B898"/>
<path d="M15 4H13V5H15V4Z" fill="#C8A080"/>
<path d="M16 4H15V5H16V4Z" fill="#080818"/>
<path d="M9 5H8V6H9V5Z" fill="#080818"/>
<path d="M10 5H9V6H10V5Z" fill="#E8D0B0"/>
<path d="M13 5H10V6H13V5Z" fill="#D8B898"/>
<path d="M15 5H13V6H15V5Z" fill="#C8A080"/>
<path d="M16 5H15V6H16V5Z" fill="#080818"/>
<path d="M10 6H9V7H10V6Z" fill="#080818"/>
<path d="M11 6H10V7H11V6Z" fill="#D8B898"/>
<path d="M14 6H11V7H14V6Z" fill="#C8A080"/>
<path d="M15 6H14V7H15V6Z" fill="#080818"/>
<path d="M14 7H10V8H14V7Z" fill="#080818"/>
<path d="M11 8H10V9H11V8Z" fill="#080818"/>
<path d="M13 8H11V9H13V8Z" fill="#C8A080"/>
<path d="M14 8H13V9H14V8Z" fill="#080818"/>
<path d="M18 9H6V10H18V9Z" fill="#080818"/>
<path d="M6 10H5V11H6V10Z" fill="#080818"/>
<path d="M7 10H6V11H7V10Z" fill="#50A8F0"/>
<path d="M10 10H7V11H10V10Z" fill="#3890E0"/>
<path d="M14 10H10V11H14V10Z" fill="#2878D0"/>
<path d="M18 10H14V11H18V10Z" fill="#1850A0"/>
<path d="M19 10H18V11H19V10Z" fill="#080818"/>
<path d="M5 11H4V12H5V11Z" fill="#080818"/>
<path d="M6 11H5V12H6V11Z" fill="#50A8F0"/>
<path d="M9 11H6V12H9V11Z" fill="#3890E0"/>
<path d="M12 11H9V12H12V11Z" fill="#2878D0"/>
<path d="M19 11H12V12H19V11Z" fill="#1850A0"/>
<path d="M20 11H19V12H20V11Z" fill="#080818"/>
<path d="M5 12H4V13H5V12Z" fill="#080818"/>
<path d="M8 12H5V13H8V12Z" fill="#3890E0"/>
<path d="M11 12H8V13H11V12Z" fill="#2878D0"/>
<path d="M19 12H11V13H19V12Z" fill="#1850A0"/>
<path d="M20 12H19V13H20V12Z" fill="#080818"/>
<path d="M5 13H4V14H5V13Z" fill="#080818"/>
<path d="M7 13H5V14H7V13Z" fill="#3890E0"/>
<path d="M10 13H7V14H10V13Z" fill="#2878D0"/>
<path d="M19 13H10V14H19V13Z" fill="#1850A0"/>
<path d="M20 13H19V14H20V13Z" fill="#080818"/>
<path d="M5 14H4V15H5V14Z" fill="#080818"/>
<path d="M6 14H5V15H6V14Z" fill="#3890E0"/>
<path d="M9 14H6V15H9V14Z" fill="#2878D0"/>
<path d="M19 14H9V15H19V14Z" fill="#1850A0"/>
<path d="M20 14H19V15H20V14Z" fill="#080818"/>
<path d="M5 15H4V16H5V15Z" fill="#080818"/>
<path d="M8 15H5V16H8V15Z" fill="#2878D0"/>
<path d="M19 15H8V16H19V15Z" fill="#1850A0"/>
<path d="M20 15H19V16H20V15Z" fill="#080818"/>
<path d="M5 16H4V17H5V16Z" fill="#080818"/>
<path d="M7 16H5V17H7V16Z" fill="#2878D0"/>
<path d="M19 16H7V17H19V16Z" fill="#1850A0"/>
<path d="M20 16H19V17H20V16Z" fill="#080818"/>
<path d="M5 17H4V18H5V17Z" fill="#080818"/>
<path d="M6 17H5V18H6V17Z" fill="#2878D0"/>
<path d="M19 17H6V18H19V17Z" fill="#1850A0"/>
<path d="M20 17H19V18H20V17Z" fill="#080818"/>
<path d="M5 18H4V19H5V18Z" fill="#080818"/>
<path d="M19 18H5V19H19V18Z" fill="#1850A0"/>
<path d="M20 18H19V19H20V18Z" fill="#080818"/>
<path d="M7 19H5V20H7V19Z" fill="#080818"/>
<path d="M17 19H7V20H17V19Z" fill="#1850A0"/>
<path d="M19 19H17V20H19V19Z" fill="#080818"/>
<path d="M11 20H7V21H11V20Z" fill="#080818"/>
<path d="M17 20H12V21H17V20Z" fill="#080818"/>
</svg>
