<svg width="24" height="24" viewBox="0 0 24 24" fill="none" xmlns="http://www.w3.org/2000/svg">
<path d="M3 2H2V3H3V2Z" fill="#081018"/>
<path d="M12 2H11V3H12V2Z" fill="#081018"/>
<path d="M3 3H2V4H3V3Z" fill="#081018"/>
<path d="M12 3H11V4H12V3Z" fill="#081018"/>
<path d="M21 3H18V4H21V3Z" fill="#081018"/>
<path d="M3 4H2V5H3V4Z" fill="#081018"/>
<path d="M7 4H4V5H7V4Z" fill="#081018"/>
<path d="M12 4H11V5H12V4Z" fill="#081018"/>
<path d="M18 4H17V5H18V4Z" fill="#081018"/>
<path d="M19 4H18V5H19V4Z" fill="#48E070"/>
<path d="M20 4H19V5H20V4Z" fill="#28C050"/>
<path d="M21 4H20V5H21V4Z" fill="#081018"/>
<path d="M3 5H2V6H3V5Z" fill="#081018"/>
<path d="M5 5H4V6H5V5Z" fill="#081018"/>
<path d="M6 5H5V6H6V5Z" fill="#48A0F0"/>
<path d="M7 5H6V6H7V5Z" fill="#2878D0"/>
<path d="M8 5H7V6H8V5Z" fill="#081018"/>
<path d="M12 5H11V6H12V5Z" fill="#081018"/>
<path d="M18 5H17V6H18V5Z" fill="#081018"/>
<path d="M19 5H18V6H19V5Z" fill="#28C050"/>
<path d="M20 5H19V6H20V5Z" fill="#189838"/>
<path d="M21 5H20V6H21V5Z" fill="#081018"/>
<path d="M3 6H2V7H3V6Z" fill="#081018"/>
<path d="M5 6H4V7H5V6Z" fill="#081018"/>
<path d="M6 6H5V7H6V6Z" fill="#2878D0"/>
<path d="M7 6H6V7H7V6Z" fill="#1850A0"/>
<path d="M8 6H7V7H8V6Z" fill="#081018"/>
<path d="M12 6H11V7H12V6Z" fill="#081018"/>
<path d="M16 6H13V7H16V6Z" fill="#081018"/>
<path d="M18 6H17V7H18V6Z" fill="#081018"/>
<path d="M19 6H18V7H19V6Z" fill="#28C050"/>
<path d="M20 6H19V7H20V6Z" fill="#189838"/>
<path d="M21 6H20V7H21V6Z" fill="#081018"/>
<path d="M3 7H2V8H3V7Z" fill="#081018"/>
<path d="M5 7H4V8H5V7Z" fill="#081018"/>
<path d="M6 7H5V8H6V7Z" fill="#2878D0"/>
<path d="M7 7H6V8H7V7Z" fill="#1850A0"/>
<path d="M8 7H7V8H8V7Z" fill="#081018"/>
<path d="M12 7H11V8H12V7Z" fill="#081018"/>
<path d="M14 7H13V8H14V7Z" fill="#081018"/>
<path d="M15 7H14V8H15V7Z" fill="#48E070"/>
<path d="M16 7H15V8H16V7Z" fill="#28C050"/>
<path d="M18 7H16V8H18V7Z" fill="#081018"/>
<path d="M19 7H18V8H19V7Z" fill="#189838"/>
<path d="M20 7H19V8H20V7Z" fill="#106028"/>
<path d="M21 7H20V8H21V7Z" fill="#081018"/>
<path d="M3 8H2V9H3V8Z" fill="#081018"/>
<path d="M5 8H4V9H5V8Z" fill="#081018"/>
<path d="M6 8H5V9H6V8Z" fill="#1850A0"/>
<path d="M7 8H6V9H7V8Z" fill="#0C2848"/>
<path d="M10 8H7V9H10V8Z" fill="#081018"/>
<path d="M12 8H11V9H12V8Z" fill="#081018"/>
<path d="M14 8H13V9H14V8Z" fill="#081018"/>
<path d="M15 8H14V9H15V8Z" fill="#28C050"/>
<path d="M16 8H15V9H16V8Z" fill="#189838"/>
<path d="M18 8H16V9H18V8Z" fill="#081018"/>
<path d="M19 8H18V9H19V8Z" fill="#189838"/>
<path d="M20 8H19V9H20V8Z" fill="#106028"/>
<path d="M21 8H20V9H21V8Z" fill="#081018"/>
<path d="M3 9H2V10H3V9Z" fill="#081018"/>
<path d="M5 9H4V10H5V9Z" fill="#081018"/>
<path d="M6 9H5V10H6V9Z" fill="#1850A0"/>
<path d="M7 9H6V10H7V9Z" fill="#0C2848"/>
<path d="M8 9H7V10H8V9Z" fill="#081018"/>
<path d="M9 9H8V10H9V9Z" fill="#48A0F0"/>
<path d="M10 9H9V10H10V9Z" fill="#2878D0"/>
<path d="M12 9H10V10H12V9Z" fill="#081018"/>
<path d="M14 9H13V10H14V9Z" fill="#081018"/>
<path d="M15 9H14V10H15V9Z" fill="#28C050"/>
<path d="M16 9H15V10H16V9Z" fill="#189838"/>
<path d="M18 9H16V10H18V9Z" fill="#081018"/>
<path d="M20 9H18V10H20V9Z" fill="#106028"/>
<path d="M21 9H20V10H21V9Z" fill="#081018"/>
<path d="M3 10H2V11H3V10Z" fill="#081018"/>
<path d="M5 10H4V11H5V10Z" fill="#081018"/>
<path d="M6 10H5V11H6V10Z" fill="#1850A0"/>
<path d="M7 10H6V11H7V10Z" fill="#0C2848"/>
<path d="M8 10H7V11H8V10Z" fill="#081018"/>
<path d="M9 10H8V11H9V10Z" fill="#2878D0"/>
<path d="M10 10H9V11H10V10Z" fill="#1850A0"/>
<path d="M12 10H10V11H12V10Z" fill="#081018"/>
<path d="M14 10H13V11H14V10Z" fill="#081018"/>
<path d="M15 10H14V11H15V10Z" fill="#189838"/>
<path d="M16 10H15V11H16V10Z" fill="#106028"/>
<path d="M18 10H16V11H18V10Z" fill="#081018"/>
<path d="M20 10H18V11H20V10Z" fill="#106028"/>
<path d="M21 10H20V11H21V10Z" fill="#081018"/>
<path d="M3 11H2V12H3V11Z" fill="#081018"/>
<path d="M5 11H4V12H5V11Z" fill="#081018"/>
<path d="M7 11H5V12H7V11Z" fill="#0C2848"/>
<path d="M8 11H7V12H8V11Z" fill="#081018"/>
<path d="M9 11H8V12H9V11Z" fill="#2878D0"/>
<path d="M10 11H9V12H10V11Z" fill="#1850A0"/>
<path d="M12 11H10V12H12V11Z" fill="#081018"/>
<path d="M14 11H13V12H14V11Z" fill="#081018"/>
<path d="M15 11H14V12H15V11Z" fill="#189838"/>
<path d="M16 11H15V12H16V11Z" fill="#106028"/>
<path d="M18 11H16V12H18V11Z" fill="#081018"/>
<path d="M20 11H18V12H20V11Z" fill="#106028"/>
<path d="M21 11H20V12H21V11Z" fill="#081018"/>
<path d="M3 12H2V13H3V12Z" fill="#081018"/>
<path d="M5 12H4V13H5V12Z" fill="#081018"/>
<path d="M7 12H5V13H7V12Z" fill="#0C2848"/>
<path d="M8 12H7V13H8V12Z" fill="#081018"/>
<path d="M9 12H8V13H9V12Z" fill="#1850A0"/>
<path d="M10 12H9V13H10V12Z" fill="#0C2848"/>
<path d="M12 12H10V13H12V12Z" fill="#081018"/>
<path d="M14 12H13V13H14V12Z" fill="#081018"/>
<path d="M15 12H14V13H15V12Z" fill="#189838"/>
<path d="M16 12H15V13H16V12Z" fill="#106028"/>
<path d="M18 12H16V13H18V12Z" fill="#081018"/>
<path d="M20 12H18V13H20V12Z" fill="#106028"/>
<path d="M21 12H20V13H21V12Z" fill="#081018"/>
<path d="M3 13H2V14H3V13Z" fill="#081018"/>
<path d="M5 13H4V14H5V13Z" fill="#081018"/>
<path d="M7 13H5V14H7V13Z" fill="#0C2848"/>
<path d="M8 13H7V14H8V13Z" fill="#081018"/>
<path d="M9 13H8V14H9V13Z" fill="#1850A0"/>
<path d="M10 13H9V14H10V13Z" fill="#0C2848"/>
<path d="M12 13H10V14H12V13Z" fill="#081018"/>
<path d="M14 13H13V14H14V13Z" fill="#081018"/>
<path d="M16 13H14V14H16V13Z" fill="#106028"/>
<path d="M18 13H16V14H18V13Z" fill="#081018"/>
<path d="M20 13H18V14H20V13Z" fill="#106028"/>
<path d="M21 13H20V14H21V13Z" fill="#081018"/>
<path d="M3 14H2V15H3V14Z" fill="#081018"/>
<path d="M5 14H4V15H5V14Z" fill="#081018"/>
<path d="M7 14H5V15H7V14Z" fill="#0C2848"/>
<path d="M8 14H7V15H8V14Z" fill="#081018"/>
<path d="M10 14H8V15H10V14Z" fill="#0C2848"/>
<path d="M12 14H10V15H12V14Z" fill="#081018"/>
<path d="M14 14H13V15H14V14Z" fill="#081018"/>
<path d="M16 14H14V15H16V14Z" fill="#106028"/>
<path d="M18 14H16V15H18V14Z" fill="#081018"/>
<path d="M20 14H18V15H20V14Z" fill="#106028"/>
<path d="M21 14H20V15H21V14Z" fill="#081018"/>
<path d="M3 15H2V16H3V15Z" fill="#081018"/>
<path d="M5 15H4V16H5V15Z" fill="#081018"/>
<path d="M7 15H5V16H7V15Z" fill="#0C2848"/>
<path d="M8 15H7V16H8V15Z" fill="#081018"/>
<path d="M10 15H8V16H10V15Z" fill="#0C2848"/>
<path d="M12 15H10V16H12V15Z" fill="#081018"/>
<path d="M14 15H13V16H14V15Z" fill="#081018"/>
<path d="M16 15H14V16H16V15Z" fill="#106028"/>
<path d="M18 15H16V16H18V15Z" fill="#081018"/>
<path d="M20 15H18V16H20V15Z" fill="#106028"/>
<path d="M21 15H20V16H21V15Z" fill="#081018"/>
<path d="M3 16H2V17H3V16Z" fill="#081018"/>
<path d="M12 16H4V17H12V16Z" fill="#081018"/>
<path d="M21 16H13V17H21V16Z" fill="#081018"/>
<path d="M3 17H2V18H3V17Z" fill="#081018"/>
<path d="M11 17H3V18H11V17Z" fill="#384050"/>
<path d="M12 17H11V18H12V17Z" fill="#081018"/>
<path d="M21 17H12V18H21V17Z" fill="#384050"/>
<path d="M22 17H21V18H22V17Z" fill="#081018"/>
<path d="M22 18H2V19H22V18Z" fill="#081018"/>
</svg>
