<svg width="24" height="24" viewBox="0 0 24 24" fill="none" xmlns="http://www.w3.org/2000/svg">
<path d="M4 2H2V3H4V2Z" fill="#081018"/>
<path d="M3 3H2V4H3V3Z" fill="#081018"/>
<path d="M4 3H3V4H4V3Z" fill="#80C0FF"/>
<path d="M5 3H4V4H5V3Z" fill="#081018"/>
<path d="M3 4H2V5H3V4Z" fill="#081018"/>
<path d="M4 4H3V5H4V4Z" fill="#48A0F0"/>
<path d="M5 4H4V5H5V4Z" fill="#2878D0"/>
<path d="M6 4H5V5H6V4Z" fill="#081018"/>
<path d="M3 5H2V6H3V5Z" fill="#081018"/>
<path d="M4 5H3V6H4V5Z" fill="#2878D0"/>
<path d="M5 5H4V6H5V5Z" fill="#1850A0"/>
<path d="M6 5H5V6H6V5Z" fill="#081018"/>
<path d="M3 6H2V7H3V6Z" fill="#081018"/>
<path d="M4 6H3V7H4V6Z" fill="#2878D0"/>
<path d="M5 6H4V7H5V6Z" fill="#1850A0"/>
<path d="M6 6H5V7H6V6Z" fill="#0C2848"/>
<path d="M7 6H6V7H7V6Z" fill="#081018"/>
<path d="M3 7H2V8H3V7Z" fill="#081018"/>
<path d="M5 7H3V8H5V7Z" fill="#1850A0"/>
<path d="M6 7H5V8H6V7Z" fill="#0C2848"/>
<path d="M7 7H6V8H7V7Z" fill="#081018"/>
<path d="M3 8H2V9H3V8Z" fill="#081018"/>
<path d="M4 8H3V9H4V8Z" fill="#1850A0"/>
<path d="M7 8H4V9H7V8Z" fill="#0C2848"/>
<path d="M8 8H7V9H8V8Z" fill="#081018"/>
<path d="M3 9H2V10H3V9Z" fill="#081018"/>
<path d="M4 9H3V10H4V9Z" fill="#1850A0"/>
<path d="M7 9H4V10H7V9Z" fill="#0C2848"/>
<path d="M8 9H7V10H8V9Z" fill="#081018"/>
<path d="M3 10H2V11H3V10Z" fill="#081018"/>
<path d="M8 10H3V11H8V10Z" fill="#0C2848"/>
<path d="M9 10H8V11H9V10Z" fill="#081018"/>
<path d="M3 11H2V12H3V11Z" fill="#081018"/>
<path d="M9 11H3V12H9V11Z" fill="#0C2848"/>
<path d="M10 11H9V12H10V11Z" fill="#081018"/>
<path d="M3 12H2V13H3V12Z" fill="#081018"/>
<path d="M10 12H3V13H10V12Z" fill="#0C2848"/>
<path d="M12 12H10V13H12V12Z" fill="#081018"/>
<path d="M3 13H2V14H3V13Z" fill="#081018"/>
<path d="M12 13H3V14H12V13Z" fill="#0C2848"/>
<path d="M15 13H12V14H15V13Z" fill="#081018"/>
<path d="M3 14H2V15H3V14Z" fill="#081018"/>
<path d="M15 14H3V15H15V14Z" fill="#0C2848"/>
<path d="M22 14H15V15H22V14Z" fill="#081018"/>
<path d="M3 15H2V16H3V15Z" fill="#081018"/>
<path d="M22 15H21V16H22V15Z" fill="#081018"/>
<path d="M3 16H2V17H3V16Z" fill="#081018"/>
<path d="M5 16H3V17H5V16Z" fill="#384050"/>
<path d="M8 16H5V17H8V16Z" fill="#283040"/>
<path d="M14 16H8V17H14V16Z" fill="#1A2030"/>
<path d="M18 16H14V17H18V16Z" fill="#283040"/>
<path d="M21 16H18V17H21V16Z" fill="#384050"/>
<path d="M22 16H21V17H22V16Z" fill="#081018"/>
<path d="M3 17H2V18H3V17Z" fill="#081018"/>
<path d="M5 17H3V18H5V17Z" fill="#283040"/>
<path d="M18 17H5V18H18V17Z" fill="#1A2030"/>
<path d="M21 17H18V18H21V17Z" fill="#283040"/>
<path d="M22 17H21V18H22V17Z" fill="#081018"/>
<path d="M22 18H2V19H22V18Z" fill="#081018"/>
</svg>
