<svg width="24" height="24" viewBox="0 0 24 24" fill="none" xmlns="http://www.w3.org/2000/svg">
<path d="M16 5H8V6H16V5Z" fill="#080818"/>
<path d="M8 6H7V7H8V6Z" fill="#080818"/>
<path d="M10 6H8V7H10V6Z" fill="#E0A0FF"/>
<path d="M13 6H10V7H13V6Z" fill="#C868F8"/>
<path d="M15 6H13V7H15V6Z" fill="#A840E0"/>
<path d="M16 6H15V7H16V6Z" fill="#8828C0"/>
<path d="M17 6H16V7H17V6Z" fill="#080818"/>
<path d="M7 7H6V8H7V7Z" fill="#080818"/>
<path d="M9 7H7V8H9V7Z" fill="#E0A0FF"/>
<path d="M12 7H9V8H12V7Z" fill="#C868F8"/>
<path d="M14 7H12V8H14V7Z" fill="#A840E0"/>
<path d="M16 7H14V8H16V7Z" fill="#8828C0"/>
<path d="M17 7H16V8H17V7Z" fill="#6818A0"/>
<path d="M18 7H17V8H18V7Z" fill="#080818"/>
<path d="M6 8H5V9H6V8Z" fill="#080818"/>
<path d="M8 8H6V9H8V8Z" fill="#E0A0FF"/>
<path d="M10 8H8V9H10V8Z" fill="#C868F8"/>
<path d="M13 8H10V9H13V8Z" fill="#A840E0"/>
<path d="M15 8H13V9H15V8Z" fill="#8828C0"/>
<path d="M18 8H15V9H18V8Z" fill="#6818A0"/>
<path d="M19 8H18V9H19V8Z" fill="#080818"/>
<path d="M5 9H4V10H5V9Z" fill="#080818"/>
<path d="M6 9H5V10H6V9Z" fill="#F0E0FF"/>
<path d="M7 9H6V10H7V9Z" fill="#E0A0FF"/>
<path d="M9 9H7V10H9V9Z" fill="#C868F8"/>
<path d="M11 9H9V10H11V9Z" fill="#A840E0"/>
<path d="M14 9H11V10H14V9Z" fill="#8828C0"/>
<path d="M19 9H14V10H19V9Z" fill="#6818A0"/>
<path d="M20 9H19V10H20V9Z" fill="#080818"/>
<path d="M20 10H4V11H20V10Z" fill="#080818"/>
<path d="M4 11H3V12H4V11Z" fill="#080818"/>
<path d="M7 11H4V12H7V11Z" fill="#C868F8"/>
<path d="M10 11H7V12H10V11Z" fill="#A840E0"/>
<path d="M14 11H10V12H14V11Z" fill="#8828C0"/>
<path d="M20 11H14V12H20V11Z" fill="#6818A0"/>
<path d="M21 11H20V12H21V11Z" fill="#080818"/>
<path d="M5 12H4V13H5V12Z" fill="#080818"/>
<path d="M6 12H5V13H6V12Z" fill="#C868F8"/>
<path d="M9 12H6V13H9V12Z" fill="#A840E0"/>
<path d="M12 12H9V13H12V12Z" fill="#8828C0"/>
<path d="M19 12H12V13H19V12Z" fill="#6818A0"/>
<path d="M20 12H19V13H20V12Z" fill="#080818"/>
<path d="M6 13H5V14H6V13Z" fill="#080818"/>
<path d="M8 13H6V14H8V13Z" fill="#A840E0"/>
<path d="M12 13H8V14H12V13Z" fill="#8828C0"/>
<path d="M18 13H12V14H18V13Z" fill="#6818A0"/>
<path d="M19 13H18V14H19V13Z" fill="#080818"/>
<path d="M7 14H6V15H7V14Z" fill="#080818"/>
<path d="M8 14H7V15H8V14Z" fill="#A840E0"/>
<path d="M11 14H8V15H11V14Z" fill="#8828C0"/>
<path d="M17 14H11V15H17V14Z" fill="#6818A0"/>
<path d="M18 14H17V15H18V14Z" fill="#080818"/>
<path d="M8 15H7V16H8V15Z" fill="#080818"/>
<path d="M10 15H8V16H10V15Z" fill="#8828C0"/>
<path d="M16 15H10V16H16V15Z" fill="#6818A0"/>
<path d="M17 15H16V16H17V15Z" fill="#080818"/>
<path d="M9 16H8V17H9V16Z" fill="#080818"/>
<path d="M10 16H9V17H10V16Z" fill="#8828C0"/>
<path d="M15 16H10V17H15V16Z" fill="#6818A0"/>
<path d="M16 16H15V17H16V16Z" fill="#080818"/>
<path d="M10 17H9V18H10V17Z" fill="#080818"/>
<path d="M14 17H10V18H14V17Z" fill="#6818A0"/>
<path d="M15 17H14V18H15V17Z" fill="#080818"/>
<path d="M11 18H10V19H11V18Z" fill="#080818"/>
<path d="M13 18H11V19H13V18Z" fill="#6818A0"/>
<path d="M14 18H13V19H14V18Z" fill="#080818"/>
<path d="M13 19H11V20H13V19Z" fill="#080818"/>
</svg>
