<svg width="24" height="24" viewBox="0 0 24 24" fill="none" xmlns="http://www.w3.org/2000/svg">
<path d="M16 1H8V2H16V1Z" fill="#081018"/>
<path d="M8 2H6V3H8V2Z" fill="#081018"/>
<path d="M10 2H8V3H10V2Z" fill="#E83040"/>
<path d="M14 2H10V3H14V2Z" fill="#C01828"/>
<path d="M16 2H14V3H16V2Z" fill="#881020"/>
<path d="M18 2H16V3H18V2Z" fill="#081018"/>
<path d="M6 3H5V4H6V3Z" fill="#081018"/>
<path d="M7 3H6V4H7V3Z" fill="#FF5060"/>
<path d="M9 3H7V4H9V3Z" fill="#E83040"/>
<path d="M13 3H9V4H13V3Z" fill="#C01828"/>
<path d="M18 3H13V4H18V3Z" fill="#881020"/>
<path d="M19 3H18V4H19V3Z" fill="#081018"/>
<path d="M5 4H4V5H5V4Z" fill="#081018"/>
<path d="M6 4H5V5H6V4Z" fill="#FF5060"/>
<path d="M8 4H6V5H8V4Z" fill="#E83040"/>
<path d="M11 4H8V5H11V4Z" fill="#C01828"/>
<path d="M19 4H11V5H19V4Z" fill="#881020"/>
<path d="M20 4H19V5H20V4Z" fill="#081018"/>
<path d="M4 5H3V6H4V5Z" fill="#081018"/>
<path d="M5 5H4V6H5V5Z" fill="#FF5060"/>
<path d="M6 5H5V6H6V5Z" fill="#E83040"/>
<path d="M8 5H6V6H8V5Z" fill="#C01828"/>
<path d="M16 5H8V6H16V5Z" fill="#081018"/>
<path d="M20 5H16V6H20V5Z" fill="#881020"/>
<path d="M21 5H20V6H21V5Z" fill="#081018"/>
<path d="M3 6H2V7H3V6Z" fill="#081018"/>
<path d="M5 6H3V7H5V6Z" fill="#E83040"/>
<path d="M7 6H5V7H7V6Z" fill="#C01828"/>
<path d="M8 6H7V7H8V6Z" fill="#081018"/>
<path d="M9 6H8V7H9V6Z" fill="#F4F0E8"/>
<path d="M11 6H9V7H11V6Z" fill="#E8E4D8"/>
<path d="M16 6H11V7H16V6Z" fill="#D0CCC0"/>
<path d="M17 6H16V7H17V6Z" fill="#081018"/>
<path d="M21 6H17V7H21V6Z" fill="#881020"/>
<path d="M22 6H21V7H22V6Z" fill="#081018"/>
<path d="M3 7H2V8H3V7Z" fill="#081018"/>
<path d="M4 7H3V8H4V7Z" fill="#E83040"/>
<path d="M6 7H4V8H6V7Z" fill="#C01828"/>
<path d="M7 7H6V8H7V7Z" fill="#081018"/>
<path d="M8 7H7V8H8V7Z" fill="#F4F0E8"/>
<path d="M10 7H8V8H10V7Z" fill="#E8E4D8"/>
<path d="M17 7H10V8H17V7Z" fill="#D0CCC0"/>
<path d="M18 7H17V8H18V7Z" fill="#081018"/>
<path d="M21 7H18V8H21V7Z" fill="#881020"/>
<path d="M22 7H21V8H22V7Z" fill="#081018"/>
<path d="M3 8H2V9H3V8Z" fill="#081018"/>
<path d="M6 8H3V9H6V8Z" fill="#C01828"/>
<path d="M7 8H6V9H7V8Z" fill="#081018"/>
<path d="M9 8H7V9H9V8Z" fill="#E8E4D8"/>
<path d="M15 8H9V9H15V8Z" fill="#081018"/>
<path d="M17 8H15V9H17V8Z" fill="#D0CCC0"/>
<path d="M18 8H17V9H18V8Z" fill="#081018"/>
<path d="M22 8H18V9H22V8Z" fill="#881020"/>
<path d="M23 8H22V9H23V8Z" fill="#081018"/>
<path d="M3 9H2V10H3V9Z" fill="#081018"/>
<path d="M5 9H3V10H5V9Z" fill="#C01828"/>
<path d="M6 9H5V10H6V9Z" fill="#881020"/>
<path d="M7 9H6V10H7V9Z" fill="#081018"/>
<path d="M8 9H7V10H8V9Z" fill="#E8E4D8"/>
<path d="M9 9H8V10H9V9Z" fill="#081018"/>
<path d="M10 9H9V10H10V9Z" fill="#E83040"/>
<path d="M12 9H10V10H12V9Z" fill="#C01828"/>
<path d="M15 9H12V10H15V9Z" fill="#881020"/>
<path d="M16 9H15V10H16V9Z" fill="#081018"/>
<path d="M17 9H16V10H17V9Z" fill="#D0CCC0"/>
<path d="M18 9H17V10H18V9Z" fill="#081018"/>
<path d="M22 9H18V10H22V9Z" fill="#881020"/>
<path d="M23 9H22V10H23V9Z" fill="#081018"/>
<path d="M3 10H2V11H3V10Z" fill="#081018"/>
<path d="M5 10H3V11H5V10Z" fill="#C01828"/>
<path d="M6 10H5V11H6V10Z" fill="#881020"/>
<path d="M7 10H6V11H7V10Z" fill="#081018"/>
<path d="M8 10H7V11H8V10Z" fill="#D0CCC0"/>
<path d="M9 10H8V11H9V10Z" fill="#081018"/>
<path d="M11 10H9V11H11V10Z" fill="#C01828"/>
<path d="M15 10H11V11H15V10Z" fill="#881020"/>
<path d="M16 10H15V11H16V10Z" fill="#081018"/>
<path d="M17 10H16V11H17V10Z" fill="#D0CCC0"/>
<path d="M18 10H17V11H18V10Z" fill="#081018"/>
<path d="M22 10H18V11H22V10Z" fill="#881020"/>
<path d="M23 10H22V11H23V10Z" fill="#081018"/>
<path d="M3 11H2V12H3V11Z" fill="#081018"/>
<path d="M4 11H3V12H4V11Z" fill="#C01828"/>
<path d="M6 11H4V12H6V11Z" fill="#881020"/>
<path d="M7 11H6V12H7V11Z" fill="#081018"/>
<path d="M8 11H7V12H8V11Z" fill="#D0CCC0"/>
<path d="M9 11H8V12H9V11Z" fill="#081018"/>
<path d="M10 11H9V12H10V11Z" fill="#C01828"/>
<path d="M11 11H10V12H11V11Z" fill="#881020"/>
<path d="M13 11H11V12H13V11Z" fill="#081018"/>
<path d="M15 11H13V12H15V11Z" fill="#881020"/>
<path d="M16 11H15V12H16V11Z" fill="#081018"/>
<path d="M17 11H16V12H17V11Z" fill="#D0CCC0"/>
<path d="M18 11H17V12H18V11Z" fill="#081018"/>
<path d="M22 11H18V12H22V11Z" fill="#881020"/>
<path d="M23 11H22V12H23V11Z" fill="#081018"/>
<path d="M3 12H2V13H3V12Z" fill="#081018"/>
<path d="M4 12H3V13H4V12Z" fill="#C01828"/>
<path d="M6 12H4V13H6V12Z" fill="#881020"/>
<path d="M7 12H6V13H7V12Z" fill="#081018"/>
<path d="M8 12H7V13H8V12Z" fill="#D0CCC0"/>
<path d="M9 12H8V13H9V12Z" fill="#081018"/>
<path d="M11 12H9V13H11V12Z" fill="#881020"/>
<path d="M13 12H11V13H13V12Z" fill="#081018"/>
<path d="M15 12H13V13H15V12Z" fill="#881020"/>
<path d="M16 12H15V13H16V12Z" fill="#081018"/>
<path d="M17 12H16V13H17V12Z" fill="#D0CCC0"/>
<path d="M18 12H17V13H18V12Z" fill="#081018"/>
<path d="M22 12H18V13H22V12Z" fill="#881020"/>
<path d="M23 12H22V13H23V12Z" fill="#081018"/>
<path d="M3 13H2V14H3V13Z" fill="#081018"/>
<path d="M4 13H3V14H4V13Z" fill="#C01828"/>
<path d="M6 13H4V14H6V13Z" fill="#881020"/>
<path d="M7 13H6V14H7V13Z" fill="#081018"/>
<path d="M8 13H7V14H8V13Z" fill="#D0CCC0"/>
<path d="M9 13H8V14H9V13Z" fill="#081018"/>
<path d="M15 13H9V14H15V13Z" fill="#881020"/>
<path d="M16 13H15V14H16V13Z" fill="#081018"/>
<path d="M17 13H16V14H17V13Z" fill="#D0CCC0"/>
<path d="M18 13H17V14H18V13Z" fill="#081018"/>
<path d="M22 13H18V14H22V13Z" fill="#881020"/>
<path d="M23 13H22V14H23V13Z" fill="#081018"/>
<path d="M3 14H2V15H3V14Z" fill="#081018"/>
<path d="M6 14H3V15H6V14Z" fill="#881020"/>
<path d="M7 14H6V15H7V14Z" fill="#081018"/>
<path d="M8 14H7V15H8V14Z" fill="#D0CCC0"/>
<path d="M9 14H8V15H9V14Z" fill="#081018"/>
<path d="M15 14H9V15H15V14Z" fill="#881020"/>
<path d="M16 14H15V15H16V14Z" fill="#081018"/>
<path d="M17 14H16V15H17V14Z" fill="#D0CCC0"/>
<path d="M18 14H17V15H18V14Z" fill="#081018"/>
<path d="M22 14H18V15H22V14Z" fill="#881020"/>
<path d="M23 14H22V15H23V14Z" fill="#081018"/>
<path d="M3 15H2V16H3V15Z" fill="#081018"/>
<path d="M6 15H3V16H6V15Z" fill="#881020"/>
<path d="M7 15H6V16H7V15Z" fill="#081018"/>
<path d="M9 15H7V16H9V15Z" fill="#D0CCC0"/>
<path d="M15 15H9V16H15V15Z" fill="#081018"/>
<path d="M17 15H15V16H17V15Z" fill="#D0CCC0"/>
<path d="M18 15H17V16H18V15Z" fill="#081018"/>
<path d="M21 15H18V16H21V15Z" fill="#881020"/>
<path d="M22 15H21V16H22V15Z" fill="#081018"/>
<path d="M3 16H2V17H3V16Z" fill="#081018"/>
<path d="M7 16H3V17H7V16Z" fill="#881020"/>
<path d="M8 16H7V17H8V16Z" fill="#081018"/>
<path d="M16 16H8V17H16V16Z" fill="#D0CCC0"/>
<path d="M17 16H16V17H17V16Z" fill="#081018"/>
<path d="M21 16H17V17H21V16Z" fill="#881020"/>
<path d="M22 16H21V17H22V16Z" fill="#081018"/>
<path d="M4 17H3V18H4V17Z" fill="#081018"/>
<path d="M8 17H4V18H8V17Z" fill="#881020"/>
<path d="M9 17H8V18H9V17Z" fill="#081018"/>
<path d="M15 17H9V18H15V17Z" fill="#D0CCC0"/>
<path d="M16 17H15V18H16V17Z" fill="#081018"/>
<path d="M20 17H16V18H20V17Z" fill="#881020"/>
<path d="M21 17H20V18H21V17Z" fill="#081018"/>
<path d="M5 18H4V19H5V18Z" fill="#081018"/>
<path d="M9 18H5V19H9V18Z" fill="#881020"/>
<path d="M15 18H9V19H15V18Z" fill="#081018"/>
<path d="M19 18H15V19H19V18Z" fill="#881020"/>
<path d="M20 18H19V19H20V18Z" fill="#081018"/>
<path d="M6 19H5V20H6V19Z" fill="#081018"/>
<path d="M17 19H6V20H17V19Z" fill="#881020"/>
<path d="M18 19H17V20H18V19Z" fill="#081018"/>
<path d="M8 20H6V21H8V20Z" fill="#081018"/>
<path d="M15 20H8V21H15V20Z" fill="#881020"/>
<path d="M17 20H15V21H17V20Z" fill="#081018"/>
<path d="M16 21H8V22H16V21Z" fill="#081018"/>
</svg>
