<svg width="24" height="24" viewBox="0 0 24 24" fill="none" xmlns="http://www.w3.org/2000/svg">
<path d="M18 2H6V3H18V2Z" fill="#080818"/>
<path d="M7 3H6V4H7V3Z" fill="#080818"/>
<path d="M10 3H7V4H10V3Z" fill="#F0ECE0"/>
<path d="M14 3H10V4H14V3Z" fill="#E0DCD0"/>
<path d="M17 3H14V4H17V3Z" fill="#D0CCC0"/>
<path d="M18 3H17V4H18V3Z" fill="#080818"/>
<path d="M7 4H5V5H7V4Z" fill="#080818"/>
<path d="M8 4H7V5H8V4Z" fill="#F0ECE0"/>
<path d="M11 4H8V5H11V4Z" fill="#E0DCD0"/>
<path d="M15 4H11V5H15V4Z" fill="#D0CCC0"/>
<path d="M17 4H15V5H17V4Z" fill="#B8B4A8"/>
<path d="M18 4H17V5H18V4Z" fill="#080818"/>
<path d="M6 5H5V6H6V5Z" fill="#080818"/>
<path d="M8 5H6V6H8V5Z" fill="#F0ECE0"/>
<path d="M10 5H8V6H10V5Z" fill="#E0DCD0"/>
<path d="M11 5H10V6H11V5Z" fill="#2878D0"/>
<path d="M12 5H11V6H12V5Z" fill="#48A0F0"/>
<path d="M13 5H12V6H13V5Z" fill="#2878D0"/>
<path d="M15 5H13V6H15V5Z" fill="#D0CCC0"/>
<path d="M17 5H15V6H17V5Z" fill="#B8B4A8"/>
<path d="M19 5H17V6H19V5Z" fill="#080818"/>
<path d="M6 6H4V7H6V6Z" fill="#080818"/>
<path d="M7 6H6V7H7V6Z" fill="#F0ECE0"/>
<path d="M10 6H7V7H10V6Z" fill="#E0DCD0"/>
<path d="M14 6H10V7H14V6Z" fill="#D0CCC0"/>
<path d="M17 6H14V7H17V6Z" fill="#B8B4A8"/>
<path d="M18 6H17V7H18V6Z" fill="#080818"/>
<path d="M19 6H18V7H19V6Z" fill="#B8B4A8"/>
<path d="M20 6H19V7H20V6Z" fill="#080818"/>
<path d="M5 7H4V8H5V7Z" fill="#080818"/>
<path d="M7 7H5V8H7V7Z" fill="#F0ECE0"/>
<path d="M8 7H7V8H8V7Z" fill="#E0DCD0"/>
<path d="M9 7H8V8H9V7Z" fill="#2878D0"/>
<path d="M10 7H9V8H10V7Z" fill="#48A0F0"/>
<path d="M11 7H10V8H11V7Z" fill="#2878D0"/>
<path d="M13 7H11V8H13V7Z" fill="#D0CCC0"/>
<path d="M16 7H13V8H16V7Z" fill="#B8B4A8"/>
<path d="M17 7H16V8H17V7Z" fill="#A0988C"/>
<path d="M18 7H17V8H18V7Z" fill="#080818"/>
<path d="M19 7H18V8H19V7Z" fill="#A0988C"/>
<path d="M20 7H19V8H20V7Z" fill="#080818"/>
<path d="M5 8H4V9H5V8Z" fill="#080818"/>
<path d="M6 8H5V9H6V8Z" fill="#F0ECE0"/>
<path d="M8 8H6V9H8V8Z" fill="#E0DCD0"/>
<path d="M12 8H8V9H12V8Z" fill="#D0CCC0"/>
<path d="M15 8H12V9H15V8Z" fill="#B8B4A8"/>
<path d="M17 8H15V9H17V8Z" fill="#A0988C"/>
<path d="M18 8H17V9H18V8Z" fill="#080818"/>
<path d="M19 8H18V9H19V8Z" fill="#A0988C"/>
<path d="M20 8H19V9H20V8Z" fill="#080818"/>
<path d="M5 9H4V10H5V9Z" fill="#080818"/>
<path d="M8 9H5V10H8V9Z" fill="#E0DCD0"/>
<path d="M11 9H8V10H11V9Z" fill="#D0CCC0"/>
<path d="M14 9H11V10H14V9Z" fill="#B8B4A8"/>
<path d="M17 9H14V10H17V9Z" fill="#A0988C"/>
<path d="M18 9H17V10H18V9Z" fill="#080818"/>
<path d="M19 9H18V10H19V9Z" fill="#A0988C"/>
<path d="M20 9H19V10H20V9Z" fill="#080818"/>
<path d="M5 10H4V11H5V10Z" fill="#080818"/>
<path d="M7 10H5V11H7V10Z" fill="#E0DCD0"/>
<path d="M8 10H7V11H8V10Z" fill="#2878D0"/>
<path d="M9 10H8V11H9V10Z" fill="#48A0F0"/>
<path d="M10 10H9V11H10V10Z" fill="#2878D0"/>
<path d="M11 10H10V11H11V10Z" fill="#D0CCC0"/>
<path d="M13 10H11V11H13V10Z" fill="#B8B4A8"/>
<path d="M17 10H13V11H17V10Z" fill="#A0988C"/>
<path d="M18 10H17V11H18V10Z" fill="#080818"/>
<path d="M19 10H18V11H19V10Z" fill="#A0988C"/>
<path d="M20 10H19V11H20V10Z" fill="#080818"/>
<path d="M5 11H4V12H5V11Z" fill="#080818"/>
<path d="M6 11H5V12H6V11Z" fill="#E0DCD0"/>
<path d="M10 11H6V12H10V11Z" fill="#D0CCC0"/>
<path d="M13 11H10V12H13V11Z" fill="#B8B4A8"/>
<path d="M17 11H13V12H17V11Z" fill="#A0988C"/>
<path d="M18 11H17V12H18V11Z" fill="#080818"/>
<path d="M19 11H18V12H19V11Z" fill="#A0988C"/>
<path d="M20 11H19V12H20V11Z" fill="#080818"/>
<path d="M5 12H4V13H5V12Z" fill="#080818"/>
<path d="M9 12H5V13H9V12Z" fill="#D0CCC0"/>
<path d="M12 12H9V13H12V12Z" fill="#B8B4A8"/>
<path d="M17 12H12V13H17V12Z" fill="#A0988C"/>
<path d="M18 12H17V13H18V12Z" fill="#080818"/>
<path d="M19 12H18V13H19V12Z" fill="#A0988C"/>
<path d="M20 12H19V13H20V12Z" fill="#080818"/>
<path d="M5 13H4V14H5V13Z" fill="#080818"/>
<path d="M8 13H5V14H8V13Z" fill="#D0CCC0"/>
<path d="M11 13H8V14H11V13Z" fill="#B8B4A8"/>
<path d="M17 13H11V14H17V13Z" fill="#A0988C"/>
<path d="M18 13H17V14H18V13Z" fill="#080818"/>
<path d="M19 13H18V14H19V13Z" fill="#A0988C"/>
<path d="M20 13H19V14H20V13Z" fill="#080818"/>
<path d="M5 14H4V15H5V14Z" fill="#080818"/>
<path d="M6 14H5V15H6V14Z" fill="#D0CCC0"/>
<path d="M7 14H6V15H7V14Z" fill="#B8B4A8"/>
<path d="M8 14H7V15H8V14Z" fill="#2878D0"/>
<path d="M9 14H8V15H9V14Z" fill="#48A0F0"/>
<path d="M10 14H9V15H10V14Z" fill="#2878D0"/>
<path d="M11 14H10V15H11V14Z" fill="#B8B4A8"/>
<path d="M17 14H11V15H17V14Z" fill="#A0988C"/>
<path d="M18 14H17V15H18V14Z" fill="#080818"/>
<path d="M19 14H18V15H19V14Z" fill="#A0988C"/>
<path d="M20 14H19V15H20V14Z" fill="#080818"/>
<path d="M5 15H4V16H5V15Z" fill="#080818"/>
<path d="M9 15H5V16H9V15Z" fill="#B8B4A8"/>
<path d="M17 15H9V16H17V15Z" fill="#A0988C"/>
<path d="M18 15H17V16H18V15Z" fill="#080818"/>
<path d="M19 15H18V16H19V15Z" fill="#A0988C"/>
<path d="M20 15H19V16H20V15Z" fill="#080818"/>
<path d="M5 16H4V17H5V16Z" fill="#080818"/>
<path d="M7 16H5V17H7V16Z" fill="#B8B4A8"/>
<path d="M17 16H7V17H17V16Z" fill="#A0988C"/>
<path d="M18 16H17V17H18V16Z" fill="#080818"/>
<path d="M19 16H18V17H19V16Z" fill="#A0988C"/>
<path d="M20 16H19V17H20V16Z" fill="#080818"/>
<path d="M5 17H4V18H5V17Z" fill="#080818"/>
<path d="M19 17H5V18H19V17Z" fill="#A0988C"/>
<path d="M20 17H19V18H20V17Z" fill="#080818"/>
<path d="M5 18H4V19H5V18Z" fill="#080818"/>
<path d="M19 18H5V19H19V18Z" fill="#A0988C"/>
<path d="M20 18H19V19H20V18Z" fill="#080818"/>
<path d="M19 19H5V20H19V19Z" fill="#080818"/>
</svg>
