<svg width="32" height="32" viewBox="0 0 32 32" fill="none" xmlns="http://www.w3.org/2000/svg">
<rect x="26.5" y="29.5" width="1" height="1" fill="#730E00"/>
<rect x="27.5" y="29.5" width="1" height="1" fill="#730E00"/>
<rect x="28.5" y="28.5" width="1" height="1" fill="#FF0700"/>
<rect x="28.5" y="29.5" width="1" height="1" fill="#730E00"/>
<rect x="27.5" y="28.5" width="1" height="1" fill="#AA0E03"/>
<rect x="26.5" y="28.5" width="1" height="1" fill="#AA0E03"/>
<rect x="27.5" y="27.5" width="1" height="1" fill="#FF0700"/>
<rect x="26.5" y="27.5" width="1" height="1" fill="#AA0E03"/>
<rect x="25.5" y="27.5" width="1" height="1" fill="#AA0E03"/>
<rect x="27.5" y="26.5" width="1" height="1" fill="#FF0700"/>
<rect x="26.5" y="26.5" width="1" height="1" fill="#FF0700"/>
<rect x="25.5" y="26.5" width="1" height="1" fill="#730E00"/>
<rect x="23.5" y="24.5" width="1" height="1" fill="#730E00"/>
<rect x="23.5" y="23.5" width="1" height="1" fill="#3E0800"/>
<rect x="23.5" y="22.5" width="1" height="1" fill="#AA0E03"/>
<rect x="24.5" y="22.5" width="1" height="1" fill="#3E0800"/>
<rect x="23.5" y="21.5" width="1" height="1" fill="#AA0E03"/>
<rect x="24.5" y="21.5" width="1" height="1" fill="#3E0800"/>
<rect x="24.5" y="23.5" width="1" height="1" fill="#730E00"/>
<rect x="25.5" y="22.5" width="1" height="1" fill="#730E00"/>
<rect x="25.5" y="21.5" width="1" height="1" fill="#730E00"/>
<rect x="21.5" y="26.5" width="1" height="1" fill="#730E00"/>
<rect x="20.5" y="26.5" width="1" height="1" fill="#3E0800"/>
<rect x="19.5" y="26.5" width="1" height="1" fill="#3E0800"/>
<rect x="18.5" y="26.5" width="1" height="1" fill="#3E0800"/>
<rect x="17.5" y="26.5" width="1" height="1" fill="#3E0800"/>
<rect x="16.5" y="26.5" width="1" height="1" fill="#3E0800"/>
<rect x="15.5" y="26.5" width="1" height="1" fill="#3E0800"/>
<rect x="14.5" y="26.5" width="1" height="1" fill="#3E0800"/>
<rect x="13.5" y="26.5" width="1" height="1" fill="#3E0800"/>
<rect x="12.5" y="26.5" width="1" height="1" fill="#3E0800"/>
<rect x="11.5" y="26.5" width="1" height="1" fill="#3E0800"/>
<rect x="10.5" y="26.5" width="1" height="1" fill="#3E0800"/>
<rect x="9.5" y="26.5" width="1" height="1" fill="#3E0800"/>
<rect x="8.5" y="26.5" width="1" height="1" fill="#3E0800"/>
<rect width="1" height="1" transform="matrix(-1 0 0 1 30.5 25.5)" fill="#730E00"/>
<rect x="7.5" y="26.5" width="1" height="1" fill="#3E0800"/>
<rect width="1" height="1" transform="matrix(-1 0 0 1 31.5 25.5)" fill="#FF0700"/>
<rect x="7.5" y="27.5" width="1" height="1" fill="#AA0E03"/>
<rect x="6.5" y="27.5" width="1" height="1" fill="#3E0800"/>
<rect x="6.49402" y="26.506" width="1" height="1" transform="rotate(-0.687262 6.49402 26.506)" fill="#3E0800"/>
<rect width="1" height="1" transform="matrix(-1 0 0 1 31.5 26.5)" fill="#AA0E03"/>
<rect x="5.5" y="27.5" width="1" height="1" fill="#3E0800"/>
<rect width="1" height="1" transform="matrix(-1 0 0 1 32.5 26.5)" fill="#FF0700"/>
<rect x="7.5" y="25.5" width="1" height="1" fill="#3E0800"/>
<rect width="1" height="1" transform="matrix(-1 0 0 1 31.5 24.5)" fill="#FF0700"/>
<rect x="8.5" y="25.5" width="1" height="1" fill="#AA0E03"/>
<rect width="1" height="1" transform="matrix(-1 0 0 1 30.5 24.5)" fill="#FF0700"/>
<rect width="1" height="1" transform="matrix(-1 0 0 1 29.5 24.5)" fill="#730E00"/>
<rect width="1" height="1" transform="matrix(-1 0 0 1 28.5 24.5)" fill="#730E00"/>
<rect width="1" height="1" transform="matrix(-1 0 0 1 27.5 24.5)" fill="#3E0800"/>
<rect width="1" height="1" transform="matrix(-1 0 0 1 28.5 23.5)" fill="#3E0800"/>
<rect width="1" height="1" transform="matrix(-1 0 0 1 29.5 23.5)" fill="#3E0800"/>
<rect width="1" height="1" transform="matrix(-1 0 0 1 28.5 22.5)" fill="#3E0800"/>
<rect width="1" height="1" transform="matrix(-1 0 0 1 29.5 22.5)" fill="#3E0800"/>
<rect width="1" height="1" transform="matrix(-1 0 0 1 30.5 22.5)" fill="#730E00"/>
<rect width="1" height="1" transform="matrix(-1 0 0 1 31.5 22.5)" fill="#730E00"/>
<rect width="1" height="1" transform="matrix(-1 0 0 1 32.5 22.5)" fill="#730E00"/>
<rect x="-0.5" y="24.5" width="1" height="1" fill="#AA0E03"/>
<rect x="-0.5" y="25.5" width="1" height="1" fill="#AA0E03"/>
<rect x="25.5" y="25.5" width="1" height="1" fill="#730E00"/>
<rect x="26.5" y="25.5" width="1" height="1" fill="#3E0800"/>
<rect x="25.5" y="24.5" width="1" height="1" fill="#730E00"/>
<rect x="26.5" y="23.5" width="1" height="1" fill="#3E0800"/>
<rect x="26.5" y="22.5" width="1" height="1" fill="#3E0800"/>
<rect x="26.5" y="21.5" width="1" height="1" fill="#3E0800"/>
<rect x="25.5" y="20.5" width="1" height="1" fill="#3E0800"/>
<rect x="25.5" y="19.5" width="1" height="1" fill="#AA0E03"/>
<rect x="25.5" y="18.5" width="1" height="1" fill="#AA0E03"/>
<rect x="25.5" y="17.5" width="1" height="1" fill="#AA0E03"/>
<rect x="25.5" y="16.5" width="1" height="1" fill="#AA0E03"/>
<rect x="19.5" y="12.5" width="1" height="1" fill="#3E0800"/>
<rect x="11.5" y="12.5" width="1" height="1" fill="#3E0800"/>
<rect x="18.5" y="12.5" width="1" height="1" fill="#3E0800"/>
<rect x="10.5" y="12.5" width="1" height="1" fill="#3E0800"/>
<rect x="17.5" y="12.5" width="1" height="1" fill="#3E0800"/>
<rect x="26.5" y="16.5" width="1" height="1" fill="#730E00"/>
<rect width="1" height="1" transform="matrix(-1 0 0 1 3.5 14.5)" fill="#FF514C"/>
<rect x="26.5" y="17.5" width="1" height="1" fill="#730E00"/>
<rect width="1" height="1" transform="matrix(-1 0 0 1 3.5 15.5)" fill="#FF0700"/>
<rect x="26.5" y="18.5" width="1" height="1" fill="#730E00"/>
<rect width="1" height="1" transform="matrix(-1 0 0 1 3.5 16.5)" fill="#FF0700"/>
<rect width="1" height="1" transform="matrix(-1 0 0 1 2.5 15.5)" fill="#FF0700"/>
<rect x="27.5" y="16.5" width="1" height="1" fill="#730E00"/>
<rect width="1" height="1" transform="matrix(-1 0 0 1 2.5 14.5)" fill="#FF0700"/>
<rect x="27.5" y="15.5" width="1" height="1" fill="#FF0700"/>
<rect width="1" height="1" transform="matrix(-1 0 0 1 2.5 13.5)" fill="#FF514C"/>
<rect x="26.5" y="15.5" width="1" height="1" fill="#FF0700"/>
<rect width="1" height="1" transform="matrix(-1 0 0 1 4.5 15.5)" fill="#FF0700"/>
<rect width="1" height="1" transform="matrix(-1 0 0 1 4.5 14.5)" fill="#FF514C"/>
<rect x="25.5" y="15.5" width="1" height="1" fill="#FF0700"/>
<rect x="24.5" y="15.5" width="1" height="1" fill="#FF0700"/>
<rect x="23.5" y="14.5" width="1" height="1" fill="#FF0700"/>
<rect x="22.5" y="14.5" width="1" height="1" fill="#FF0700"/>
<rect x="21.5" y="14.5" width="1" height="1" fill="#FF0700"/>
<rect x="20.5" y="14.5" width="1" height="1" fill="#FF0700"/>
<rect x="19.5" y="14.5" width="1" height="1" fill="#FF0700"/>
<rect x="18.5" y="14.5" width="1" height="1" fill="#FF0700"/>
<rect x="17.5" y="14.5" width="1" height="1" fill="#FF0700"/>
<rect x="16.5" y="14.5" width="1" height="1" fill="#FF0700"/>
<rect x="15.5" y="14.5" width="1" height="1" fill="#FF0700"/>
<rect x="14.5" y="14.5" width="1" height="1" fill="#FF0700"/>
<rect x="13.5" y="14.5" width="1" height="1" fill="#FF0700"/>
<rect x="12.5" y="14.5" width="1" height="1" fill="#FF0700"/>
<rect x="11.5" y="14.5" width="1" height="1" fill="#FF0700"/>
<rect x="10.5" y="14.5" width="1" height="1" fill="#FF0700"/>
<rect x="9.5" y="14.5" width="1" height="1" fill="#FF0700"/>
<rect x="8.5" y="14.5" width="1" height="1" fill="#FF0700"/>
<rect x="7.5" y="14.5" width="1" height="1" fill="#FF0700"/>
<rect x="5.5" y="16.5" width="1" height="1" fill="#AA0E03"/>
<rect x="5.5" y="18.5" width="1" height="1" fill="#AA0E03"/>
<rect x="5.5" y="20.5" width="1" height="1" fill="#AA0E03"/>
<rect x="5.5" y="22.5" width="1" height="1" fill="#AA0E03"/>
<rect x="5.5" y="23.5" width="1" height="1" fill="#3E0800"/>
<rect x="3.5" y="22.5" width="1" height="1" fill="#3E0800"/>
<rect x="1.5" y="22.5" width="1" height="1" fill="#AA0E03"/>
<rect x="8.5" y="24.5" width="1" height="1" fill="#AA0E03"/>
<rect x="6.5" y="14.5" width="1" height="1" fill="#FF0700"/>
<rect x="4.5" y="16.5" width="1" height="1" fill="#FF0700"/>
<rect x="4.5" y="18.5" width="1" height="1" fill="#AA0E03"/>
<rect x="4.5" y="20.5" width="1" height="1" fill="#AA0E03"/>
<rect x="4.5" y="22.5" width="1" height="1" fill="#AA0E03"/>
<rect x="4.5" y="23.5" width="1" height="1" fill="#3E0800"/>
<rect x="4.5" y="24.5" width="1" height="1" fill="#AA0E03"/>
<rect x="2.5" y="22.5" width="1" height="1" fill="#AA0E03"/>
<rect x="0.5" y="22.5" width="1" height="1" fill="#AA0E03"/>
<rect x="3.5" y="23.5" width="1" height="1" fill="#3E0800"/>
<rect x="3.5" y="24.5" width="1" height="1" fill="#3E0800"/>
<rect x="3.5" y="25.5" width="1" height="1" fill="#AA0E03"/>
<rect x="2.5" y="26.5" width="1" height="1" fill="#AA0E03"/>
<rect x="2.5" y="24.5" width="1" height="1" fill="#3E0800"/>
<rect x="2.5" y="25.5" width="1" height="1" fill="#AA0E03"/>
<rect x="1.5" y="26.5" width="1" height="1" fill="#FF0700"/>
<rect x="5.5" y="28.5" width="1" height="1" fill="#FF0700"/>
<rect x="6.5" y="28.5" width="1" height="1" fill="#AA0E03"/>
<rect width="1" height="1" transform="matrix(-1 0 0 1 32.5 27.5)" fill="#FF0700"/>
<rect x="1.5" y="27.5" width="1" height="1" fill="#FF0700"/>
<rect x="1.5" y="28.5" width="1" height="1" fill="#AA0E03"/>
<rect x="1.5" y="29.5" width="1" height="1" fill="#AA0E03"/>
<rect x="0.5" y="26.5" width="1" height="1" fill="#FF0700"/>
<rect x="4.5" y="28.5" width="1" height="1" fill="#FF0700"/>
<rect x="4.5" y="27.5" width="1" height="1" fill="#FF0700"/>
<rect x="4.5" y="29.5" width="1" height="1" fill="#FF0700"/>
<rect x="4.5" y="30.5" width="1" height="1" fill="#AA0E03"/>
<rect x="5.5" y="29.5" width="1" height="1" fill="#FF0700"/>
<rect x="6.5" y="29.5" width="1" height="1" fill="#AA0E03"/>
<rect width="1" height="1" transform="matrix(-1 0 0 1 32.5 28.5)" fill="#FF0700"/>
<rect x="5.5" y="30.5" width="1" height="1" fill="#AA0E03"/>
<rect width="1" height="1" transform="matrix(-1 0 0 1 32.5 29.5)" fill="#AA0E03"/>
<rect x="0.5" y="27.5" width="1" height="1" fill="#FF0700"/>
<rect x="0.5" y="28.5" width="1" height="1" fill="#FF0700"/>
<rect x="0.5" y="29.5" width="1" height="1" fill="#AA0E03"/>
<rect x="-0.5" y="21.5" width="1" height="1" fill="#FF0700"/>
<rect x="1.5" y="21.5" width="1" height="1" fill="#3E0800"/>
<rect x="3.5" y="21.5" width="1" height="1" fill="#3E0800"/>
<rect x="3.5" y="20.5" width="1" height="1" fill="#3E0800"/>
<rect x="3.5" y="19.5" width="1" height="1" fill="#AA0E03"/>
<rect x="3.5" y="18.5" width="1" height="1" fill="#AA0E03"/>
<rect x="3.5" y="17.5" width="1" height="1" fill="#AA0E03"/>
<rect x="3.5" y="16.5" width="1" height="1" fill="#FF0700"/>
<rect x="0.5" y="21.5" width="1" height="1" fill="#FF0700"/>
<rect x="2.5" y="21.5" width="1" height="1" fill="#3E0800"/>
<rect x="7.5" y="24.5" width="1" height="1" fill="#AA0E03"/>
<rect x="22.5" y="13.5" width="1" height="1" fill="#FF514C"/>
<rect x="21.5" y="13.5" width="1" height="1" fill="#FF514C"/>
<rect x="20.5" y="13.5" width="1" height="1" fill="#FF514C"/>
<rect x="19.5" y="13.5" width="1" height="1" fill="#FF514C"/>
<rect x="18.5" y="13.5" width="1" height="1" fill="#FF514C"/>
<rect x="17.5" y="13.5" width="1" height="1" fill="#FF514C"/>
<rect x="16.5" y="13.5" width="1" height="1" fill="#FF514C"/>
<rect x="15.5" y="13.5" width="1" height="1" fill="#FF514C"/>
<rect x="14.5" y="13.5" width="1" height="1" fill="#FF514C"/>
<rect x="13.5" y="13.5" width="1" height="1" fill="#FF514C"/>
<rect x="12.5" y="13.5" width="1" height="1" fill="#FF514C"/>
<rect x="11.5" y="13.5" width="1" height="1" fill="#FF514C"/>
<rect x="10.5" y="13.5" width="1" height="1" fill="#FF514C"/>
<rect x="9.5" y="13.5" width="1" height="1" fill="#FF514C"/>
<rect x="8.5" y="13.5" width="1" height="1" fill="#FF514C"/>
<rect x="7.5" y="13.5" width="1" height="1" fill="#FF514C"/>
<rect x="5.5" y="15.5" width="1" height="1" fill="#FF0700"/>
<rect x="5.5" y="14.5" width="1" height="1" fill="#FF514C"/>
<rect x="5.5" y="17.5" width="1" height="1" fill="#AA0E03"/>
<rect x="5.5" y="19.5" width="1" height="1" fill="#AA0E03"/>
<rect x="5.5" y="21.5" width="1" height="1" fill="#AA0E03"/>
<rect x="6.5" y="13.5" width="1" height="1" fill="#FF514C"/>
<rect x="4.5" y="15.5" width="1" height="1" fill="#FF0700"/>
<rect x="4.5" y="14.5" width="1" height="1" fill="#FF514C"/>
<rect x="4.5" y="17.5" width="1" height="1" fill="#AA0E03"/>
<rect x="4.5" y="19.5" width="1" height="1" fill="#AA0E03"/>
<rect x="4.5" y="21.5" width="1" height="1" fill="#AA0E03"/>
<rect x="24.5" y="16.5" width="1" height="1" fill="#AA0E03"/>
<rect x="24.5" y="17.5" width="1" height="1" fill="#AA0E03"/>
<rect x="24.5" y="18.5" width="1" height="1" fill="#AA0E03"/>
<rect x="18.5" y="18.5" width="1" height="1" fill="#AA0E03"/>
<rect x="15.5" y="18.5" width="1" height="1" fill="#AA0E03"/>
<rect x="17.5" y="18.5" width="1" height="1" fill="#AA0E03"/>
<rect x="14.5" y="18.5" width="1" height="1" fill="#FF0700"/>
<rect x="16.5" y="18.5" width="1" height="1" fill="#AA0E03"/>
<rect x="16.5" y="19.5" width="1" height="1" fill="#AA0E03"/>
<rect x="16.5" y="20.5" width="1" height="1" fill="#AA0E03"/>
<rect x="17.5" y="20.5" width="1" height="1" fill="#AA0E03"/>
<rect x="17.5" y="19.5" width="1" height="1" fill="#AA0E03"/>
<rect x="24.5" y="19.5" width="1" height="1" fill="#AA0E03"/>
<rect x="24.5" y="20.5" width="1" height="1" fill="#AA0E03"/>
<rect x="23.5" y="16.5" width="1" height="1" fill="#AA0E03"/>
<rect x="23.5" y="17.5" width="1" height="1" fill="#AA0E03"/>
<rect x="23.5" y="18.5" width="1" height="1" fill="#AA0E03"/>
<rect x="23.5" y="19.5" width="1" height="1" fill="#AA0E03"/>
<rect x="23.5" y="20.5" width="1" height="1" fill="#AA0E03"/>
<rect width="1" height="1" transform="matrix(-1 0 0 1 1.5 15.5)" fill="#FF0700"/>
<rect x="28.5" y="16.5" width="1" height="1" fill="#730E00"/>
<rect width="1" height="1" transform="matrix(-1 0 0 1 1.5 14.5)" fill="#FF0700"/>
<rect x="28.5" y="15.5" width="1" height="1" fill="#FF0700"/>
<rect width="1" height="1" transform="matrix(-1 0 0 1 1.5 13.5)" fill="#FF514C"/>
<rect width="1" height="1" transform="matrix(-1 0 0 1 0.5 15.5)" fill="#730E00"/>
<rect x="29.5" y="16.5" width="1" height="1" fill="#730E00"/>
<rect width="1" height="1" transform="matrix(-1 0 0 1 0.5 14.5)" fill="#FF0700"/>
<rect x="29.5" y="15.5" width="1" height="1" fill="#FF0700"/>
<rect width="1" height="1" transform="matrix(-1 0 0 1 0.5 13.5)" fill="#FF0700"/>
<rect width="1" height="1" transform="matrix(-1 0 0 1 0.5 12.5)" fill="#FF0700"/>
<rect x="30.5" y="15.5" width="1" height="1" fill="#730E00"/>
<rect x="30.5" y="14.5" width="1" height="1" fill="#FF0700"/>
<rect x="30.5" y="13.5" width="1" height="1" fill="#FF0700"/>
<rect x="30.5" y="12.5" width="1" height="1" fill="#FF0700"/>
<rect x="30.5" y="11.5" width="1" height="1" fill="#FF0700"/>
<rect x="30.5" y="10.5" width="1" height="1" fill="#FF0700"/>
<rect x="29.5" y="14.5" width="1" height="1" fill="#FF0700"/>
<rect x="29.5" y="13.5" width="1" height="1" fill="#FF0700"/>
<rect x="29.5" y="12.5" width="1" height="1" fill="#FF0700"/>
<rect x="29.5" y="11.5" width="1" height="1" fill="#FF0700"/>
<rect x="28.5" y="10.5" width="1" height="1" fill="#FF0700"/>
<rect width="1" height="1" transform="matrix(-1 0 0 1 0.5 8.5)" fill="#AA0E03"/>
<rect x="27.5" y="10.5" width="1" height="1" fill="#FF0700"/>
<rect width="1" height="1" transform="matrix(-1 0 0 1 1.5 8.5)" fill="#FF0700"/>
<rect x="26.5" y="10.5" width="1" height="1" fill="#FF0700"/>
<rect width="1" height="1" transform="matrix(-1 0 0 1 2.5 8.5)" fill="#FF0700"/>
<rect x="25.5" y="10.5" width="1" height="1" fill="#FF514C"/>
<rect width="1" height="1" transform="matrix(-1 0 0 1 3.5 8.5)" fill="#FF514C"/>
<rect x="26.5" y="11.5" width="1" height="1" fill="#AA0E03"/>
<rect width="1" height="1" transform="matrix(-1 0 0 1 2.5 9.5)" fill="#FF514C"/>
<rect x="27.5" y="11.5" width="1" height="1" fill="#FF0700"/>
<rect width="1" height="1" transform="matrix(-1 0 0 1 1.5 9.5)" fill="#FF0700"/>
<rect x="27.5" y="12.5" width="1" height="1" fill="#AA0E03"/>
<rect width="1" height="1" transform="matrix(-1 0 0 1 1.5 10.5)" fill="#FF0700"/>
<rect x="28.5" y="11.5" width="1" height="1" fill="#FF0700"/>
<rect width="1" height="1" transform="matrix(-1 0 0 1 0.5 9.5)" fill="#FF0700"/>
<rect x="28.5" y="12.5" width="1" height="1" fill="#FF0700"/>
<rect width="1" height="1" transform="matrix(-1 0 0 1 0.5 10.5)" fill="#FF0700"/>
<rect x="28.5" y="13.5" width="1" height="1" fill="#AA0E03"/>
<rect width="1" height="1" transform="matrix(-1 0 0 1 0.5 11.5)" fill="#FF0700"/>
<rect x="25.5" y="8.5" width="1" height="1" fill="#FF514C"/>
<rect width="1" height="1" transform="matrix(-1 0 0 1 3.5 6.5)" fill="#FF514C"/>
<rect x="25.5" y="6.5" width="1" height="1" fill="#FF514C"/>
<rect width="1" height="1" transform="matrix(-1 0 0 1 3.5 4.5)" fill="#FF514C"/>
<rect x="26.5" y="5.5" width="1" height="1" fill="#FF0700"/>
<rect width="1" height="1" transform="matrix(-1 0 0 1 2.5 3.5)" fill="#FF0700"/>
<rect x="27.5" y="5.5" width="1" height="1" fill="#AA0E03"/>
<rect width="1" height="1" transform="matrix(-1 0 0 1 1.5 3.5)" fill="#AA0E03"/>
<rect x="28.5" y="6.5" width="1" height="1" fill="#AA0E03"/>
<rect x="29.5" y="10.5" width="1" height="1" fill="#FF0700"/>
<rect x="28.5" y="9.5" width="1" height="1" fill="#FF0700"/>
<rect width="1" height="1" transform="matrix(-1 0 0 1 0.5 7.5)" fill="#AA0E03"/>
<rect x="27.5" y="9.5" width="1" height="1" fill="#FF0700"/>
<rect width="1" height="1" transform="matrix(-1 0 0 1 1.5 7.5)" fill="#AA0E03"/>
<rect x="26.5" y="9.5" width="1" height="1" fill="#FF0700"/>
<rect width="1" height="1" transform="matrix(-1 0 0 1 2.5 7.5)" fill="#FF0700"/>
<rect x="26.5" y="8.5" width="1" height="1" fill="#FF0700"/>
<rect width="1" height="1" transform="matrix(-1 0 0 1 2.5 6.5)" fill="#FF0700"/>
<rect width="1" height="1" transform="matrix(-1 0 0 1 0.5 22.5)" fill="#FF0700"/>
<rect width="1" height="1" transform="matrix(-1 0 0 1 0.5 23.5)" fill="#FF0700"/>
<rect x="26.5" y="7.5" width="1" height="1" fill="#FF0700"/>
<rect width="1" height="1" transform="matrix(-1 0 0 1 2.5 5.5)" fill="#FF0700"/>
<rect x="27.5" y="8.5" width="1" height="1" fill="#FF0700"/>
<rect width="1" height="1" transform="matrix(-1 0 0 1 1.5 6.5)" fill="#AA0E03"/>
<rect x="31.5" y="9.5" width="1" height="1" fill="#FF0700"/>
<rect x="30.5" y="9.5" width="1" height="1" fill="#FF0700"/>
<rect x="29.5" y="9.5" width="1" height="1" fill="#FF0700"/>
<rect x="28.5" y="8.5" width="1" height="1" fill="#FF0700"/>
<rect x="23.5" y="15.5" width="1" height="1" fill="#FF0700"/>
<rect x="20.5" y="15.5" width="1" height="1" fill="#FF0700"/>
<rect x="20.5" y="16.5" width="1" height="1" fill="#FF0700"/>
<rect x="20.5" y="17.5" width="1" height="1" fill="#FF0700"/>
<rect x="20.5" y="18.5" width="1" height="1" fill="#FF0700"/>
<rect x="20.5" y="19.5" width="1" height="1" fill="#FF0700"/>
<rect x="20.5" y="20.5" width="1" height="1" fill="#FF0700"/>
<rect x="20.5" y="21.5" width="1" height="1" fill="#FF0700"/>
<rect x="20.5" y="22.5" width="1" height="1" fill="#FF0700"/>
<rect x="20.5" y="23.5" width="1" height="1" fill="#FF0700"/>
<rect x="20.5" y="24.5" width="1" height="1" fill="#FF0700"/>
<rect x="20.5" y="25.5" width="1" height="1" fill="#AA0E03"/>
<rect x="18.5" y="15.5" width="1" height="1" fill="#FF0700"/>
<rect x="18.5" y="16.5" width="1" height="1" fill="#AA0E03"/>
<rect x="18.5" y="17.5" width="1" height="1" fill="#FF0700"/>
<rect x="16.5" y="15.5" width="1" height="1" fill="#FF0700"/>
<rect x="16.5" y="16.5" width="1" height="1" fill="#AA0E03"/>
<rect x="16.5" y="17.5" width="1" height="1" fill="#FF0700"/>
<rect x="14.5" y="15.5" width="1" height="1" fill="#FF0700"/>
<rect x="14.5" y="16.5" width="1" height="1" fill="#FF0700"/>
<rect x="14.5" y="17.5" width="1" height="1" fill="#FF0700"/>
<rect x="12.5" y="15.5" width="1" height="1" fill="#FF0700"/>
<rect x="12.5" y="16.5" width="1" height="1" fill="#FF0700"/>
<rect x="12.5" y="17.5" width="1" height="1" fill="#FF0700"/>
<rect x="12.5" y="18.5" width="1" height="1" fill="#FF0700"/>
<rect x="12.5" y="19.5" width="1" height="1" fill="#FF0700"/>
<rect x="12.5" y="20.5" width="1" height="1" fill="#FF0700"/>
<rect x="10.5" y="15.5" width="1" height="1" fill="#FF0700"/>
<rect x="10.5" y="16.5" width="1" height="1" fill="#FF0700"/>
<rect x="10.5" y="17.5" width="1" height="1" fill="#FF0700"/>
<rect x="10.5" y="18.5" width="1" height="1" fill="#FF0700"/>
<rect x="10.5" y="19.5" width="1" height="1" fill="#FF0700"/>
<rect x="10.5" y="20.5" width="1" height="1" fill="#FF0700"/>
<rect x="8.5" y="15.5" width="1" height="1" fill="#FF0700"/>
<rect x="8.5" y="16.5" width="1" height="1" fill="#FF0700"/>
<rect x="8.5" y="17.5" width="1" height="1" fill="#FF0700"/>
<rect x="8.5" y="18.5" width="1" height="1" fill="#FF0700"/>
<rect x="8.5" y="19.5" width="1" height="1" fill="#FF0700"/>
<rect x="8.5" y="20.5" width="1" height="1" fill="#FF0700"/>
<rect x="8.5" y="21.5" width="1" height="1" fill="#FF0700"/>
<rect x="8.5" y="22.5" width="1" height="1" fill="#FF0700"/>
<rect x="8.5" y="23.5" width="1" height="1" fill="#FF0700"/>
<rect x="6.5" y="15.5" width="1" height="1" fill="#AA0E03"/>
<rect x="6.5" y="16.5" width="1" height="1" fill="#FF0700"/>
<rect x="6.5" y="17.5" width="1" height="1" fill="#FF0700"/>
<rect x="6.5" y="18.5" width="1" height="1" fill="#FF0700"/>
<rect x="6.5" y="19.5" width="1" height="1" fill="#FF0700"/>
<rect x="6.5" y="20.5" width="1" height="1" fill="#FF0700"/>
<rect x="6.5" y="21.5" width="1" height="1" fill="#FF0700"/>
<rect x="6.5" y="22.5" width="1" height="1" fill="#FF0700"/>
<rect x="6.5" y="23.5" width="1" height="1" fill="#AA0E03"/>
<rect x="22.5" y="15.5" width="1" height="1" fill="#AA0E03"/>
<rect x="22.5" y="16.5" width="1" height="1" fill="#FF0700"/>
<rect x="22.5" y="17.5" width="1" height="1" fill="#FF0700"/>
<rect x="22.5" y="18.5" width="1" height="1" fill="#FF0700"/>
<rect x="22.5" y="19.5" width="1" height="1" fill="#FF0700"/>
<rect x="22.5" y="20.5" width="1" height="1" fill="#FF0700"/>
<rect x="22.5" y="21.5" width="1" height="1" fill="#AA0E03"/>
<rect x="22.5" y="22.5" width="1" height="1" fill="#AA0E03"/>
<rect x="22.5" y="23.5" width="1" height="1" fill="#AA0E03"/>
<rect x="22.5" y="24.5" width="1" height="1" fill="#AA0E03"/>
<rect x="22.5" y="25.5" width="1" height="1" fill="#730E00"/>
<rect x="21.5" y="15.5" width="1" height="1" fill="#FF0700"/>
<rect x="21.5" y="16.5" width="1" height="1" fill="#FF0700"/>
<rect x="21.5" y="17.5" width="1" height="1" fill="#FF0700"/>
<rect x="21.5" y="18.5" width="1" height="1" fill="#FF0700"/>
<rect x="21.5" y="19.5" width="1" height="1" fill="#FF0700"/>
<rect x="21.5" y="20.5" width="1" height="1" fill="#FF0700"/>
<rect x="21.5" y="21.5" width="1" height="1" fill="#FF0700"/>
<rect x="21.5" y="22.5" width="1" height="1" fill="#FF0700"/>
<rect x="21.5" y="23.5" width="1" height="1" fill="#FF0700"/>
<rect x="21.5" y="24.5" width="1" height="1" fill="#AA0E03"/>
<rect x="21.5" y="25.5" width="1" height="1" fill="#AA0E03"/>
<rect x="19.5" y="15.5" width="1" height="1" fill="#FF0700"/>
<rect x="19.5" y="16.5" width="1" height="1" fill="#FF0700"/>
<rect x="19.5" y="17.5" width="1" height="1" fill="#FF0700"/>
<rect x="19.5" y="18.5" width="1" height="1" fill="#FF0700"/>
<rect x="19.5" y="19.5" width="1" height="1" fill="#FF0700"/>
<rect x="18.5" y="19.5" width="1" height="1" fill="#FF0700"/>
<rect x="19.5" y="20.5" width="1" height="1" fill="#FF0700"/>
<rect x="18.5" y="20.5" width="1" height="1" fill="#FF0700"/>
<rect x="18.5" y="21.5" width="1" height="1" fill="#FF0700"/>
<rect x="17.5" y="21.5" width="1" height="1" fill="#FF0700"/>
<rect x="16.5" y="21.5" width="1" height="1" fill="#FF0700"/>
<rect x="15.5" y="21.5" width="1" height="1" fill="#FF0700"/>
<rect x="14.5" y="21.5" width="1" height="1" fill="#FF0700"/>
<rect x="13.5" y="21.5" width="1" height="1" fill="#FF0700"/>
<rect x="12.5" y="21.5" width="1" height="1" fill="#FF0700"/>
<rect x="11.5" y="21.5" width="1" height="1" fill="#FF0700"/>
<rect x="10.5" y="21.5" width="1" height="1" fill="#FF0700"/>
<rect x="9.5" y="21.5" width="1" height="1" fill="#FF0700"/>
<rect x="18.5" y="22.5" width="1" height="1" fill="#FF0700"/>
<rect x="17.5" y="22.5" width="1" height="1" fill="#FF0700"/>
<rect x="16.5" y="22.5" width="1" height="1" fill="#FF0700"/>
<rect x="15.5" y="22.5" width="1" height="1" fill="#FF0700"/>
<rect x="14.5" y="22.5" width="1" height="1" fill="#FF0700"/>
<rect x="13.5" y="22.5" width="1" height="1" fill="#FF0700"/>
<rect x="12.5" y="22.5" width="1" height="1" fill="#FF0700"/>
<rect x="11.5" y="22.5" width="1" height="1" fill="#FF0700"/>
<rect x="10.5" y="22.5" width="1" height="1" fill="#FF0700"/>
<rect x="9.5" y="22.5" width="1" height="1" fill="#FF0700"/>
<rect x="18.5" y="23.5" width="1" height="1" fill="#FF0700"/>
<rect x="17.5" y="23.5" width="1" height="1" fill="#FF0700"/>
<rect x="16.5" y="23.5" width="1" height="1" fill="#FF0700"/>
<rect x="15.5" y="23.5" width="1" height="1" fill="#FF0700"/>
<rect x="14.5" y="23.5" width="1" height="1" fill="#FF0700"/>
<rect x="13.5" y="23.5" width="1" height="1" fill="#FF0700"/>
<rect x="12.5" y="23.5" width="1" height="1" fill="#FF0700"/>
<rect x="11.5" y="23.5" width="1" height="1" fill="#FF0700"/>
<rect x="10.5" y="23.5" width="1" height="1" fill="#FF0700"/>
<rect x="9.5" y="23.5" width="1" height="1" fill="#FF0700"/>
<rect x="18.5" y="24.5" width="1" height="1" fill="#FF0700"/>
<rect x="17.5" y="24.5" width="1" height="1" fill="#FF0700"/>
<rect x="16.5" y="24.5" width="1" height="1" fill="#FF0700"/>
<rect x="15.5" y="24.5" width="1" height="1" fill="#FF0700"/>
<rect x="14.5" y="24.5" width="1" height="1" fill="#FF0700"/>
<rect x="13.5" y="24.5" width="1" height="1" fill="#FF0700"/>
<rect x="12.5" y="24.5" width="1" height="1" fill="#FF0700"/>
<rect x="11.5" y="24.5" width="1" height="1" fill="#FF0700"/>
<rect x="10.5" y="24.5" width="1" height="1" fill="#FF0700"/>
<rect x="9.5" y="24.5" width="1" height="1" fill="#FF0700"/>
<rect x="18.5" y="25.5" width="1" height="1" fill="#AA0E03"/>
<rect x="17.5" y="25.5" width="1" height="1" fill="#AA0E03"/>
<rect x="16.5" y="25.5" width="1" height="1" fill="#AA0E03"/>
<rect x="15.5" y="25.5" width="1" height="1" fill="#AA0E03"/>
<rect x="14.5" y="25.5" width="1" height="1" fill="#AA0E03"/>
<rect x="13.5" y="25.5" width="1" height="1" fill="#AA0E03"/>
<rect x="12.5" y="25.5" width="1" height="1" fill="#AA0E03"/>
<rect x="11.5" y="25.5" width="1" height="1" fill="#AA0E03"/>
<rect x="10.5" y="25.5" width="1" height="1" fill="#AA0E03"/>
<rect x="9.5" y="25.5" width="1" height="1" fill="#AA0E03"/>
<rect x="19.5" y="21.5" width="1" height="1" fill="#FF0700"/>
<rect x="19.5" y="22.5" width="1" height="1" fill="#FF0700"/>
<rect x="19.5" y="23.5" width="1" height="1" fill="#FF0700"/>
<rect x="19.5" y="24.5" width="1" height="1" fill="#FF0700"/>
<rect x="19.5" y="25.5" width="1" height="1" fill="#AA0E03"/>
<rect x="17.5" y="15.5" width="1" height="1" fill="#FF0700"/>
<rect x="17.5" y="16.5" width="1" height="1" fill="#AA0E03"/>
<rect x="17.5" y="17.5" width="1" height="1" fill="#FF0700"/>
<rect x="15.5" y="15.5" width="1" height="1" fill="#FF0700"/>
<rect x="15.5" y="16.5" width="1" height="1" fill="#AA0E03"/>
<rect x="15.5" y="17.5" width="1" height="1" fill="#FF0700"/>
<rect x="13.5" y="15.5" width="1" height="1" fill="#FF0700"/>
<rect x="13.5" y="16.5" width="1" height="1" fill="#FF0700"/>
<rect x="13.5" y="17.5" width="1" height="1" fill="#FF0700"/>
<rect x="13.5" y="18.5" width="1" height="1" fill="#FF0700"/>
<rect x="13.5" y="19.5" width="1" height="1" fill="#FF0700"/>
<rect x="14.5" y="19.5" width="1" height="1" fill="#FF0700"/>
<rect x="15.5" y="19.5" width="1" height="1" fill="#FF0700"/>
<rect x="13.5" y="20.5" width="1" height="1" fill="#FF0700"/>
<rect x="14.5" y="20.5" width="1" height="1" fill="#FF0700"/>
<rect x="15.5" y="20.5" width="1" height="1" fill="#FF0700"/>
<rect x="11.5" y="15.5" width="1" height="1" fill="#FF0700"/>
<rect x="11.5" y="16.5" width="1" height="1" fill="#FF0700"/>
<rect x="11.5" y="17.5" width="1" height="1" fill="#FF0700"/>
<rect x="11.5" y="18.5" width="1" height="1" fill="#FF0700"/>
<rect x="11.5" y="19.5" width="1" height="1" fill="#FF0700"/>
<rect x="11.5" y="20.5" width="1" height="1" fill="#FF0700"/>
<rect x="9.5" y="15.5" width="1" height="1" fill="#FF0700"/>
<rect x="9.5" y="16.5" width="1" height="1" fill="#FF0700"/>
<rect x="9.5" y="17.5" width="1" height="1" fill="#FF0700"/>
<rect x="9.5" y="18.5" width="1" height="1" fill="#FF0700"/>
<rect x="9.5" y="19.5" width="1" height="1" fill="#FF0700"/>
<rect x="9.5" y="20.5" width="1" height="1" fill="#FF0700"/>
<rect x="7.49402" y="15.5" width="1.01202" height="1" fill="#FF0700"/>
<rect x="7.5" y="16.5" width="1" height="1" fill="#FF0700"/>
<rect x="7.5" y="17.5" width="1" height="1" fill="#FF0700"/>
<rect x="7.5" y="18.5" width="1" height="1" fill="#FF0700"/>
<rect x="7.5" y="19.5" width="1" height="1" fill="#FF0700"/>
<rect x="7.5" y="20.5" width="1" height="1" fill="#FF0700"/>
<rect x="7.5" y="21.5" width="1" height="1" fill="#FF0700"/>
<rect x="7.5" y="22.5" width="1" height="1" fill="#FF0700"/>
<rect x="7.5" y="23.5" width="1" height="1" fill="#AA0E03"/>
<rect width="1" height="1" transform="matrix(-1 0 0 1 0.5 6.5)" fill="#AA0E03"/>
<rect x="27.5" y="7.5" width="1" height="1" fill="#FF0700"/>
<rect width="1" height="1" transform="matrix(-1 0 0 1 1.5 5.5)" fill="#AA0E03"/>
<rect x="27.5" y="6.5" width="1" height="1" fill="#FF0700"/>
<rect width="1" height="1" transform="matrix(-1 0 0 1 1.5 4.5)" fill="#AA0E03"/>
<rect x="26.5" y="6.5" width="1" height="1" fill="#FF0700"/>
<rect width="1" height="1" transform="matrix(-1 0 0 1 2.5 4.5)" fill="#FF0700"/>
<rect x="25.5" y="9.5" width="1" height="1" fill="#FF514C"/>
<rect width="1" height="1" transform="matrix(-1 0 0 1 3.5 7.5)" fill="#FF514C"/>
<rect x="25.5" y="7.5" width="1" height="1" fill="#FF514C"/>
<rect width="1" height="1" transform="matrix(-1 0 0 1 3.5 5.5)" fill="#FF514C"/>
<rect x="25.5" y="5.5" width="1" height="1" fill="#FF514C"/>
<rect width="1" height="1" transform="matrix(-1 0 0 1 3.5 3.5)" fill="#FF514C"/>
<rect x="26.5" y="4.5" width="1" height="1" fill="#FF514C"/>
<rect width="1" height="1" transform="matrix(-1 0 0 1 2.5 2.5)" fill="#FF514C"/>
<rect width="1" height="1" transform="matrix(-1 0 0 1 2.5 1.5)" fill="#FF514C"/>
<rect x="27.5" y="4.5" width="1" height="1" fill="#FF0700"/>
<rect x="27.5" y="3.5" width="1" height="1" fill="#FF514C"/>
<rect x="27.5" y="2.5" width="1" height="1" fill="#FF514C"/>
<rect x="26.5" y="3.5" width="1" height="1" fill="#FF514C"/>
<rect width="1" height="1" transform="matrix(-1 0 0 1 1.5 2.5)" fill="#AA0E03"/>
<rect width="1" height="1" transform="matrix(-1 0 0 1 1.5 1.5)" fill="#FF514C"/>
<rect width="1" height="1" transform="matrix(-1 0 0 1 1.5 0.5)" fill="#FF514C"/>
<rect x="31.5" y="3.5" width="1" height="1" fill="#AA0E03"/>
<rect x="31.5" y="4.5" width="1" height="1" fill="#AA0E03"/>
<rect x="31.5" y="5.5" width="1" height="1" fill="#AA0E03"/>
<rect x="31.5" y="6.5" width="1" height="1" fill="#AA0E03"/>
<rect x="31.5" y="7.5" width="1" height="1" fill="#AA0E03"/>
<rect x="31.5" y="8.5" width="1" height="1" fill="#AA0E03"/>
<rect x="30.5" y="8.5" width="1" height="1" fill="#730E00"/>
<rect x="29.5" y="8.5" width="1" height="1" fill="#730E00"/>
<rect x="28.5" y="7.5" width="1" height="1" fill="#730E00"/>
<rect x="31.5" y="2.5" width="1" height="1" fill="#FF514C"/>
<rect x="31.5" y="14.5" width="1" height="1" fill="#730E00"/>
<rect x="31.5" y="13.5" width="1" height="1" fill="#730E00"/>
<rect x="31.5" y="12.5" width="1" height="1" fill="#AA0E03"/>
<rect x="31.5" y="11.5" width="1" height="1" fill="#FF0700"/>
<rect x="31.5" y="10.5" width="1" height="1" fill="#FF0700"/>
<rect x="26.5" y="19.5" width="1" height="1" fill="#AA0E03"/>
<rect width="1" height="1" transform="matrix(-1 0 0 1 3.5 17.5)" fill="#AA0E03"/>
<rect width="1" height="1" transform="matrix(-1 0 0 1 2.5 16.5)" fill="#3E0800"/>
<rect width="1" height="1" transform="matrix(-1 0 0 1 1.5 16.5)" fill="#730E00"/>
<rect width="1" height="1" transform="matrix(-1 0 0 1 0.5 16.5)" fill="#730E00"/>
<rect width="1" height="1" transform="matrix(-1 0 0 1 12 11.5)" fill="#730E00"/>
<rect width="1" height="1" transform="matrix(-1 0 0 1 20 11.5)" fill="#730E00"/>
<rect width="1" height="1" transform="matrix(-1 0 0 1 11 11.5)" fill="#730E00"/>
<rect width="1" height="1" transform="matrix(-1 0 0 1 19 11.5)" fill="#730E00"/>
<rect width="1" height="1" transform="matrix(-1 0 0 1 10 10.5)" fill="#730E00"/>
<rect width="1" height="1" transform="matrix(-1 0 0 1 18 10.5)" fill="#730E00"/>
<rect width="1" height="1" transform="matrix(-1 0 0 1 11 10.5)" fill="#730E00"/>
<rect width="1" height="1" transform="matrix(-1 0 0 1 19 10.5)" fill="#730E00"/>
<rect width="1" height="1" transform="matrix(-1 0 0 1 12 10.5)" fill="#271816"/>
<rect width="1" height="1" transform="matrix(-1 0 0 1 20 10.5)" fill="#271816"/>
<rect width="1" height="1" transform="matrix(-1 0 0 1 13 10.5)" fill="#271816"/>
<rect width="1" height="1" transform="matrix(-1 0 0 1 21 10.5)" fill="#271816"/>
<rect width="1" height="1" transform="matrix(-1 0 0 1 10 9.5)" fill="#730E00"/>
<rect width="1" height="1" transform="matrix(-1 0 0 1 18 9.5)" fill="#730E00"/>
<rect width="1" height="1" transform="matrix(-1 0 0 1 11 9.5)" fill="#271816"/>
<rect width="1" height="1" transform="matrix(-1 0 0 1 19 9.5)" fill="#271816"/>
<rect width="1" height="1" transform="matrix(-1 0 0 1 12 9.5)" fill="#DECDBF"/>
<rect width="1" height="1" transform="matrix(-1 0 0 1 20 9.5)" fill="#DECDBF"/>
<rect width="1" height="1" transform="matrix(-1 0 0 1 13 9.5)" fill="#DECDBF"/>
<rect width="1" height="1" transform="matrix(-1 0 0 1 21 9.5)" fill="#DECDBF"/>
<rect width="1" height="1" transform="matrix(-1 0 0 1 10 8.5)" fill="#730E00"/>
<rect width="1" height="1" transform="matrix(-1 0 0 1 18 8.5)" fill="#730E00"/>
<rect width="1" height="1" transform="matrix(-1 0 0 1 11 8.5)" fill="#271816"/>
<rect width="1" height="1" transform="matrix(-1 0 0 1 19 8.5)" fill="#271816"/>
<rect width="1" height="1" transform="matrix(-1 0 0 1 12 8.5)" fill="#DECDBF"/>
<rect width="1" height="1" transform="matrix(-1 0 0 1 20 8.5)" fill="#DECDBF"/>
<rect width="1" height="1" transform="matrix(-1 0 0 1 13 8.5)" fill="white"/>
<rect width="1" height="1" transform="matrix(-1 0 0 1 21 8.5)" fill="white"/>
<rect width="1" height="1" transform="matrix(-1 0 0 1 10 7.5)" fill="#730E00"/>
<rect width="1" height="1" transform="matrix(-1 0 0 1 18 7.5)" fill="#730E00"/>
<rect width="1" height="1" transform="matrix(-1 0 0 1 11 7.5)" fill="#271816"/>
<rect width="1" height="1" transform="matrix(-1 0 0 1 19 7.5)" fill="#271816"/>
<rect width="1" height="1" transform="matrix(-1 0 0 1 12 7.5)" fill="white"/>
<rect width="1" height="1" transform="matrix(-1 0 0 1 20 7.5)" fill="white"/>
<rect width="1" height="1" transform="matrix(-1 0 0 1 13 7.5)" fill="white"/>
<rect width="1" height="1" transform="matrix(-1 0 0 1 21 7.5)" fill="white"/>
<rect width="1" height="1" transform="matrix(-1 0 0 1 14 7.5)" fill="#271816"/>
<rect width="1" height="1" transform="matrix(-1 0 0 1 22 7.5)" fill="#271816"/>
<rect width="1" height="1" transform="matrix(-1 0 0 1 13 6.5)" fill="#AA0E03"/>
<rect width="1" height="1" transform="matrix(-1 0 0 1 21 6.5)" fill="#AA0E03"/>
<rect width="1" height="1" transform="matrix(-1 0 0 1 12 6.5)" fill="#AA0E03"/>
<rect width="1" height="1" transform="matrix(-1 0 0 1 20 6.5)" fill="#AA0E03"/>
<rect width="1" height="1" transform="matrix(-1 0 0 1 11 6.5)" fill="#FF0700"/>
<rect width="1" height="1" transform="matrix(-1 0 0 1 19 6.5)" fill="#FF0700"/>
<rect width="1" height="1" transform="matrix(-1 0 0 1 14 8.5)" fill="#271816"/>
<rect width="1" height="1" transform="matrix(-1 0 0 1 22 8.5)" fill="#271816"/>
<rect width="1" height="1" transform="matrix(-1 0 0 1 14 9.5)" fill="#271816"/>
<rect width="1" height="1" transform="matrix(-1 0 0 1 22 9.5)" fill="#271816"/>
<rect width="1" height="1" transform="matrix(-1 0 0 1 14 10.5)" fill="#730E00"/>
<rect width="1" height="1" transform="matrix(-1 0 0 1 22 10.5)" fill="#730E00"/>
<rect width="1" height="1" transform="matrix(-1 0 0 1 13 11.5)" fill="#730E00"/>
<rect width="1" height="1" transform="matrix(-1 0 0 1 21 11.5)" fill="#730E00"/>
<rect x="26.5" y="20.5" width="1" height="1" fill="#AA0E03"/>
<rect width="1" height="1" transform="matrix(-1 0 0 1 3.5 18.5)" fill="#AA0E03"/>
<rect x="27.5" y="19.5" width="1" height="1" fill="#730E00"/>
<rect width="1" height="1" transform="matrix(-1 0 0 1 2.5 17.5)" fill="#730E00"/>
<rect x="27.5" y="21.5" width="1" height="1" fill="#AA0E03"/>
<rect width="1" height="1" transform="matrix(-1 0 0 1 3.5 19.5)" fill="#AA0E03"/>
<rect x="28.5" y="21.5" width="1" height="1" fill="#AA0E03"/>
<rect width="1" height="1" transform="matrix(-1 0 0 1 2.5 19.5)" fill="#3E0800"/>
<rect x="27.5" y="20.5" width="1" height="1" fill="#AA0E03"/>
<rect width="1" height="1" transform="matrix(-1 0 0 1 2.5 18.5)" fill="#730E00"/>
<rect x="29.5" y="21.5" width="1" height="1" fill="#AA0E03"/>
<rect x="28.5" y="20.5" width="1" height="1" fill="#730E00"/>
<rect x="30.5" y="21.5" width="1" height="1" fill="#FF0700"/>
<rect x="29.5" y="20.5" width="1" height="1" fill="#FF0700"/>
<rect x="31.5" y="21.5" width="1" height="1" fill="#FF0700"/>
<rect x="30.5" y="20.5" width="1" height="1" fill="#FF0700"/>
<rect x="31.5" y="20.5" width="1" height="1" fill="#FF0700"/>
</svg>
