<svg width="30" height="18" viewBox="0 0 30 18" fill="none" xmlns="http://www.w3.org/2000/svg">
<rect x="4" y="16" width="2" height="2" fill="#98B384"/>
<rect x="2" y="14" width="2" height="2" fill="#98B384"/>
<rect y="14" width="2" height="2" fill="#98B384"/>
<rect x="8" y="14" width="2" height="2" fill="#98B384"/>
<rect x="6" y="10" width="2" height="2" fill="#98B384"/>
<rect x="4" y="6" width="2" height="2" fill="#C7E8A8"/>
<rect x="2" y="2" width="2" height="2" fill="#C7E8A8"/>
<rect x="10" y="16" width="2" height="2" fill="#98B384"/>
<rect x="8" y="12" width="2" height="2" fill="#98B384"/>
<rect x="6" y="8" width="2" height="2" fill="#98B384"/>
<rect x="2" y="4" width="2" height="2" fill="#C7E8A8"/>
<rect width="2" height="2" fill="#C7E8A8"/>
<rect x="16" y="16" width="2" height="2" fill="#98B384"/>
<rect x="14" y="14" width="2" height="2" fill="#98B384"/>
<rect x="12" y="12" width="2" height="2" fill="#98B384"/>
<rect x="10" y="10" width="2" height="2" fill="#98B384"/>
<rect x="10" y="8" width="2" height="2" fill="#C7E8A8"/>
<rect x="12" y="6" width="2" height="2" fill="#98B384"/>
<rect x="12" y="4" width="2" height="2" fill="#C7E8A8"/>
<rect x="22" y="16" width="2" height="2" fill="#98B384"/>
<rect x="22" y="16" width="2" height="2" fill="#98B384"/>
<rect x="22" y="14" width="2" height="2" fill="#C7E8A8"/>
<rect x="24" y="12" width="2" height="2" fill="#C7E8A8"/>
<rect x="26" y="12" width="2" height="2" fill="#C7E8A8"/>
<rect x="26" y="14" width="2" height="2" fill="#98B384"/>
</svg>
